<?xml version="1.0" standalone="no"?>
<!DOCTYPE svg PUBLIC "-//W3C//DTD SVG 1.0//EN" "http://www.w3.org/TR/2001/REC-SVG-20010904/DTD/svg10.dtd">
<svg xmlns="http://www.w3.org/2000/svg" xmlns:xlink="http://www.w3.org/1999/xlink" id="body_1" width="1121" height="793">

<defs>
    <clipPath  id="1">

    <path id=""  clip-rule="evenodd" transform="matrix(1 0 0 1 0 0)"  d="M0 595L0 -0.276001L0 -0.276001L841.89 -0.276001L841.89 -0.276001L841.89 595L841.89 595L0 595z" />    </clipPath>
    <clipPath  id="2">

    <path id=""  clip-rule="evenodd" transform="matrix(1 0 0 1 0 0)"  d="M613.6882 161.8882L611.8712 162.0698L611.8712 162.0698L610.7812 162.2515L610.7812 162.2515L609.5093 162.4332L609.5093 162.4332L606.6024 163.1599L606.6024 163.1599L603.8771 164.0684L603.8771 164.0684L603.5137 164.2501L603.5137 164.2501L602.9686 164.4317L602.9686 164.4317L601.5151 165.1585L601.5151 165.1585L600.9701 165.3402L600.9701 165.3402L599.88 165.8852L599.88 165.8852L599.6983 166.067L599.6983 166.067L598.9715 166.4303L598.9715 166.4303L598.7899 166.6119L598.7899 166.6119L597.6998 167.1571L597.6998 167.1571L597.3364 167.5204L597.3364 167.5204L596.973 167.7021L596.973 167.7021L596.6097 168.0654L596.6097 168.0654L596.2462 168.2471L596.2462 168.2471L595.8829 168.6106L595.8829 168.6106L595.5195 168.7922L595.5195 168.7922L594.066 170.2456L594.066 170.2456L593.7027 170.4273L593.7027 170.4273L592.4309 171.6992L592.4309 171.6992L592.2492 172.0626L592.2492 172.0626L590.614 173.6978L590.614 173.6978L590.4323 174.0611L590.4323 174.0611L590.069 174.4244L590.069 174.4244L589.8873 174.7879L589.8873 174.7879L589.7056 174.9695L589.7056 174.9695L589.5239 175.3329L589.5239 175.3329L589.1606 175.6963L589.1606 175.6963L588.9788 176.0595L588.9788 176.0595L588.7971 176.2413L588.7971 176.2413L588.6154 176.6046L588.6154 176.6046L588.4338 176.7863L588.4338 176.7863L588.2521 177.1497L588.2521 177.1497L588.0704 177.3315L588.0704 177.3315L587.707 178.0582L587.707 178.0582L587.5254 178.2398L587.5254 178.2398L587.3436 178.6032L587.3436 178.6032L587.162 178.7849L587.162 178.7849L586.2535 180.6018L586.2535 180.6018L586.0718 181.1468L586.0718 181.1468L585.5268 182.237L585.5268 182.237L584.6184 184.9623L584.6184 184.9623L584.4367 185.689L584.4367 185.689L584.2551 186.2339L584.2551 186.2339L583.8917 187.6875L583.8917 187.6875L583.71 188.7776L583.71 188.7776L583.5282 190.0495L583.5282 190.0495L583.3466 192.2297L583.3466 192.2297L583.3466 196.4084L583.3466 196.4084L583.5282 196.4084L583.5282 196.4084L583.5282 198.5887L583.5282 198.5887L583.71 198.5887L583.71 198.5887L583.71 200.0422L583.71 200.0422L583.8917 200.0422L583.8917 200.0422L583.8917 201.1324L583.8917 201.1324L584.0732 201.1324L584.0732 201.1324L584.0732 201.6774L584.0732 201.6774L584.2551 201.6774L584.2551 201.6774L584.2551 202.4041L584.2551 202.4041L584.4367 202.4041L584.4367 202.4041L584.4367 202.9491L584.4367 202.9491L584.6184 202.9491L584.6184 202.9491L584.6184 203.6759L584.6184 203.6759L584.8001 203.6759L584.8001 203.6759L584.8001 204.2209L584.8001 204.2209L584.9818 204.2209L584.9818 204.2209L584.9818 204.7661L584.9818 204.7661L585.1634 204.7661L585.1634 204.7661L585.1634 205.3111L585.1634 205.3111L585.3452 205.3111L585.3452 205.3111L585.3452 205.8562L585.3452 205.8562L585.5268 205.8562L585.5268 205.8562L585.5268 206.4012L585.5268 206.4012L585.7085 206.4012L585.7085 206.4012L585.7085 206.9463L585.7085 206.9463L585.8901 206.9463L585.8901 206.9463L585.8901 207.3096L585.8901 207.3096L586.0718 207.3096L586.0718 207.3096L586.0718 207.6729L586.0718 207.6729L586.2535 207.6729L586.2535 207.6729L586.2535 208.0364L586.2535 208.0364L586.4352 208.0364L586.4352 208.0364L586.4352 208.3997L586.4352 208.3997L586.6169 208.3997L586.6169 208.3997L586.6169 208.7631L586.6169 208.7631L586.7986 208.7631L586.7986 208.7631L586.7986 209.1265L586.7986 209.1265L586.9803 209.1265L586.9803 209.1265L586.9803 209.4898L586.9803 209.4898L587.162 209.4898L587.162 209.4898L587.162 209.8532L587.162 209.8532L587.3436 209.8532L587.3436 209.8532L587.3436 210.2166L587.3436 210.2166L587.5254 210.2166L587.5254 210.2166L587.707 210.3983L587.707 210.3983L587.707 210.7617L587.707 210.7617L587.8887 210.7617L587.8887 210.7617L587.8887 211.125L587.8887 211.125L588.0704 211.125L588.0704 211.125L588.2521 211.3066L588.2521 211.3066L588.2521 211.6701L588.2521 211.6701L588.4338 211.6701L588.4338 211.6701L588.6154 211.8518L588.6154 211.8518L588.6154 212.2151L588.6154 212.2151L588.7971 212.2151L588.7971 212.2151L588.7971 212.5785L588.7971 212.5785L588.9788 212.5785L588.9788 212.5785L589.3422 212.9419L589.3422 212.9419L589.3422 213.3052L589.3422 213.3052L589.5239 213.3052L589.5239 213.3052L589.7056 213.4869L589.7056 213.4869L589.7056 213.8503L589.7056 213.8503L589.8873 213.8503L589.8873 213.8503L590.2507 214.2137L590.2507 214.2137L590.2507 214.5771L590.2507 214.5771L590.4323 214.5771L590.4323 214.5771L590.7957 214.9405L590.7957 214.9405L590.7957 215.3038L590.7957 215.3038L590.9774 215.3038L590.9774 215.3038L594.7928 219.1192L594.7928 219.1192L595.1562 219.3009L595.1562 219.3009L595.5195 219.6642L595.5195 219.6642L595.8829 219.8459L595.8829 219.8459L596.2462 220.2094L596.2462 220.2094L596.6097 220.391L596.6097 220.391L596.7914 220.5727L596.7914 220.5727L597.1547 220.7544L597.1547 220.7544L597.5181 221.1178L597.5181 221.1178L598.2449 221.4812L598.2449 221.4812L598.4265 221.6628L598.4265 221.6628L598.7899 221.8445L598.7899 221.8445L598.9715 222.0261L598.9715 222.0261L599.6983 222.3894L599.6983 222.3894L599.88 222.5712L599.88 222.5712L603.1503 224.2064L603.1503 224.2064L606.4207 225.2965L606.4207 225.2965L607.1473 225.4782L607.1473 225.4782L607.6925 225.6598L607.6925 225.6598L608.4193 225.8415L608.4193 225.8415L608.9643 226.0233L608.9643 226.0233L610.0544 226.205L610.0544 226.205L611.3263 226.3866L611.3263 226.3866L613.3248 226.5683L613.3248 226.5683L618.2303 226.7499L618.2303 226.7499L618.2303 226.5683L618.2303 226.5683L620.0471 226.3866L620.0471 226.3866L621.5006 226.205L621.5006 226.205L622.4091 226.0233L622.4091 226.0233L623.1358 225.8415L623.1358 225.8415L623.6808 225.6598L623.6808 225.6598L625.1343 225.2965L625.1343 225.2965L627.8596 224.3881L627.8596 224.3881L628.9498 223.843L628.9498 223.843L629.4948 223.6613L629.4948 223.6613L631.3117 222.7529L631.3117 222.7529L631.4934 222.5712L631.4934 222.5712L631.8568 222.3894L631.8568 222.3894L632.0384 222.2078L632.0384 222.2078L632.7651 221.8445L632.7651 221.8445L632.9468 221.6628L632.9468 221.6628L633.3102 221.4812L633.3102 221.4812L633.4919 221.2995L633.4919 221.2995L633.8552 221.1178L633.8552 221.1178L634.0369 220.936L634.0369 220.936L634.4003 220.7544L634.4003 220.7544L634.7637 220.391L634.7637 220.391L635.127 220.2094L635.127 220.2094L635.3088 220.0276L635.3088 220.0276L635.6722 219.8459L635.6722 219.8459L636.0354 219.4825L636.0354 219.4825L636.3989 219.3009L636.3989 219.3009L637.8524 217.8474L637.8524 217.8474L638.2156 217.6656L638.2156 217.6656L639.3058 216.5755L639.3058 216.5755L639.4875 216.2122L639.4875 216.2122L640.941 214.7588L640.941 214.7588L641.1227 214.3954L641.1227 214.3954L641.3044 214.2137L641.3044 214.2137L641.4861 213.8503L641.4861 213.8503L641.6678 213.6686L641.6678 213.6686L641.8495 213.3052L641.8495 213.3052L642.0312 213.1236L642.0312 213.1236L642.2128 212.7602L642.2128 212.7602L642.5762 212.3968L642.5762 212.3968L642.9395 211.6701L642.9395 211.6701L643.1212 211.4884L643.1212 211.4884L643.4846 210.7617L643.4846 210.7617L643.6662 210.58L643.6662 210.58L644.0296 209.8532L644.0296 209.8532L644.2113 209.6715L644.2113 209.6715L645.3015 207.4913L645.3015 207.4913L645.4832 206.9463L645.4832 206.9463L645.6649 206.5828L645.6649 206.5828L646.0283 205.4927L646.0283 205.4927L646.21 205.1294L646.21 205.1294L646.5732 204.0392L646.5732 204.0392L646.755 203.3125L646.755 203.3125L646.9367 202.7675L646.9367 202.7675L647.3 201.3139L647.3 201.3139L647.4817 200.4056L647.4817 200.4056L647.6635 199.3155L647.6635 199.3155L647.8451 198.0436L647.8451 198.0436L648.0268 196.2268L648.0268 196.2268L648.2084 192.4114L648.2084 192.4114L648.0268 192.4114L648.0268 192.4114L648.0268 190.5944L648.0268 190.5944L647.8451 190.5944L647.8451 190.5944L647.8451 189.5044L647.8451 189.5044L647.6635 189.5044L647.6635 189.5044L647.6635 188.2326L647.6635 188.2326L647.4817 188.2326L647.4817 188.2326L647.4817 187.5058L647.4817 187.5058L647.3 187.5058L647.3 187.5058L647.3 186.7791L647.3 186.7791L647.1183 186.7791L647.1183 186.7791L647.1183 186.0524L647.1183 186.0524L646.9367 186.0524L646.9367 186.0524L646.9367 185.3256L646.9367 185.3256L646.755 185.3256L646.755 185.3256L646.755 184.5988L646.755 184.5988L646.5732 184.5988L646.5732 184.5988L646.5732 184.0539L646.5732 184.0539L646.3917 184.0539L646.3917 184.0539L646.3917 183.6905L646.3917 183.6905L646.21 183.6905L646.21 183.6905L646.21 183.1454L646.21 183.1454L646.0283 183.1454L646.0283 183.1454L646.0283 182.6003L646.0283 182.6003L645.8465 182.6003L645.8465 182.6003L645.8465 182.0552L645.8465 182.0552L645.6649 182.0552L645.6649 182.0552L645.6649 181.6919L645.6649 181.6919L645.4832 181.6919L645.4832 181.6919L645.4832 181.3285L645.4832 181.3285L645.3015 181.3285L645.3015 181.3285L645.3015 180.9651L645.3015 180.9651L645.1198 180.9651L645.1198 180.9651L645.1198 180.6018L645.1198 180.6018L644.9381 180.6018L644.9381 180.6018L644.9381 180.2383L644.9381 180.2383L644.7564 180.2383L644.7564 180.2383L644.7564 179.875L644.7564 179.875L644.5748 179.875L644.5748 179.875L644.5748 179.5117L644.5748 179.5117L644.3931 179.5117L644.3931 179.5117L644.3931 179.1482L644.3931 179.1482L644.2113 179.1482L644.2113 179.1482L644.2113 178.7849L644.2113 178.7849L644.0296 178.7849L644.0296 178.7849L644.0296 178.4216L644.0296 178.4216L643.8479 178.2398L643.8479 178.2398L643.6662 178.2398L643.6662 178.2398L643.6662 177.8765L643.6662 177.8765L643.4846 177.6948L643.4846 177.6948L643.3029 177.6948L643.3029 177.6948L643.3029 177.3315L643.3029 177.3315L643.1212 177.3315L643.1212 177.3315L643.1212 176.9681L643.1212 176.9681L642.9395 176.7863L642.9395 176.7863L642.7579 176.7863L642.7579 176.7863L642.7579 176.423L642.7579 176.423L642.5762 176.2413L642.5762 176.2413L642.3945 176.2413L642.3945 176.2413L642.3945 175.878L642.3945 175.878L642.2128 175.6963L642.2128 175.6963L642.0312 175.6963L642.0312 175.6963L642.0312 175.3329L642.0312 175.3329L641.8495 175.1512L641.8495 175.1512L641.6678 175.1512L641.6678 175.1512L641.6678 174.7879L641.6678 174.7879L641.3044 174.4244L641.3044 174.4244L641.1227 174.4244L641.1227 174.4244L641.1227 174.0611L641.1227 174.0611L640.5776 173.5161L640.5776 173.5161L640.3959 173.5161L640.3959 173.5161L640.3959 173.1526L640.3959 173.1526L636.3989 169.1556L636.3989 169.1556L636.0354 168.9739L636.0354 168.9739L635.6722 168.6106L635.6722 168.6106L635.3088 168.4289L635.3088 168.4289L634.9453 168.0654L634.9453 168.0654L634.582 167.8838L634.582 167.8838L634.2186 167.5204L634.2186 167.5204L633.8552 167.3387L633.8552 167.3387L633.6735 167.1571L633.6735 167.1571L632.9468 166.7936L632.9468 166.7936L632.7651 166.6119L632.7651 166.6119L632.0384 166.2486L632.0384 166.2486L631.8568 166.067L631.8568 166.067L629.6765 164.9769L629.6765 164.9769L629.1315 164.7952L629.1315 164.7952L628.0413 164.2501L628.0413 164.2501L625.8611 163.5233L625.8611 163.5233L625.4977 163.3416L625.4977 163.3416L621.864 162.4332L621.864 162.4332L619.6838 162.0698L619.6838 162.0698L617.8669 161.8882L617.8669 161.8882L613.6882 161.8882z" />    </clipPath>
</defs>

<g transform="matrix(1.3333 0 0 1.3333 0 0)">
	<g clip-path="url(#1)" >
    <path id=""  transform="matrix(1 0 0 -1 0 595)"  d="M417.4447 259.3975C 398.7197 261.7708 380.5397 264.496 362.9048 267.5847C 360.1795 263.2242 357.6246 258.8524 354.8993 254.6736C 373.9877 251.585 393.4508 248.6667 413.6293 246.1231C 447.9906 241.7626 481.2618 238.4809 512.5345 236.3007C 510.8994 241.2175 509.2642 246.1231 507.4474 251.0399C 479.2633 252.4934 448.899 255.4004 417.4447 259.3975zM655.2602 309.7813C 677.4373 299.0504 689.6216 288.1379 688.3497 278.3155C 685.4314 256.6722 617.4354 246.3047 522.709 250.3132C 524.3555 245.2146 526.1724 240.3091 527.8075 235.2105C 646.5279 228.3065 732.5221 237.5725 735.4291 261.2257C 737.2573 275.7719 706.7114 293.2251 655.2602 309.7813zM339.808 257.2173C 202.3626 280.6775 102.5489 315.7769 105.8193 341.7921C 107.8178 357.2467 145.8242 366.7057 205.2696 369.2493C 178.0053 364.3438 161.2675 356.52 159.9957 346.1525C 156.9071 321.7839 236.724 290.6815 347.9952 270.1283C 345.27 265.7679 342.5446 261.4074 339.808 257.2173z" stroke="none" fill="#6DC154" fill-rule="nonzero" />
    <path id=""  transform="matrix(1 0 0 -1 0 595)"  d="M238.3591 41.52195C 250.3618 33.15304 280.181 52.07108 318.7211 89.89582C 298.906 75.34959 283.633 69.52429 275.6274 75.34959C 251.4519 92.07605 300.3594 203.5631 384.9002 323.9641C 469.2592 444.3651 557.2633 528.3948 581.439 511.4753C 590.1713 505.298 589.2628 487.1067 580.8939 460.5578C 606.1709 514.3823 615.6187 552.4001 602.8892 561.314C 577.6235 579.1306 475.6296 477.1026 374.8961 333.4231C 274.3557 189.9253 213.0934 59.15684 238.3591 41.52195z" stroke="none" fill="#6DC154" fill-rule="nonzero" />
    <path id=""  transform="matrix(1 0 0 -1 0 595)"  d="M550.1661 3.32252C 536.5283 -2.128058 511.9893 22.96731 482.7152 68.43421C 498.8966 49.87954 512.5344 40.97693 521.6187 44.61065C 548.8943 55.70485 526.1722 175.1974 470.8942 311.4164C 415.8093 447.8171 348.9035 549.4931 321.6279 538.3989C 311.8169 534.3904 308.5352 516.3922 310.7267 488.7419C 298.179 546.9382 297.4523 586.046 311.9985 591.86C 340.5346 603.4992 417.0811 481.0997 482.8969 318.5135C 548.5309 156.0977 578.8951 14.96177 550.1661 3.32252z" stroke="none" fill="#6DC154" fill-rule="nonzero" />
		<g clip-path="url(#2)" >
    <path id=""  transform="matrix(1 0 0 -1 0 595)"  d="M647.0729 400.7037C 647.0729 399.7953 647.0729 398.7051 646.8912 397.615C 646.8912 396.7066 646.7096 395.6165 646.5279 394.5264C 646.3462 393.6179 646.1645 392.5278 645.8011 391.6194C 645.4377 390.6996 645.0744 389.6095 644.711 388.701C 644.3477 387.7926 643.9843 386.8842 643.4392 385.9758C 642.8942 385.0673 642.3491 384.1589 641.804 383.2505C 641.259 382.342 640.7139 381.6153 639.9872 380.7069C 639.2604 379.9801 638.7154 379.242 637.9773 378.5153C 637.2505 377.7885 636.3421 377.0618 635.6154 376.3351C 634.8886 375.79 633.9802 375.0632 633.0718 374.5182C 632.345 373.9731 631.4366 373.4281 630.5281 373.0647C 629.6198 372.5197 628.7113 371.9746 627.6212 371.6112C 626.7128 371.2478 625.8043 370.8845 624.7142 370.7028C 623.8058 370.3394 622.8973 370.1577 621.7959 369.7944C 620.7057 369.6127 619.7974 369.6127 618.7072 369.431C 617.7988 369.2493 616.7087 369.2493 615.6185 369.2493C 614.7101 369.2493 613.62 369.2493 612.5299 369.431C 611.6215 369.6127 610.5314 369.6127 609.4412 369.7944C 608.5328 370.1577 607.4427 370.3394 606.5342 370.7028C 605.6259 370.8845 604.5244 371.2478 603.616 371.6112C 602.7075 371.9746 601.7991 372.5197 600.8906 373.0647C 599.9822 373.4281 599.0738 373.9731 598.1653 374.5182C 597.257 375.0632 596.5302 375.79 595.6218 376.3351C 594.895 377.0618 594.1683 377.7885 593.4415 378.5153C 592.7148 379.242 591.988 379.9801 591.2613 380.7069C 590.7162 381.6153 589.9895 382.342 589.4445 383.2505C 588.888 384.1589 588.343 385.0673 587.9796 385.9758C 587.4345 386.8842 586.8895 387.7926 586.5261 388.701C 586.1627 389.6095 585.7994 390.6996 585.6177 391.6194C 585.2543 392.5278 585.0726 393.6179 584.7092 394.5264C 584.5275 395.6165 584.3459 396.7066 584.3459 397.615C 584.1642 398.7051 584.1642 399.7953 584.1642 400.7037C 584.1642 401.7938 584.1642 402.8953 584.3459 403.8037C 584.3459 404.8938 584.5275 405.8022 584.7092 406.8924C 585.0726 407.9825 585.2543 408.8909 585.6177 409.7993C 585.7994 410.8894 586.1627 411.7979 586.5261 412.7063C 586.8895 413.8078 587.4345 414.7162 587.9796 415.6246C 588.343 416.5331 588.888 417.4415 589.4445 418.1682C 589.9895 419.0767 590.7162 419.9851 591.2613 420.7119C 591.988 421.4386 592.7148 422.347 593.4415 423.0738C 594.1683 423.8005 594.895 424.3569 595.6218 425.0836C 596.5302 425.8104 597.257 426.3555 598.1653 426.9005C 599.0738 427.4456 599.9822 427.9906 600.8906 428.5357C 601.7991 429.0807 602.7075 429.4441 603.616 429.8075C 604.5244 430.1709 605.6259 430.5342 606.5342 430.8976C 607.4427 431.261 608.5328 431.4427 609.4412 431.6244C 610.5314 431.806 611.6215 431.9877 612.5299 431.9877C 613.62 432.1694 614.7101 432.1694 615.6185 432.1694C 616.7087 432.1694 617.7988 432.1694 618.7072 431.9877C 619.7974 431.9877 620.7057 431.806 621.7959 431.6244C 622.8973 431.4427 623.8058 431.261 624.7142 430.8976C 625.8043 430.5342 626.7128 430.1709 627.6212 429.8075C 628.7113 429.4441 629.6198 429.0807 630.5281 428.5357C 631.4366 427.9906 632.345 427.4456 633.0718 426.9005C 633.9802 426.3555 634.8886 425.8104 635.6154 425.0836C 636.3421 424.3569 637.2505 423.8005 637.9773 423.0738C 638.7154 422.347 639.2604 421.4386 639.9872 420.7119C 640.7139 419.9851 641.259 419.0767 641.804 418.1682C 642.3491 417.4415 642.8942 416.5331 643.4392 415.6246C 643.9843 414.7162 644.3477 413.8078 644.711 412.7063C 645.0744 411.7979 645.4377 410.8894 645.8011 409.7993C 646.1645 408.8909 646.3462 407.9825 646.5279 406.8924C 646.7096 405.8022 646.8912 404.8938 646.8912 403.8037C 647.0729 402.8953 647.0729 401.7938 647.0729 400.7037z" stroke="none" fill="#6DC154" fill-rule="nonzero" />
		</g>
	</g>
</g>
</svg>