<?xml version="1.0" encoding="us-ascii" standalone="no"?><svg xmlns="http://www.w3.org/2000/svg" xmlns:xlink="http://www.w3.org/1999/xlink" contentStyleType="text/css" height="134px" preserveAspectRatio="none" style="width:273px;height:134px;background:#FFFFFF;" version="1.1" viewBox="0 0 273 134" width="273px" zoomAndPan="magnify"><defs/><g><!--class Singleton--><g id="elem_Singleton"><rect codeLine="1" fill="#F1F1F1" height="113.1875" id="Singleton" rx="2.5" ry="2.5" style="stroke:#181818;stroke-width:0.5;" width="252" x="7" y="7"/><ellipse cx="94.25" cy="23" fill="#ADD1B2" rx="11" ry="11" style="stroke:#181818;stroke-width:1.0;"/><path d="M96.5938,18.6719 C95.6563,18.2344 95.0625,18.0938 94.1875,18.0938 C91.5625,18.0938 89.5625,20.1719 89.5625,22.8906 L89.5625,24.0156 C89.5625,26.5938 91.6719,28.4844 94.5625,28.4844 C95.7813,28.4844 96.9375,28.1875 97.6875,27.6406 C98.2656,27.2344 98.5938,26.7813 98.5938,26.3906 C98.5938,25.9375 98.2031,25.5469 97.7344,25.5469 C97.5156,25.5469 97.3125,25.625 97.125,25.8125 C96.6719,26.2969 96.6719,26.2969 96.4844,26.3906 C96.0625,26.6563 95.375,26.7813 94.6094,26.7813 C92.5625,26.7813 91.2656,25.6875 91.2656,23.9844 L91.2656,22.8906 C91.2656,21.1094 92.5156,19.7969 94.25,19.7969 C94.8281,19.7969 95.4375,19.9531 95.9063,20.2031 C96.3906,20.4844 96.5625,20.7031 96.6563,21.1094 C96.7188,21.5156 96.75,21.6406 96.8906,21.7656 C97.0313,21.9063 97.2656,22.0156 97.4844,22.0156 C97.75,22.0156 98.0156,21.875 98.1875,21.6563 C98.2969,21.5 98.3281,21.3125 98.3281,20.8906 L98.3281,19.4688 C98.3281,19.0313 98.3125,18.9063 98.2188,18.75 C98.0625,18.4844 97.7813,18.3438 97.4844,18.3438 C97.1875,18.3438 96.9844,18.4375 96.7656,18.75 L96.5938,18.6719 Z " fill="#000000"/><text fill="#000000" font-family="sans-serif" font-size="14" lengthAdjust="spacing" textLength="69" x="114.75" y="27.8467">Singleton</text><line style="stroke:#181818;stroke-width:0.5;" x1="8" x2="258" y1="39" y2="39"/><rect fill="none" height="6" style="stroke:#C82930;stroke-width:1.0;" width="6" x="15" y="49.6484"/><text fill="#000000" font-family="sans-serif" font-size="14" lengthAdjust="spacing" textLength="191" x="27" y="55.9951">static instance: Singleton*</text><rect fill="none" height="6" style="stroke:#C82930;stroke-width:1.0;" width="6" x="15" y="65.9453"/><text fill="#000000" font-family="sans-serif" font-size="14" lengthAdjust="spacing" textLength="179" x="27" y="72.292">static mutex: std::mutex</text><line style="stroke:#181818;stroke-width:0.5;" x1="8" x2="258" y1="79.5938" y2="79.5938"/><rect fill="#F24D5C" height="6" style="stroke:#C82930;stroke-width:1.0;" width="6" x="15" y="90.2422"/><text fill="#000000" font-family="sans-serif" font-size="14" lengthAdjust="spacing" textLength="79" x="27" y="96.5889">Singleton()</text><ellipse cx="18" cy="109.5391" fill="#84BE84" rx="3" ry="3" style="stroke:#038048;stroke-width:1.0;"/><text fill="#000000" font-family="sans-serif" font-size="14" lengthAdjust="spacing" textLength="226" x="27" y="112.8857">static getInstance(): Singleton*</text></g><!--SRC=[Iyv9B2vM2CxCIyz9BSdFKwZcKb3GLIWkIIp9J5R8p0Coyf9JhH0Aj93bSqjBKYkiWBmKAoim6om9LwkX2UHhmnIdfvPuGitJq4GniHO0]--></g></svg>