<svg fill="#fff" viewBox="0 0 33 32" xmlns="http://www.w3.org/2000/svg"><path d="m16.42 32c8.837 0 16-7.163 16-16s-7.163-16-16-16c-8.836 0-16 7.163-16 16s7.164 16 16 16zm4.093-7.105c3.912-1.848 5.139-5.26 5.415-6.59-1.43 1.465-3.013 2.95-4.078 1.922 0 0-.058-5.486-.058-7.736 0-3.025 2.869-5.28 2.869-5.28-1.578.282-3.473.844-5.484 2.817-.181.18-.353.369-.515.567-.862-.66-1.98-.462-1.98-.462.605.331 1.207 1.297 1.207 2.096v7.857s-1.316 1.157-2.33 1.157a1.435 1.435 0 0 1 -1.172-.593 1.545 1.545 0 0 1 -.197-.342v-9.706c-.3.247-1.313.45-1.313-1.23 0-1.046.752-2.29 2.093-3.054a9.879 9.879 0 0 0 -4.973 2.292 9.736 9.736 0 0 0 -3.37 7.463s.98-3.062 2.207-3.345a1.189 1.189 0 0 1 1.49 1.187v7.192c0 .729-.47.888-.905.88a3.812 3.812 0 0 1 -.867-.163 9.787 9.787 0 0 0 7.739 3.969l2.65-2.665 1.572 1.766z" fill-rule="evenodd"/></svg>