<svg xmlns="http://www.w3.org/2000/svg" xmlns:xlink="http://www.w3.org/1999/xlink" contentStyleType="text/css" data-diagram-type="ACTIVITY" height="2956px" preserveAspectRatio="none" style="width:792px;height:2956px;background:#FFFFFF;" version="1.1" viewBox="0 0 792 2956" width="792px" zoomAndPan="magnify"><defs/><g><ellipse cx="475.7199" cy="20" fill="#222222" rx="10" ry="10" style="stroke:#222222;stroke-width:1;"/><rect fill="#F1F1F1" height="33.9688" rx="12.5" ry="12.5" style="stroke:#181818;stroke-width:0.5;" width="141.9459" x="404.747" y="50"/><text fill="#000000" font-family="sans-serif" font-size="12" lengthAdjust="spacing" textLength="121.9459" x="414.747" y="71.1387">&#26816;&#26597; Handle &#26159;&#21542;&#26377;&#25928;</text><rect fill="#F1F1F1" height="33.9688" rx="12.5" ry="12.5" style="stroke:#181818;stroke-width:0.5;" width="68.0004" x="441.7197" y="152.3711"/><text fill="#000000" font-family="sans-serif" font-size="12" lengthAdjust="spacing" textLength="48.0004" x="451.7197" y="173.5098">&#26085;&#24535;&#36755;&#20986;</text><ellipse cx="475.7199" cy="225.8555" fill="none" rx="11" ry="11" style="stroke:#222222;stroke-width:1;"/><ellipse cx="475.7199" cy="225.8555" fill="#222222" rx="6" ry="6" style="stroke:#222222;stroke-width:1;"/><polygon fill="#F1F1F1" points="443.5767,103.9688,507.8631,103.9688,519.8631,115.9688,507.8631,127.9688,443.5767,127.9688,431.5767,115.9688,443.5767,103.9688" style="stroke:#181818;stroke-width:0.5;"/><text fill="#000000" font-family="sans-serif" font-size="11" lengthAdjust="spacing" textLength="10.9999" x="479.7199" y="138.1792">&#26159;</text><text fill="#000000" font-family="sans-serif" font-size="11" lengthAdjust="spacing" textLength="64.2865" x="443.5767" y="119.7769">Handle &#26080;&#25928;</text><rect fill="#F1F1F1" height="33.9688" rx="12.5" ry="12.5" style="stroke:#181818;stroke-width:0.5;" width="188.6097" x="381.415" y="278.8555"/><text fill="#000000" font-family="sans-serif" font-size="12" lengthAdjust="spacing" textLength="168.6097" x="391.415" y="299.9941">&#36890;&#36807; Handle &#26597;&#25214; AbilitySpec</text><rect fill="#F1F1F1" height="33.9688" rx="12.5" ry="12.5" style="stroke:#181818;stroke-width:0.5;" width="68.0004" x="441.7197" y="381.2266"/><text fill="#000000" font-family="sans-serif" font-size="12" lengthAdjust="spacing" textLength="48.0004" x="451.7197" y="402.3652">&#26085;&#24535;&#36755;&#20986;</text><ellipse cx="475.7199" cy="454.7109" fill="none" rx="11" ry="11" style="stroke:#222222;stroke-width:1;"/><ellipse cx="475.7199" cy="454.7109" fill="#222222" rx="6" ry="6" style="stroke:#222222;stroke-width:1;"/><polygon fill="#F1F1F1" points="444.0816,332.8242,507.3582,332.8242,519.3582,344.8242,507.3582,356.8242,444.0816,356.8242,432.0816,344.8242,444.0816,332.8242" style="stroke:#181818;stroke-width:0.5;"/><text fill="#000000" font-family="sans-serif" font-size="11" lengthAdjust="spacing" textLength="10.9999" x="479.7199" y="367.0347">&#26159;</text><text fill="#000000" font-family="sans-serif" font-size="11" lengthAdjust="spacing" textLength="63.2766" x="444.0816" y="348.6323">&#26410;&#25214;&#21040; Spec</text><rect fill="#F1F1F1" height="33.9688" rx="12.5" ry="12.5" style="stroke:#181818;stroke-width:0.5;" width="102.3127" x="424.5635" y="507.7109"/><text fill="#000000" font-family="sans-serif" font-size="12" lengthAdjust="spacing" textLength="82.3127" x="434.5635" y="528.8496">&#33719;&#21462; ActorInfo</text><polygon fill="#F1F1F1" points="396.252,561.6797,555.1878,561.6797,567.1878,573.6797,555.1878,585.6797,396.252,585.6797,384.252,573.6797,396.252,561.6797" style="stroke:#181818;stroke-width:0.5;"/><text fill="#000000" font-family="sans-serif" font-size="11" lengthAdjust="spacing" textLength="158.9358" x="396.252" y="577.4878">ActorInfo &#25110; AvatarActor &#26080;&#25928;</text><text fill="#000000" font-family="sans-serif" font-size="11" lengthAdjust="spacing" textLength="10.9999" x="567.1878" y="571.0854">&#26159;</text><ellipse cx="600.1878" cy="573.6797" fill="none" rx="11" ry="11" style="stroke:#222222;stroke-width:1;"/><ellipse cx="600.1878" cy="573.6797" fill="#222222" rx="6" ry="6" style="stroke:#222222;stroke-width:1;"/><rect fill="#F1F1F1" height="33.9688" rx="12.5" ry="12.5" style="stroke:#181818;stroke-width:0.5;" width="249.2544" x="351.0927" y="605.6797"/><text fill="#000000" font-family="sans-serif" font-size="12" lengthAdjust="spacing" textLength="229.2544" x="361.0927" y="626.8184">&#33719;&#21462; NetMode (&#36890;&#36807; PC &#25110; AvatarActor)</text><polygon fill="#F1F1F1" points="395.1213,659.6484,556.3185,659.6484,568.3185,671.6484,556.3185,683.6484,395.1213,683.6484,383.1213,671.6484,395.1213,659.6484" style="stroke:#181818;stroke-width:0.5;"/><text fill="#000000" font-family="sans-serif" font-size="11" lengthAdjust="spacing" textLength="161.1973" x="395.1213" y="675.4565">NetMode == SimulatedProxy</text><text fill="#000000" font-family="sans-serif" font-size="11" lengthAdjust="spacing" textLength="10.9999" x="568.3185" y="669.0542">&#26159;</text><ellipse cx="601.3185" cy="671.6484" fill="none" rx="11" ry="11" style="stroke:#222222;stroke-width:1;"/><ellipse cx="601.3185" cy="671.6484" fill="#222222" rx="6" ry="6" style="stroke:#222222;stroke-width:1;"/><rect fill="#F1F1F1" height="33.9688" rx="12.5" ry="12.5" style="stroke:#181818;stroke-width:0.5;" width="85.4494" x="432.9952" y="703.6484"/><text fill="#000000" font-family="sans-serif" font-size="12" lengthAdjust="spacing" textLength="65.4494" x="442.9952" y="724.7871">&#33719;&#21462; Ability</text><rect fill="#F1F1F1" height="33.9688" rx="12.5" ry="12.5" style="stroke:#181818;stroke-width:0.5;" width="68.0004" x="441.7197" y="806.0195"/><text fill="#000000" font-family="sans-serif" font-size="12" lengthAdjust="spacing" textLength="48.0004" x="451.7197" y="827.1582">&#26085;&#24535;&#36755;&#20986;</text><ellipse cx="475.7199" cy="879.5039" fill="none" rx="11" ry="11" style="stroke:#222222;stroke-width:1;"/><ellipse cx="475.7199" cy="879.5039" fill="#222222" rx="6" ry="6" style="stroke:#222222;stroke-width:1;"/><polygon fill="#F1F1F1" points="445.7224,757.6172,505.7174,757.6172,517.7174,769.6172,505.7174,781.6172,445.7224,781.6172,433.7224,769.6172,445.7224,757.6172" style="stroke:#181818;stroke-width:0.5;"/><text fill="#000000" font-family="sans-serif" font-size="11" lengthAdjust="spacing" textLength="10.9999" x="479.7199" y="791.8276">&#26159;</text><text fill="#000000" font-family="sans-serif" font-size="11" lengthAdjust="spacing" textLength="59.995" x="445.7224" y="773.4253">Ability &#26080;&#25928;</text><rect fill="#F1F1F1" height="33.9688" rx="12.5" ry="12.5" style="stroke:#181818;stroke-width:0.5;" width="201.7995" x="374.8202" y="932.5039"/><text fill="#000000" font-family="sans-serif" font-size="12" lengthAdjust="spacing" textLength="181.7995" x="384.8202" y="953.6426">&#26816;&#26597; Ability &#25191;&#34892;&#31574;&#30053;&#19982; bIsLocal</text><rect fill="#F1F1F1" height="33.9688" rx="12.5" ry="12.5" style="stroke:#181818;stroke-width:0.5;" width="94.8537" x="428.293" y="1034.875"/><text fill="#000000" font-family="sans-serif" font-size="12" lengthAdjust="spacing" textLength="74.8537" x="438.293" y="1056.0137">&#28155;&#21152; Fail Tag</text><rect fill="#F1F1F1" height="33.9688" rx="12.5" ry="12.5" style="stroke:#181818;stroke-width:0.5;" width="68.0004" x="441.7197" y="1088.8438"/><text fill="#000000" font-family="sans-serif" font-size="12" lengthAdjust="spacing" textLength="48.0004" x="451.7197" y="1109.9824">&#36890;&#30693;&#22833;&#36133;</text><ellipse cx="475.7199" cy="1153.8125" fill="none" rx="11" ry="11" style="stroke:#222222;stroke-width:1;"/><ellipse cx="475.7199" cy="1153.8125" fill="#222222" rx="6" ry="6" style="stroke:#222222;stroke-width:1;"/><polygon fill="#F1F1F1" points="448.2201,986.4727,503.2197,986.4727,515.2197,998.4727,503.2197,1010.4727,448.2201,1010.4727,436.2201,998.4727,448.2201,986.4727" style="stroke:#181818;stroke-width:0.5;"/><text fill="#000000" font-family="sans-serif" font-size="11" lengthAdjust="spacing" textLength="10.9999" x="479.7199" y="1020.6831">&#26159;</text><text fill="#000000" font-family="sans-serif" font-size="11" lengthAdjust="spacing" textLength="54.9996" x="448.2201" y="1002.2808">&#19981;&#20801;&#35768;&#28608;&#27963;</text><rect fill="#F1F1F1" height="33.9688" rx="12.5" ry="12.5" style="stroke:#181818;stroke-width:0.5;" width="94.8537" x="428.293" y="1255.2148"/><text fill="#000000" font-family="sans-serif" font-size="12" lengthAdjust="spacing" textLength="74.8537" x="438.293" y="1276.3535">&#28155;&#21152; Fail Tag</text><rect fill="#F1F1F1" height="33.9688" rx="12.5" ry="12.5" style="stroke:#181818;stroke-width:0.5;" width="68.0004" x="441.7197" y="1309.1836"/><text fill="#000000" font-family="sans-serif" font-size="12" lengthAdjust="spacing" textLength="48.0004" x="451.7197" y="1330.3223">&#36890;&#30693;&#22833;&#36133;</text><ellipse cx="475.7199" cy="1374.1523" fill="none" rx="11" ry="11" style="stroke:#222222;stroke-width:1;"/><ellipse cx="475.7199" cy="1374.1523" fill="#222222" rx="6" ry="6" style="stroke:#222222;stroke-width:1;"/><polygon fill="#F1F1F1" points="306.8259,1206.8125,644.6139,1206.8125,656.6139,1218.8125,644.6139,1230.8125,306.8259,1230.8125,294.8259,1218.8125,306.8259,1206.8125" style="stroke:#181818;stroke-width:0.5;"/><text fill="#000000" font-family="sans-serif" font-size="11" lengthAdjust="spacing" textLength="10.9999" x="479.7199" y="1241.0229">&#26159;</text><text fill="#000000" font-family="sans-serif" font-size="11" lengthAdjust="spacing" textLength="337.7879" x="306.8259" y="1222.6206">NetMode != Authority &#19988; Ability &#26159; ServerOnly/ServerInitiated</text><rect fill="#F1F1F1" height="33.9688" rx="12.5" ry="12.5" style="stroke:#181818;stroke-width:0.5;" width="144.1076" x="403.6661" y="1427.1523"/><text fill="#000000" font-family="sans-serif" font-size="12" lengthAdjust="spacing" textLength="124.1076" x="413.6661" y="1448.291">&#33719;&#21462; InstancedAbility</text><rect fill="#F1F1F1" height="33.9688" rx="12.5" ry="12.5" style="stroke:#181818;stroke-width:0.5;" width="298.4435" x="326.4981" y="1481.1211"/><text fill="#000000" font-family="sans-serif" font-size="12" lengthAdjust="spacing" textLength="278.4435" x="336.4981" y="1502.2598">&#36873;&#25321; AbilitySource = InstancedAbility or Ability</text><rect fill="#F1F1F1" height="33.9688" rx="12.5" ry="12.5" style="stroke:#181818;stroke-width:0.5;" width="68.0004" x="441.7197" y="1631.8945"/><text fill="#000000" font-family="sans-serif" font-size="12" lengthAdjust="spacing" textLength="48.0004" x="451.7197" y="1653.0332">&#36890;&#30693;&#22833;&#36133;</text><ellipse cx="475.7199" cy="1705.3789" fill="none" rx="11" ry="11" style="stroke:#222222;stroke-width:1;"/><ellipse cx="475.7199" cy="1705.3789" fill="#222222" rx="6" ry="6" style="stroke:#222222;stroke-width:1;"/><polygon fill="#F1F1F1" points="365.6582,1583.4922,585.7816,1583.4922,597.7816,1595.4922,585.7816,1607.4922,365.6582,1607.4922,353.6582,1595.4922,365.6582,1583.4922" style="stroke:#181818;stroke-width:0.5;"/><text fill="#000000" font-family="sans-serif" font-size="11" lengthAdjust="spacing" textLength="10.9999" x="479.7199" y="1617.7026">&#26159;</text><text fill="#000000" font-family="sans-serif" font-size="11" lengthAdjust="spacing" textLength="220.1234" x="365.6582" y="1599.3003">ShouldAbilityRespondToEvent &#36820;&#22238; false</text><polygon fill="#F1F1F1" points="414.3069,1535.0898,537.1329,1535.0898,549.1329,1547.0898,537.1329,1559.0898,414.3069,1559.0898,402.3069,1547.0898,414.3069,1535.0898" style="stroke:#181818;stroke-width:0.5;"/><text fill="#000000" font-family="sans-serif" font-size="11" lengthAdjust="spacing" textLength="10.9999" x="479.7199" y="1569.3003">&#26159;</text><text fill="#000000" font-family="sans-serif" font-size="11" lengthAdjust="spacing" textLength="122.826" x="414.3069" y="1550.8979">TriggerEventData &#23384;&#22312;</text><polygon fill="#F1F1F1" points="475.7199,1758.3789,487.7199,1770.3789,475.7199,1782.3789,463.7199,1770.3789,475.7199,1758.3789" style="stroke:#181818;stroke-width:0.5;"/><rect fill="#F1F1F1" height="33.9688" rx="12.5" ry="12.5" style="stroke:#181818;stroke-width:0.5;" width="158.176" x="396.6319" y="1802.3789"/><text fill="#000000" font-family="sans-serif" font-size="12" lengthAdjust="spacing" textLength="138.176" x="406.6319" y="1823.5176">&#35843;&#29992; CanActivateAbility</text><rect fill="#F1F1F1" height="33.9688" rx="12.5" ry="12.5" style="stroke:#181818;stroke-width:0.5;" width="92.0005" x="429.7196" y="1904.75"/><text fill="#000000" font-family="sans-serif" font-size="12" lengthAdjust="spacing" textLength="72.0005" x="439.7196" y="1925.8887">&#28155;&#21152;&#22833;&#36133;&#21407;&#22240;</text><rect fill="#F1F1F1" height="33.9688" rx="12.5" ry="12.5" style="stroke:#181818;stroke-width:0.5;" width="68.0004" x="441.7197" y="1958.7188"/><text fill="#000000" font-family="sans-serif" font-size="12" lengthAdjust="spacing" textLength="48.0004" x="451.7197" y="1979.8574">&#36890;&#30693;&#22833;&#36133;</text><ellipse cx="475.7199" cy="2023.6875" fill="none" rx="11" ry="11" style="stroke:#222222;stroke-width:1;"/><ellipse cx="475.7199" cy="2023.6875" fill="#222222" rx="6" ry="6" style="stroke:#222222;stroke-width:1;"/><polygon fill="#F1F1F1" points="449.8877,1856.3477,501.5521,1856.3477,513.5521,1868.3477,501.5521,1880.3477,449.8877,1880.3477,437.8877,1868.3477,449.8877,1856.3477" style="stroke:#181818;stroke-width:0.5;"/><text fill="#000000" font-family="sans-serif" font-size="11" lengthAdjust="spacing" textLength="10.9999" x="479.7199" y="1890.5581">&#26159;</text><text fill="#000000" font-family="sans-serif" font-size="11" lengthAdjust="spacing" textLength="51.6644" x="449.8877" y="1872.1558">&#36820;&#22238; false</text><rect fill="#F1F1F1" height="33.9688" rx="12.5" ry="12.5" style="stroke:#181818;stroke-width:0.5;" width="80.4395" x="435.5002" y="2173.4922"/><text fill="#000000" font-family="sans-serif" font-size="12" lengthAdjust="spacing" textLength="60.4395" x="445.5002" y="2194.6309">EndAbility</text><polygon fill="#F1F1F1" points="414.146,2125.0898,537.2938,2125.0898,549.2938,2137.0898,537.2938,2149.0898,414.146,2149.0898,402.146,2137.0898,414.146,2125.0898" style="stroke:#181818;stroke-width:0.5;"/><text fill="#000000" font-family="sans-serif" font-size="11" lengthAdjust="spacing" textLength="10.9999" x="479.7199" y="2159.3003">&#26159;</text><text fill="#000000" font-family="sans-serif" font-size="11" lengthAdjust="spacing" textLength="123.1478" x="414.146" y="2140.8979">&#20801;&#35768;&#37325;&#26032;&#35302;&#21457; &amp;&amp; &#26377;&#23454;&#20363;</text><ellipse cx="582.2938" cy="2137.0898" fill="none" rx="11" ry="11" style="stroke:#222222;stroke-width:1;"/><ellipse cx="582.2938" cy="2137.0898" fill="#222222" rx="6" ry="6" style="stroke:#222222;stroke-width:1;"/><polygon fill="#F1F1F1" points="323.565,2076.6875,627.8748,2076.6875,639.8748,2088.6875,627.8748,2100.6875,323.565,2100.6875,311.565,2088.6875,323.565,2076.6875" style="stroke:#181818;stroke-width:0.5;"/><text fill="#000000" font-family="sans-serif" font-size="11" lengthAdjust="spacing" textLength="10.9999" x="479.7199" y="2110.8979">&#26159;</text><text fill="#000000" font-family="sans-serif" font-size="11" lengthAdjust="spacing" textLength="304.3098" x="323.565" y="2092.4956">InstancingPolicy == InstancedPerActor &#19988; Ability &#24050;&#28608;&#27963;</text><polygon fill="#F1F1F1" points="475.7199,2227.4609,487.7199,2239.4609,475.7199,2251.4609,463.7199,2239.4609,475.7199,2227.4609" style="stroke:#181818;stroke-width:0.5;"/><polygon fill="#F1F1F1" points="426.2202,2271.4609,525.2195,2271.4609,537.2195,2283.4609,525.2195,2295.4609,426.2202,2295.4609,414.2202,2283.4609,426.2202,2271.4609" style="stroke:#181818;stroke-width:0.5;"/><text fill="#000000" font-family="sans-serif" font-size="11" lengthAdjust="spacing" textLength="98.9993" x="426.2202" y="2287.269">&#38656;&#35201;&#23454;&#20363;&#20294;&#27809;&#26377;&#23454;&#20363;</text><text fill="#000000" font-family="sans-serif" font-size="11" lengthAdjust="spacing" textLength="10.9999" x="537.2195" y="2280.8667">&#26159;</text><ellipse cx="570.2195" cy="2283.4609" fill="none" rx="11" ry="11" style="stroke:#222222;stroke-width:1;"/><ellipse cx="570.2195" cy="2283.4609" fill="#222222" rx="6" ry="6" style="stroke:#222222;stroke-width:1;"/><rect fill="#F1F1F1" height="33.9688" rx="12.5" ry="12.5" style="stroke:#181818;stroke-width:0.5;" width="130.8127" x="410.3135" y="2315.4609"/><text fill="#000000" font-family="sans-serif" font-size="12" lengthAdjust="spacing" textLength="110.8127" x="420.3135" y="2336.5996">&#29983;&#25104; ActivationInfo</text><polygon fill="#F1F1F1" points="422.7236,2369.4297,528.7161,2369.4297,540.7161,2381.4297,528.7161,2393.4297,422.7236,2393.4297,410.7236,2381.4297,422.7236,2369.4297" style="stroke:#181818;stroke-width:0.5;"/><text fill="#000000" font-family="sans-serif" font-size="11" lengthAdjust="spacing" textLength="105.9925" x="422.7236" y="2385.2378">&#20026;&#26381;&#21153;&#31471; &#25110; &#26412;&#22320;&#28608;&#27963;</text><text fill="#000000" font-family="sans-serif" font-size="11" lengthAdjust="spacing" textLength="10.9999" x="399.7237" y="2378.8354">&#26159;</text><polygon fill="#F1F1F1" points="237.4691,2403.4297,325.4684,2403.4297,337.4684,2415.4297,325.4684,2427.4297,237.4691,2427.4297,225.4691,2415.4297,237.4691,2403.4297" style="stroke:#181818;stroke-width:0.5;"/><text fill="#000000" font-family="sans-serif" font-size="11" lengthAdjust="spacing" textLength="87.9994" x="237.4691" y="2419.2378">&#38656;&#35201;&#21019;&#24314;&#26032;&#39044;&#27979;&#38190;</text><text fill="#000000" font-family="sans-serif" font-size="11" lengthAdjust="spacing" textLength="10.9999" x="214.4691" y="2412.8354">&#26159;</text><rect fill="#F1F1F1" height="33.9688" rx="12.5" ry="12.5" style="stroke:#181818;stroke-width:0.5;" width="138.981" x="131.8828" y="2437.4297"/><text fill="#000000" font-family="sans-serif" font-size="12" lengthAdjust="spacing" textLength="118.981" x="141.8828" y="2458.5684">&#21019;&#24314;&#26032; Server &#39044;&#27979;&#38190;</text><rect fill="#F1F1F1" height="33.9688" rx="12.5" ry="12.5" style="stroke:#181818;stroke-width:0.5;" width="141.4006" x="290.8639" y="2437.4297"/><text fill="#000000" font-family="sans-serif" font-size="12" lengthAdjust="spacing" textLength="121.4006" x="300.8639" y="2458.5684">&#20351;&#29992; InPredictionKey</text><polygon fill="#F1F1F1" points="281.4688,2477.3984,293.4688,2489.3984,281.4688,2501.3984,269.4688,2489.3984,281.4688,2477.3984" style="stroke:#181818;stroke-width:0.5;"/><rect fill="#F1F1F1" height="33.9688" rx="12.5" ry="12.5" style="stroke:#181818;stroke-width:0.5;" width="199.6545" x="181.6415" y="2521.3984"/><text fill="#000000" font-family="sans-serif" font-size="12" lengthAdjust="spacing" textLength="179.6545" x="191.6415" y="2542.5371">&#24320;&#21551; ScopedPredictionWindow</text><polygon fill="#F1F1F1" points="220.0557,2623.7695,342.8818,2623.7695,354.8818,2635.7695,342.8818,2647.7695,220.0557,2647.7695,208.0557,2635.7695,220.0557,2623.7695" style="stroke:#181818;stroke-width:0.5;"/><text fill="#000000" font-family="sans-serif" font-size="11" lengthAdjust="spacing" textLength="122.826" x="220.0557" y="2639.5776">TriggerEventData &#26377;&#25928;</text><text fill="#000000" font-family="sans-serif" font-size="11" lengthAdjust="spacing" textLength="10.9999" x="197.0558" y="2633.1753">&#26159;</text><rect fill="#F1F1F1" height="33.9688" rx="12.5" ry="12.5" style="stroke:#181818;stroke-width:0.5;" width="283.1035" x="11" y="2657.7695"/><text fill="#000000" font-family="sans-serif" font-size="12" lengthAdjust="spacing" textLength="263.1035" x="21" y="2678.9082">ClientActivateAbilitySucceedWithEventData</text><rect fill="#F1F1F1" height="33.9688" rx="12.5" ry="12.5" style="stroke:#181818;stroke-width:0.5;" width="192.5645" x="314.1035" y="2657.7695"/><text fill="#000000" font-family="sans-serif" font-size="12" lengthAdjust="spacing" textLength="172.5645" x="324.1035" y="2678.9082">ClientActivateAbilitySucceed</text><polygon fill="#F1F1F1" points="281.4688,2697.7383,293.4688,2709.7383,281.4688,2721.7383,269.4688,2709.7383,281.4688,2697.7383" style="stroke:#181818;stroke-width:0.5;"/><polygon fill="#F1F1F1" points="154.1631,2575.3672,408.7744,2575.3672,420.7744,2587.3672,408.7744,2599.3672,154.1631,2599.3672,142.1631,2587.3672,154.1631,2575.3672" style="stroke:#181818;stroke-width:0.5;"/><text fill="#000000" font-family="sans-serif" font-size="11" lengthAdjust="spacing" textLength="10.9999" x="285.4688" y="2609.5776">&#26159;</text><text fill="#000000" font-family="sans-serif" font-size="11" lengthAdjust="spacing" textLength="254.6113" x="154.1631" y="2591.1753">!bIsLocal &#19988; NetExecutionPolicy != ServerOnly</text><polygon fill="#F1F1F1" points="281.4688,2741.7383,293.4688,2753.7383,281.4688,2765.7383,269.4688,2753.7383,281.4688,2741.7383" style="stroke:#181818;stroke-width:0.5;"/><rect fill="#F1F1F1" height="33.9688" rx="12.5" ry="12.5" style="stroke:#181818;stroke-width:0.5;" width="157.2385" x="202.8495" y="2785.7383"/><text fill="#000000" font-family="sans-serif" font-size="12" lengthAdjust="spacing" textLength="137.2385" x="212.8495" y="2806.877">&#35843;&#29992; CallActivateAbility</text><rect fill="#F1F1F1" height="33.9688" rx="12.5" ry="12.5" style="stroke:#181818;stroke-width:0.5;" width="222.6061" x="558.668" y="2403.4297"/><text fill="#000000" font-family="sans-serif" font-size="12" lengthAdjust="spacing" textLength="202.6061" x="568.668" y="2424.5684">&#36890;&#36807;&#23458;&#25143;&#31471;&#21457;&#36865; RPC ActivateAbility</text><polygon fill="#F1F1F1" points="475.7199,2825.707,487.7199,2837.707,475.7199,2849.707,463.7199,2837.707,475.7199,2825.707" style="stroke:#181818;stroke-width:0.5;"/><rect fill="#F1F1F1" height="33.9688" rx="12.5" ry="12.5" style="stroke:#181818;stroke-width:0.5;" width="165.8635" x="392.7882" y="2869.707"/><text fill="#000000" font-family="sans-serif" font-size="12" lengthAdjust="spacing" textLength="145.8635" x="402.7882" y="2890.8457">&#35774;&#32622; OutInstancedAbility</text><ellipse cx="475.7199" cy="2934.6758" fill="none" rx="11" ry="11" style="stroke:#222222;stroke-width:1;"/><ellipse cx="475.7199" cy="2934.6758" fill="#222222" rx="6" ry="6" style="stroke:#222222;stroke-width:1;"/><line style="stroke:#181818;stroke-width:1;" x1="475.7199" x2="475.7199" y1="30" y2="50"/><polygon fill="#181818" points="471.7199,40,475.7199,50,479.7199,40,475.7199,44" style="stroke:#181818;stroke-width:1;"/><line style="stroke:#181818;stroke-width:1;" x1="475.7199" x2="475.7199" y1="186.3398" y2="214.8555"/><polygon fill="#181818" points="471.7199,204.8555,475.7199,214.8555,479.7199,204.8555,475.7199,208.8555" style="stroke:#181818;stroke-width:1;"/><line style="stroke:#181818;stroke-width:1;" x1="475.7199" x2="475.7199" y1="127.9688" y2="152.3711"/><polygon fill="#181818" points="471.7199,142.3711,475.7199,152.3711,479.7199,142.3711,475.7199,146.3711" style="stroke:#181818;stroke-width:1;"/><line style="stroke:#181818;stroke-width:1;" x1="519.8631" x2="531.8631" y1="115.9688" y2="115.9688"/><polygon fill="#181818" points="527.8631,184.8555,531.8631,194.8555,535.8631,184.8555,531.8631,188.8555" style="stroke:#181818;stroke-width:1;"/><line style="stroke:#181818;stroke-width:1;" x1="531.8631" x2="531.8631" y1="115.9688" y2="258.8555"/><line style="stroke:#181818;stroke-width:1;" x1="531.8631" x2="475.7199" y1="258.8555" y2="258.8555"/><line style="stroke:#181818;stroke-width:1;" x1="475.7199" x2="475.7199" y1="258.8555" y2="278.8555"/><polygon fill="#181818" points="471.7199,268.8555,475.7199,278.8555,479.7199,268.8555,475.7199,272.8555" style="stroke:#181818;stroke-width:1;"/><line style="stroke:#181818;stroke-width:1;" x1="475.7199" x2="475.7199" y1="83.9688" y2="103.9688"/><polygon fill="#181818" points="471.7199,93.9688,475.7199,103.9688,479.7199,93.9688,475.7199,97.9688" style="stroke:#181818;stroke-width:1;"/><line style="stroke:#181818;stroke-width:1;" x1="475.7199" x2="475.7199" y1="415.1953" y2="443.7109"/><polygon fill="#181818" points="471.7199,433.7109,475.7199,443.7109,479.7199,433.7109,475.7199,437.7109" style="stroke:#181818;stroke-width:1;"/><line style="stroke:#181818;stroke-width:1;" x1="475.7199" x2="475.7199" y1="356.8242" y2="381.2266"/><polygon fill="#181818" points="471.7199,371.2266,475.7199,381.2266,479.7199,371.2266,475.7199,375.2266" style="stroke:#181818;stroke-width:1;"/><line style="stroke:#181818;stroke-width:1;" x1="519.3582" x2="531.3582" y1="344.8242" y2="344.8242"/><polygon fill="#181818" points="527.3582,413.7109,531.3582,423.7109,535.3582,413.7109,531.3582,417.7109" style="stroke:#181818;stroke-width:1;"/><line style="stroke:#181818;stroke-width:1;" x1="531.3582" x2="531.3582" y1="344.8242" y2="487.7109"/><line style="stroke:#181818;stroke-width:1;" x1="531.3582" x2="475.7199" y1="487.7109" y2="487.7109"/><line style="stroke:#181818;stroke-width:1;" x1="475.7199" x2="475.7199" y1="487.7109" y2="507.7109"/><polygon fill="#181818" points="471.7199,497.7109,475.7199,507.7109,479.7199,497.7109,475.7199,501.7109" style="stroke:#181818;stroke-width:1;"/><line style="stroke:#181818;stroke-width:1;" x1="475.7199" x2="475.7199" y1="312.8242" y2="332.8242"/><polygon fill="#181818" points="471.7199,322.8242,475.7199,332.8242,479.7199,322.8242,475.7199,326.8242" style="stroke:#181818;stroke-width:1;"/><line style="stroke:#181818;stroke-width:1;" x1="475.7199" x2="475.7199" y1="585.6797" y2="605.6797"/><polygon fill="#181818" points="471.7199,595.6797,475.7199,605.6797,479.7199,595.6797,475.7199,599.6797" style="stroke:#181818;stroke-width:1;"/><line style="stroke:#181818;stroke-width:1;" x1="567.1878" x2="589.1878" y1="573.6797" y2="573.6797"/><polygon fill="#181818" points="579.1878,569.6797,589.1878,573.6797,579.1878,577.6797,583.1878,573.6797" style="stroke:#181818;stroke-width:1;"/><line style="stroke:#181818;stroke-width:1;" x1="475.7199" x2="475.7199" y1="541.6797" y2="561.6797"/><polygon fill="#181818" points="471.7199,551.6797,475.7199,561.6797,479.7199,551.6797,475.7199,555.6797" style="stroke:#181818;stroke-width:1;"/><line style="stroke:#181818;stroke-width:1;" x1="475.7199" x2="475.7199" y1="683.6484" y2="703.6484"/><polygon fill="#181818" points="471.7199,693.6484,475.7199,703.6484,479.7199,693.6484,475.7199,697.6484" style="stroke:#181818;stroke-width:1;"/><line style="stroke:#181818;stroke-width:1;" x1="568.3185" x2="590.3185" y1="671.6484" y2="671.6484"/><polygon fill="#181818" points="580.3185,667.6484,590.3185,671.6484,580.3185,675.6484,584.3185,671.6484" style="stroke:#181818;stroke-width:1;"/><line style="stroke:#181818;stroke-width:1;" x1="475.7199" x2="475.7199" y1="639.6484" y2="659.6484"/><polygon fill="#181818" points="471.7199,649.6484,475.7199,659.6484,479.7199,649.6484,475.7199,653.6484" style="stroke:#181818;stroke-width:1;"/><line style="stroke:#181818;stroke-width:1;" x1="475.7199" x2="475.7199" y1="839.9883" y2="868.5039"/><polygon fill="#181818" points="471.7199,858.5039,475.7199,868.5039,479.7199,858.5039,475.7199,862.5039" style="stroke:#181818;stroke-width:1;"/><line style="stroke:#181818;stroke-width:1;" x1="475.7199" x2="475.7199" y1="781.6172" y2="806.0195"/><polygon fill="#181818" points="471.7199,796.0195,475.7199,806.0195,479.7199,796.0195,475.7199,800.0195" style="stroke:#181818;stroke-width:1;"/><line style="stroke:#181818;stroke-width:1;" x1="517.7174" x2="529.7174" y1="769.6172" y2="769.6172"/><polygon fill="#181818" points="525.7174,838.5039,529.7174,848.5039,533.7174,838.5039,529.7174,842.5039" style="stroke:#181818;stroke-width:1;"/><line style="stroke:#181818;stroke-width:1;" x1="529.7174" x2="529.7174" y1="769.6172" y2="912.5039"/><line style="stroke:#181818;stroke-width:1;" x1="529.7174" x2="475.7199" y1="912.5039" y2="912.5039"/><line style="stroke:#181818;stroke-width:1;" x1="475.7199" x2="475.7199" y1="912.5039" y2="932.5039"/><polygon fill="#181818" points="471.7199,922.5039,475.7199,932.5039,479.7199,922.5039,475.7199,926.5039" style="stroke:#181818;stroke-width:1;"/><line style="stroke:#181818;stroke-width:1;" x1="475.7199" x2="475.7199" y1="737.6172" y2="757.6172"/><polygon fill="#181818" points="471.7199,747.6172,475.7199,757.6172,479.7199,747.6172,475.7199,751.6172" style="stroke:#181818;stroke-width:1;"/><line style="stroke:#181818;stroke-width:1;" x1="475.7199" x2="475.7199" y1="1068.8438" y2="1088.8438"/><polygon fill="#181818" points="471.7199,1078.8438,475.7199,1088.8438,479.7199,1078.8438,475.7199,1082.8438" style="stroke:#181818;stroke-width:1;"/><line style="stroke:#181818;stroke-width:1;" x1="475.7199" x2="475.7199" y1="1122.8125" y2="1142.8125"/><polygon fill="#181818" points="471.7199,1132.8125,475.7199,1142.8125,479.7199,1132.8125,475.7199,1136.8125" style="stroke:#181818;stroke-width:1;"/><line style="stroke:#181818;stroke-width:1;" x1="475.7199" x2="475.7199" y1="1010.4727" y2="1034.875"/><polygon fill="#181818" points="471.7199,1024.875,475.7199,1034.875,479.7199,1024.875,475.7199,1028.875" style="stroke:#181818;stroke-width:1;"/><line style="stroke:#181818;stroke-width:1;" x1="515.2197" x2="533.1467" y1="998.4727" y2="998.4727"/><polygon fill="#181818" points="529.1467,1086.8438,533.1467,1096.8438,537.1467,1086.8438,533.1467,1090.8438" style="stroke:#181818;stroke-width:1;"/><line style="stroke:#181818;stroke-width:1;" x1="533.1467" x2="533.1467" y1="998.4727" y2="1186.8125"/><line style="stroke:#181818;stroke-width:1;" x1="533.1467" x2="475.7199" y1="1186.8125" y2="1186.8125"/><line style="stroke:#181818;stroke-width:1;" x1="475.7199" x2="475.7199" y1="1186.8125" y2="1206.8125"/><polygon fill="#181818" points="471.7199,1196.8125,475.7199,1206.8125,479.7199,1196.8125,475.7199,1200.8125" style="stroke:#181818;stroke-width:1;"/><line style="stroke:#181818;stroke-width:1;" x1="475.7199" x2="475.7199" y1="966.4727" y2="986.4727"/><polygon fill="#181818" points="471.7199,976.4727,475.7199,986.4727,479.7199,976.4727,475.7199,980.4727" style="stroke:#181818;stroke-width:1;"/><line style="stroke:#181818;stroke-width:1;" x1="475.7199" x2="475.7199" y1="1289.1836" y2="1309.1836"/><polygon fill="#181818" points="471.7199,1299.1836,475.7199,1309.1836,479.7199,1299.1836,475.7199,1303.1836" style="stroke:#181818;stroke-width:1;"/><line style="stroke:#181818;stroke-width:1;" x1="475.7199" x2="475.7199" y1="1343.1523" y2="1363.1523"/><polygon fill="#181818" points="471.7199,1353.1523,475.7199,1363.1523,479.7199,1353.1523,475.7199,1357.1523" style="stroke:#181818;stroke-width:1;"/><line style="stroke:#181818;stroke-width:1;" x1="475.7199" x2="475.7199" y1="1230.8125" y2="1255.2148"/><polygon fill="#181818" points="471.7199,1245.2148,475.7199,1255.2148,479.7199,1245.2148,475.7199,1249.2148" style="stroke:#181818;stroke-width:1;"/><line style="stroke:#181818;stroke-width:1;" x1="656.6139" x2="668.6139" y1="1218.8125" y2="1218.8125"/><polygon fill="#181818" points="664.6139,1307.1836,668.6139,1317.1836,672.6139,1307.1836,668.6139,1311.1836" style="stroke:#181818;stroke-width:1;"/><line style="stroke:#181818;stroke-width:1;" x1="668.6139" x2="668.6139" y1="1218.8125" y2="1407.1523"/><line style="stroke:#181818;stroke-width:1;" x1="668.6139" x2="475.7199" y1="1407.1523" y2="1407.1523"/><line style="stroke:#181818;stroke-width:1;" x1="475.7199" x2="475.7199" y1="1407.1523" y2="1427.1523"/><polygon fill="#181818" points="471.7199,1417.1523,475.7199,1427.1523,479.7199,1417.1523,475.7199,1421.1523" style="stroke:#181818;stroke-width:1;"/><line style="stroke:#181818;stroke-width:1;" x1="475.7199" x2="475.7199" y1="1461.1211" y2="1481.1211"/><polygon fill="#181818" points="471.7199,1471.1211,475.7199,1481.1211,479.7199,1471.1211,475.7199,1475.1211" style="stroke:#181818;stroke-width:1;"/><line style="stroke:#181818;stroke-width:1;" x1="475.7199" x2="475.7199" y1="1665.8633" y2="1694.3789"/><polygon fill="#181818" points="471.7199,1684.3789,475.7199,1694.3789,479.7199,1684.3789,475.7199,1688.3789" style="stroke:#181818;stroke-width:1;"/><line style="stroke:#181818;stroke-width:1;" x1="475.7199" x2="475.7199" y1="1607.4922" y2="1631.8945"/><polygon fill="#181818" points="471.7199,1621.8945,475.7199,1631.8945,479.7199,1621.8945,475.7199,1625.8945" style="stroke:#181818;stroke-width:1;"/><line style="stroke:#181818;stroke-width:1;" x1="597.7816" x2="609.7816" y1="1595.4922" y2="1595.4922"/><polygon fill="#181818" points="605.7816,1664.3789,609.7816,1674.3789,613.7816,1664.3789,609.7816,1668.3789" style="stroke:#181818;stroke-width:1;"/><line style="stroke:#181818;stroke-width:1;" x1="609.7816" x2="609.7816" y1="1595.4922" y2="1738.3789"/><line style="stroke:#181818;stroke-width:1;" x1="609.7816" x2="475.7199" y1="1738.3789" y2="1738.3789"/><line style="stroke:#181818;stroke-width:1;" x1="475.7199" x2="475.7199" y1="1738.3789" y2="1758.3789"/><polygon fill="#181818" points="471.7199,1748.3789,475.7199,1758.3789,479.7199,1748.3789,475.7199,1752.3789" style="stroke:#181818;stroke-width:1;"/><line style="stroke:#181818;stroke-width:1;" x1="475.7199" x2="475.7199" y1="1559.0898" y2="1583.4922"/><polygon fill="#181818" points="471.7199,1573.4922,475.7199,1583.4922,479.7199,1573.4922,475.7199,1577.4922" style="stroke:#181818;stroke-width:1;"/><line style="stroke:#181818;stroke-width:1;" x1="549.1329" x2="619.7816" y1="1547.0898" y2="1547.0898"/><polygon fill="#181818" points="615.7816,1658.3789,619.7816,1668.3789,623.7816,1658.3789,619.7816,1662.3789" style="stroke:#181818;stroke-width:1;"/><line style="stroke:#181818;stroke-width:1;" x1="619.7816" x2="619.7816" y1="1547.0898" y2="1770.3789"/><line style="stroke:#181818;stroke-width:1;" x1="619.7816" x2="487.7199" y1="1770.3789" y2="1770.3789"/><polygon fill="#181818" points="497.7199,1766.3789,487.7199,1770.3789,497.7199,1774.3789,493.7199,1770.3789" style="stroke:#181818;stroke-width:1;"/><line style="stroke:#181818;stroke-width:1;" x1="475.7199" x2="475.7199" y1="1515.0898" y2="1535.0898"/><polygon fill="#181818" points="471.7199,1525.0898,475.7199,1535.0898,479.7199,1525.0898,475.7199,1529.0898" style="stroke:#181818;stroke-width:1;"/><line style="stroke:#181818;stroke-width:1;" x1="475.7199" x2="475.7199" y1="1782.3789" y2="1802.3789"/><polygon fill="#181818" points="471.7199,1792.3789,475.7199,1802.3789,479.7199,1792.3789,475.7199,1796.3789" style="stroke:#181818;stroke-width:1;"/><line style="stroke:#181818;stroke-width:1;" x1="475.7199" x2="475.7199" y1="1938.7188" y2="1958.7188"/><polygon fill="#181818" points="471.7199,1948.7188,475.7199,1958.7188,479.7199,1948.7188,475.7199,1952.7188" style="stroke:#181818;stroke-width:1;"/><line style="stroke:#181818;stroke-width:1;" x1="475.7199" x2="475.7199" y1="1992.6875" y2="2012.6875"/><polygon fill="#181818" points="471.7199,2002.6875,475.7199,2012.6875,479.7199,2002.6875,475.7199,2006.6875" style="stroke:#181818;stroke-width:1;"/><line style="stroke:#181818;stroke-width:1;" x1="475.7199" x2="475.7199" y1="1880.3477" y2="1904.75"/><polygon fill="#181818" points="471.7199,1894.75,475.7199,1904.75,479.7199,1894.75,475.7199,1898.75" style="stroke:#181818;stroke-width:1;"/><line style="stroke:#181818;stroke-width:1;" x1="513.5521" x2="531.7202" y1="1868.3477" y2="1868.3477"/><polygon fill="#181818" points="527.7202,1956.7188,531.7202,1966.7188,535.7202,1956.7188,531.7202,1960.7188" style="stroke:#181818;stroke-width:1;"/><line style="stroke:#181818;stroke-width:1;" x1="531.7202" x2="531.7202" y1="1868.3477" y2="2056.6875"/><line style="stroke:#181818;stroke-width:1;" x1="531.7202" x2="475.7199" y1="2056.6875" y2="2056.6875"/><line style="stroke:#181818;stroke-width:1;" x1="475.7199" x2="475.7199" y1="2056.6875" y2="2076.6875"/><polygon fill="#181818" points="471.7199,2066.6875,475.7199,2076.6875,479.7199,2066.6875,475.7199,2070.6875" style="stroke:#181818;stroke-width:1;"/><line style="stroke:#181818;stroke-width:1;" x1="475.7199" x2="475.7199" y1="1836.3477" y2="1856.3477"/><polygon fill="#181818" points="471.7199,1846.3477,475.7199,1856.3477,479.7199,1846.3477,475.7199,1850.3477" style="stroke:#181818;stroke-width:1;"/><line style="stroke:#181818;stroke-width:1;" x1="475.7199" x2="475.7199" y1="2149.0898" y2="2173.4922"/><polygon fill="#181818" points="471.7199,2163.4922,475.7199,2173.4922,479.7199,2163.4922,475.7199,2167.4922" style="stroke:#181818;stroke-width:1;"/><line style="stroke:#181818;stroke-width:1;" x1="549.2938" x2="571.2938" y1="2137.0898" y2="2137.0898"/><polygon fill="#181818" points="561.2938,2133.0898,571.2938,2137.0898,561.2938,2141.0898,565.2938,2137.0898" style="stroke:#181818;stroke-width:1;"/><line style="stroke:#181818;stroke-width:1;" x1="475.7199" x2="475.7199" y1="2207.4609" y2="2227.4609"/><polygon fill="#181818" points="471.7199,2217.4609,475.7199,2227.4609,479.7199,2217.4609,475.7199,2221.4609" style="stroke:#181818;stroke-width:1;"/><line style="stroke:#181818;stroke-width:1;" x1="475.7199" x2="475.7199" y1="2100.6875" y2="2125.0898"/><polygon fill="#181818" points="471.7199,2115.0898,475.7199,2125.0898,479.7199,2115.0898,475.7199,2119.0898" style="stroke:#181818;stroke-width:1;"/><line style="stroke:#181818;stroke-width:1;" x1="639.8748" x2="651.8748" y1="2088.6875" y2="2088.6875"/><polygon fill="#181818" points="647.8748,2168.4766,651.8748,2178.4766,655.8748,2168.4766,651.8748,2172.4766" style="stroke:#181818;stroke-width:1;"/><line style="stroke:#181818;stroke-width:1;" x1="651.8748" x2="651.8748" y1="2088.6875" y2="2239.4609"/><line style="stroke:#181818;stroke-width:1;" x1="651.8748" x2="487.7199" y1="2239.4609" y2="2239.4609"/><polygon fill="#181818" points="497.7199,2235.4609,487.7199,2239.4609,497.7199,2243.4609,493.7199,2239.4609" style="stroke:#181818;stroke-width:1;"/><line style="stroke:#181818;stroke-width:1;" x1="475.7199" x2="475.7199" y1="2295.4609" y2="2315.4609"/><polygon fill="#181818" points="471.7199,2305.4609,475.7199,2315.4609,479.7199,2305.4609,475.7199,2309.4609" style="stroke:#181818;stroke-width:1;"/><line style="stroke:#181818;stroke-width:1;" x1="537.2195" x2="559.2195" y1="2283.4609" y2="2283.4609"/><polygon fill="#181818" points="549.2195,2279.4609,559.2195,2283.4609,549.2195,2287.4609,553.2195,2283.4609" style="stroke:#181818;stroke-width:1;"/><line style="stroke:#181818;stroke-width:1;" x1="475.7199" x2="475.7199" y1="2251.4609" y2="2271.4609"/><polygon fill="#181818" points="471.7199,2261.4609,475.7199,2271.4609,479.7199,2261.4609,475.7199,2265.4609" style="stroke:#181818;stroke-width:1;"/><line style="stroke:#181818;stroke-width:1;" x1="225.4691" x2="201.3734" y1="2415.4297" y2="2415.4297"/><line style="stroke:#181818;stroke-width:1;" x1="201.3734" x2="201.3734" y1="2415.4297" y2="2437.4297"/><polygon fill="#181818" points="197.3734,2427.4297,201.3734,2437.4297,205.3734,2427.4297,201.3734,2431.4297" style="stroke:#181818;stroke-width:1;"/><line style="stroke:#181818;stroke-width:1;" x1="337.4684" x2="361.5641" y1="2415.4297" y2="2415.4297"/><line style="stroke:#181818;stroke-width:1;" x1="361.5641" x2="361.5641" y1="2415.4297" y2="2437.4297"/><polygon fill="#181818" points="357.5641,2427.4297,361.5641,2437.4297,365.5641,2427.4297,361.5641,2431.4297" style="stroke:#181818;stroke-width:1;"/><line style="stroke:#181818;stroke-width:1;" x1="201.3734" x2="201.3734" y1="2471.3984" y2="2489.3984"/><line style="stroke:#181818;stroke-width:1;" x1="201.3734" x2="269.4688" y1="2489.3984" y2="2489.3984"/><polygon fill="#181818" points="259.4688,2485.3984,269.4688,2489.3984,259.4688,2493.3984,263.4688,2489.3984" style="stroke:#181818;stroke-width:1;"/><line style="stroke:#181818;stroke-width:1;" x1="361.5641" x2="361.5641" y1="2471.3984" y2="2489.3984"/><line style="stroke:#181818;stroke-width:1;" x1="361.5641" x2="293.4688" y1="2489.3984" y2="2489.3984"/><polygon fill="#181818" points="303.4688,2485.3984,293.4688,2489.3984,303.4688,2493.3984,299.4688,2489.3984" style="stroke:#181818;stroke-width:1;"/><line style="stroke:#181818;stroke-width:1;" x1="281.4688" x2="281.4688" y1="2501.3984" y2="2521.3984"/><polygon fill="#181818" points="277.4688,2511.3984,281.4688,2521.3984,285.4688,2511.3984,281.4688,2515.3984" style="stroke:#181818;stroke-width:1;"/><line style="stroke:#181818;stroke-width:1;" x1="208.0557" x2="152.5518" y1="2635.7695" y2="2635.7695"/><line style="stroke:#181818;stroke-width:1;" x1="152.5518" x2="152.5518" y1="2635.7695" y2="2657.7695"/><polygon fill="#181818" points="148.5518,2647.7695,152.5518,2657.7695,156.5518,2647.7695,152.5518,2651.7695" style="stroke:#181818;stroke-width:1;"/><line style="stroke:#181818;stroke-width:1;" x1="354.8818" x2="410.3857" y1="2635.7695" y2="2635.7695"/><line style="stroke:#181818;stroke-width:1;" x1="410.3857" x2="410.3857" y1="2635.7695" y2="2657.7695"/><polygon fill="#181818" points="406.3857,2647.7695,410.3857,2657.7695,414.3857,2647.7695,410.3857,2651.7695" style="stroke:#181818;stroke-width:1;"/><line style="stroke:#181818;stroke-width:1;" x1="152.5518" x2="152.5518" y1="2691.7383" y2="2709.7383"/><line style="stroke:#181818;stroke-width:1;" x1="152.5518" x2="269.4688" y1="2709.7383" y2="2709.7383"/><polygon fill="#181818" points="259.4688,2705.7383,269.4688,2709.7383,259.4688,2713.7383,263.4688,2709.7383" style="stroke:#181818;stroke-width:1;"/><line style="stroke:#181818;stroke-width:1;" x1="410.3857" x2="410.3857" y1="2691.7383" y2="2709.7383"/><line style="stroke:#181818;stroke-width:1;" x1="410.3857" x2="293.4688" y1="2709.7383" y2="2709.7383"/><polygon fill="#181818" points="303.4688,2705.7383,293.4688,2709.7383,303.4688,2713.7383,299.4688,2709.7383" style="stroke:#181818;stroke-width:1;"/><line style="stroke:#181818;stroke-width:1;" x1="281.4688" x2="281.4688" y1="2599.3672" y2="2623.7695"/><polygon fill="#181818" points="277.4688,2613.7695,281.4688,2623.7695,285.4688,2613.7695,281.4688,2617.7695" style="stroke:#181818;stroke-width:1;"/><line style="stroke:#181818;stroke-width:1;" x1="420.7744" x2="526.668" y1="2587.3672" y2="2587.3672"/><polygon fill="#181818" points="522.668,2662.7539,526.668,2672.7539,530.668,2662.7539,526.668,2666.7539" style="stroke:#181818;stroke-width:1;"/><line style="stroke:#181818;stroke-width:1;" x1="526.668" x2="526.668" y1="2587.3672" y2="2753.7383"/><line style="stroke:#181818;stroke-width:1;" x1="526.668" x2="293.4688" y1="2753.7383" y2="2753.7383"/><polygon fill="#181818" points="303.4688,2749.7383,293.4688,2753.7383,303.4688,2757.7383,299.4688,2753.7383" style="stroke:#181818;stroke-width:1;"/><line style="stroke:#181818;stroke-width:1;" x1="281.4688" x2="281.4688" y1="2721.7383" y2="2741.7383"/><polygon fill="#181818" points="277.4688,2731.7383,281.4688,2741.7383,285.4688,2731.7383,281.4688,2735.7383" style="stroke:#181818;stroke-width:1;"/><line style="stroke:#181818;stroke-width:1;" x1="281.4688" x2="281.4688" y1="2555.3672" y2="2575.3672"/><polygon fill="#181818" points="277.4688,2565.3672,281.4688,2575.3672,285.4688,2565.3672,281.4688,2569.3672" style="stroke:#181818;stroke-width:1;"/><line style="stroke:#181818;stroke-width:1;" x1="281.4688" x2="281.4688" y1="2765.7383" y2="2785.7383"/><polygon fill="#181818" points="277.4688,2775.7383,281.4688,2785.7383,285.4688,2775.7383,281.4688,2779.7383" style="stroke:#181818;stroke-width:1;"/><line style="stroke:#181818;stroke-width:1;" x1="410.7236" x2="281.4688" y1="2381.4297" y2="2381.4297"/><line style="stroke:#181818;stroke-width:1;" x1="281.4688" x2="281.4688" y1="2381.4297" y2="2403.4297"/><polygon fill="#181818" points="277.4688,2393.4297,281.4688,2403.4297,285.4688,2393.4297,281.4688,2397.4297" style="stroke:#181818;stroke-width:1;"/><line style="stroke:#181818;stroke-width:1;" x1="540.7161" x2="669.971" y1="2381.4297" y2="2381.4297"/><line style="stroke:#181818;stroke-width:1;" x1="669.971" x2="669.971" y1="2381.4297" y2="2403.4297"/><polygon fill="#181818" points="665.971,2393.4297,669.971,2403.4297,673.971,2393.4297,669.971,2397.4297" style="stroke:#181818;stroke-width:1;"/><line style="stroke:#181818;stroke-width:1;" x1="281.4688" x2="281.4688" y1="2819.707" y2="2837.707"/><line style="stroke:#181818;stroke-width:1;" x1="281.4688" x2="463.7199" y1="2837.707" y2="2837.707"/><polygon fill="#181818" points="453.7199,2833.707,463.7199,2837.707,453.7199,2841.707,457.7199,2837.707" style="stroke:#181818;stroke-width:1;"/><line style="stroke:#181818;stroke-width:1;" x1="669.971" x2="669.971" y1="2437.3984" y2="2837.707"/><line style="stroke:#181818;stroke-width:1;" x1="669.971" x2="487.7199" y1="2837.707" y2="2837.707"/><polygon fill="#181818" points="497.7199,2833.707,487.7199,2837.707,497.7199,2841.707,493.7199,2837.707" style="stroke:#181818;stroke-width:1;"/><line style="stroke:#181818;stroke-width:1;" x1="475.7199" x2="475.7199" y1="2349.4297" y2="2369.4297"/><polygon fill="#181818" points="471.7199,2359.4297,475.7199,2369.4297,479.7199,2359.4297,475.7199,2363.4297" style="stroke:#181818;stroke-width:1;"/><line style="stroke:#181818;stroke-width:1;" x1="475.7199" x2="475.7199" y1="2849.707" y2="2869.707"/><polygon fill="#181818" points="471.7199,2859.707,475.7199,2869.707,479.7199,2859.707,475.7199,2863.707" style="stroke:#181818;stroke-width:1;"/><line style="stroke:#181818;stroke-width:1;" x1="475.7199" x2="475.7199" y1="2903.6758" y2="2923.6758"/><polygon fill="#181818" points="471.7199,2913.6758,475.7199,2923.6758,479.7199,2913.6758,475.7199,2917.6758" style="stroke:#181818;stroke-width:1;"/><!--SRC=[fLLRJnf157xdLvo-67tgkyG7OsrAUf68YS_hxW2JR6V8ibXvm_GYQBqqnKig4RL5xKManWQY5VuCCop_eZFii2gBhMtVTcVF-SxvldE-sQIjMNOWCCm_PdYn18yqOfW8-DO9MplWXHnVpmO3E0g3tG-Rk-9e2Emu8Z0emeO20CDyiyGQcqxzFLiu3ug3f4qJ0KGC71N8xSm7fx7W8HTBF5U7qHbiOZiTII3TnUU5B-ASPIiWp_wgWBDIPQiRCAhRr0gHA7K1lLVWMV5nLXD4EsVzEVH3V8RifzH0CAWeXCTwiOQ2WKwnRkJ824JmyvIfsSW8MtGkVOSgIWhLjVloBpgh2Ne8kKDdxsthUAErNchMLc0cb7n2TSrqwpHho-prl5EkyKQ6drtu2bKlsE8kFDIm2LDQJDQISsmLI-pJT-Uir5lykWRtHc0qPSUf9Rjerl9N7MsTG0HPiyYQ86RwlliO8jZ6Kgx_RQ4hPuWaROteoF1q5MavllJPspcQidGnAbyaYDtmaZgKfYmSYo5hV1OH-u4OEh3ZBLOuwcbLHaRYD6LsWIPHCa69CKKxYU0qycnx1wAQcKGzgNquALO0BY-FNULbAty4OneHYuV51gARhVwcY9BIBS5MYcnxzqu3LVfW4WjJ4-jfkTsUPc6at7HzmgnwsdUV99gxRks5PRvHSGuFsEex61W0SSMmyawplkGNPfnSZL2e8NZTgex4RnSopi6y2zQyVCDFzsx3lh4rhNoHPzT0YOefSMyGPP9pNbXcYtkjhoSTv_F2DrQet4fHjP3TPXVdWcLx_nN_iTJEb_tSl1Xb2F1YRt0TRbusvDH396mX0-kolyV8rSFjNsBzpB0ruIoT9kIbqusRniIWBuAgjNjT-tVc9QmwFeVqb8nJinMklVAch-6-Pd1_3xvOqTAOYKLGpw96KhgEa36DxRY7uIwyn_SFgIgwm_ow0futJDDd3eMj_aAilC-pLJ5EiNxjp3nCYYlTdzArNBdUkYp3HChstoboXtu1]--></g></svg>