<svg xmlns="http://www.w3.org/2000/svg" xmlns:xlink="http://www.w3.org/1999/xlink" contentStyleType="text/css" data-diagram-type="SEQUENCE" height="632px" preserveAspectRatio="none" style="width:1477px;height:632px;background:#FFFFFF;" version="1.1" viewBox="0 0 1477 632" width="1477px" zoomAndPan="magnify"><defs/><g><g><title>&#25554;&#20214;&#27169;&#22359;</title><rect fill="#000000" fill-opacity="0.00000" height="469.9922" width="8" x="31.9999" y="81.2969"/><line style="stroke:#181818;stroke-width:0.5;stroke-dasharray:5.0,5.0;" x1="35" x2="35" y1="81.2969" y2="551.2891"/></g><g><title>RegisterTabSpawners</title><rect fill="#000000" fill-opacity="0.00000" height="469.9922" width="8" x="222.8925" y="81.2969"/><line style="stroke:#181818;stroke-width:0.5;stroke-dasharray:5.0,5.0;" x1="226.5795" x2="226.5795" y1="81.2969" y2="551.2891"/></g><g><title>FTabManager</title><rect fill="#000000" fill-opacity="0.00000" height="469.9922" width="8" x="493.5052" y="81.2969"/><line style="stroke:#181818;stroke-width:0.5;stroke-dasharray:5.0,5.0;" x1="496.787" x2="496.787" y1="81.2969" y2="551.2891"/></g><g><title>SpawnTab_Properties</title><rect fill="#000000" fill-opacity="0.00000" height="469.9922" width="8" x="640.723" y="81.2969"/><line style="stroke:#181818;stroke-width:0.5;stroke-dasharray:5.0,5.0;" x1="644.2235" x2="644.2235" y1="81.2969" y2="551.2891"/></g><g><title>CreateInternalWidgets</title><rect fill="#000000" fill-opacity="0.00000" height="469.9922" width="8" x="819.1879" y="81.2969"/><line style="stroke:#181818;stroke-width:0.5;stroke-dasharray:5.0,5.0;" x1="822.2225" x2="822.2225" y1="81.2969" y2="551.2891"/></g><g><title>FPropertyEditorModule</title><rect fill="#000000" fill-opacity="0.00000" height="469.9922" width="8" x="1094.2123" y="81.2969"/><line style="stroke:#181818;stroke-width:0.5;stroke-dasharray:5.0,5.0;" x1="1098.119" x2="1098.119" y1="81.2969" y2="551.2891"/></g><g><title>FTabLayout</title><rect fill="#000000" fill-opacity="0.00000" height="469.9922" width="8" x="1239.1366" y="81.2969"/><line style="stroke:#181818;stroke-width:0.5;stroke-dasharray:5.0,5.0;" x1="1242.3055" x2="1242.3055" y1="81.2969" y2="551.2891"/></g><g class="participant participant-head" data-participant="PluginModule"><text fill="#000000" font-family="sans-serif" font-size="14" lengthAdjust="spacing" textLength="55.9998" x="5" y="77.9951">&#25554;&#20214;&#27169;&#22359;</text><ellipse cx="35.9999" cy="13.5" fill="#E2E2F0" rx="8" ry="8" style="stroke:#181818;stroke-width:0.5;"/><path d="M35.9999,21.5 L35.9999,48.5 M22.9999,29.5 L48.9999,29.5 M35.9999,48.5 L22.9999,63.5 M35.9999,48.5 L48.9999,63.5" fill="none" style="stroke:#181818;stroke-width:0.5;"/></g><g class="participant participant-tail" data-participant="PluginModule"><text fill="#000000" font-family="sans-serif" font-size="14" lengthAdjust="spacing" textLength="55.9998" x="5" y="563.2842">&#25554;&#20214;&#27169;&#22359;</text><ellipse cx="35.9999" cy="575.0859" fill="#E2E2F0" rx="8" ry="8" style="stroke:#181818;stroke-width:0.5;"/><path d="M35.9999,583.0859 L35.9999,610.0859 M22.9999,591.0859 L48.9999,591.0859 M35.9999,610.0859 L22.9999,625.0859 M35.9999,610.0859 L48.9999,625.0859" fill="none" style="stroke:#181818;stroke-width:0.5;"/></g><g class="participant participant-head" data-participant="&#27880;&#20876;Tab"><rect fill="#E2E2F0" height="30.2969" rx="2.5" ry="2.5" style="stroke:#181818;stroke-width:0.5;" width="166.626" x="143.5795" y="50"/><text fill="#000000" font-family="sans-serif" font-size="14" lengthAdjust="spacing" textLength="152.626" x="150.5795" y="69.9951">RegisterTabSpawners</text></g><g class="participant participant-tail" data-participant="&#27880;&#20876;Tab"><rect fill="#E2E2F0" height="30.2969" rx="2.5" ry="2.5" style="stroke:#181818;stroke-width:0.5;" width="166.626" x="143.5795" y="550.2891"/><text fill="#000000" font-family="sans-serif" font-size="14" lengthAdjust="spacing" textLength="152.626" x="150.5795" y="570.2842">RegisterTabSpawners</text></g><g class="participant participant-head" data-participant="&#26631;&#31614;&#31649;&#29702;&#22120;"><rect fill="#E2E2F0" height="30.2969" rx="2.5" ry="2.5" style="stroke:#181818;stroke-width:0.5;" width="109.4365" x="442.787" y="50"/><text fill="#000000" font-family="sans-serif" font-size="14" lengthAdjust="spacing" textLength="95.4365" x="449.787" y="69.9951">FTabManager</text></g><g class="participant participant-tail" data-participant="&#26631;&#31614;&#31649;&#29702;&#22120;"><rect fill="#E2E2F0" height="30.2969" rx="2.5" ry="2.5" style="stroke:#181818;stroke-width:0.5;" width="109.4365" x="442.787" y="550.2891"/><text fill="#000000" font-family="sans-serif" font-size="14" lengthAdjust="spacing" textLength="95.4365" x="449.787" y="570.2842">FTabManager</text></g><g class="participant participant-head" data-participant="&#29983;&#25104;&#23646;&#24615;&#38754;&#26495;Tab"><rect fill="#E2E2F0" height="30.2969" rx="2.5" ry="2.5" style="stroke:#181818;stroke-width:0.5;" width="164.999" x="562.2235" y="50"/><text fill="#000000" font-family="sans-serif" font-size="14" lengthAdjust="spacing" textLength="150.999" x="569.2235" y="69.9951">SpawnTab_Properties</text></g><g class="participant participant-tail" data-participant="&#29983;&#25104;&#23646;&#24615;&#38754;&#26495;Tab"><rect fill="#E2E2F0" height="30.2969" rx="2.5" ry="2.5" style="stroke:#181818;stroke-width:0.5;" width="164.999" x="562.2235" y="550.2891"/><text fill="#000000" font-family="sans-serif" font-size="14" lengthAdjust="spacing" textLength="150.999" x="569.2235" y="570.2842">SpawnTab_Properties</text></g><g class="participant participant-head" data-participant="&#21019;&#24314;&#32454;&#33410;&#38754;&#26495;"><rect fill="#E2E2F0" height="30.2969" rx="2.5" ry="2.5" style="stroke:#181818;stroke-width:0.5;" width="171.9307" x="737.2225" y="50"/><text fill="#000000" font-family="sans-serif" font-size="14" lengthAdjust="spacing" textLength="157.9307" x="744.2225" y="69.9951">CreateInternalWidgets</text></g><g class="participant participant-tail" data-participant="&#21019;&#24314;&#32454;&#33410;&#38754;&#26495;"><rect fill="#E2E2F0" height="30.2969" rx="2.5" ry="2.5" style="stroke:#181818;stroke-width:0.5;" width="171.9307" x="737.2225" y="550.2891"/><text fill="#000000" font-family="sans-serif" font-size="14" lengthAdjust="spacing" textLength="157.9307" x="744.2225" y="570.2842">CreateInternalWidgets</text></g><g class="participant participant-head" data-participant="&#23646;&#24615;&#27169;&#22359;"><rect fill="#E2E2F0" height="30.2969" rx="2.5" ry="2.5" style="stroke:#181818;stroke-width:0.5;" width="174.1865" x="1011.119" y="50"/><text fill="#000000" font-family="sans-serif" font-size="14" lengthAdjust="spacing" textLength="160.1865" x="1018.119" y="69.9951">FPropertyEditorModule</text></g><g class="participant participant-tail" data-participant="&#23646;&#24615;&#27169;&#22359;"><rect fill="#E2E2F0" height="30.2969" rx="2.5" ry="2.5" style="stroke:#181818;stroke-width:0.5;" width="174.1865" x="1011.119" y="550.2891"/><text fill="#000000" font-family="sans-serif" font-size="14" lengthAdjust="spacing" textLength="160.1865" x="1018.119" y="570.2842">FPropertyEditorModule</text></g><g class="participant participant-head" data-participant="&#26631;&#31614;&#24067;&#23616;"><rect fill="#E2E2F0" height="30.2969" rx="2.5" ry="2.5" style="stroke:#181818;stroke-width:0.5;" width="95.6621" x="1195.3055" y="50"/><text fill="#000000" font-family="sans-serif" font-size="14" lengthAdjust="spacing" textLength="81.6621" x="1202.3055" y="69.9951">FTabLayout</text></g><g class="participant participant-tail" data-participant="&#26631;&#31614;&#24067;&#23616;"><rect fill="#E2E2F0" height="30.2969" rx="2.5" ry="2.5" style="stroke:#181818;stroke-width:0.5;" width="95.6621" x="1195.3055" y="550.2891"/><text fill="#000000" font-family="sans-serif" font-size="14" lengthAdjust="spacing" textLength="81.6621" x="1202.3055" y="570.2842">FTabLayout</text></g><rect fill="#EEEEEE" height="3" style="stroke:#EEEEEE;stroke-width:1;" width="1470.3472" x="0" y="111.8633"/><line style="stroke:#000000;stroke-width:1;" x1="0" x2="1470.3472" y1="111.8633" y2="111.8633"/><line style="stroke:#000000;stroke-width:1;" x1="0" x2="1470.3472" y1="114.8633" y2="114.8633"/><rect fill="#EEEEEE" height="23.1328" style="stroke:#000000;stroke-width:2;" width="57.5259" x="706.4106" y="101.2969"/><text fill="#000000" font-family="sans-serif" font-size="13" font-weight="bold" lengthAdjust="spacing" textLength="39" x="712.4106" y="117.3638">&#21021;&#22987;&#21270;</text><g class="message" data-participant-1="PluginModule" data-participant-2="&#27880;&#20876;Tab"><polygon fill="#181818" points="214.8925,166.6953,224.8925,170.6953,214.8925,174.6953,218.8925,170.6953" style="stroke:#181818;stroke-width:1;"/><line style="stroke:#181818;stroke-width:1;" x1="35.9999" x2="220.8925" y1="170.6953" y2="170.6953"/><text fill="#000000" font-family="sans-serif" font-size="13" lengthAdjust="spacing" textLength="69.3989" x="42.9999" y="150.4966">InitEditor()</text><text fill="#000000" font-family="sans-serif" font-size="13" lengthAdjust="spacing" textLength="166.8926" x="42.9999" y="165.6294">&#8594; RegisterTabSpawners()</text></g><rect fill="#EEEEEE" height="3" style="stroke:#EEEEEE;stroke-width:1;" width="1470.3472" x="0" y="199.2617"/><line style="stroke:#000000;stroke-width:1;" x1="0" x2="1470.3472" y1="199.2617" y2="199.2617"/><line style="stroke:#000000;stroke-width:1;" x1="0" x2="1470.3472" y1="202.2617" y2="202.2617"/><rect fill="#EEEEEE" height="23.1328" style="stroke:#000000;stroke-width:2;" width="146.5074" x="661.9199" y="188.6953"/><text fill="#000000" font-family="sans-serif" font-size="13" font-weight="bold" lengthAdjust="spacing" textLength="127.9815" x="667.9199" y="204.7622">1. &#27880;&#20876;&#23646;&#24615;&#38754;&#26495; Tab</text><g class="message" data-participant-1="&#27880;&#20876;Tab" data-participant-2="&#26631;&#31614;&#31649;&#29702;&#22120;"><polygon fill="#181818" points="485.5052,254.0938,495.5052,258.0938,485.5052,262.0938,489.5052,258.0938" style="stroke:#181818;stroke-width:1;"/><line style="stroke:#181818;stroke-width:1;" x1="226.8925" x2="491.5052" y1="258.0938" y2="258.0938"/><text fill="#000000" font-family="sans-serif" font-size="13" lengthAdjust="spacing" textLength="246.6128" x="233.8925" y="237.895">RegisterTabSpawner(PropertiesTabId,</text><text fill="#000000" font-family="sans-serif" font-size="13" lengthAdjust="spacing" textLength="91.0444" x="233.8925" y="253.0278">OnSpawnTab)</text></g><path d="M502,231.3945 L502,256.3945 L862,256.3945 L862,241.3945 L852,231.3945 L502,231.3945" fill="#FEFFDD" style="stroke:#181818;stroke-width:0.5;"/><path d="M852,231.3945 L852,241.3945 L862,241.3945 L852,231.3945" fill="#FEFFDD" style="stroke:#181818;stroke-width:0.5;"/><text fill="#000000" font-family="sans-serif" font-size="13" lengthAdjust="spacing" textLength="339.6886" x="508" y="248.4614">&#27493;&#39588;&#9312; &#27880;&#20876;&#19968;&#20010; Tab &#65292;&#20851;&#32852; SpawnTab_Properties &#22238;&#35843;</text><rect fill="#EEEEEE" height="3" style="stroke:#EEEEEE;stroke-width:1;" width="1470.3472" x="0" y="286.6602"/><line style="stroke:#000000;stroke-width:1;" x1="0" x2="1470.3472" y1="286.6602" y2="286.6602"/><line style="stroke:#000000;stroke-width:1;" x1="0" x2="1470.3472" y1="289.6602" y2="289.6602"/><rect fill="#EEEEEE" height="23.1328" style="stroke:#000000;stroke-width:2;" width="198.4122" x="635.9675" y="276.0938"/><text fill="#000000" font-family="sans-serif" font-size="13" font-weight="bold" lengthAdjust="spacing" textLength="179.8863" x="641.9675" y="292.1606">2. &#21019;&#24314;&#23646;&#24615;&#38754;&#26495; DetailView</text><g class="message" data-participant-1="PluginModule" data-participant-2="&#21019;&#24314;&#32454;&#33410;&#38754;&#26495;"><polygon fill="#181818" points="811.1879,341.4922,821.1879,345.4922,811.1879,349.4922,815.1879,345.4922" style="stroke:#181818;stroke-width:1;"/><line style="stroke:#181818;stroke-width:1;" x1="35.9999" x2="817.1879" y1="345.4922" y2="345.4922"/><text fill="#000000" font-family="sans-serif" font-size="13" lengthAdjust="spacing" textLength="69.3989" x="42.9999" y="325.2935">InitEditor()</text><text fill="#000000" font-family="sans-serif" font-size="13" lengthAdjust="spacing" textLength="171.8184" x="42.9999" y="340.4263">&#8594; CreateInternalWidgets()</text></g><g class="message" data-participant-1="&#21019;&#24314;&#32454;&#33410;&#38754;&#26495;" data-participant-2="&#23646;&#24615;&#27169;&#22359;"><polygon fill="#181818" points="1086.2123,370.625,1096.2123,374.625,1086.2123,378.625,1090.2123,374.625" style="stroke:#181818;stroke-width:1;"/><line style="stroke:#181818;stroke-width:1;" x1="823.1879" x2="1092.2123" y1="374.625" y2="374.625"/><text fill="#000000" font-family="sans-serif" font-size="13" lengthAdjust="spacing" textLength="251.0244" x="830.1879" y="369.5591">LoadModuleChecked("PropertyEditor")</text></g><g class="message" data-participant-1="&#21019;&#24314;&#32454;&#33410;&#38754;&#26495;" data-participant-2="&#23646;&#24615;&#27169;&#22359;"><polygon fill="#181818" points="1086.2123,399.7578,1096.2123,403.7578,1086.2123,407.7578,1090.2123,403.7578" style="stroke:#181818;stroke-width:1;"/><line style="stroke:#181818;stroke-width:1;" x1="823.1879" x2="1092.2123" y1="403.7578" y2="403.7578"/><text fill="#000000" font-family="sans-serif" font-size="13" lengthAdjust="spacing" textLength="152.3184" x="830.1879" y="398.6919">CreateDetailView(Args)</text></g><g class="message" data-participant-1="&#21019;&#24314;&#32454;&#33410;&#38754;&#26495;" data-participant-2="&#21019;&#24314;&#32454;&#33410;&#38754;&#26495;"><line style="stroke:#181818;stroke-width:1;" x1="823.1879" x2="865.1879" y1="432.8906" y2="432.8906"/><line style="stroke:#181818;stroke-width:1;" x1="865.1879" x2="865.1879" y1="432.8906" y2="445.8906"/><line style="stroke:#181818;stroke-width:1;" x1="824.1879" x2="865.1879" y1="445.8906" y2="445.8906"/><polygon fill="#181818" points="834.1879,441.8906,824.1879,445.8906,834.1879,449.8906,830.1879,445.8906" style="stroke:#181818;stroke-width:1;"/><text fill="#000000" font-family="sans-serif" font-size="13" lengthAdjust="spacing" textLength="234.2539" x="830.1879" y="427.8247">DetailView-&gt;SetObject(GraphAsset)</text></g><path d="M1076.2539,420.2578 L1076.2539,445.2578 L1381.2539,445.2578 L1381.2539,430.2578 L1371.2539,420.2578 L1076.2539,420.2578" fill="#FEFFDD" style="stroke:#181818;stroke-width:0.5;"/><path d="M1371.2539,420.2578 L1371.2539,430.2578 L1381.2539,430.2578 L1371.2539,420.2578" fill="#FEFFDD" style="stroke:#181818;stroke-width:0.5;"/><text fill="#000000" font-family="sans-serif" font-size="13" lengthAdjust="spacing" textLength="284.3498" x="1082.2539" y="437.3247">&#27493;&#39588;&#9313; &#21021;&#22987;&#21270; DetailView&#65292;&#24182;&#35774;&#32622;&#24403;&#21069;&#32534;&#36753;&#23545;&#35937;</text><rect fill="#EEEEEE" height="3" style="stroke:#EEEEEE;stroke-width:1;" width="1470.3472" x="0" y="474.457"/><line style="stroke:#000000;stroke-width:1;" x1="0" x2="1470.3472" y1="474.457" y2="474.457"/><line style="stroke:#000000;stroke-width:1;" x1="0" x2="1470.3472" y1="477.457" y2="477.457"/><rect fill="#EEEEEE" height="23.1328" style="stroke:#000000;stroke-width:2;" width="154.0358" x="658.1557" y="463.8906"/><text fill="#000000" font-family="sans-serif" font-size="13" font-weight="bold" lengthAdjust="spacing" textLength="135.5099" x="664.1557" y="479.9575">3. &#25554;&#20837;&#23646;&#24615;&#38754;&#26495;&#21040;&#24067;&#23616;</text><g class="message" data-participant-1="PluginModule" data-participant-2="&#26631;&#31614;&#24067;&#23616;"><polygon fill="#181818" points="1231.1366,529.2891,1241.1366,533.2891,1231.1366,537.2891,1235.1366,533.2891" style="stroke:#181818;stroke-width:1;"/><line style="stroke:#181818;stroke-width:1;" x1="35.9999" x2="1237.1366" y1="533.2891" y2="533.2891"/><text fill="#000000" font-family="sans-serif" font-size="13" lengthAdjust="spacing" textLength="245.8066" x="42.9999" y="513.0903">FTabLayout::AddTab(PropertiesTabId,</text><text fill="#000000" font-family="sans-serif" font-size="13" lengthAdjust="spacing" textLength="119.5645" x="42.9999" y="528.2231">EVisibility::Visible)</text></g><path d="M1248,506.5898 L1248,531.5898 L1460,531.5898 L1460,516.5898 L1450,506.5898 L1248,506.5898" fill="#FEFFDD" style="stroke:#181818;stroke-width:0.5;"/><path d="M1450,506.5898 L1450,516.5898 L1460,516.5898 L1450,506.5898" fill="#FEFFDD" style="stroke:#181818;stroke-width:0.5;"/><text fill="#000000" font-family="sans-serif" font-size="13" lengthAdjust="spacing" textLength="191.2106" x="1254" y="523.6567">&#27493;&#39588;&#9314; &#23558;&#23646;&#24615;&#38754;&#26495; Tab &#25554;&#20837;&#24067;&#23616;</text><!--SRC=[ZLHHIzjG67tFhxZqAOLPsFOMg52S6mL5cSEz2EEskQHt2pSXkKNwratikgqoTQA8r5cPM0Ix5a7ggjr_aTuaFkqlx2QtaiHciBVqzfvpldFEby0YDIpWVDqU3IwTTeirzm2qmQ9UrZ2PDzIoZYGJMXGNiGa91QcNICCsHTOhM5WouIf1bfto4Sv5czKQ_3H-_Ja_cOS4QiWIruu-kkT3jzDoDsjilns_711om9j5op0H_mC9RdVdkrFVPBr3ftfwrpnschydT6Oi12dA4puPWVfhh6g82Z2h7x31BtTGypv_4E074ux5AhCgvb48pm8P28fG9btDmOfHfX5JhB_6UbL9ocQvPfETVc6DNP3DIb8qJ30r7KO5590dc0fXERr2RclR825WEHsmFiwCeT4aWC_3LK9INo6UCjUPP9N3aFbXNdsqGXR8VGDfYHWK0Gjh9IevvoTtPpzkjux6ygD-TTG_2uJ_N3VO-eNtVWSaT0VOmQ7NNPCGKO5F5vXuaXat4ZFn3568zMMCLdql3mERh30nkSGTyBDBmFkiaNevtvm1LI4vKqB5TqYLK_7DIAN_ZqYC4JgISvPc_nERP2t4Jaql8RfGU8kAL7vXGREKisr44zjfHROk9F0BkhhqEaFtfiDklh5F6-xrhZVSOZ-ll5uhNitJZFyTOEidqMfOlIiMEwcOwEBpkSFNGb5ogif_9IpPx3AsSG7hc5OK9NZMKQAXOy2wjObL7qyethNxyVy2]--></g></svg>