<svg xmlns="http://www.w3.org/2000/svg" xmlns:xlink="http://www.w3.org/1999/xlink" contentStyleType="text/css" data-diagram-type="SEQUENCE" height="593px" preserveAspectRatio="none" style="width:760px;height:593px;background:#FFFFFF;" version="1.1" viewBox="0 0 760 593" width="760px" zoomAndPan="magnify"><defs/><g><g><title>&#29609;&#23478;</title><rect fill="#000000" fill-opacity="0.00000" height="431.8594" width="8" x="17.9999" y="81.2969"/><line style="stroke:#181818;stroke-width:0.5;stroke-dasharray:5.0,5.0;" x1="21" x2="21" y1="81.2969" y2="513.1563"/></g><g><title>&#23453;&#31665; : IInteractable &#23454;&#29616;&#31867;</title><rect fill="#000000" fill-opacity="0.00000" height="431.8594" width="8" x="194.0136" y="81.2969"/><line style="stroke:#181818;stroke-width:0.5;stroke-dasharray:5.0,5.0;" x1="197.6183" x2="197.6183" y1="81.2969" y2="513.1563"/></g><g><title>&#21830;&#20154; : IInteractable &#23454;&#29616;&#31867;</title><rect fill="#000000" fill-opacity="0.00000" height="431.8594" width="8" x="394.8043" y="81.2969"/><line style="stroke:#181818;stroke-width:0.5;stroke-dasharray:5.0,5.0;" x1="398.409" x2="398.409" y1="81.2969" y2="513.1563"/></g><g><title>&#38376; : IInteractable &#23454;&#29616;&#31867;</title><rect fill="#000000" fill-opacity="0.00000" height="431.8594" width="8" x="588.5951" y="81.2969"/><line style="stroke:#181818;stroke-width:0.5;stroke-dasharray:5.0,5.0;" x1="592.1997" x2="592.1997" y1="81.2969" y2="513.1563"/></g><g class="participant participant-head" data-participant="&#29609;&#23478;"><text fill="#000000" font-family="&#24494;&#36719;&#38597;&#40657;" font-size="14" lengthAdjust="spacing" textLength="27.9999" x="5" y="77.9951">&#29609;&#23478;</text><ellipse cx="21.9999" cy="13.5" fill="#E2E2F0" rx="8" ry="8" style="stroke:#181818;stroke-width:0.5;"/><path d="M21.9999,21.5 L21.9999,48.5 M8.9999,29.5 L34.9999,29.5 M21.9999,48.5 L8.9999,63.5 M21.9999,48.5 L34.9999,63.5" fill="none" style="stroke:#181818;stroke-width:0.5;"/></g><g class="participant participant-tail" data-participant="&#29609;&#23478;"><text fill="#000000" font-family="&#24494;&#36719;&#38597;&#40657;" font-size="14" lengthAdjust="spacing" textLength="27.9999" x="5" y="525.1514">&#29609;&#23478;</text><ellipse cx="21.9999" cy="536.9531" fill="#E2E2F0" rx="8" ry="8" style="stroke:#181818;stroke-width:0.5;"/><path d="M21.9999,544.9531 L21.9999,571.9531 M8.9999,552.9531 L34.9999,552.9531 M21.9999,571.9531 L8.9999,586.9531 M21.9999,571.9531 L34.9999,586.9531" fill="none" style="stroke:#181818;stroke-width:0.5;"/></g><g class="participant participant-head" data-participant="&#23453;&#31665;"><rect fill="#E2E2F0" height="30.2969" rx="2.5" ry="2.5" style="stroke:#181818;stroke-width:0.5;" width="190.7907" x="102.6183" y="50"/><text fill="#000000" font-family="&#24494;&#36719;&#38597;&#40657;" font-size="14" lengthAdjust="spacing" textLength="176.7907" x="109.6183" y="69.9951">&#23453;&#31665; : IInteractable &#23454;&#29616;&#31867;</text></g><g class="participant participant-tail" data-participant="&#23453;&#31665;"><rect fill="#E2E2F0" height="30.2969" rx="2.5" ry="2.5" style="stroke:#181818;stroke-width:0.5;" width="190.7907" x="102.6183" y="512.1563"/><text fill="#000000" font-family="&#24494;&#36719;&#38597;&#40657;" font-size="14" lengthAdjust="spacing" textLength="176.7907" x="109.6183" y="532.1514">&#23453;&#31665; : IInteractable &#23454;&#29616;&#31867;</text></g><g class="participant participant-head" data-participant="&#21830;&#20154;"><rect fill="#E2E2F0" height="30.2969" rx="2.5" ry="2.5" style="stroke:#181818;stroke-width:0.5;" width="190.7907" x="303.409" y="50"/><text fill="#000000" font-family="&#24494;&#36719;&#38597;&#40657;" font-size="14" lengthAdjust="spacing" textLength="176.7907" x="310.409" y="69.9951">&#21830;&#20154; : IInteractable &#23454;&#29616;&#31867;</text></g><g class="participant participant-tail" data-participant="&#21830;&#20154;"><rect fill="#E2E2F0" height="30.2969" rx="2.5" ry="2.5" style="stroke:#181818;stroke-width:0.5;" width="190.7907" x="303.409" y="512.1563"/><text fill="#000000" font-family="&#24494;&#36719;&#38597;&#40657;" font-size="14" lengthAdjust="spacing" textLength="176.7907" x="310.409" y="532.1514">&#21830;&#20154; : IInteractable &#23454;&#29616;&#31867;</text></g><g class="participant participant-head" data-participant="&#38376;"><rect fill="#E2E2F0" height="30.2969" rx="2.5" ry="2.5" style="stroke:#181818;stroke-width:0.5;" width="176.7908" x="504.1997" y="50"/><text fill="#000000" font-family="&#24494;&#36719;&#38597;&#40657;" font-size="14" lengthAdjust="spacing" textLength="162.7908" x="511.1997" y="69.9951">&#38376; : IInteractable &#23454;&#29616;&#31867;</text></g><g class="participant participant-tail" data-participant="&#38376;"><rect fill="#E2E2F0" height="30.2969" rx="2.5" ry="2.5" style="stroke:#181818;stroke-width:0.5;" width="176.7908" x="504.1997" y="512.1563"/><text fill="#000000" font-family="&#24494;&#36719;&#38597;&#40657;" font-size="14" lengthAdjust="spacing" textLength="162.7908" x="511.1997" y="532.1514">&#38376; : IInteractable &#23454;&#29616;&#31867;</text></g><rect fill="#EEEEEE" height="3" style="stroke:#EEEEEE;stroke-width:1;" width="753.0002" x="0" y="111.8633"/><line style="stroke:#000000;stroke-width:1;" x1="0" x2="753.0002" y1="111.8633" y2="111.8633"/><line style="stroke:#000000;stroke-width:1;" x1="0" x2="753.0002" y1="114.8633" y2="114.8633"/><rect fill="#EEEEEE" height="23.1328" style="stroke:#000000;stroke-width:2;" width="277.9929" x="237.5036" y="101.2969"/><text fill="#000000" font-family="&#24494;&#36719;&#38597;&#40657;" font-size="13" font-weight="bold" lengthAdjust="spacing" textLength="259.467" x="243.5036" y="117.3638">&#29609;&#23478;&#36890;&#36807; IInteractable &#25509;&#21475;&#36827;&#34892;&#32479;&#19968;&#35843;&#29992;</text><g class="message" data-participant-1="&#29609;&#23478;" data-participant-2="&#23453;&#31665;"><polygon fill="#181818" points="186.0136,151.5625,196.0136,155.5625,186.0136,159.5625,190.0136,155.5625" style="stroke:#181818;stroke-width:1;"/><line style="stroke:#181818;stroke-width:1;" x1="21.9999" x2="192.0136" y1="155.5625" y2="155.5625"/><text fill="#000000" font-family="&#24494;&#36719;&#38597;&#40657;" font-size="13" lengthAdjust="spacing" textLength="152.0137" x="28.9999" y="150.4966">IInteractable::Interact()</text></g><path d="M203,168.5625 L203,208.5625 L367,208.5625 L367,178.5625 L357,168.5625 L203,168.5625" fill="#FEFFDD" style="stroke:#181818;stroke-width:0.5;"/><path d="M357,168.5625 L357,178.5625 L367,178.5625 L357,168.5625" fill="#FEFFDD" style="stroke:#181818;stroke-width:0.5;"/><text fill="#000000" font-family="&#24494;&#36719;&#38597;&#40657;" font-size="13" lengthAdjust="spacing" textLength="143.0002" x="209" y="185.6294">&#23454;&#38469;&#35843;&#29992;&#23453;&#31665;&#30340;&#20132;&#20114;&#36923;&#36753;</text><text fill="#000000" font-family="&#24494;&#36719;&#38597;&#40657;" font-size="13" lengthAdjust="spacing" textLength="91.0001" x="209" y="200.7622">&#20363;&#22914;&#65306;&#25171;&#24320;&#23453;&#31665;</text><g class="message" data-participant-1="&#23453;&#31665;" data-participant-2="&#29609;&#23478;"><polygon fill="#181818" points="32.9999,230.9609,22.9999,234.9609,32.9999,238.9609,28.9999,234.9609" style="stroke:#181818;stroke-width:1;"/><line style="stroke:#181818;stroke-width:1;stroke-dasharray:2.0,2.0;" x1="26.9999" x2="197.0136" y1="234.9609" y2="234.9609"/><text fill="#000000" font-family="&#24494;&#36719;&#38597;&#40657;" font-size="13" lengthAdjust="spacing" textLength="78.0001" x="38.9999" y="229.895">&#36820;&#22238;&#20132;&#20114;&#32467;&#26524;</text></g><g class="message" data-participant-1="&#29609;&#23478;" data-participant-2="&#21830;&#20154;"><polygon fill="#181818" points="386.8043,260.0938,396.8043,264.0938,386.8043,268.0938,390.8043,264.0938" style="stroke:#181818;stroke-width:1;"/><line style="stroke:#181818;stroke-width:1;" x1="21.9999" x2="392.8043" y1="264.0938" y2="264.0938"/><text fill="#000000" font-family="&#24494;&#36719;&#38597;&#40657;" font-size="13" lengthAdjust="spacing" textLength="152.0137" x="28.9999" y="259.0278">IInteractable::Interact()</text></g><path d="M403,277.0938 L403,317.0938 L567,317.0938 L567,287.0938 L557,277.0938 L403,277.0938" fill="#FEFFDD" style="stroke:#181818;stroke-width:0.5;"/><path d="M557,277.0938 L557,287.0938 L567,287.0938 L557,277.0938" fill="#FEFFDD" style="stroke:#181818;stroke-width:0.5;"/><text fill="#000000" font-family="&#24494;&#36719;&#38597;&#40657;" font-size="13" lengthAdjust="spacing" textLength="143.0002" x="409" y="294.1606">&#23454;&#38469;&#35843;&#29992;&#21830;&#20154;&#30340;&#20132;&#20114;&#36923;&#36753;</text><text fill="#000000" font-family="&#24494;&#36719;&#38597;&#40657;" font-size="13" lengthAdjust="spacing" textLength="117.0001" x="409" y="309.2935">&#20363;&#22914;&#65306;&#25171;&#24320;&#21830;&#24215;&#30028;&#38754;</text><g class="message" data-participant-1="&#21830;&#20154;" data-participant-2="&#29609;&#23478;"><polygon fill="#181818" points="32.9999,339.4922,22.9999,343.4922,32.9999,347.4922,28.9999,343.4922" style="stroke:#181818;stroke-width:1;"/><line style="stroke:#181818;stroke-width:1;stroke-dasharray:2.0,2.0;" x1="26.9999" x2="397.8043" y1="343.4922" y2="343.4922"/><text fill="#000000" font-family="&#24494;&#36719;&#38597;&#40657;" font-size="13" lengthAdjust="spacing" textLength="78.0001" x="38.9999" y="338.4263">&#36820;&#22238;&#20132;&#20114;&#32467;&#26524;</text></g><g class="message" data-participant-1="&#29609;&#23478;" data-participant-2="&#38376;"><polygon fill="#181818" points="580.5951,368.625,590.5951,372.625,580.5951,376.625,584.5951,372.625" style="stroke:#181818;stroke-width:1;"/><line style="stroke:#181818;stroke-width:1;" x1="21.9999" x2="586.5951" y1="372.625" y2="372.625"/><text fill="#000000" font-family="&#24494;&#36719;&#38597;&#40657;" font-size="13" lengthAdjust="spacing" textLength="152.0137" x="28.9999" y="367.5591">IInteractable::Interact()</text></g><path d="M597,385.625 L597,425.625 L748,425.625 L748,395.625 L738,385.625 L597,385.625" fill="#FEFFDD" style="stroke:#181818;stroke-width:0.5;"/><path d="M738,385.625 L738,395.625 L748,395.625 L738,385.625" fill="#FEFFDD" style="stroke:#181818;stroke-width:0.5;"/><text fill="#000000" font-family="&#24494;&#36719;&#38597;&#40657;" font-size="13" lengthAdjust="spacing" textLength="130.0002" x="603" y="402.6919">&#23454;&#38469;&#35843;&#29992;&#38376;&#30340;&#20132;&#20114;&#36923;&#36753;</text><text fill="#000000" font-family="&#24494;&#36719;&#38597;&#40657;" font-size="13" lengthAdjust="spacing" textLength="91.0001" x="603" y="417.8247">&#20363;&#22914;&#65306;&#38376;&#34987;&#25171;&#24320;</text><g class="message" data-participant-1="&#38376;" data-participant-2="&#29609;&#23478;"><polygon fill="#181818" points="32.9999,448.0234,22.9999,452.0234,32.9999,456.0234,28.9999,452.0234" style="stroke:#181818;stroke-width:1;"/><line style="stroke:#181818;stroke-width:1;stroke-dasharray:2.0,2.0;" x1="26.9999" x2="591.5951" y1="452.0234" y2="452.0234"/><text fill="#000000" font-family="&#24494;&#36719;&#38597;&#40657;" font-size="13" lengthAdjust="spacing" textLength="78.0001" x="38.9999" y="446.9575">&#36820;&#22238;&#20132;&#20114;&#32467;&#26524;</text></g><rect fill="#EEEEEE" height="3" style="stroke:#EEEEEE;stroke-width:1;" width="753.0002" x="0" y="480.5898"/><line style="stroke:#000000;stroke-width:1;" x1="0" x2="753.0002" y1="480.5898" y2="480.5898"/><line style="stroke:#000000;stroke-width:1;" x1="0" x2="753.0002" y1="483.5898" y2="483.5898"/><rect fill="#EEEEEE" height="23.1328" style="stroke:#000000;stroke-width:2;" width="252.5262" x="250.237" y="470.0234"/><text fill="#000000" font-family="&#24494;&#36719;&#38597;&#40657;" font-size="13" font-weight="bold" lengthAdjust="spacing" textLength="234.0003" x="256.237" y="486.0903">&#29609;&#23478;&#26080;&#38656;&#20851;&#24515;&#20855;&#20307;&#23545;&#35937;&#31867;&#22411;&#65292;&#21482;&#35843;&#29992;&#25509;&#21475;</text><!--SRC=[bPBBJi9058RtynGJLxhW1PhKfGaRdy1DHT16Q4cf-qOina0W28J8fGfUWfeKY8cN5kZBT3hJ5Q_Wo1GLWZGkvyp_dVbcvcIEHIajA48A7iGJmabItP4bTLT8nI6Qc6JSzvkwRvS146Agh41SV4JcAw20AiR4j22fS0EPRMmE8GUZKKcDApGex2SfRXguEC13UmCA6SX2Is0jvrfM63WBBO9-lHT2qGG0F1_u-bg3EETBW5UyHwLRuZH9fu3jQ_TT8uCihlOWpmF0E1ZPXgjlnt7prUOMa6Gr3XNny4Y5Sk87e4R-bSwQiY9kdBdMdMjT-ffD9kKzoPtaqSFfTDJmBYfef0MF57I8qDC33muIfugQ1gEnNV6CreBaofTS9pa75YHdnL39MWvPTLmh-Eqk2FhyGtN5twtnPEdVahJojo7T9DrdvWc-s52nxndnwZT-IqFw2tAoI7zpnnNK_o333fqePEIdem8gFJ43DZXqJ3u1]--></g></svg>