<?xml version="1.0" encoding="us-ascii" standalone="no"?><svg xmlns="http://www.w3.org/2000/svg" xmlns:xlink="http://www.w3.org/1999/xlink" contentStyleType="text/css" height="219px" preserveAspectRatio="none" style="width:298px;height:219px;background:#FFFFFF;" version="1.1" viewBox="0 0 298 219" width="298px" zoomAndPan="magnify"><defs/><g><!--class LazySingleton--><g id="elem_LazySingleton"><rect codeLine="1" fill="#F1F1F1" height="96.8906" id="LazySingleton" rx="2.5" ry="2.5" style="stroke:#181818;stroke-width:0.5;" width="284" x="7" y="7"/><ellipse cx="94.25" cy="23" fill="#ADD1B2" rx="11" ry="11" style="stroke:#181818;stroke-width:1.0;"/><path d="M96.5938,18.6719 C95.6563,18.2344 95.0625,18.0938 94.1875,18.0938 C91.5625,18.0938 89.5625,20.1719 89.5625,22.8906 L89.5625,24.0156 C89.5625,26.5938 91.6719,28.4844 94.5625,28.4844 C95.7813,28.4844 96.9375,28.1875 97.6875,27.6406 C98.2656,27.2344 98.5938,26.7813 98.5938,26.3906 C98.5938,25.9375 98.2031,25.5469 97.7344,25.5469 C97.5156,25.5469 97.3125,25.625 97.125,25.8125 C96.6719,26.2969 96.6719,26.2969 96.4844,26.3906 C96.0625,26.6563 95.375,26.7813 94.6094,26.7813 C92.5625,26.7813 91.2656,25.6875 91.2656,23.9844 L91.2656,22.8906 C91.2656,21.1094 92.5156,19.7969 94.25,19.7969 C94.8281,19.7969 95.4375,19.9531 95.9063,20.2031 C96.3906,20.4844 96.5625,20.7031 96.6563,21.1094 C96.7188,21.5156 96.75,21.6406 96.8906,21.7656 C97.0313,21.9063 97.2656,22.0156 97.4844,22.0156 C97.75,22.0156 98.0156,21.875 98.1875,21.6563 C98.2969,21.5 98.3281,21.3125 98.3281,20.8906 L98.3281,19.4688 C98.3281,19.0313 98.3125,18.9063 98.2188,18.75 C98.0625,18.4844 97.7813,18.3438 97.4844,18.3438 C97.1875,18.3438 96.9844,18.4375 96.7656,18.75 L96.5938,18.6719 Z " fill="#000000"/><text fill="#000000" font-family="sans-serif" font-size="14" lengthAdjust="spacing" textLength="101" x="114.75" y="27.8467">LazySingleton</text><line style="stroke:#181818;stroke-width:0.5;" x1="8" x2="290" y1="39" y2="39"/><rect fill="none" height="6" style="stroke:#C82930;stroke-width:1.0;" width="6" x="15" y="49.6484"/><text fill="#000000" font-family="sans-serif" font-size="14" lengthAdjust="spacing" textLength="223" x="27" y="55.9951">static instance: LazySingleton*</text><line style="stroke:#181818;stroke-width:0.5;" x1="8" x2="290" y1="63.2969" y2="63.2969"/><rect fill="#F24D5C" height="6" style="stroke:#C82930;stroke-width:1.0;" width="6" x="15" y="73.9453"/><text fill="#000000" font-family="sans-serif" font-size="14" lengthAdjust="spacing" textLength="111" x="27" y="80.292">LazySingleton()</text><ellipse cx="18" cy="93.2422" fill="#84BE84" rx="3" ry="3" style="stroke:#038048;stroke-width:1.0;"/><text fill="#000000" font-family="sans-serif" font-size="14" lengthAdjust="spacing" textLength="258" x="27" y="96.5889">static getInstance(): LazySingleton*</text></g><!--class Singleton--><g id="elem_Singleton"><rect fill="#F1F1F1" height="48" id="Singleton" rx="2.5" ry="2.5" style="stroke:#181818;stroke-width:0.5;" width="101" x="98.5" y="164"/><ellipse cx="113.5" cy="180" fill="#ADD1B2" rx="11" ry="11" style="stroke:#181818;stroke-width:1.0;"/><path d="M115.8438,175.6719 C114.9063,175.2344 114.3125,175.0938 113.4375,175.0938 C110.8125,175.0938 108.8125,177.1719 108.8125,179.8906 L108.8125,181.0156 C108.8125,183.5938 110.9219,185.4844 113.8125,185.4844 C115.0313,185.4844 116.1875,185.1875 116.9375,184.6406 C117.5156,184.2344 117.8438,183.7813 117.8438,183.3906 C117.8438,182.9375 117.4531,182.5469 116.9844,182.5469 C116.7656,182.5469 116.5625,182.625 116.375,182.8125 C115.9219,183.2969 115.9219,183.2969 115.7344,183.3906 C115.3125,183.6563 114.625,183.7813 113.8594,183.7813 C111.8125,183.7813 110.5156,182.6875 110.5156,180.9844 L110.5156,179.8906 C110.5156,178.1094 111.7656,176.7969 113.5,176.7969 C114.0781,176.7969 114.6875,176.9531 115.1563,177.2031 C115.6406,177.4844 115.8125,177.7031 115.9063,178.1094 C115.9688,178.5156 116,178.6406 116.1406,178.7656 C116.2813,178.9063 116.5156,179.0156 116.7344,179.0156 C117,179.0156 117.2656,178.875 117.4375,178.6563 C117.5469,178.5 117.5781,178.3125 117.5781,177.8906 L117.5781,176.4688 C117.5781,176.0313 117.5625,175.9063 117.4688,175.75 C117.3125,175.4844 117.0313,175.3438 116.7344,175.3438 C116.4375,175.3438 116.2344,175.4375 116.0156,175.75 L115.8438,175.6719 Z " fill="#000000"/><text fill="#000000" font-family="sans-serif" font-size="14" lengthAdjust="spacing" textLength="69" x="127.5" y="184.8467">Singleton</text><line style="stroke:#181818;stroke-width:0.5;" x1="99.5" x2="198.5" y1="196" y2="196"/><line style="stroke:#181818;stroke-width:0.5;" x1="99.5" x2="198.5" y1="204" y2="204"/></g><!--link LazySingleton to Singleton--><g id="link_LazySingleton_Singleton"><path codeLine="6" d="M149,104.352 C149,124.575 149,129.2029 149,145.6622 " fill="none" id="LazySingleton-to-Singleton" style="stroke:#181818;stroke-width:1.0;"/><polygon fill="none" points="149,163.6622,155,145.6622,143,145.6622,149,163.6622" style="stroke:#181818;stroke-width:1.0;"/></g><!--SRC=[Iyv9B2vMy4cigWpEp4lFIIt9prEevb9Gq5KeBaaioKnMoCm3ClAIKwrG5Mc1rQ08QMW2nRHX-j9JIpoXMZKqCJJNSg5QgQjROwS0vm80]--></g></svg>