<svg xmlns="http://www.w3.org/2000/svg" xmlns:xlink="http://www.w3.org/1999/xlink" contentStyleType="text/css" data-diagram-type="CLASS" height="354px" preserveAspectRatio="none" style="width:606px;height:354px;background:#FFFFFF;" version="1.1" viewBox="0 0 606 354" width="606px" zoomAndPan="magnify"><defs/><g><!--class ULyraPickupDefinition\n(?????)--><g class="entity" data-entity="ULyraPickupDefinition\n(&#25342;&#21462;&#29289;&#23450;&#20041;)" data-source-line="2" data-uid="ent0002" id="entity_ULyraPickupDefinition\n(&#25342;&#21462;&#29289;&#23450;&#20041;)"><rect fill="#F1F1F1" height="172.6719" rx="2.5" ry="2.5" style="stroke:#181818;stroke-width:0.5;" width="592.5896" x="7" y="175.19"/><ellipse cx="221.8671" cy="196.4869" fill="#ADD1B2" rx="11" ry="11" style="stroke:#181818;stroke-width:1;"/><path d="M224.8358,202.1275 Q224.2577,202.4244 223.6171,202.565 Q222.9764,202.7213 222.2733,202.7213 Q219.7733,202.7213 218.4452,201.0806 Q217.1327,199.4244 217.1327,196.2994 Q217.1327,193.1744 218.4452,191.5181 Q219.7733,189.8619 222.2733,189.8619 Q222.9764,189.8619 223.6171,190.0181 Q224.2733,190.1744 224.8358,190.4713 L224.8358,193.19 Q224.2108,192.6119 223.6171,192.3463 Q223.0233,192.065 222.3983,192.065 Q221.0546,192.065 220.3671,193.1431 Q219.6796,194.2056 219.6796,196.2994 Q219.6796,198.3931 220.3671,199.4713 Q221.0546,200.5338 222.3983,200.5338 Q223.0233,200.5338 223.6171,200.2681 Q224.2108,199.9869 224.8358,199.4088 L224.8358,202.1275 Z " fill="#000000"/><text fill="#000000" font-family="sans-serif" font-size="14" lengthAdjust="spacing" textLength="154.3555" x="242.3671" y="193.1851">ULyraPickupDefinition</text><text fill="#000000" font-family="sans-serif" font-size="14" lengthAdjust="spacing" textLength="80.9235" x="279.083" y="209.482">(&#25342;&#21462;&#29289;&#23450;&#20041;)</text><line style="stroke:#181818;stroke-width:0.5;" x1="8" x2="598.5896" y1="217.7838" y2="217.7838"/><rect fill="none" height="6" style="stroke:#C82930;stroke-width:1;" width="6" x="15" y="228.4322"/><text fill="#000000" font-family="sans-serif" font-size="14" lengthAdjust="spacing" textLength="566.5896" x="27" y="234.7789">InventoryItemDefinition: TSubclassOf&lt;ULyraInventoryItemDefinition&gt; // &#29289;&#21697;&#23450;&#20041;</text><rect fill="none" height="6" style="stroke:#C82930;stroke-width:1;" width="6" x="15" y="244.7291"/><text fill="#000000" font-family="sans-serif" font-size="14" lengthAdjust="spacing" textLength="356.3982" x="27" y="251.0757">DisplayMesh: TObjectPtr&lt;UStaticMesh&gt; // &#26174;&#31034;&#27169;&#22411;</text><rect fill="none" height="6" style="stroke:#C82930;stroke-width:1;" width="6" x="15" y="261.0259"/><text fill="#000000" font-family="sans-serif" font-size="14" lengthAdjust="spacing" textLength="295.5242" x="27" y="267.3726">SpawnCoolDownSeconds: int32 // &#37325;&#29983;&#20919;&#21364;</text><rect fill="none" height="6" style="stroke:#C82930;stroke-width:1;" width="6" x="15" y="277.3228"/><text fill="#000000" font-family="sans-serif" font-size="14" lengthAdjust="spacing" textLength="378.075" x="27" y="283.6695">PickedUpSound: TObjectPtr&lt;USoundBase&gt; // &#25342;&#21462;&#38899;&#25928;</text><rect fill="none" height="6" style="stroke:#C82930;stroke-width:1;" width="6" x="15" y="293.6197"/><text fill="#000000" font-family="sans-serif" font-size="14" lengthAdjust="spacing" textLength="394.2283" x="27" y="299.9664">RespawnedSound: TObjectPtr&lt;USoundBase&gt; // &#37325;&#29983;&#38899;&#25928;</text><rect fill="none" height="6" style="stroke:#C82930;stroke-width:1;" width="6" x="15" y="309.9166"/><text fill="#000000" font-family="sans-serif" font-size="14" lengthAdjust="spacing" textLength="403.2654" x="27" y="316.2632">PickedUpEffect: TObjectPtr&lt;UNiagaraSystem&gt; // &#25342;&#21462;&#29305;&#25928;</text><rect fill="none" height="6" style="stroke:#C82930;stroke-width:1;" width="6" x="15" y="326.2134"/><text fill="#000000" font-family="sans-serif" font-size="14" lengthAdjust="spacing" textLength="419.4187" x="27" y="332.5601">RespawnedEffect: TObjectPtr&lt;UNiagaraSystem&gt; // &#37325;&#29983;&#29305;&#25928;</text><line style="stroke:#181818;stroke-width:0.5;" x1="8" x2="598.5896" y1="339.8619" y2="339.8619"/></g><!--class ULyraWeaponPickupDefinition\n(???????)--><g class="entity" data-entity="ULyraWeaponPickupDefinition\n(&#27494;&#22120;&#25342;&#21462;&#29289;&#23450;&#20041;)" data-source-line="13" data-uid="ent0003" id="entity_ULyraWeaponPickupDefinition\n(&#27494;&#22120;&#25342;&#21462;&#29289;&#23450;&#20041;)"><rect fill="#F1F1F1" height="91.1875" rx="2.5" ry="2.5" style="stroke:#181818;stroke-width:0.5;" width="299.7449" x="153.42" y="7"/><ellipse cx="193.6331" cy="28.2969" fill="#ADD1B2" rx="11" ry="11" style="stroke:#181818;stroke-width:1;"/><path d="M196.6018,33.9375 Q196.0237,34.2344 195.3831,34.375 Q194.7424,34.5313 194.0393,34.5313 Q191.5393,34.5313 190.2112,32.8906 Q188.8987,31.2344 188.8987,28.1094 Q188.8987,24.9844 190.2112,23.3281 Q191.5393,21.6719 194.0393,21.6719 Q194.7424,21.6719 195.3831,21.8281 Q196.0393,21.9844 196.6018,22.2813 L196.6018,25 Q195.9768,24.4219 195.3831,24.1563 Q194.7893,23.875 194.1643,23.875 Q192.8206,23.875 192.1331,24.9531 Q191.4456,26.0156 191.4456,28.1094 Q191.4456,30.2031 192.1331,31.2813 Q192.8206,32.3438 194.1643,32.3438 Q194.7893,32.3438 195.3831,32.0781 Q195.9768,31.7969 196.6018,31.2188 L196.6018,33.9375 Z " fill="#000000"/><text fill="#000000" font-family="sans-serif" font-size="14" lengthAdjust="spacing" textLength="211.7158" x="213.236" y="24.9951">ULyraWeaponPickupDefinition</text><text fill="#000000" font-family="sans-serif" font-size="14" lengthAdjust="spacing" textLength="108.9234" x="264.6322" y="41.292">(&#27494;&#22120;&#25342;&#21462;&#29289;&#23450;&#20041;)</text><line style="stroke:#181818;stroke-width:0.5;" x1="154.42" x2="452.1649" y1="49.5938" y2="49.5938"/><rect fill="none" height="6" style="stroke:#C82930;stroke-width:1;" width="6" x="161.42" y="60.2422"/><text fill="#000000" font-family="sans-serif" font-size="14" lengthAdjust="spacing" textLength="273.7449" x="173.42" y="66.5889">WeaponMeshOffset: FVector // &#27169;&#22411;&#20559;&#31227;</text><rect fill="none" height="6" style="stroke:#C82930;stroke-width:1;" width="6" x="161.42" y="76.5391"/><text fill="#000000" font-family="sans-serif" font-size="14" lengthAdjust="spacing" textLength="269.1375" x="173.42" y="82.8857">WeaponMeshScale: FVector // &#27169;&#22411;&#32553;&#25918;</text><line style="stroke:#181818;stroke-width:0.5;" x1="154.42" x2="452.1649" y1="90.1875" y2="90.1875"/></g><!--link ULyraWeaponPickupDefinition\n(???????) to ULyraPickupDefinition\n(?????)--><g class="link" data-entity-1="ULyraWeaponPickupDefinition\n(&#27494;&#22120;&#25342;&#21462;&#29289;&#23450;&#20041;)" data-entity-2="ULyraPickupDefinition\n(&#25342;&#21462;&#29289;&#23450;&#20041;)" data-source-line="20" data-uid="lnk4" id="link_ULyraWeaponPickupDefinition\n(&#27494;&#22120;&#25342;&#21462;&#29289;&#23450;&#20041;)_ULyraPickupDefinition\n(&#25342;&#21462;&#29289;&#23450;&#20041;)"><path codeLine="20" d="M303.29,98.5 C303.29,120.84 303.29,130.62 303.29,156.84 " fill="none" id="ULyraWeaponPickupDefinition\n(&#27494;&#22120;&#25342;&#21462;&#29289;&#23450;&#20041;)-to-ULyraPickupDefinition\n(&#25342;&#21462;&#29289;&#23450;&#20041;)" style="stroke:#181818;stroke-width:1;"/><polygon fill="none" points="303.29,174.84,309.29,156.84,297.29,156.84,303.29,174.84" style="stroke:#181818;stroke-width:1;"/><text fill="#000000" font-family="sans-serif" font-size="13" lengthAdjust="spacing" textLength="26" x="304.29" y="141.2569">&#32487;&#25215;</text></g><!--SRC=[dPDDIyD048Rl-HMBb-gX27ehqeDMGL0hnkh5opRPQBJkXcog1FNWmOzIIWzMKGyMGRGU5AI2j2dnpxXPUl8lc4qYMgsVUvoTvtrdPcTZW5MR_CvvRfrc9cmJJklAIjv88Kt7kgKJB2avI2dewNgvW7kzeilAHxnmpMvFdng5lXwm8G7_nC4uNaFO8gOzRg7LDoO1PkLyDb1DQqE1x1UPIT3V3uJomNOe7WcdT6hae3s9w98lbiuk8yMQjioXZ6n1IrT4F42zOvTVDBtQEJihHgXim7KyGaWkHTQnZ1I2LPe0EhO61mJHtYlnIfNjFh3IVKI8bf6QCMIIn-e7En4QXXI5Ri4WsjMwTxWViJE82Z-a_WY7nXtmg_6eflbC9pobmqLeGjcc_i3UkVD2eulxxnJ24YA5BKcA0U_U5P6ttPX7q23usmtfdYBsvEQIdTI-tfOG56-NrZIA_7B7vlnYYHbq5xmXsoxpA-TJlgp07EgIpblNNiKLhVYzSEVAApoodJglEz8_Iut7DvD_-GY9oFK5]--></g></svg>