<?xml version="1.0" encoding="us-ascii" standalone="no"?><svg xmlns="http://www.w3.org/2000/svg" xmlns:xlink="http://www.w3.org/1999/xlink" contentStyleType="text/css" height="326px" preserveAspectRatio="none" style="width:379px;height:326px;background:#FFFFFF;" version="1.1" viewBox="0 0 379 326" width="379px" zoomAndPan="magnify"><defs/><g><!--class Product--><g id="elem_Product"><rect codeLine="1" fill="#F1F1F1" height="64.2969" id="Product" rx="2.5" ry="2.5" style="stroke:#181818;stroke-width:0.5;" width="131" x="124" y="131"/><ellipse cx="158.35" cy="147" fill="#ADD1B2" rx="11" ry="11" style="stroke:#181818;stroke-width:1.0;"/><path d="M160.6938,142.6719 C159.7563,142.2344 159.1625,142.0938 158.2875,142.0938 C155.6625,142.0938 153.6625,144.1719 153.6625,146.8906 L153.6625,148.0156 C153.6625,150.5938 155.7719,152.4844 158.6625,152.4844 C159.8813,152.4844 161.0375,152.1875 161.7875,151.6406 C162.3656,151.2344 162.6938,150.7813 162.6938,150.3906 C162.6938,149.9375 162.3031,149.5469 161.8344,149.5469 C161.6156,149.5469 161.4125,149.625 161.225,149.8125 C160.7719,150.2969 160.7719,150.2969 160.5844,150.3906 C160.1625,150.6563 159.475,150.7813 158.7094,150.7813 C156.6625,150.7813 155.3656,149.6875 155.3656,147.9844 L155.3656,146.8906 C155.3656,145.1094 156.6156,143.7969 158.35,143.7969 C158.9281,143.7969 159.5375,143.9531 160.0063,144.2031 C160.4906,144.4844 160.6625,144.7031 160.7563,145.1094 C160.8188,145.5156 160.85,145.6406 160.9906,145.7656 C161.1313,145.9063 161.3656,146.0156 161.5844,146.0156 C161.85,146.0156 162.1156,145.875 162.2875,145.6563 C162.3969,145.5 162.4281,145.3125 162.4281,144.8906 L162.4281,143.4688 C162.4281,143.0313 162.4125,142.9063 162.3188,142.75 C162.1625,142.4844 161.8813,142.3438 161.5844,142.3438 C161.2875,142.3438 161.0844,142.4375 160.8656,142.75 L160.6938,142.6719 Z " fill="#000000"/><text fill="#000000" font-family="sans-serif" font-size="14" lengthAdjust="spacing" textLength="56" x="176.65" y="151.8467">Product</text><line style="stroke:#181818;stroke-width:0.5;" x1="125" x2="254" y1="163" y2="163"/><line style="stroke:#181818;stroke-width:0.5;" x1="125" x2="254" y1="171" y2="171"/><ellipse cx="135" cy="184.6484" fill="#84BE84" rx="3" ry="3" style="stroke:#038048;stroke-width:1.0;"/><text fill="#000000" font-family="sans-serif" font-size="14" font-style="italic" lengthAdjust="spacing" textLength="105" x="144" y="187.9951">operate(): void</text></g><!--class ConcreteProductA--><g id="elem_ConcreteProductA"><rect codeLine="5" fill="#F1F1F1" height="64.2969" id="ConcreteProductA" rx="2.5" ry="2.5" style="stroke:#181818;stroke-width:0.5;" width="165" x="7" y="255"/><ellipse cx="22" cy="271" fill="#ADD1B2" rx="11" ry="11" style="stroke:#181818;stroke-width:1.0;"/><path d="M24.3438,266.6719 C23.4063,266.2344 22.8125,266.0938 21.9375,266.0938 C19.3125,266.0938 17.3125,268.1719 17.3125,270.8906 L17.3125,272.0156 C17.3125,274.5938 19.4219,276.4844 22.3125,276.4844 C23.5313,276.4844 24.6875,276.1875 25.4375,275.6406 C26.0156,275.2344 26.3438,274.7813 26.3438,274.3906 C26.3438,273.9375 25.9531,273.5469 25.4844,273.5469 C25.2656,273.5469 25.0625,273.625 24.875,273.8125 C24.4219,274.2969 24.4219,274.2969 24.2344,274.3906 C23.8125,274.6563 23.125,274.7813 22.3594,274.7813 C20.3125,274.7813 19.0156,273.6875 19.0156,271.9844 L19.0156,270.8906 C19.0156,269.1094 20.2656,267.7969 22,267.7969 C22.5781,267.7969 23.1875,267.9531 23.6563,268.2031 C24.1406,268.4844 24.3125,268.7031 24.4063,269.1094 C24.4688,269.5156 24.5,269.6406 24.6406,269.7656 C24.7813,269.9063 25.0156,270.0156 25.2344,270.0156 C25.5,270.0156 25.7656,269.875 25.9375,269.6563 C26.0469,269.5 26.0781,269.3125 26.0781,268.8906 L26.0781,267.4688 C26.0781,267.0313 26.0625,266.9063 25.9688,266.75 C25.8125,266.4844 25.5313,266.3438 25.2344,266.3438 C24.9375,266.3438 24.7344,266.4375 24.5156,266.75 L24.3438,266.6719 Z " fill="#000000"/><text fill="#000000" font-family="sans-serif" font-size="14" lengthAdjust="spacing" textLength="133" x="36" y="275.8467">ConcreteProductA</text><line style="stroke:#181818;stroke-width:0.5;" x1="8" x2="171" y1="287" y2="287"/><line style="stroke:#181818;stroke-width:0.5;" x1="8" x2="171" y1="295" y2="295"/><ellipse cx="18" cy="308.6484" fill="#84BE84" rx="3" ry="3" style="stroke:#038048;stroke-width:1.0;"/><text fill="#000000" font-family="sans-serif" font-size="14" lengthAdjust="spacing" textLength="107" x="27" y="311.9951">operate(): void</text></g><!--class ConcreteProductB--><g id="elem_ConcreteProductB"><rect codeLine="9" fill="#F1F1F1" height="64.2969" id="ConcreteProductB" rx="2.5" ry="2.5" style="stroke:#181818;stroke-width:0.5;" width="165" x="207" y="255"/><ellipse cx="222" cy="271" fill="#ADD1B2" rx="11" ry="11" style="stroke:#181818;stroke-width:1.0;"/><path d="M224.3438,266.6719 C223.4063,266.2344 222.8125,266.0938 221.9375,266.0938 C219.3125,266.0938 217.3125,268.1719 217.3125,270.8906 L217.3125,272.0156 C217.3125,274.5938 219.4219,276.4844 222.3125,276.4844 C223.5313,276.4844 224.6875,276.1875 225.4375,275.6406 C226.0156,275.2344 226.3438,274.7813 226.3438,274.3906 C226.3438,273.9375 225.9531,273.5469 225.4844,273.5469 C225.2656,273.5469 225.0625,273.625 224.875,273.8125 C224.4219,274.2969 224.4219,274.2969 224.2344,274.3906 C223.8125,274.6563 223.125,274.7813 222.3594,274.7813 C220.3125,274.7813 219.0156,273.6875 219.0156,271.9844 L219.0156,270.8906 C219.0156,269.1094 220.2656,267.7969 222,267.7969 C222.5781,267.7969 223.1875,267.9531 223.6563,268.2031 C224.1406,268.4844 224.3125,268.7031 224.4063,269.1094 C224.4688,269.5156 224.5,269.6406 224.6406,269.7656 C224.7813,269.9063 225.0156,270.0156 225.2344,270.0156 C225.5,270.0156 225.7656,269.875 225.9375,269.6563 C226.0469,269.5 226.0781,269.3125 226.0781,268.8906 L226.0781,267.4688 C226.0781,267.0313 226.0625,266.9063 225.9688,266.75 C225.8125,266.4844 225.5313,266.3438 225.2344,266.3438 C224.9375,266.3438 224.7344,266.4375 224.5156,266.75 L224.3438,266.6719 Z " fill="#000000"/><text fill="#000000" font-family="sans-serif" font-size="14" lengthAdjust="spacing" textLength="133" x="236" y="275.8467">ConcreteProductB</text><line style="stroke:#181818;stroke-width:0.5;" x1="208" x2="371" y1="287" y2="287"/><line style="stroke:#181818;stroke-width:0.5;" x1="208" x2="371" y1="295" y2="295"/><ellipse cx="218" cy="308.6484" fill="#84BE84" rx="3" ry="3" style="stroke:#038048;stroke-width:1.0;"/><text fill="#000000" font-family="sans-serif" font-size="14" lengthAdjust="spacing" textLength="107" x="227" y="311.9951">operate(): void</text></g><!--class SimpleFactory--><g id="elem_SimpleFactory"><rect codeLine="13" fill="#F1F1F1" height="64.2969" id="SimpleFactory" rx="2.5" ry="2.5" style="stroke:#181818;stroke-width:0.5;" width="329" x="25" y="7"/><ellipse cx="133.25" cy="23" fill="#ADD1B2" rx="11" ry="11" style="stroke:#181818;stroke-width:1.0;"/><path d="M135.5938,18.6719 C134.6563,18.2344 134.0625,18.0938 133.1875,18.0938 C130.5625,18.0938 128.5625,20.1719 128.5625,22.8906 L128.5625,24.0156 C128.5625,26.5938 130.6719,28.4844 133.5625,28.4844 C134.7813,28.4844 135.9375,28.1875 136.6875,27.6406 C137.2656,27.2344 137.5938,26.7813 137.5938,26.3906 C137.5938,25.9375 137.2031,25.5469 136.7344,25.5469 C136.5156,25.5469 136.3125,25.625 136.125,25.8125 C135.6719,26.2969 135.6719,26.2969 135.4844,26.3906 C135.0625,26.6563 134.375,26.7813 133.6094,26.7813 C131.5625,26.7813 130.2656,25.6875 130.2656,23.9844 L130.2656,22.8906 C130.2656,21.1094 131.5156,19.7969 133.25,19.7969 C133.8281,19.7969 134.4375,19.9531 134.9063,20.2031 C135.3906,20.4844 135.5625,20.7031 135.6563,21.1094 C135.7188,21.5156 135.75,21.6406 135.8906,21.7656 C136.0313,21.9063 136.2656,22.0156 136.4844,22.0156 C136.75,22.0156 137.0156,21.875 137.1875,21.6563 C137.2969,21.5 137.3281,21.3125 137.3281,20.8906 L137.3281,19.4688 C137.3281,19.0313 137.3125,18.9063 137.2188,18.75 C137.0625,18.4844 136.7813,18.3438 136.4844,18.3438 C136.1875,18.3438 135.9844,18.4375 135.7656,18.75 L135.5938,18.6719 Z " fill="#000000"/><text fill="#000000" font-family="sans-serif" font-size="14" lengthAdjust="spacing" textLength="104" x="153.75" y="27.8467">SimpleFactory</text><line style="stroke:#181818;stroke-width:0.5;" x1="26" x2="353" y1="39" y2="39"/><line style="stroke:#181818;stroke-width:0.5;" x1="26" x2="353" y1="47" y2="47"/><ellipse cx="36" cy="60.6484" fill="#84BE84" rx="3" ry="3" style="stroke:#038048;stroke-width:1.0;"/><text fill="#000000" font-family="sans-serif" font-size="14" lengthAdjust="spacing" textLength="303" x="45" y="63.9951">createProduct(type: std::string): Product*</text></g><!--reverse link Product to ConcreteProductA--><g id="link_Product_ConcreteProductA"><path codeLine="17" d="M152.5967,209.0224 C137.5517,227.3784 129.984,236.6101 114.946,254.9554 " fill="none" id="Product-backto-ConcreteProductA" style="stroke:#181818;stroke-width:1.0;stroke-dasharray:7.0,7.0;"/><polygon fill="none" points="164.007,195.101,147.9562,205.219,157.2372,212.8258,164.007,195.101" style="stroke:#181818;stroke-width:1.0;"/></g><!--reverse link Product to ConcreteProductB--><g id="link_Product_ConcreteProductB"><path codeLine="18" d="M226.4033,209.0224 C241.4483,227.3784 249.016,236.6101 264.054,254.9554 " fill="none" id="Product-backto-ConcreteProductB" style="stroke:#181818;stroke-width:1.0;stroke-dasharray:7.0,7.0;"/><polygon fill="none" points="214.993,195.101,221.7628,212.8258,231.0438,205.219,214.993,195.101" style="stroke:#181818;stroke-width:1.0;"/></g><!--link SimpleFactory to Product--><g id="link_SimpleFactory_Product"><path codeLine="20" d="M189.5,71.101 C189.5,89.457 189.5,106.61 189.5,124.955 " fill="none" id="SimpleFactory-to-Product" style="stroke:#181818;stroke-width:1.0;"/><polygon fill="#181818" points="189.5,130.955,193.5,121.955,189.5,125.955,185.5,121.955,189.5,130.955" style="stroke:#181818;stroke-width:1.0;"/></g><!--SRC=[Iyv9B2vM22ZAJobDBb6evb9Gg4vCAYufIamkgLNGpYz8BKeiITNGj58eoyzCuQhbuae6Qt3EpqikIYr9XMfq1EiaMhaJ0UN1cRa5EQbkG3Va5rL2r0Ar9yBrQvHK5gHQAHINf5XP0TsQcPSED08gfmKo1kOVcnezFGotufLruk92jLrNrmvcD000]--></g></svg>