<?xml version="1.0" encoding="us-ascii" standalone="no"?><svg xmlns="http://www.w3.org/2000/svg" xmlns:xlink="http://www.w3.org/1999/xlink" contentStyleType="text/css" height="360px" preserveAspectRatio="none" style="width:1030px;height:360px;background:#FFFFFF;" version="1.1" viewBox="0 0 1030 360" width="1030px" zoomAndPan="magnify"><defs/><g><!--class AbstractProductA--><g id="elem_AbstractProductA"><rect codeLine="1" fill="#F1F1F1" height="64.2969" id="AbstractProductA" rx="2.5" ry="2.5" style="stroke:#181818;stroke-width:0.5;" width="161" x="336.5" y="156.5"/><ellipse cx="351.5" cy="172.5" fill="#ADD1B2" rx="11" ry="11" style="stroke:#181818;stroke-width:1.0;"/><path d="M353.8438,168.1719 C352.9063,167.7344 352.3125,167.5938 351.4375,167.5938 C348.8125,167.5938 346.8125,169.6719 346.8125,172.3906 L346.8125,173.5156 C346.8125,176.0938 348.9219,177.9844 351.8125,177.9844 C353.0313,177.9844 354.1875,177.6875 354.9375,177.1406 C355.5156,176.7344 355.8438,176.2813 355.8438,175.8906 C355.8438,175.4375 355.4531,175.0469 354.9844,175.0469 C354.7656,175.0469 354.5625,175.125 354.375,175.3125 C353.9219,175.7969 353.9219,175.7969 353.7344,175.8906 C353.3125,176.1563 352.625,176.2813 351.8594,176.2813 C349.8125,176.2813 348.5156,175.1875 348.5156,173.4844 L348.5156,172.3906 C348.5156,170.6094 349.7656,169.2969 351.5,169.2969 C352.0781,169.2969 352.6875,169.4531 353.1563,169.7031 C353.6406,169.9844 353.8125,170.2031 353.9063,170.6094 C353.9688,171.0156 354,171.1406 354.1406,171.2656 C354.2813,171.4063 354.5156,171.5156 354.7344,171.5156 C355,171.5156 355.2656,171.375 355.4375,171.1563 C355.5469,171 355.5781,170.8125 355.5781,170.3906 L355.5781,168.9688 C355.5781,168.5313 355.5625,168.4063 355.4688,168.25 C355.3125,167.9844 355.0313,167.8438 354.7344,167.8438 C354.4375,167.8438 354.2344,167.9375 354.0156,168.25 L353.8438,168.1719 Z " fill="#000000"/><text fill="#000000" font-family="sans-serif" font-size="14" lengthAdjust="spacing" textLength="129" x="365.5" y="177.3467">AbstractProductA</text><line style="stroke:#181818;stroke-width:0.5;" x1="337.5" x2="496.5" y1="188.5" y2="188.5"/><line style="stroke:#181818;stroke-width:0.5;" x1="337.5" x2="496.5" y1="196.5" y2="196.5"/><ellipse cx="347.5" cy="210.1484" fill="#84BE84" rx="3" ry="3" style="stroke:#038048;stroke-width:1.0;"/><text fill="#000000" font-family="sans-serif" font-size="14" lengthAdjust="spacing" textLength="107" x="356.5" y="213.4951">operate(): void</text></g><!--class ConcreteProductA1--><g id="elem_ConcreteProductA1"><rect codeLine="5" fill="#F1F1F1" height="64.2969" id="ConcreteProductA1" rx="2.5" ry="2.5" style="stroke:#181818;stroke-width:0.5;" width="174" x="115" y="289"/><ellipse cx="130" cy="305" fill="#ADD1B2" rx="11" ry="11" style="stroke:#181818;stroke-width:1.0;"/><path d="M132.3438,300.6719 C131.4063,300.2344 130.8125,300.0938 129.9375,300.0938 C127.3125,300.0938 125.3125,302.1719 125.3125,304.8906 L125.3125,306.0156 C125.3125,308.5938 127.4219,310.4844 130.3125,310.4844 C131.5313,310.4844 132.6875,310.1875 133.4375,309.6406 C134.0156,309.2344 134.3438,308.7813 134.3438,308.3906 C134.3438,307.9375 133.9531,307.5469 133.4844,307.5469 C133.2656,307.5469 133.0625,307.625 132.875,307.8125 C132.4219,308.2969 132.4219,308.2969 132.2344,308.3906 C131.8125,308.6563 131.125,308.7813 130.3594,308.7813 C128.3125,308.7813 127.0156,307.6875 127.0156,305.9844 L127.0156,304.8906 C127.0156,303.1094 128.2656,301.7969 130,301.7969 C130.5781,301.7969 131.1875,301.9531 131.6563,302.2031 C132.1406,302.4844 132.3125,302.7031 132.4063,303.1094 C132.4688,303.5156 132.5,303.6406 132.6406,303.7656 C132.7813,303.9063 133.0156,304.0156 133.2344,304.0156 C133.5,304.0156 133.7656,303.875 133.9375,303.6563 C134.0469,303.5 134.0781,303.3125 134.0781,302.8906 L134.0781,301.4688 C134.0781,301.0313 134.0625,300.9063 133.9688,300.75 C133.8125,300.4844 133.5313,300.3438 133.2344,300.3438 C132.9375,300.3438 132.7344,300.4375 132.5156,300.75 L132.3438,300.6719 Z " fill="#000000"/><text fill="#000000" font-family="sans-serif" font-size="14" lengthAdjust="spacing" textLength="142" x="144" y="309.8467">ConcreteProductA1</text><line style="stroke:#181818;stroke-width:0.5;" x1="116" x2="288" y1="321" y2="321"/><line style="stroke:#181818;stroke-width:0.5;" x1="116" x2="288" y1="329" y2="329"/><ellipse cx="126" cy="342.6484" fill="#84BE84" rx="3" ry="3" style="stroke:#038048;stroke-width:1.0;"/><text fill="#000000" font-family="sans-serif" font-size="14" lengthAdjust="spacing" textLength="107" x="135" y="345.9951">operate(): void</text></g><!--class ConcreteProductA2--><g id="elem_ConcreteProductA2"><rect codeLine="9" fill="#F1F1F1" height="64.2969" id="ConcreteProductA2" rx="2.5" ry="2.5" style="stroke:#181818;stroke-width:0.5;" width="173" x="569.5" y="289"/><ellipse cx="584.5" cy="305" fill="#ADD1B2" rx="11" ry="11" style="stroke:#181818;stroke-width:1.0;"/><path d="M586.8438,300.6719 C585.9063,300.2344 585.3125,300.0938 584.4375,300.0938 C581.8125,300.0938 579.8125,302.1719 579.8125,304.8906 L579.8125,306.0156 C579.8125,308.5938 581.9219,310.4844 584.8125,310.4844 C586.0313,310.4844 587.1875,310.1875 587.9375,309.6406 C588.5156,309.2344 588.8438,308.7813 588.8438,308.3906 C588.8438,307.9375 588.4531,307.5469 587.9844,307.5469 C587.7656,307.5469 587.5625,307.625 587.375,307.8125 C586.9219,308.2969 586.9219,308.2969 586.7344,308.3906 C586.3125,308.6563 585.625,308.7813 584.8594,308.7813 C582.8125,308.7813 581.5156,307.6875 581.5156,305.9844 L581.5156,304.8906 C581.5156,303.1094 582.7656,301.7969 584.5,301.7969 C585.0781,301.7969 585.6875,301.9531 586.1563,302.2031 C586.6406,302.4844 586.8125,302.7031 586.9063,303.1094 C586.9688,303.5156 587,303.6406 587.1406,303.7656 C587.2813,303.9063 587.5156,304.0156 587.7344,304.0156 C588,304.0156 588.2656,303.875 588.4375,303.6563 C588.5469,303.5 588.5781,303.3125 588.5781,302.8906 L588.5781,301.4688 C588.5781,301.0313 588.5625,300.9063 588.4688,300.75 C588.3125,300.4844 588.0313,300.3438 587.7344,300.3438 C587.4375,300.3438 587.2344,300.4375 587.0156,300.75 L586.8438,300.6719 Z " fill="#000000"/><text fill="#000000" font-family="sans-serif" font-size="14" lengthAdjust="spacing" textLength="141" x="598.5" y="309.8467">ConcreteProductA2</text><line style="stroke:#181818;stroke-width:0.5;" x1="570.5" x2="741.5" y1="321" y2="321"/><line style="stroke:#181818;stroke-width:0.5;" x1="570.5" x2="741.5" y1="329" y2="329"/><ellipse cx="580.5" cy="342.6484" fill="#84BE84" rx="3" ry="3" style="stroke:#038048;stroke-width:1.0;"/><text fill="#000000" font-family="sans-serif" font-size="14" lengthAdjust="spacing" textLength="107" x="589.5" y="345.9951">operate(): void</text></g><!--class AbstractProductB--><g id="elem_AbstractProductB"><rect codeLine="13" fill="#F1F1F1" height="64.2969" id="AbstractProductB" rx="2.5" ry="2.5" style="stroke:#181818;stroke-width:0.5;" width="161" x="532.5" y="156.5"/><ellipse cx="547.5" cy="172.5" fill="#ADD1B2" rx="11" ry="11" style="stroke:#181818;stroke-width:1.0;"/><path d="M549.8438,168.1719 C548.9063,167.7344 548.3125,167.5938 547.4375,167.5938 C544.8125,167.5938 542.8125,169.6719 542.8125,172.3906 L542.8125,173.5156 C542.8125,176.0938 544.9219,177.9844 547.8125,177.9844 C549.0313,177.9844 550.1875,177.6875 550.9375,177.1406 C551.5156,176.7344 551.8438,176.2813 551.8438,175.8906 C551.8438,175.4375 551.4531,175.0469 550.9844,175.0469 C550.7656,175.0469 550.5625,175.125 550.375,175.3125 C549.9219,175.7969 549.9219,175.7969 549.7344,175.8906 C549.3125,176.1563 548.625,176.2813 547.8594,176.2813 C545.8125,176.2813 544.5156,175.1875 544.5156,173.4844 L544.5156,172.3906 C544.5156,170.6094 545.7656,169.2969 547.5,169.2969 C548.0781,169.2969 548.6875,169.4531 549.1563,169.7031 C549.6406,169.9844 549.8125,170.2031 549.9063,170.6094 C549.9688,171.0156 550,171.1406 550.1406,171.2656 C550.2813,171.4063 550.5156,171.5156 550.7344,171.5156 C551,171.5156 551.2656,171.375 551.4375,171.1563 C551.5469,171 551.5781,170.8125 551.5781,170.3906 L551.5781,168.9688 C551.5781,168.5313 551.5625,168.4063 551.4688,168.25 C551.3125,167.9844 551.0313,167.8438 550.7344,167.8438 C550.4375,167.8438 550.2344,167.9375 550.0156,168.25 L549.8438,168.1719 Z " fill="#000000"/><text fill="#000000" font-family="sans-serif" font-size="14" lengthAdjust="spacing" textLength="129" x="561.5" y="177.3467">AbstractProductB</text><line style="stroke:#181818;stroke-width:0.5;" x1="533.5" x2="692.5" y1="188.5" y2="188.5"/><line style="stroke:#181818;stroke-width:0.5;" x1="533.5" x2="692.5" y1="196.5" y2="196.5"/><ellipse cx="543.5" cy="210.1484" fill="#84BE84" rx="3" ry="3" style="stroke:#038048;stroke-width:1.0;"/><text fill="#000000" font-family="sans-serif" font-size="14" lengthAdjust="spacing" textLength="107" x="552.5" y="213.4951">operate(): void</text></g><!--class ConcreteProductB1--><g id="elem_ConcreteProductB1"><rect codeLine="17" fill="#F1F1F1" height="64.2969" id="ConcreteProductB1" rx="2.5" ry="2.5" style="stroke:#181818;stroke-width:0.5;" width="174" x="348" y="289"/><ellipse cx="363" cy="305" fill="#ADD1B2" rx="11" ry="11" style="stroke:#181818;stroke-width:1.0;"/><path d="M365.3438,300.6719 C364.4063,300.2344 363.8125,300.0938 362.9375,300.0938 C360.3125,300.0938 358.3125,302.1719 358.3125,304.8906 L358.3125,306.0156 C358.3125,308.5938 360.4219,310.4844 363.3125,310.4844 C364.5313,310.4844 365.6875,310.1875 366.4375,309.6406 C367.0156,309.2344 367.3438,308.7813 367.3438,308.3906 C367.3438,307.9375 366.9531,307.5469 366.4844,307.5469 C366.2656,307.5469 366.0625,307.625 365.875,307.8125 C365.4219,308.2969 365.4219,308.2969 365.2344,308.3906 C364.8125,308.6563 364.125,308.7813 363.3594,308.7813 C361.3125,308.7813 360.0156,307.6875 360.0156,305.9844 L360.0156,304.8906 C360.0156,303.1094 361.2656,301.7969 363,301.7969 C363.5781,301.7969 364.1875,301.9531 364.6563,302.2031 C365.1406,302.4844 365.3125,302.7031 365.4063,303.1094 C365.4688,303.5156 365.5,303.6406 365.6406,303.7656 C365.7813,303.9063 366.0156,304.0156 366.2344,304.0156 C366.5,304.0156 366.7656,303.875 366.9375,303.6563 C367.0469,303.5 367.0781,303.3125 367.0781,302.8906 L367.0781,301.4688 C367.0781,301.0313 367.0625,300.9063 366.9688,300.75 C366.8125,300.4844 366.5313,300.3438 366.2344,300.3438 C365.9375,300.3438 365.7344,300.4375 365.5156,300.75 L365.3438,300.6719 Z " fill="#000000"/><text fill="#000000" font-family="sans-serif" font-size="14" lengthAdjust="spacing" textLength="142" x="377" y="309.8467">ConcreteProductB1</text><line style="stroke:#181818;stroke-width:0.5;" x1="349" x2="521" y1="321" y2="321"/><line style="stroke:#181818;stroke-width:0.5;" x1="349" x2="521" y1="329" y2="329"/><ellipse cx="359" cy="342.6484" fill="#84BE84" rx="3" ry="3" style="stroke:#038048;stroke-width:1.0;"/><text fill="#000000" font-family="sans-serif" font-size="14" lengthAdjust="spacing" textLength="107" x="368" y="345.9951">operate(): void</text></g><!--class ConcreteProductB2--><g id="elem_ConcreteProductB2"><rect codeLine="21" fill="#F1F1F1" height="64.2969" id="ConcreteProductB2" rx="2.5" ry="2.5" style="stroke:#181818;stroke-width:0.5;" width="173" x="783.5" y="289"/><ellipse cx="798.5" cy="305" fill="#ADD1B2" rx="11" ry="11" style="stroke:#181818;stroke-width:1.0;"/><path d="M800.8438,300.6719 C799.9063,300.2344 799.3125,300.0938 798.4375,300.0938 C795.8125,300.0938 793.8125,302.1719 793.8125,304.8906 L793.8125,306.0156 C793.8125,308.5938 795.9219,310.4844 798.8125,310.4844 C800.0313,310.4844 801.1875,310.1875 801.9375,309.6406 C802.5156,309.2344 802.8438,308.7813 802.8438,308.3906 C802.8438,307.9375 802.4531,307.5469 801.9844,307.5469 C801.7656,307.5469 801.5625,307.625 801.375,307.8125 C800.9219,308.2969 800.9219,308.2969 800.7344,308.3906 C800.3125,308.6563 799.625,308.7813 798.8594,308.7813 C796.8125,308.7813 795.5156,307.6875 795.5156,305.9844 L795.5156,304.8906 C795.5156,303.1094 796.7656,301.7969 798.5,301.7969 C799.0781,301.7969 799.6875,301.9531 800.1563,302.2031 C800.6406,302.4844 800.8125,302.7031 800.9063,303.1094 C800.9688,303.5156 801,303.6406 801.1406,303.7656 C801.2813,303.9063 801.5156,304.0156 801.7344,304.0156 C802,304.0156 802.2656,303.875 802.4375,303.6563 C802.5469,303.5 802.5781,303.3125 802.5781,302.8906 L802.5781,301.4688 C802.5781,301.0313 802.5625,300.9063 802.4688,300.75 C802.3125,300.4844 802.0313,300.3438 801.7344,300.3438 C801.4375,300.3438 801.2344,300.4375 801.0156,300.75 L800.8438,300.6719 Z " fill="#000000"/><text fill="#000000" font-family="sans-serif" font-size="14" lengthAdjust="spacing" textLength="141" x="812.5" y="309.8467">ConcreteProductB2</text><line style="stroke:#181818;stroke-width:0.5;" x1="784.5" x2="955.5" y1="321" y2="321"/><line style="stroke:#181818;stroke-width:0.5;" x1="784.5" x2="955.5" y1="329" y2="329"/><ellipse cx="794.5" cy="342.6484" fill="#84BE84" rx="3" ry="3" style="stroke:#038048;stroke-width:1.0;"/><text fill="#000000" font-family="sans-serif" font-size="14" lengthAdjust="spacing" textLength="107" x="803.5" y="345.9951">operate(): void</text></g><!--class AbstractFactory--><g id="elem_AbstractFactory"><rect codeLine="25" fill="#F1F1F1" height="80.5938" id="AbstractFactory" rx="2.5" ry="2.5" style="stroke:#181818;stroke-width:0.5;" width="294" x="368" y="7"/><ellipse cx="452.25" cy="23" fill="#ADD1B2" rx="11" ry="11" style="stroke:#181818;stroke-width:1.0;"/><path d="M454.5938,18.6719 C453.6563,18.2344 453.0625,18.0938 452.1875,18.0938 C449.5625,18.0938 447.5625,20.1719 447.5625,22.8906 L447.5625,24.0156 C447.5625,26.5938 449.6719,28.4844 452.5625,28.4844 C453.7813,28.4844 454.9375,28.1875 455.6875,27.6406 C456.2656,27.2344 456.5938,26.7813 456.5938,26.3906 C456.5938,25.9375 456.2031,25.5469 455.7344,25.5469 C455.5156,25.5469 455.3125,25.625 455.125,25.8125 C454.6719,26.2969 454.6719,26.2969 454.4844,26.3906 C454.0625,26.6563 453.375,26.7813 452.6094,26.7813 C450.5625,26.7813 449.2656,25.6875 449.2656,23.9844 L449.2656,22.8906 C449.2656,21.1094 450.5156,19.7969 452.25,19.7969 C452.8281,19.7969 453.4375,19.9531 453.9063,20.2031 C454.3906,20.4844 454.5625,20.7031 454.6563,21.1094 C454.7188,21.5156 454.75,21.6406 454.8906,21.7656 C455.0313,21.9063 455.2656,22.0156 455.4844,22.0156 C455.75,22.0156 456.0156,21.875 456.1875,21.6563 C456.2969,21.5 456.3281,21.3125 456.3281,20.8906 L456.3281,19.4688 C456.3281,19.0313 456.3125,18.9063 456.2188,18.75 C456.0625,18.4844 455.7813,18.3438 455.4844,18.3438 C455.1875,18.3438 454.9844,18.4375 454.7656,18.75 L454.5938,18.6719 Z " fill="#000000"/><text fill="#000000" font-family="sans-serif" font-size="14" lengthAdjust="spacing" textLength="117" x="472.75" y="27.8467">AbstractFactory</text><line style="stroke:#181818;stroke-width:0.5;" x1="369" x2="661" y1="39" y2="39"/><line style="stroke:#181818;stroke-width:0.5;" x1="369" x2="661" y1="47" y2="47"/><ellipse cx="379" cy="60.6484" fill="#84BE84" rx="3" ry="3" style="stroke:#038048;stroke-width:1.0;"/><text fill="#000000" font-family="sans-serif" font-size="14" lengthAdjust="spacing" textLength="268" x="388" y="63.9951">createProductA(): AbstractProductA*</text><ellipse cx="379" cy="76.9453" fill="#84BE84" rx="3" ry="3" style="stroke:#038048;stroke-width:1.0;"/><text fill="#000000" font-family="sans-serif" font-size="14" lengthAdjust="spacing" textLength="268" x="388" y="80.292">createProductB(): AbstractProductB*</text></g><!--class ConcreteFactory1--><g id="elem_ConcreteFactory1"><rect codeLine="30" fill="#F1F1F1" height="80.5938" id="ConcreteFactory1" rx="2.5" ry="2.5" style="stroke:#181818;stroke-width:0.5;" width="294" x="7" y="148"/><ellipse cx="84.75" cy="164" fill="#ADD1B2" rx="11" ry="11" style="stroke:#181818;stroke-width:1.0;"/><path d="M87.0938,159.6719 C86.1563,159.2344 85.5625,159.0938 84.6875,159.0938 C82.0625,159.0938 80.0625,161.1719 80.0625,163.8906 L80.0625,165.0156 C80.0625,167.5938 82.1719,169.4844 85.0625,169.4844 C86.2813,169.4844 87.4375,169.1875 88.1875,168.6406 C88.7656,168.2344 89.0938,167.7813 89.0938,167.3906 C89.0938,166.9375 88.7031,166.5469 88.2344,166.5469 C88.0156,166.5469 87.8125,166.625 87.625,166.8125 C87.1719,167.2969 87.1719,167.2969 86.9844,167.3906 C86.5625,167.6563 85.875,167.7813 85.1094,167.7813 C83.0625,167.7813 81.7656,166.6875 81.7656,164.9844 L81.7656,163.8906 C81.7656,162.1094 83.0156,160.7969 84.75,160.7969 C85.3281,160.7969 85.9375,160.9531 86.4063,161.2031 C86.8906,161.4844 87.0625,161.7031 87.1563,162.1094 C87.2188,162.5156 87.25,162.6406 87.3906,162.7656 C87.5313,162.9063 87.7656,163.0156 87.9844,163.0156 C88.25,163.0156 88.5156,162.875 88.6875,162.6563 C88.7969,162.5 88.8281,162.3125 88.8281,161.8906 L88.8281,160.4688 C88.8281,160.0313 88.8125,159.9063 88.7188,159.75 C88.5625,159.4844 88.2813,159.3438 87.9844,159.3438 C87.6875,159.3438 87.4844,159.4375 87.2656,159.75 L87.0938,159.6719 Z " fill="#000000"/><text fill="#000000" font-family="sans-serif" font-size="14" lengthAdjust="spacing" textLength="130" x="105.25" y="168.8467">ConcreteFactory1</text><line style="stroke:#181818;stroke-width:0.5;" x1="8" x2="300" y1="180" y2="180"/><line style="stroke:#181818;stroke-width:0.5;" x1="8" x2="300" y1="188" y2="188"/><ellipse cx="18" cy="201.6484" fill="#84BE84" rx="3" ry="3" style="stroke:#038048;stroke-width:1.0;"/><text fill="#000000" font-family="sans-serif" font-size="14" lengthAdjust="spacing" textLength="268" x="27" y="204.9951">createProductA(): AbstractProductA*</text><ellipse cx="18" cy="217.9453" fill="#84BE84" rx="3" ry="3" style="stroke:#038048;stroke-width:1.0;"/><text fill="#000000" font-family="sans-serif" font-size="14" lengthAdjust="spacing" textLength="268" x="27" y="221.292">createProductB(): AbstractProductB*</text></g><!--class ConcreteFactory2--><g id="elem_ConcreteFactory2"><rect codeLine="35" fill="#F1F1F1" height="80.5938" id="ConcreteFactory2" rx="2.5" ry="2.5" style="stroke:#181818;stroke-width:0.5;" width="294" x="729" y="148"/><ellipse cx="807.25" cy="164" fill="#ADD1B2" rx="11" ry="11" style="stroke:#181818;stroke-width:1.0;"/><path d="M809.5938,159.6719 C808.6563,159.2344 808.0625,159.0938 807.1875,159.0938 C804.5625,159.0938 802.5625,161.1719 802.5625,163.8906 L802.5625,165.0156 C802.5625,167.5938 804.6719,169.4844 807.5625,169.4844 C808.7813,169.4844 809.9375,169.1875 810.6875,168.6406 C811.2656,168.2344 811.5938,167.7813 811.5938,167.3906 C811.5938,166.9375 811.2031,166.5469 810.7344,166.5469 C810.5156,166.5469 810.3125,166.625 810.125,166.8125 C809.6719,167.2969 809.6719,167.2969 809.4844,167.3906 C809.0625,167.6563 808.375,167.7813 807.6094,167.7813 C805.5625,167.7813 804.2656,166.6875 804.2656,164.9844 L804.2656,163.8906 C804.2656,162.1094 805.5156,160.7969 807.25,160.7969 C807.8281,160.7969 808.4375,160.9531 808.9063,161.2031 C809.3906,161.4844 809.5625,161.7031 809.6563,162.1094 C809.7188,162.5156 809.75,162.6406 809.8906,162.7656 C810.0313,162.9063 810.2656,163.0156 810.4844,163.0156 C810.75,163.0156 811.0156,162.875 811.1875,162.6563 C811.2969,162.5 811.3281,162.3125 811.3281,161.8906 L811.3281,160.4688 C811.3281,160.0313 811.3125,159.9063 811.2188,159.75 C811.0625,159.4844 810.7813,159.3438 810.4844,159.3438 C810.1875,159.3438 809.9844,159.4375 809.7656,159.75 L809.5938,159.6719 Z " fill="#000000"/><text fill="#000000" font-family="sans-serif" font-size="14" lengthAdjust="spacing" textLength="129" x="827.75" y="168.8467">ConcreteFactory2</text><line style="stroke:#181818;stroke-width:0.5;" x1="730" x2="1022" y1="180" y2="180"/><line style="stroke:#181818;stroke-width:0.5;" x1="730" x2="1022" y1="188" y2="188"/><ellipse cx="740" cy="201.6484" fill="#84BE84" rx="3" ry="3" style="stroke:#038048;stroke-width:1.0;"/><text fill="#000000" font-family="sans-serif" font-size="14" lengthAdjust="spacing" textLength="268" x="749" y="204.9951">createProductA(): AbstractProductA*</text><ellipse cx="740" cy="217.9453" fill="#84BE84" rx="3" ry="3" style="stroke:#038048;stroke-width:1.0;"/><text fill="#000000" font-family="sans-serif" font-size="14" lengthAdjust="spacing" textLength="268" x="749" y="221.292">createProductB(): AbstractProductB*</text></g><!--reverse link AbstractProductA to ConcreteProductA1--><g id="link_AbstractProductA_ConcreteProductA1"><path codeLine="40" d="M350.3878,229.9319 C316.3558,250.5889 287.232,268.266 253.204,288.9201 " fill="none" id="AbstractProductA-backto-ConcreteProductA1" style="stroke:#181818;stroke-width:1.0;stroke-dasharray:7.0,7.0;"/><polygon fill="none" points="365.775,220.592,347.2745,224.8028,353.5011,235.0609,365.775,220.592" style="stroke:#181818;stroke-width:1.0;"/></g><!--reverse link AbstractProductA to ConcreteProductA2--><g id="link_AbstractProductA_ConcreteProductA2"><path codeLine="41" d="M489.7413,229.2184 C527.5723,249.8754 561.253,268.266 599.08,288.9201 " fill="none" id="AbstractProductA-backto-ConcreteProductA2" style="stroke:#181818;stroke-width:1.0;stroke-dasharray:7.0,7.0;"/><polygon fill="none" points="473.943,220.592,486.8658,234.4845,492.6167,223.9523,473.943,220.592" style="stroke:#181818;stroke-width:1.0;"/></g><!--reverse link AbstractProductB to ConcreteProductB1--><g id="link_AbstractProductB_ConcreteProductB1"><path codeLine="42" d="M555.8483,231.4006 C527.6663,252.0616 505.398,268.3883 477.288,288.9971 " fill="none" id="AbstractProductB-backto-ConcreteProductB1" style="stroke:#181818;stroke-width:1.0;stroke-dasharray:7.0,7.0;"/><polygon fill="none" points="570.365,220.758,552.3008,226.5617,559.3958,236.2395,570.365,220.758" style="stroke:#181818;stroke-width:1.0;"/></g><!--reverse link AbstractProductB to ConcreteProductB2--><g id="link_AbstractProductB_ConcreteProductB2"><path codeLine="43" d="M690.2804,228.7417 C730.9604,249.3987 768.118,268.266 808.793,288.9201 " fill="none" id="AbstractProductB-backto-ConcreteProductB2" style="stroke:#181818;stroke-width:1.0;stroke-dasharray:7.0,7.0;"/><polygon fill="none" points="674.231,220.592,687.5638,234.0915,692.9969,223.392,674.231,220.592" style="stroke:#181818;stroke-width:1.0;"/></g><!--reverse link AbstractFactory to ConcreteFactory1--><g id="link_AbstractFactory_ConcreteFactory1"><path codeLine="45" d="M395.2372,94.6139 C346.5752,113.3509 305.429,129.194 256.789,147.922 " fill="none" id="AbstractFactory-backto-ConcreteFactory1" style="stroke:#181818;stroke-width:1.0;"/><polygon fill="none" points="412.035,88.146,393.0812,89.0146,397.3932,100.2132,412.035,88.146" style="stroke:#181818;stroke-width:1.0;"/></g><!--reverse link AbstractFactory to ConcreteFactory2--><g id="link_AbstractFactory_ConcreteFactory2"><path codeLine="46" d="M634.7628,94.6139 C683.4248,113.3509 724.571,129.194 773.211,147.922 " fill="none" id="AbstractFactory-backto-ConcreteFactory2" style="stroke:#181818;stroke-width:1.0;"/><polygon fill="none" points="617.965,88.146,632.6068,100.2132,636.9188,89.0146,617.965,88.146" style="stroke:#181818;stroke-width:1.0;"/></g><!--link ConcreteFactory1 to ConcreteProductA1--><g id="link_ConcreteFactory1_ConcreteProductA1"><path codeLine="48" d="M168.532,229.008 C175.596,248.213 181.8918,265.3299 188.4928,283.2766 " fill="none" id="ConcreteFactory1-to-ConcreteProductA1" style="stroke:#181818;stroke-width:1.0;"/><polygon fill="#181818" points="190.564,288.9078,191.2113,279.0802,188.838,284.2152,183.7031,281.8418,190.564,288.9078" style="stroke:#181818;stroke-width:1.0;"/></g><!--link ConcreteFactory1 to ConcreteProductB1--><g id="link_ConcreteFactory1_ConcreteProductB1"><path codeLine="49" d="M239.072,229.008 C280.425,248.213 323.9652,268.4339 362.6092,286.3806 " fill="none" id="ConcreteFactory1-to-ConcreteProductB1" style="stroke:#181818;stroke-width:1.0;"/><polygon fill="#181818" points="368.051,288.9078,361.5731,281.4891,363.5162,286.8018,358.2035,288.7448,368.051,288.9078" style="stroke:#181818;stroke-width:1.0;"/></g><!--link ConcreteFactory2 to ConcreteProductA2--><g id="link_ConcreteFactory2_ConcreteProductA2"><path codeLine="50" d="M809.396,229.008 C777.02,248.213 743.8314,267.9 713.5764,285.8467 " fill="none" id="ConcreteFactory2-to-ConcreteProductA2" style="stroke:#181818;stroke-width:1.0;"/><polygon fill="#181818" points="708.416,288.9078,718.1973,287.7565,712.7163,286.3569,714.1159,280.8759,708.416,288.9078" style="stroke:#181818;stroke-width:1.0;"/></g><!--link ConcreteFactory2 to ConcreteProductB2--><g id="link_ConcreteFactory2_ConcreteProductB2"><path codeLine="51" d="M874.184,229.008 C873.301,248.213 872.5305,264.9674 871.7055,282.9141 " fill="none" id="ConcreteFactory2-to-ConcreteProductB2" style="stroke:#181818;stroke-width:1.0;"/><polygon fill="#181818" points="871.43,288.9078,875.8391,280.101,871.6596,283.9131,867.8475,279.7336,871.43,288.9078" style="stroke:#181818;stroke-width:1.0;"/></g><!--SRC=[lTBD2W8X40Vmkq_XiJPSS8wn13j1vrx1N0z1PAW5qVRksSUoi2EaXpfu-pdprnbzKDxpTkU3KpfidUtEEhJynZXVs9DnAfZPVCalTj-nEsFwnTVsg9q9Pk2oqCCNFuc3PUMnC0xcnjd4OztrhMC5DRxeUMdwYHLXc61OqM2VHl9ldU0NdSXIDNrTqzt9TC38LgGSoam7Oy1Xhaql19b1beh5oEo4M2KUcyEGC4XMWoo6y000]--></g></svg>