<?xml version="1.0" encoding="us-ascii" standalone="no"?><svg xmlns="http://www.w3.org/2000/svg" xmlns:xlink="http://www.w3.org/1999/xlink" contentStyleType="text/css" height="219px" preserveAspectRatio="none" style="width:307px;height:219px;background:#FFFFFF;" version="1.1" viewBox="0 0 307 219" width="307px" zoomAndPan="magnify"><defs/><g><!--class EagerSingleton--><g id="elem_EagerSingleton"><rect codeLine="1" fill="#F1F1F1" height="96.8906" id="EagerSingleton" rx="2.5" ry="2.5" style="stroke:#181818;stroke-width:0.5;" width="293" x="7" y="7"/><ellipse cx="94.25" cy="23" fill="#ADD1B2" rx="11" ry="11" style="stroke:#181818;stroke-width:1.0;"/><path d="M96.5938,18.6719 C95.6563,18.2344 95.0625,18.0938 94.1875,18.0938 C91.5625,18.0938 89.5625,20.1719 89.5625,22.8906 L89.5625,24.0156 C89.5625,26.5938 91.6719,28.4844 94.5625,28.4844 C95.7813,28.4844 96.9375,28.1875 97.6875,27.6406 C98.2656,27.2344 98.5938,26.7813 98.5938,26.3906 C98.5938,25.9375 98.2031,25.5469 97.7344,25.5469 C97.5156,25.5469 97.3125,25.625 97.125,25.8125 C96.6719,26.2969 96.6719,26.2969 96.4844,26.3906 C96.0625,26.6563 95.375,26.7813 94.6094,26.7813 C92.5625,26.7813 91.2656,25.6875 91.2656,23.9844 L91.2656,22.8906 C91.2656,21.1094 92.5156,19.7969 94.25,19.7969 C94.8281,19.7969 95.4375,19.9531 95.9063,20.2031 C96.3906,20.4844 96.5625,20.7031 96.6563,21.1094 C96.7188,21.5156 96.75,21.6406 96.8906,21.7656 C97.0313,21.9063 97.2656,22.0156 97.4844,22.0156 C97.75,22.0156 98.0156,21.875 98.1875,21.6563 C98.2969,21.5 98.3281,21.3125 98.3281,20.8906 L98.3281,19.4688 C98.3281,19.0313 98.3125,18.9063 98.2188,18.75 C98.0625,18.4844 97.7813,18.3438 97.4844,18.3438 C97.1875,18.3438 96.9844,18.4375 96.7656,18.75 L96.5938,18.6719 Z " fill="#000000"/><text fill="#000000" font-family="sans-serif" font-size="14" lengthAdjust="spacing" textLength="110" x="114.75" y="27.8467">EagerSingleton</text><line style="stroke:#181818;stroke-width:0.5;" x1="8" x2="299" y1="39" y2="39"/><rect fill="none" height="6" style="stroke:#C82930;stroke-width:1.0;" width="6" x="15" y="49.6484"/><text fill="#000000" font-family="sans-serif" font-size="14" lengthAdjust="spacing" textLength="232" x="27" y="55.9951">static instance: EagerSingleton*</text><line style="stroke:#181818;stroke-width:0.5;" x1="8" x2="299" y1="63.2969" y2="63.2969"/><rect fill="#F24D5C" height="6" style="stroke:#C82930;stroke-width:1.0;" width="6" x="15" y="73.9453"/><text fill="#000000" font-family="sans-serif" font-size="14" lengthAdjust="spacing" textLength="120" x="27" y="80.292">EagerSingleton()</text><ellipse cx="18" cy="93.2422" fill="#84BE84" rx="3" ry="3" style="stroke:#038048;stroke-width:1.0;"/><text fill="#000000" font-family="sans-serif" font-size="14" lengthAdjust="spacing" textLength="267" x="27" y="96.5889">static getInstance(): EagerSingleton*</text></g><!--class Singleton--><g id="elem_Singleton"><rect fill="#F1F1F1" height="48" id="Singleton" rx="2.5" ry="2.5" style="stroke:#181818;stroke-width:0.5;" width="101" x="103" y="164"/><ellipse cx="118" cy="180" fill="#ADD1B2" rx="11" ry="11" style="stroke:#181818;stroke-width:1.0;"/><path d="M120.3438,175.6719 C119.4063,175.2344 118.8125,175.0938 117.9375,175.0938 C115.3125,175.0938 113.3125,177.1719 113.3125,179.8906 L113.3125,181.0156 C113.3125,183.5938 115.4219,185.4844 118.3125,185.4844 C119.5313,185.4844 120.6875,185.1875 121.4375,184.6406 C122.0156,184.2344 122.3438,183.7813 122.3438,183.3906 C122.3438,182.9375 121.9531,182.5469 121.4844,182.5469 C121.2656,182.5469 121.0625,182.625 120.875,182.8125 C120.4219,183.2969 120.4219,183.2969 120.2344,183.3906 C119.8125,183.6563 119.125,183.7813 118.3594,183.7813 C116.3125,183.7813 115.0156,182.6875 115.0156,180.9844 L115.0156,179.8906 C115.0156,178.1094 116.2656,176.7969 118,176.7969 C118.5781,176.7969 119.1875,176.9531 119.6563,177.2031 C120.1406,177.4844 120.3125,177.7031 120.4063,178.1094 C120.4688,178.5156 120.5,178.6406 120.6406,178.7656 C120.7813,178.9063 121.0156,179.0156 121.2344,179.0156 C121.5,179.0156 121.7656,178.875 121.9375,178.6563 C122.0469,178.5 122.0781,178.3125 122.0781,177.8906 L122.0781,176.4688 C122.0781,176.0313 122.0625,175.9063 121.9688,175.75 C121.8125,175.4844 121.5313,175.3438 121.2344,175.3438 C120.9375,175.3438 120.7344,175.4375 120.5156,175.75 L120.3438,175.6719 Z " fill="#000000"/><text fill="#000000" font-family="sans-serif" font-size="14" lengthAdjust="spacing" textLength="69" x="132" y="184.8467">Singleton</text><line style="stroke:#181818;stroke-width:0.5;" x1="104" x2="203" y1="196" y2="196"/><line style="stroke:#181818;stroke-width:0.5;" x1="104" x2="203" y1="204" y2="204"/></g><!--link EagerSingleton to Singleton--><g id="link_EagerSingleton_Singleton"><path codeLine="6" d="M153.5,104.352 C153.5,124.575 153.5,129.2029 153.5,145.6622 " fill="none" id="EagerSingleton-to-Singleton" style="stroke:#181818;stroke-width:1.0;"/><polygon fill="none" points="153.5,163.6622,159.5,145.6622,147.5,145.6622,153.5,163.6622" style="stroke:#181818;stroke-width:1.0;"/></g><!--SRC=[Iyv9B2vMS4rCJoqApinBpqajoSzJgEPIKD1LA2v9BCbCLiZC0pBoabEjq5HfWHMXYcbe0WMrOJhJKqiyePerD36rrtAXMQkhMsEd0ES20000]--></g></svg>