<?xml version="1.0" encoding="us-ascii" standalone="no"?><svg xmlns="http://www.w3.org/2000/svg" xmlns:xlink="http://www.w3.org/1999/xlink" contentStyleType="text/css" height="495px" preserveAspectRatio="none" style="width:423px;height:495px;background:#FFFFFF;" version="1.1" viewBox="0 0 423 495" width="423px" zoomAndPan="magnify"><defs/><g><line style="stroke:#181818;stroke-width:0.5;stroke-dasharray:5.0,5.0;" x1="29" x2="29" y1="81.2969" y2="414.3594"/><line style="stroke:#181818;stroke-width:0.5;stroke-dasharray:5.0,5.0;" x1="273" x2="273" y1="81.2969" y2="414.3594"/><text fill="#000000" font-family="sans-serif" font-size="14" lengthAdjust="spacing" textLength="42" x="5" y="77.9951">&#23458;&#25143;&#31471;</text><ellipse cx="29" cy="13.5" fill="#E2E2F0" rx="8" ry="8" style="stroke:#181818;stroke-width:0.5;"/><path d="M29,21.5 L29,48.5 M16,29.5 L42,29.5 M29,48.5 L16,63.5 M29,48.5 L42,63.5 " fill="none" style="stroke:#181818;stroke-width:0.5;"/><text fill="#000000" font-family="sans-serif" font-size="14" lengthAdjust="spacing" textLength="42" x="5" y="426.3545">&#23458;&#25143;&#31471;</text><ellipse cx="29" cy="438.1563" fill="#E2E2F0" rx="8" ry="8" style="stroke:#181818;stroke-width:0.5;"/><path d="M29,446.1563 L29,473.1563 M16,454.1563 L42,454.1563 M29,473.1563 L16,488.1563 M29,473.1563 L42,488.1563 " fill="none" style="stroke:#181818;stroke-width:0.5;"/><text fill="#000000" font-family="sans-serif" font-size="14" lengthAdjust="spacing" textLength="42" x="249" y="77.9951">&#26381;&#21153;&#31471;</text><ellipse cx="273" cy="13.5" fill="#E2E2F0" rx="8" ry="8" style="stroke:#181818;stroke-width:0.5;"/><path d="M273,21.5 L273,48.5 M260,29.5 L286,29.5 M273,48.5 L260,63.5 M273,48.5 L286,63.5 " fill="none" style="stroke:#181818;stroke-width:0.5;"/><text fill="#000000" font-family="sans-serif" font-size="14" lengthAdjust="spacing" textLength="42" x="249" y="426.3545">&#26381;&#21153;&#31471;</text><ellipse cx="273" cy="438.1563" fill="#E2E2F0" rx="8" ry="8" style="stroke:#181818;stroke-width:0.5;"/><path d="M273,446.1563 L273,473.1563 M260,454.1563 L286,454.1563 M273,473.1563 L260,488.1563 M273,473.1563 L286,488.1563 " fill="none" style="stroke:#181818;stroke-width:0.5;"/><rect fill="#EEEEEE" height="3" style="stroke:#EEEEEE;stroke-width:1.0;" width="416" x="0" y="111.8633"/><line style="stroke:#000000;stroke-width:1.0;" x1="0" x2="416" y1="111.8633" y2="111.8633"/><line style="stroke:#000000;stroke-width:1.0;" x1="0" x2="416" y1="114.8633" y2="114.8633"/><rect fill="#EEEEEE" height="23.1328" style="stroke:#000000;stroke-width:2.0;" width="145" x="135.5" y="101.2969"/><text fill="#000000" font-family="sans-serif" font-size="13" font-weight="bold" lengthAdjust="spacing" textLength="126" x="141.5" y="117.3638">1.&#24403;&#23458;&#25143;&#31471;&#29983;&#25104;&#29699;&#20307;</text><line style="stroke:#181818;stroke-width:1.0;" x1="29" x2="71" y1="155.5625" y2="155.5625"/><line style="stroke:#181818;stroke-width:1.0;" x1="71" x2="71" y1="155.5625" y2="168.5625"/><line style="stroke:#181818;stroke-width:1.0;" x1="30" x2="71" y1="168.5625" y2="168.5625"/><polygon fill="#181818" points="40,164.5625,30,168.5625,40,172.5625,36,168.5625" style="stroke:#181818;stroke-width:1.0;"/><text fill="#000000" font-family="sans-serif" font-size="13" lengthAdjust="spacing" textLength="90" x="36" y="150.4966">&#9312;&#30452;&#25509;&#29983;&#25104;&#29699;&#20307;</text><polygon fill="#181818" points="261,193.6953,271,197.6953,261,201.6953,265,197.6953" style="stroke:#181818;stroke-width:1.0;"/><line style="stroke:#181818;stroke-width:1.0;stroke-dasharray:2.0,2.0;" x1="29" x2="267" y1="197.6953" y2="197.6953"/><text fill="#000000" font-family="sans-serif" font-size="13" lengthAdjust="spacing" textLength="220" x="36" y="192.6294">&#9313;&#27809;&#26377;&#36890;&#36807;RPC&#35831;&#27714;&#26435;&#38480;&#65292;&#27492;&#32447;&#19981;&#23384;&#22312;</text><line style="stroke:#181818;stroke-width:1.0;stroke-dasharray:2.0,2.0;" x1="273" x2="315" y1="226.8281" y2="226.8281"/><line style="stroke:#181818;stroke-width:1.0;stroke-dasharray:2.0,2.0;" x1="315" x2="315" y1="226.8281" y2="239.8281"/><line style="stroke:#181818;stroke-width:1.0;stroke-dasharray:2.0,2.0;" x1="274" x2="315" y1="239.8281" y2="239.8281"/><polygon fill="#181818" points="284,235.8281,274,239.8281,284,243.8281,280,239.8281" style="stroke:#181818;stroke-width:1.0;"/><text fill="#000000" font-family="sans-serif" font-size="13" lengthAdjust="spacing" textLength="129" x="280" y="221.7622">&#9314;&#26381;&#21153;&#31471;&#27809;&#26377;&#29983;&#25104;&#29699;&#20307;</text><rect fill="#EEEEEE" height="3" style="stroke:#EEEEEE;stroke-width:1.0;" width="416" x="0" y="268.3945"/><line style="stroke:#000000;stroke-width:1.0;" x1="0" x2="416" y1="268.3945" y2="268.3945"/><line style="stroke:#000000;stroke-width:1.0;" x1="0" x2="416" y1="271.3945" y2="271.3945"/><rect fill="#EEEEEE" height="23.1328" style="stroke:#000000;stroke-width:2.0;" width="145" x="135.5" y="257.8281"/><text fill="#000000" font-family="sans-serif" font-size="13" font-weight="bold" lengthAdjust="spacing" textLength="126" x="141.5" y="273.895">2.&#24403;&#26381;&#21153;&#22120;&#29983;&#25104;&#29699;&#20307;</text><line style="stroke:#181818;stroke-width:1.0;" x1="273" x2="315" y1="312.0938" y2="312.0938"/><line style="stroke:#181818;stroke-width:1.0;" x1="315" x2="315" y1="312.0938" y2="325.0938"/><line style="stroke:#181818;stroke-width:1.0;" x1="274" x2="315" y1="325.0938" y2="325.0938"/><polygon fill="#181818" points="284,321.0938,274,325.0938,284,329.0938,280,325.0938" style="stroke:#181818;stroke-width:1.0;"/><text fill="#000000" font-family="sans-serif" font-size="13" lengthAdjust="spacing" textLength="129" x="280" y="307.0278">&#9312;&#22312;&#26381;&#21153;&#31471;&#19978;&#29983;&#25104;&#29699;&#20307;</text><polygon fill="#181818" points="40,350.2266,30,354.2266,40,358.2266,36,354.2266" style="stroke:#181818;stroke-width:1.0;"/><line style="stroke:#181818;stroke-width:1.0;" x1="34" x2="272" y1="354.2266" y2="354.2266"/><text fill="#000000" font-family="sans-serif" font-size="13" lengthAdjust="spacing" textLength="207" x="46" y="349.1606">&#9313;&#26381;&#21153;&#31471;&#20855;&#26377;&#26435;&#23041;&#33258;&#21160;&#21516;&#27493;&#32473;&#23458;&#25143;&#31471;</text><line style="stroke:#181818;stroke-width:1.0;" x1="29" x2="71" y1="383.3594" y2="383.3594"/><line style="stroke:#181818;stroke-width:1.0;" x1="71" x2="71" y1="383.3594" y2="396.3594"/><line style="stroke:#181818;stroke-width:1.0;" x1="30" x2="71" y1="396.3594" y2="396.3594"/><polygon fill="#181818" points="40,392.3594,30,396.3594,40,400.3594,36,396.3594" style="stroke:#181818;stroke-width:1.0;"/><text fill="#000000" font-family="sans-serif" font-size="13" lengthAdjust="spacing" textLength="103" x="36" y="378.2935">&#9314;&#23458;&#25143;&#31471;&#29983;&#25104;&#29699;&#20307;</text><!--SRC=[IqmkoIzIUBfkqREExSzNh-TA1FEVpUbzshKGnEUojLLGCDHxkdSoNCtpAVEVTKnuFg7voTx92hQsN7091LqxX4bM2eycBdW-UykplgN86f1L0vN3BG8fN_Xiqy9dSpfVDinwiRyzAC3vnVhjppOsFPlR_7BcXFTxUfwjNV9yr_udEtgVhftnTCuABhXUJ9CMmNaG8r5S0FAI4SX744LFPwv0zn6IoMW6Bm1Q31TuigCBrM0KVIWXiH0kzRHrEz11G4yzNT7uedtLqwuLJoS0lRRq-UwPY5Z04wQBiCO30000]--></g></svg>