<?xml version="1.0" encoding="us-ascii" standalone="no"?><svg xmlns="http://www.w3.org/2000/svg" xmlns:xlink="http://www.w3.org/1999/xlink" contentStyleType="text/css" height="326px" preserveAspectRatio="none" style="width:639px;height:326px;background:#FFFFFF;" version="1.1" viewBox="0 0 639 326" width="639px" zoomAndPan="magnify"><defs/><g><!--class Product--><g id="elem_Product"><rect codeLine="1" fill="#F1F1F1" height="64.2969" id="Product" rx="2.5" ry="2.5" style="stroke:#181818;stroke-width:0.5;" width="133" x="253" y="131"/><ellipse cx="288.25" cy="147" fill="#ADD1B2" rx="11" ry="11" style="stroke:#181818;stroke-width:1.0;"/><path d="M290.5938,142.6719 C289.6563,142.2344 289.0625,142.0938 288.1875,142.0938 C285.5625,142.0938 283.5625,144.1719 283.5625,146.8906 L283.5625,148.0156 C283.5625,150.5938 285.6719,152.4844 288.5625,152.4844 C289.7813,152.4844 290.9375,152.1875 291.6875,151.6406 C292.2656,151.2344 292.5938,150.7813 292.5938,150.3906 C292.5938,149.9375 292.2031,149.5469 291.7344,149.5469 C291.5156,149.5469 291.3125,149.625 291.125,149.8125 C290.6719,150.2969 290.6719,150.2969 290.4844,150.3906 C290.0625,150.6563 289.375,150.7813 288.6094,150.7813 C286.5625,150.7813 285.2656,149.6875 285.2656,147.9844 L285.2656,146.8906 C285.2656,145.1094 286.5156,143.7969 288.25,143.7969 C288.8281,143.7969 289.4375,143.9531 289.9063,144.2031 C290.3906,144.4844 290.5625,144.7031 290.6563,145.1094 C290.7188,145.5156 290.75,145.6406 290.8906,145.7656 C291.0313,145.9063 291.2656,146.0156 291.4844,146.0156 C291.75,146.0156 292.0156,145.875 292.1875,145.6563 C292.2969,145.5 292.3281,145.3125 292.3281,144.8906 L292.3281,143.4688 C292.3281,143.0313 292.3125,142.9063 292.2188,142.75 C292.0625,142.4844 291.7813,142.3438 291.4844,142.3438 C291.1875,142.3438 290.9844,142.4375 290.7656,142.75 L290.5938,142.6719 Z " fill="#000000"/><text fill="#000000" font-family="sans-serif" font-size="14" lengthAdjust="spacing" textLength="56" x="306.75" y="151.8467">Product</text><line style="stroke:#181818;stroke-width:0.5;" x1="254" x2="385" y1="163" y2="163"/><line style="stroke:#181818;stroke-width:0.5;" x1="254" x2="385" y1="171" y2="171"/><ellipse cx="264" cy="184.6484" fill="#84BE84" rx="3" ry="3" style="stroke:#038048;stroke-width:1.0;"/><text fill="#000000" font-family="sans-serif" font-size="14" lengthAdjust="spacing" textLength="107" x="273" y="187.9951">operate(): void</text></g><!--class ConcreteProductA--><g id="elem_ConcreteProductA"><rect codeLine="5" fill="#F1F1F1" height="64.2969" id="ConcreteProductA" rx="2.5" ry="2.5" style="stroke:#181818;stroke-width:0.5;" width="165" x="33" y="255"/><ellipse cx="48" cy="271" fill="#ADD1B2" rx="11" ry="11" style="stroke:#181818;stroke-width:1.0;"/><path d="M50.3438,266.6719 C49.4063,266.2344 48.8125,266.0938 47.9375,266.0938 C45.3125,266.0938 43.3125,268.1719 43.3125,270.8906 L43.3125,272.0156 C43.3125,274.5938 45.4219,276.4844 48.3125,276.4844 C49.5313,276.4844 50.6875,276.1875 51.4375,275.6406 C52.0156,275.2344 52.3438,274.7813 52.3438,274.3906 C52.3438,273.9375 51.9531,273.5469 51.4844,273.5469 C51.2656,273.5469 51.0625,273.625 50.875,273.8125 C50.4219,274.2969 50.4219,274.2969 50.2344,274.3906 C49.8125,274.6563 49.125,274.7813 48.3594,274.7813 C46.3125,274.7813 45.0156,273.6875 45.0156,271.9844 L45.0156,270.8906 C45.0156,269.1094 46.2656,267.7969 48,267.7969 C48.5781,267.7969 49.1875,267.9531 49.6563,268.2031 C50.1406,268.4844 50.3125,268.7031 50.4063,269.1094 C50.4688,269.5156 50.5,269.6406 50.6406,269.7656 C50.7813,269.9063 51.0156,270.0156 51.2344,270.0156 C51.5,270.0156 51.7656,269.875 51.9375,269.6563 C52.0469,269.5 52.0781,269.3125 52.0781,268.8906 L52.0781,267.4688 C52.0781,267.0313 52.0625,266.9063 51.9688,266.75 C51.8125,266.4844 51.5313,266.3438 51.2344,266.3438 C50.9375,266.3438 50.7344,266.4375 50.5156,266.75 L50.3438,266.6719 Z " fill="#000000"/><text fill="#000000" font-family="sans-serif" font-size="14" lengthAdjust="spacing" textLength="133" x="62" y="275.8467">ConcreteProductA</text><line style="stroke:#181818;stroke-width:0.5;" x1="34" x2="197" y1="287" y2="287"/><line style="stroke:#181818;stroke-width:0.5;" x1="34" x2="197" y1="295" y2="295"/><ellipse cx="44" cy="308.6484" fill="#84BE84" rx="3" ry="3" style="stroke:#038048;stroke-width:1.0;"/><text fill="#000000" font-family="sans-serif" font-size="14" lengthAdjust="spacing" textLength="107" x="53" y="311.9951">operate(): void</text></g><!--class ConcreteProductB--><g id="elem_ConcreteProductB"><rect codeLine="9" fill="#F1F1F1" height="64.2969" id="ConcreteProductB" rx="2.5" ry="2.5" style="stroke:#181818;stroke-width:0.5;" width="165" x="340" y="255"/><ellipse cx="355" cy="271" fill="#ADD1B2" rx="11" ry="11" style="stroke:#181818;stroke-width:1.0;"/><path d="M357.3438,266.6719 C356.4063,266.2344 355.8125,266.0938 354.9375,266.0938 C352.3125,266.0938 350.3125,268.1719 350.3125,270.8906 L350.3125,272.0156 C350.3125,274.5938 352.4219,276.4844 355.3125,276.4844 C356.5313,276.4844 357.6875,276.1875 358.4375,275.6406 C359.0156,275.2344 359.3438,274.7813 359.3438,274.3906 C359.3438,273.9375 358.9531,273.5469 358.4844,273.5469 C358.2656,273.5469 358.0625,273.625 357.875,273.8125 C357.4219,274.2969 357.4219,274.2969 357.2344,274.3906 C356.8125,274.6563 356.125,274.7813 355.3594,274.7813 C353.3125,274.7813 352.0156,273.6875 352.0156,271.9844 L352.0156,270.8906 C352.0156,269.1094 353.2656,267.7969 355,267.7969 C355.5781,267.7969 356.1875,267.9531 356.6563,268.2031 C357.1406,268.4844 357.3125,268.7031 357.4063,269.1094 C357.4688,269.5156 357.5,269.6406 357.6406,269.7656 C357.7813,269.9063 358.0156,270.0156 358.2344,270.0156 C358.5,270.0156 358.7656,269.875 358.9375,269.6563 C359.0469,269.5 359.0781,269.3125 359.0781,268.8906 L359.0781,267.4688 C359.0781,267.0313 359.0625,266.9063 358.9688,266.75 C358.8125,266.4844 358.5313,266.3438 358.2344,266.3438 C357.9375,266.3438 357.7344,266.4375 357.5156,266.75 L357.3438,266.6719 Z " fill="#000000"/><text fill="#000000" font-family="sans-serif" font-size="14" lengthAdjust="spacing" textLength="133" x="369" y="275.8467">ConcreteProductB</text><line style="stroke:#181818;stroke-width:0.5;" x1="341" x2="504" y1="287" y2="287"/><line style="stroke:#181818;stroke-width:0.5;" x1="341" x2="504" y1="295" y2="295"/><ellipse cx="351" cy="308.6484" fill="#84BE84" rx="3" ry="3" style="stroke:#038048;stroke-width:1.0;"/><text fill="#000000" font-family="sans-serif" font-size="14" lengthAdjust="spacing" textLength="107" x="360" y="311.9951">operate(): void</text></g><!--class Creator--><g id="elem_Creator"><rect codeLine="13" fill="#F1F1F1" height="64.2969" id="Creator" rx="2.5" ry="2.5" style="stroke:#181818;stroke-width:0.5;" width="211" x="214" y="7"/><ellipse cx="287.75" cy="23" fill="#ADD1B2" rx="11" ry="11" style="stroke:#181818;stroke-width:1.0;"/><path d="M290.0938,18.6719 C289.1563,18.2344 288.5625,18.0938 287.6875,18.0938 C285.0625,18.0938 283.0625,20.1719 283.0625,22.8906 L283.0625,24.0156 C283.0625,26.5938 285.1719,28.4844 288.0625,28.4844 C289.2813,28.4844 290.4375,28.1875 291.1875,27.6406 C291.7656,27.2344 292.0938,26.7813 292.0938,26.3906 C292.0938,25.9375 291.7031,25.5469 291.2344,25.5469 C291.0156,25.5469 290.8125,25.625 290.625,25.8125 C290.1719,26.2969 290.1719,26.2969 289.9844,26.3906 C289.5625,26.6563 288.875,26.7813 288.1094,26.7813 C286.0625,26.7813 284.7656,25.6875 284.7656,23.9844 L284.7656,22.8906 C284.7656,21.1094 286.0156,19.7969 287.75,19.7969 C288.3281,19.7969 288.9375,19.9531 289.4063,20.2031 C289.8906,20.4844 290.0625,20.7031 290.1563,21.1094 C290.2188,21.5156 290.25,21.6406 290.3906,21.7656 C290.5313,21.9063 290.7656,22.0156 290.9844,22.0156 C291.25,22.0156 291.5156,21.875 291.6875,21.6563 C291.7969,21.5 291.8281,21.3125 291.8281,20.8906 L291.8281,19.4688 C291.8281,19.0313 291.8125,18.9063 291.7188,18.75 C291.5625,18.4844 291.2813,18.3438 290.9844,18.3438 C290.6875,18.3438 290.4844,18.4375 290.2656,18.75 L290.0938,18.6719 Z " fill="#000000"/><text fill="#000000" font-family="sans-serif" font-size="14" lengthAdjust="spacing" textLength="55" x="308.25" y="27.8467">Creator</text><line style="stroke:#181818;stroke-width:0.5;" x1="215" x2="424" y1="39" y2="39"/><line style="stroke:#181818;stroke-width:0.5;" x1="215" x2="424" y1="47" y2="47"/><ellipse cx="225" cy="60.6484" fill="#84BE84" rx="3" ry="3" style="stroke:#038048;stroke-width:1.0;"/><text fill="#000000" font-family="sans-serif" font-size="14" lengthAdjust="spacing" textLength="185" x="234" y="63.9951">createProduct(): Product*</text></g><!--class ConcreteCreatorA--><g id="elem_ConcreteCreatorA"><rect codeLine="17" fill="#F1F1F1" height="64.2969" id="ConcreteCreatorA" rx="2.5" ry="2.5" style="stroke:#181818;stroke-width:0.5;" width="211" x="7" y="131"/><ellipse cx="43.15" cy="147" fill="#ADD1B2" rx="11" ry="11" style="stroke:#181818;stroke-width:1.0;"/><path d="M45.4938,142.6719 C44.5563,142.2344 43.9625,142.0938 43.0875,142.0938 C40.4625,142.0938 38.4625,144.1719 38.4625,146.8906 L38.4625,148.0156 C38.4625,150.5938 40.5719,152.4844 43.4625,152.4844 C44.6813,152.4844 45.8375,152.1875 46.5875,151.6406 C47.1656,151.2344 47.4938,150.7813 47.4938,150.3906 C47.4938,149.9375 47.1031,149.5469 46.6344,149.5469 C46.4156,149.5469 46.2125,149.625 46.025,149.8125 C45.5719,150.2969 45.5719,150.2969 45.3844,150.3906 C44.9625,150.6563 44.275,150.7813 43.5094,150.7813 C41.4625,150.7813 40.1656,149.6875 40.1656,147.9844 L40.1656,146.8906 C40.1656,145.1094 41.4156,143.7969 43.15,143.7969 C43.7281,143.7969 44.3375,143.9531 44.8063,144.2031 C45.2906,144.4844 45.4625,144.7031 45.5563,145.1094 C45.6188,145.5156 45.65,145.6406 45.7906,145.7656 C45.9313,145.9063 46.1656,146.0156 46.3844,146.0156 C46.65,146.0156 46.9156,145.875 47.0875,145.6563 C47.1969,145.5 47.2281,145.3125 47.2281,144.8906 L47.2281,143.4688 C47.2281,143.0313 47.2125,142.9063 47.1188,142.75 C46.9625,142.4844 46.6813,142.3438 46.3844,142.3438 C46.0875,142.3438 45.8844,142.4375 45.6656,142.75 L45.4938,142.6719 Z " fill="#000000"/><text fill="#000000" font-family="sans-serif" font-size="14" lengthAdjust="spacing" textLength="132" x="61.85" y="151.8467">ConcreteCreatorA</text><line style="stroke:#181818;stroke-width:0.5;" x1="8" x2="217" y1="163" y2="163"/><line style="stroke:#181818;stroke-width:0.5;" x1="8" x2="217" y1="171" y2="171"/><ellipse cx="18" cy="184.6484" fill="#84BE84" rx="3" ry="3" style="stroke:#038048;stroke-width:1.0;"/><text fill="#000000" font-family="sans-serif" font-size="14" lengthAdjust="spacing" textLength="185" x="27" y="187.9951">createProduct(): Product*</text></g><!--class ConcreteCreatorB--><g id="elem_ConcreteCreatorB"><rect codeLine="21" fill="#F1F1F1" height="64.2969" id="ConcreteCreatorB" rx="2.5" ry="2.5" style="stroke:#181818;stroke-width:0.5;" width="211" x="421" y="131"/><ellipse cx="457.15" cy="147" fill="#ADD1B2" rx="11" ry="11" style="stroke:#181818;stroke-width:1.0;"/><path d="M459.4938,142.6719 C458.5563,142.2344 457.9625,142.0938 457.0875,142.0938 C454.4625,142.0938 452.4625,144.1719 452.4625,146.8906 L452.4625,148.0156 C452.4625,150.5938 454.5719,152.4844 457.4625,152.4844 C458.6813,152.4844 459.8375,152.1875 460.5875,151.6406 C461.1656,151.2344 461.4938,150.7813 461.4938,150.3906 C461.4938,149.9375 461.1031,149.5469 460.6344,149.5469 C460.4156,149.5469 460.2125,149.625 460.025,149.8125 C459.5719,150.2969 459.5719,150.2969 459.3844,150.3906 C458.9625,150.6563 458.275,150.7813 457.5094,150.7813 C455.4625,150.7813 454.1656,149.6875 454.1656,147.9844 L454.1656,146.8906 C454.1656,145.1094 455.4156,143.7969 457.15,143.7969 C457.7281,143.7969 458.3375,143.9531 458.8063,144.2031 C459.2906,144.4844 459.4625,144.7031 459.5563,145.1094 C459.6188,145.5156 459.65,145.6406 459.7906,145.7656 C459.9313,145.9063 460.1656,146.0156 460.3844,146.0156 C460.65,146.0156 460.9156,145.875 461.0875,145.6563 C461.1969,145.5 461.2281,145.3125 461.2281,144.8906 L461.2281,143.4688 C461.2281,143.0313 461.2125,142.9063 461.1188,142.75 C460.9625,142.4844 460.6813,142.3438 460.3844,142.3438 C460.0875,142.3438 459.8844,142.4375 459.6656,142.75 L459.4938,142.6719 Z " fill="#000000"/><text fill="#000000" font-family="sans-serif" font-size="14" lengthAdjust="spacing" textLength="132" x="475.85" y="151.8467">ConcreteCreatorB</text><line style="stroke:#181818;stroke-width:0.5;" x1="422" x2="631" y1="163" y2="163"/><line style="stroke:#181818;stroke-width:0.5;" x1="422" x2="631" y1="171" y2="171"/><ellipse cx="432" cy="184.6484" fill="#84BE84" rx="3" ry="3" style="stroke:#038048;stroke-width:1.0;"/><text fill="#000000" font-family="sans-serif" font-size="14" lengthAdjust="spacing" textLength="185" x="441" y="187.9951">createProduct(): Product*</text></g><!--reverse link Product to ConcreteProductA--><g id="link_Product_ConcreteProductA"><path codeLine="25" d="M252.046,204.34 C221.354,222.696 198.086,236.6101 167.411,254.9554 " fill="none" id="Product-backto-ConcreteProductA" style="stroke:#181818;stroke-width:1.0;stroke-dasharray:7.0,7.0;"/><polygon fill="none" points="267.494,195.101,248.9663,199.1907,255.1257,209.4893,267.494,195.101" style="stroke:#181818;stroke-width:1.0;"/></g><!--reverse link Product to ConcreteProductB--><g id="link_Product_ConcreteProductB"><path codeLine="26" d="M357.3692,208.8552 C372.8652,227.2112 380.802,236.6101 396.29,254.9554 " fill="none" id="Product-backto-ConcreteProductB" style="stroke:#181818;stroke-width:1.0;stroke-dasharray:7.0,7.0;"/><polygon fill="none" points="345.758,195.101,352.7845,212.7257,361.954,204.9848,345.758,195.101" style="stroke:#181818;stroke-width:1.0;"/></g><!--reverse link Creator to ConcreteCreatorA--><g id="link_Creator_ConcreteCreatorA"><path codeLine="28" d="M251.223,80.2407 C220.079,98.5967 196.301,112.61 165.174,130.955 " fill="none" id="Creator-backto-ConcreteCreatorA" style="stroke:#181818;stroke-width:1.0;"/><polygon fill="none" points="266.73,71.101,248.1765,75.0717,254.2696,85.4097,266.73,71.101" style="stroke:#181818;stroke-width:1.0;"/></g><!--reverse link Creator to ConcreteCreatorB--><g id="link_Creator_ConcreteCreatorB"><path codeLine="29" d="M387.777,80.2407 C418.921,98.5967 442.699,112.61 473.826,130.955 " fill="none" id="Creator-backto-ConcreteCreatorB" style="stroke:#181818;stroke-width:1.0;"/><polygon fill="none" points="372.27,71.101,384.7304,85.4097,390.8235,75.0717,372.27,71.101" style="stroke:#181818;stroke-width:1.0;"/></g><!--link ConcreteCreatorA to ConcreteProductA--><g id="link_ConcreteCreatorA_ConcreteProductA"><path codeLine="31" d="M113.265,195.101 C113.716,213.457 114.1372,230.6119 114.5892,248.9572 " fill="none" id="ConcreteCreatorA-to-ConcreteProductA" style="stroke:#181818;stroke-width:1.0;"/><polygon fill="#181818" points="114.737,254.9554,118.5141,245.8596,114.6138,249.9569,110.5165,246.0567,114.737,254.9554" style="stroke:#181818;stroke-width:1.0;"/></g><!--link ConcreteCreatorB to ConcreteProductB--><g id="link_ConcreteCreatorB_ConcreteProductB"><path codeLine="32" d="M499.987,195.101 C484.34,213.457 468.4955,232.0441 452.8565,250.3894 " fill="none" id="ConcreteCreatorB-to-ConcreteProductB" style="stroke:#181818;stroke-width:1.0;"/><polygon fill="#181818" points="448.964,254.9554,457.8467,250.7013,452.2077,251.1504,451.7587,245.5114,448.964,254.9554" style="stroke:#181818;stroke-width:1.0;"/></g><!--SRC=[Iyv9B2vM22ZAJobDBb6evb9GqCulI2rAB4dLqBHIAClFJE6gvU9A1gjopizBBaejIOMgTYHDkHCXvKMfYINvHH1LoI0EJ2T8BPIfXMayL9yZkHgTYD082n-R6ZqzZ630A-l4nGNpc4sDhYw6g_7AWZIZ-r9NrmxJ1HXUmgBA2G00]--></g></svg>