<svg xmlns="http://www.w3.org/2000/svg" xmlns:xlink="http://www.w3.org/1999/xlink" contentStyleType="text/css" data-diagram-type="ACTIVITY" height="1221px" preserveAspectRatio="none" style="width:561px;height:1221px;background:#FFFFFF;" version="1.1" viewBox="0 0 561 1221" width="561px" zoomAndPan="magnify"><title>TryActivateAbility &#25191;&#34892;&#27969;&#31243;&#22270;</title><defs/><g><g class="title" data-source-line="1"><text fill="#000000" font-family="sans-serif" font-size="14" font-weight="bold" lengthAdjust="spacing" textLength="216.9108" x="170.7883" y="32.9951">TryActivateAbility &#25191;&#34892;&#27969;&#31243;&#22270;</text></g><ellipse cx="345.4776" cy="57.2969" fill="#222222" rx="10" ry="10" style="stroke:#222222;stroke-width:1;"/><rect fill="#F1F1F1" height="33.9688" rx="12.5" ry="12.5" style="stroke:#181818;stroke-width:0.5;" width="114.6642" x="288.1454" y="87.2969"/><text fill="#000000" font-family="sans-serif" font-size="12" lengthAdjust="spacing" textLength="94.6642" x="298.1454" y="108.4355">&#26597;&#25214; AbilitySpec</text><polygon fill="#F1F1F1" points="319.3392,141.2656,371.6159,141.2656,383.6159,153.2656,371.6159,165.2656,319.3392,165.2656,307.3392,153.2656,319.3392,141.2656" style="stroke:#181818;stroke-width:0.5;"/><text fill="#000000" font-family="sans-serif" font-size="11" lengthAdjust="spacing" textLength="52.2767" x="319.3392" y="157.0737">Spec &#26080;&#25928;</text><text fill="#000000" font-family="sans-serif" font-size="11" lengthAdjust="spacing" textLength="10.9999" x="383.6159" y="150.6714">&#26159;</text><ellipse cx="416.6159" cy="153.2656" fill="none" rx="11" ry="11" style="stroke:#222222;stroke-width:1;"/><ellipse cx="416.6159" cy="153.2656" fill="#222222" rx="6" ry="6" style="stroke:#222222;stroke-width:1;"/><polygon fill="#F1F1F1" points="212.8948,185.2656,478.0603,185.2656,490.0603,197.2656,478.0603,209.2656,212.8948,209.2656,200.8948,197.2656,212.8948,185.2656" style="stroke:#181818;stroke-width:0.5;"/><text fill="#000000" font-family="sans-serif" font-size="11" lengthAdjust="spacing" textLength="265.1655" x="212.8948" y="201.0737">Spec PendingRemove &#25110; RemoveAfterActivation</text><text fill="#000000" font-family="sans-serif" font-size="11" lengthAdjust="spacing" textLength="10.9999" x="490.0603" y="194.6714">&#26159;</text><ellipse cx="523.0603" cy="197.2656" fill="none" rx="11" ry="11" style="stroke:#222222;stroke-width:1;"/><ellipse cx="523.0603" cy="197.2656" fill="#222222" rx="6" ry="6" style="stroke:#222222;stroke-width:1;"/><rect fill="#F1F1F1" height="33.9688" rx="12.5" ry="12.5" style="stroke:#181818;stroke-width:0.5;" width="113.264" x="288.8455" y="229.2656"/><text fill="#000000" font-family="sans-serif" font-size="12" lengthAdjust="spacing" textLength="93.264" x="298.8455" y="250.4043">&#33719;&#21462; Ability &#23454;&#20363;</text><polygon fill="#F1F1F1" points="315.4801,283.2344,375.475,283.2344,387.475,295.2344,375.475,307.2344,315.4801,307.2344,303.4801,295.2344,315.4801,283.2344" style="stroke:#181818;stroke-width:0.5;"/><text fill="#000000" font-family="sans-serif" font-size="11" lengthAdjust="spacing" textLength="59.995" x="315.4801" y="299.0425">Ability &#26080;&#25928;</text><text fill="#000000" font-family="sans-serif" font-size="11" lengthAdjust="spacing" textLength="10.9999" x="387.475" y="292.6401">&#26159;</text><ellipse cx="420.475" cy="295.2344" fill="none" rx="11" ry="11" style="stroke:#222222;stroke-width:1;"/><ellipse cx="420.475" cy="295.2344" fill="#222222" rx="6" ry="6" style="stroke:#222222;stroke-width:1;"/><rect fill="#F1F1F1" height="33.9688" rx="12.5" ry="12.5" style="stroke:#181818;stroke-width:0.5;" width="102.3127" x="294.3212" y="327.2344"/><text fill="#000000" font-family="sans-serif" font-size="12" lengthAdjust="spacing" textLength="82.3127" x="304.3212" y="348.373">&#33719;&#21462; ActorInfo</text><polygon fill="#F1F1F1" points="280.5787,381.2031,410.3764,381.2031,422.3764,393.2031,410.3764,405.2031,280.5787,405.2031,268.5787,393.2031,280.5787,381.2031" style="stroke:#181818;stroke-width:0.5;"/><text fill="#000000" font-family="sans-serif" font-size="11" lengthAdjust="spacing" textLength="129.7976" x="280.5787" y="397.0112">ActorInfo &#25110; Avatar &#26080;&#25928;</text><text fill="#000000" font-family="sans-serif" font-size="11" lengthAdjust="spacing" textLength="10.9999" x="422.3764" y="390.6089">&#26159;</text><ellipse cx="455.3764" cy="393.2031" fill="none" rx="11" ry="11" style="stroke:#222222;stroke-width:1;"/><ellipse cx="455.3764" cy="393.2031" fill="#222222" rx="6" ry="6" style="stroke:#222222;stroke-width:1;"/><rect fill="#F1F1F1" height="33.9688" rx="12.5" ry="12.5" style="stroke:#181818;stroke-width:0.5;" width="95.2756" x="297.8398" y="425.2031"/><text fill="#000000" font-family="sans-serif" font-size="12" lengthAdjust="spacing" textLength="75.2756" x="307.8398" y="446.3418">&#33719;&#21462; NetRole</text><polygon fill="#F1F1F1" points="267.7659,479.1719,423.1892,479.1719,435.1892,491.1719,423.1892,503.1719,267.7659,503.1719,255.7659,491.1719,267.7659,479.1719" style="stroke:#181818;stroke-width:0.5;"/><text fill="#000000" font-family="sans-serif" font-size="11" lengthAdjust="spacing" textLength="155.4233" x="267.7659" y="494.98">NetRole == SimulatedProxy</text><text fill="#000000" font-family="sans-serif" font-size="11" lengthAdjust="spacing" textLength="10.9999" x="435.1892" y="488.5776">&#26159;</text><ellipse cx="468.1892" cy="491.1719" fill="none" rx="11" ry="11" style="stroke:#222222;stroke-width:1;"/><ellipse cx="468.1892" cy="491.1719" fill="#222222" rx="6" ry="6" style="stroke:#222222;stroke-width:1;"/><rect fill="#F1F1F1" height="103.8125" rx="12.5" ry="12.5" style="stroke:#181818;stroke-width:0.5;" width="247.0341" x="221.9605" y="523.1719"/><text fill="#000000" font-family="sans-serif" font-size="12" lengthAdjust="spacing" textLength="220.1251" x="231.9605" y="544.3105">IsLocallyControlled? --&gt; [&#26159;] bIsLocal</text><text fill="#000000" font-family="sans-serif" font-size="12" lengthAdjust="spacing" textLength="59.0449" x="231.9605" y="558.2793">note right</text><text fill="#000000" font-family="sans-serif" font-size="12" lengthAdjust="spacing" textLength="223.2197" x="235.7749" y="572.248">&#26412;&#22320;&#25511;&#21046;&#32773; = Client &#25110; Server &#33258;&#36523;&#25511;&#21046;</text><text fill="#000000" font-family="sans-serif" font-size="12" lengthAdjust="spacing" textLength="53.4551" x="231.9605" y="586.2168">end note</text><text fill="#000000" font-family="sans-serif" font-size="12" lengthAdjust="spacing" textLength="3.8145" x="231.9605" y="600.1855">&#160;</text><text fill="#000000" font-family="sans-serif" font-size="12" lengthAdjust="spacing" textLength="204.387" x="231.9605" y="614.1543">:&#33719;&#21462; Ability &#30340; NetExecutionPolicy</text><rect fill="none" height="478.0391" style="stroke:#000000;stroke-width:1.5;" width="539.4874" x="11" y="636.9844"/><path d="M132.9995,636.9844 L132.9995,646.2813 L122.9995,656.2813 L11,656.2813" fill="none" style="stroke:#000000;stroke-width:1.5;"/><text fill="#000000" font-family="sans-serif" font-size="14" lengthAdjust="spacing" textLength="111.9995" x="14" y="650.9795">&#33021;&#21147;&#25191;&#34892;&#31574;&#30053;&#21028;&#26029;</text><polygon fill="#F1F1F1" points="278.2046,721.6836,412.7505,721.6836,424.7505,733.6836,412.7505,745.6836,278.2046,745.6836,266.2046,733.6836,278.2046,721.6836" style="stroke:#181818;stroke-width:0.5;"/><text fill="#000000" font-family="sans-serif" font-size="11" lengthAdjust="spacing" textLength="134.5459" x="278.2046" y="737.4917">bAllowRemoteActivation</text><text fill="#000000" font-family="sans-serif" font-size="11" lengthAdjust="spacing" textLength="10.9999" x="255.2047" y="731.0894">&#26159;</text><rect fill="#F1F1F1" height="33.9688" rx="12.5" ry="12.5" style="stroke:#181818;stroke-width:0.5;" width="170.4922" x="170.9585" y="755.6836"/><text fill="#000000" font-family="sans-serif" font-size="12" lengthAdjust="spacing" textLength="150.4922" x="180.9585" y="776.8223">ClientTryActivateAbility()</text><ellipse cx="256.2046" cy="820.6523" fill="none" rx="11" ry="11" style="stroke:#222222;stroke-width:1;"/><ellipse cx="256.2046" cy="820.6523" fill="#222222" rx="6" ry="6" style="stroke:#222222;stroke-width:1;"/><rect fill="#F1F1F1" height="33.9688" rx="12.5" ry="12.5" style="stroke:#181818;stroke-width:0.5;" width="92.0005" x="388.7502" y="755.6836"/><text fill="#000000" font-family="sans-serif" font-size="12" lengthAdjust="spacing" textLength="72.0005" x="398.7502" y="776.8223">&#35760;&#24405;&#22833;&#36133;&#26085;&#24535;</text><ellipse cx="434.7505" cy="820.6523" fill="none" rx="11" ry="11" style="stroke:#222222;stroke-width:1;"/><ellipse cx="434.7505" cy="820.6523" fill="#222222" rx="6" ry="6" style="stroke:#222222;stroke-width:1;"/><polygon fill="#F1F1F1" points="189.4019,673.2813,501.5532,673.2813,513.5532,685.2813,501.5532,697.2813,189.4019,697.2813,177.4019,685.2813,189.4019,673.2813" style="stroke:#181818;stroke-width:0.5;"/><text fill="#000000" font-family="sans-serif" font-size="11" lengthAdjust="spacing" textLength="10.9999" x="349.4776" y="707.4917">&#26159;</text><text fill="#000000" font-family="sans-serif" font-size="11" lengthAdjust="spacing" textLength="312.1512" x="189.4019" y="689.0894">&#38750;&#26412;&#22320;&#25511;&#21046;&#32773; &amp;&amp; NetPolicy &#26159; LocalOnly &#25110; LocalPredicted</text><polygon fill="#F1F1F1" points="278.2046,922.0547,412.7505,922.0547,424.7505,934.0547,412.7505,946.0547,278.2046,946.0547,266.2046,934.0547,278.2046,922.0547" style="stroke:#181818;stroke-width:0.5;"/><text fill="#000000" font-family="sans-serif" font-size="11" lengthAdjust="spacing" textLength="134.5459" x="278.2046" y="937.8628">bAllowRemoteActivation</text><text fill="#000000" font-family="sans-serif" font-size="11" lengthAdjust="spacing" textLength="10.9999" x="255.2047" y="931.4604">&#26159;</text><polygon fill="#F1F1F1" points="143.752,956.0547,301.1841,956.0547,313.1841,968.0547,301.1841,980.0547,143.752,980.0547,131.752,968.0547,143.752,956.0547" style="stroke:#181818;stroke-width:0.5;"/><text fill="#000000" font-family="sans-serif" font-size="11" lengthAdjust="spacing" textLength="157.4321" x="143.752" y="971.8628">Ability-&gt;CanActivateAbility()</text><text fill="#000000" font-family="sans-serif" font-size="11" lengthAdjust="spacing" textLength="10.9999" x="120.752" y="965.4604">&#26159;</text><rect fill="#F1F1F1" height="33.9688" rx="12.5" ry="12.5" style="stroke:#181818;stroke-width:0.5;" width="197.5039" x="23" y="990.0547"/><text fill="#000000" font-family="sans-serif" font-size="12" lengthAdjust="spacing" textLength="177.5039" x="33" y="1011.1934">CallServerTryActivateAbility()</text><ellipse cx="121.752" cy="1070.0234" fill="none" rx="11" ry="11" style="stroke:#222222;stroke-width:1;"/><ellipse cx="121.752" cy="1070.0234" fill="#222222" rx="6" ry="6" style="stroke:#222222;stroke-width:1;"/><rect fill="#F1F1F1" height="33.9688" rx="12.5" ry="12.5" style="stroke:#181818;stroke-width:0.5;" width="138.6055" x="253.8813" y="990.0547"/><text fill="#000000" font-family="sans-serif" font-size="12" lengthAdjust="spacing" textLength="118.6055" x="263.8813" y="1011.1934">NotifyAbilityFailed()</text><ellipse cx="323.1841" cy="1070.0234" fill="none" rx="11" ry="11" style="stroke:#222222;stroke-width:1;"/><ellipse cx="323.1841" cy="1070.0234" fill="#222222" rx="6" ry="6" style="stroke:#222222;stroke-width:1;"/><rect fill="#F1F1F1" height="33.9688" rx="12.5" ry="12.5" style="stroke:#181818;stroke-width:0.5;" width="92.0005" x="422.4868" y="956.0547"/><text fill="#000000" font-family="sans-serif" font-size="12" lengthAdjust="spacing" textLength="72.0005" x="432.4868" y="977.1934">&#35760;&#24405;&#22833;&#36133;&#26085;&#24535;</text><ellipse cx="468.4871" cy="1036.0234" fill="none" rx="11" ry="11" style="stroke:#222222;stroke-width:1;"/><ellipse cx="468.4871" cy="1036.0234" fill="#222222" rx="6" ry="6" style="stroke:#222222;stroke-width:1;"/><polygon fill="#F1F1F1" points="196.3467,873.6523,494.6084,873.6523,506.6084,885.6523,494.6084,897.6523,196.3467,897.6523,184.3467,885.6523,196.3467,873.6523" style="stroke:#181818;stroke-width:0.5;"/><text fill="#000000" font-family="sans-serif" font-size="11" lengthAdjust="spacing" textLength="10.9999" x="349.4776" y="907.8628">&#26159;</text><text fill="#000000" font-family="sans-serif" font-size="11" lengthAdjust="spacing" textLength="298.2617" x="196.3467" y="889.4604">&#38750;&#26381;&#21153;&#22120; &amp;&amp; NetPolicy &#26159; ServerOnly &#25110; ServerInitiated</text><rect fill="#F1F1F1" height="33.9688" rx="12.5" ry="12.5" style="stroke:#181818;stroke-width:0.5;" width="210.0256" x="240.4648" y="1135.0234"/><text fill="#000000" font-family="sans-serif" font-size="12" lengthAdjust="spacing" textLength="190.0256" x="250.4648" y="1156.1621">&#35843;&#29992; InternalTryActivateAbility()</text><ellipse cx="345.4776" cy="1199.9922" fill="none" rx="11" ry="11" style="stroke:#222222;stroke-width:1;"/><ellipse cx="345.4776" cy="1199.9922" fill="#222222" rx="6" ry="6" style="stroke:#222222;stroke-width:1;"/><line style="stroke:#181818;stroke-width:1;" x1="345.4776" x2="345.4776" y1="67.2969" y2="87.2969"/><polygon fill="#181818" points="341.4776,77.2969,345.4776,87.2969,349.4776,77.2969,345.4776,81.2969" style="stroke:#181818;stroke-width:1;"/><line style="stroke:#181818;stroke-width:1;" x1="345.4776" x2="345.4776" y1="165.2656" y2="185.2656"/><polygon fill="#181818" points="341.4776,175.2656,345.4776,185.2656,349.4776,175.2656,345.4776,179.2656" style="stroke:#181818;stroke-width:1;"/><line style="stroke:#181818;stroke-width:1;" x1="383.6159" x2="405.6159" y1="153.2656" y2="153.2656"/><polygon fill="#181818" points="395.6159,149.2656,405.6159,153.2656,395.6159,157.2656,399.6159,153.2656" style="stroke:#181818;stroke-width:1;"/><line style="stroke:#181818;stroke-width:1;" x1="345.4776" x2="345.4776" y1="121.2656" y2="141.2656"/><polygon fill="#181818" points="341.4776,131.2656,345.4776,141.2656,349.4776,131.2656,345.4776,135.2656" style="stroke:#181818;stroke-width:1;"/><line style="stroke:#181818;stroke-width:1;" x1="345.4776" x2="345.4776" y1="209.2656" y2="229.2656"/><polygon fill="#181818" points="341.4776,219.2656,345.4776,229.2656,349.4776,219.2656,345.4776,223.2656" style="stroke:#181818;stroke-width:1;"/><line style="stroke:#181818;stroke-width:1;" x1="490.0603" x2="512.0603" y1="197.2656" y2="197.2656"/><polygon fill="#181818" points="502.0603,193.2656,512.0603,197.2656,502.0603,201.2656,506.0603,197.2656" style="stroke:#181818;stroke-width:1;"/><line style="stroke:#181818;stroke-width:1;" x1="345.4776" x2="345.4776" y1="307.2344" y2="327.2344"/><polygon fill="#181818" points="341.4776,317.2344,345.4776,327.2344,349.4776,317.2344,345.4776,321.2344" style="stroke:#181818;stroke-width:1;"/><line style="stroke:#181818;stroke-width:1;" x1="387.475" x2="409.475" y1="295.2344" y2="295.2344"/><polygon fill="#181818" points="399.475,291.2344,409.475,295.2344,399.475,299.2344,403.475,295.2344" style="stroke:#181818;stroke-width:1;"/><line style="stroke:#181818;stroke-width:1;" x1="345.4776" x2="345.4776" y1="263.2344" y2="283.2344"/><polygon fill="#181818" points="341.4776,273.2344,345.4776,283.2344,349.4776,273.2344,345.4776,277.2344" style="stroke:#181818;stroke-width:1;"/><line style="stroke:#181818;stroke-width:1;" x1="345.4776" x2="345.4776" y1="405.2031" y2="425.2031"/><polygon fill="#181818" points="341.4776,415.2031,345.4776,425.2031,349.4776,415.2031,345.4776,419.2031" style="stroke:#181818;stroke-width:1;"/><line style="stroke:#181818;stroke-width:1;" x1="422.3764" x2="444.3764" y1="393.2031" y2="393.2031"/><polygon fill="#181818" points="434.3764,389.2031,444.3764,393.2031,434.3764,397.2031,438.3764,393.2031" style="stroke:#181818;stroke-width:1;"/><line style="stroke:#181818;stroke-width:1;" x1="345.4776" x2="345.4776" y1="361.2031" y2="381.2031"/><polygon fill="#181818" points="341.4776,371.2031,345.4776,381.2031,349.4776,371.2031,345.4776,375.2031" style="stroke:#181818;stroke-width:1;"/><line style="stroke:#181818;stroke-width:1;" x1="345.4776" x2="345.4776" y1="503.1719" y2="523.1719"/><polygon fill="#181818" points="341.4776,513.1719,345.4776,523.1719,349.4776,513.1719,345.4776,517.1719" style="stroke:#181818;stroke-width:1;"/><line style="stroke:#181818;stroke-width:1;" x1="435.1892" x2="457.1892" y1="491.1719" y2="491.1719"/><polygon fill="#181818" points="447.1892,487.1719,457.1892,491.1719,447.1892,495.1719,451.1892,491.1719" style="stroke:#181818;stroke-width:1;"/><line style="stroke:#181818;stroke-width:1;" x1="345.4776" x2="345.4776" y1="459.1719" y2="479.1719"/><polygon fill="#181818" points="341.4776,469.1719,345.4776,479.1719,349.4776,469.1719,345.4776,473.1719" style="stroke:#181818;stroke-width:1;"/><line style="stroke:#181818;stroke-width:1;" x1="256.2046" x2="256.2046" y1="789.6523" y2="809.6523"/><polygon fill="#181818" points="252.2046,799.6523,256.2046,809.6523,260.2046,799.6523,256.2046,803.6523" style="stroke:#181818;stroke-width:1;"/><line style="stroke:#181818;stroke-width:1;" x1="434.7505" x2="434.7505" y1="789.6523" y2="809.6523"/><polygon fill="#181818" points="430.7505,799.6523,434.7505,809.6523,438.7505,799.6523,434.7505,803.6523" style="stroke:#181818;stroke-width:1;"/><line style="stroke:#181818;stroke-width:1;" x1="266.2046" x2="256.2046" y1="733.6836" y2="733.6836"/><line style="stroke:#181818;stroke-width:1;" x1="256.2046" x2="256.2046" y1="733.6836" y2="755.6836"/><polygon fill="#181818" points="252.2046,745.6836,256.2046,755.6836,260.2046,745.6836,256.2046,749.6836" style="stroke:#181818;stroke-width:1;"/><line style="stroke:#181818;stroke-width:1;" x1="424.7505" x2="434.7505" y1="733.6836" y2="733.6836"/><line style="stroke:#181818;stroke-width:1;" x1="434.7505" x2="434.7505" y1="733.6836" y2="755.6836"/><polygon fill="#181818" points="430.7505,745.6836,434.7505,755.6836,438.7505,745.6836,434.7505,749.6836" style="stroke:#181818;stroke-width:1;"/><line style="stroke:#181818;stroke-width:1;" x1="345.4776" x2="345.4776" y1="697.2813" y2="721.6836"/><polygon fill="#181818" points="341.4776,711.6836,345.4776,721.6836,349.4776,711.6836,345.4776,715.6836" style="stroke:#181818;stroke-width:1;"/><line style="stroke:#181818;stroke-width:1;" x1="513.5532" x2="525.5532" y1="685.2813" y2="685.2813"/><polygon fill="#181818" points="521.5532,774.168,525.5532,784.168,529.5532,774.168,525.5532,778.168" style="stroke:#181818;stroke-width:1;"/><line style="stroke:#181818;stroke-width:1;" x1="525.5532" x2="525.5532" y1="685.2813" y2="853.6523"/><line style="stroke:#181818;stroke-width:1;" x1="525.5532" x2="345.4776" y1="853.6523" y2="853.6523"/><line style="stroke:#181818;stroke-width:1;" x1="345.4776" x2="345.4776" y1="853.6523" y2="873.6523"/><polygon fill="#181818" points="341.4776,863.6523,345.4776,873.6523,349.4776,863.6523,345.4776,867.6523" style="stroke:#181818;stroke-width:1;"/><line style="stroke:#181818;stroke-width:1;" x1="121.752" x2="121.752" y1="1024.0234" y2="1059.0234"/><polygon fill="#181818" points="117.752,1049.0234,121.752,1059.0234,125.752,1049.0234,121.752,1053.0234" style="stroke:#181818;stroke-width:1;"/><line style="stroke:#181818;stroke-width:1;" x1="323.1841" x2="323.1841" y1="1024.0234" y2="1059.0234"/><polygon fill="#181818" points="319.1841,1049.0234,323.1841,1059.0234,327.1841,1049.0234,323.1841,1053.0234" style="stroke:#181818;stroke-width:1;"/><line style="stroke:#181818;stroke-width:1;" x1="131.752" x2="121.752" y1="968.0547" y2="968.0547"/><line style="stroke:#181818;stroke-width:1;" x1="121.752" x2="121.752" y1="968.0547" y2="990.0547"/><polygon fill="#181818" points="117.752,980.0547,121.752,990.0547,125.752,980.0547,121.752,984.0547" style="stroke:#181818;stroke-width:1;"/><line style="stroke:#181818;stroke-width:1;" x1="313.1841" x2="323.1841" y1="968.0547" y2="968.0547"/><line style="stroke:#181818;stroke-width:1;" x1="323.1841" x2="323.1841" y1="968.0547" y2="990.0547"/><polygon fill="#181818" points="319.1841,980.0547,323.1841,990.0547,327.1841,980.0547,323.1841,984.0547" style="stroke:#181818;stroke-width:1;"/><line style="stroke:#181818;stroke-width:1;" x1="468.4871" x2="468.4871" y1="990.0234" y2="1025.0234"/><polygon fill="#181818" points="464.4871,1015.0234,468.4871,1025.0234,472.4871,1015.0234,468.4871,1019.0234" style="stroke:#181818;stroke-width:1;"/><line style="stroke:#181818;stroke-width:1;" x1="266.2046" x2="222.468" y1="934.0547" y2="934.0547"/><line style="stroke:#181818;stroke-width:1;" x1="222.468" x2="222.468" y1="934.0547" y2="956.0547"/><polygon fill="#181818" points="218.468,946.0547,222.468,956.0547,226.468,946.0547,222.468,950.0547" style="stroke:#181818;stroke-width:1;"/><line style="stroke:#181818;stroke-width:1;" x1="424.7505" x2="468.4871" y1="934.0547" y2="934.0547"/><line style="stroke:#181818;stroke-width:1;" x1="468.4871" x2="468.4871" y1="934.0547" y2="956.0547"/><polygon fill="#181818" points="464.4871,946.0547,468.4871,956.0547,472.4871,946.0547,468.4871,950.0547" style="stroke:#181818;stroke-width:1;"/><line style="stroke:#181818;stroke-width:1;" x1="345.4776" x2="345.4776" y1="897.6523" y2="922.0547"/><polygon fill="#181818" points="341.4776,912.0547,345.4776,922.0547,349.4776,912.0547,345.4776,916.0547" style="stroke:#181818;stroke-width:1;"/><line style="stroke:#181818;stroke-width:1;" x1="506.6084" x2="534.4874" y1="885.6523" y2="885.6523"/><polygon fill="#181818" points="530.4874,994.5391,534.4874,1004.5391,538.4874,994.5391,534.4874,998.5391" style="stroke:#181818;stroke-width:1;"/><line style="stroke:#181818;stroke-width:1;" x1="534.4874" x2="534.4874" y1="885.6523" y2="1103.0234"/><line style="stroke:#181818;stroke-width:1;" x1="534.4874" x2="345.4776" y1="1103.0234" y2="1103.0234"/><line style="stroke:#181818;stroke-width:1;" x1="345.4776" x2="345.4776" y1="1103.0234" y2="1135.0234"/><polygon fill="#181818" points="341.4776,1125.0234,345.4776,1135.0234,349.4776,1125.0234,345.4776,1129.0234" style="stroke:#181818;stroke-width:1;"/><line style="stroke:#181818;stroke-width:1;" x1="345.4776" x2="345.4776" y1="626.9844" y2="673.2813"/><polygon fill="#181818" points="341.4776,663.2813,345.4776,673.2813,349.4776,663.2813,345.4776,667.2813" style="stroke:#181818;stroke-width:1;"/><line style="stroke:#181818;stroke-width:1;" x1="345.4776" x2="345.4776" y1="1168.9922" y2="1188.9922"/><polygon fill="#181818" points="341.4776,1178.9922,345.4776,1188.9922,349.4776,1178.9922,345.4776,1182.9922" style="stroke:#181818;stroke-width:1;"/><!--SRC=[fLJTQXD16BsVf_ZeHKakyW89gOIW490Q6k_4YyrcqWvCPy9a6hk8e5GnRRNUc4HjhHOQ6jJM2Fw0qFWopcHz2sTsDZ4sRHIwDplVxFUTFUVCOIIH5CDD4UHyIHgUnBaoeKG6e3UFmeCd-ik3OMzRxGuGgajFI8JI-arNRmuWxYlLi9z1f0e9kmBTUQjRpIJ85SmWeLzyJ2A0kkGrX5c5LD6VpgBTOCjBU9KtCEXc6zmoLvLOn6G8PpEWqk7ED_MiFM82wcJ_vs3RaHch-1UVCOWlkIYmAe_dHsN4B6UuUEB_mHQnNE8KEwYuW6mMIcHrZHgFAqN1ruDPG8NwTUvxb0PvpgJWbEBA5KYb5k2MwRuDvVWxObnY46HvHIBGUn_KNb_l7Adcr_3-8yX2dXBCP2IXX4K32mWVlmk_ltSzzcTW0QQj7BvwQ4LSNSV-cZs58gV43p88rKm6YDs1kN3ZL6tjkfWCZzl3LbSr3tNxU0xk6ZLM-Q_N-sSvpSzRN0S7HWf4Ccum6aGieweeS8NungKp1ZdGSevIViTcnMJrefZO9-tKJqSxaSp4BP7bTe5f7O_6mfE-Ecsfmq_XvwxkTDMFpdHxT4gZzwJQfshhGBtiJUjq_e-5khB0Z9VUfPLE13wraFVObDvpPgm_9b-EnooF9cJ_vPC1MEIIL8Duuff7J4WlceiDkwJJzsnI-nl3vpqeC7DDC8-UJnrPWDy0]--></g></svg>