<?xml version="1.0" encoding="us-ascii" standalone="no"?><svg xmlns="http://www.w3.org/2000/svg" xmlns:xlink="http://www.w3.org/1999/xlink" contentStyleType="text/css" height="386px" preserveAspectRatio="none" style="width:1694px;height:386px;background:#FFFFFF;" version="1.1" viewBox="0 0 1694 386" width="1694px" zoomAndPan="magnify"><defs/><g><!--class UObject--><g id="elem_UObject"><rect codeLine="1" fill="#F1F1F1" height="48" id="UObject" rx="2.5" ry="2.5" style="stroke:#181818;stroke-width:0.5;" width="90" x="955.5" y="7"/><ellipse cx="970.5" cy="23" fill="#ADD1B2" rx="11" ry="11" style="stroke:#181818;stroke-width:1.0;"/><path d="M972.8438,18.6719 C971.9063,18.2344 971.3125,18.0938 970.4375,18.0938 C967.8125,18.0938 965.8125,20.1719 965.8125,22.8906 L965.8125,24.0156 C965.8125,26.5938 967.9219,28.4844 970.8125,28.4844 C972.0313,28.4844 973.1875,28.1875 973.9375,27.6406 C974.5156,27.2344 974.8438,26.7813 974.8438,26.3906 C974.8438,25.9375 974.4531,25.5469 973.9844,25.5469 C973.7656,25.5469 973.5625,25.625 973.375,25.8125 C972.9219,26.2969 972.9219,26.2969 972.7344,26.3906 C972.3125,26.6563 971.625,26.7813 970.8594,26.7813 C968.8125,26.7813 967.5156,25.6875 967.5156,23.9844 L967.5156,22.8906 C967.5156,21.1094 968.7656,19.7969 970.5,19.7969 C971.0781,19.7969 971.6875,19.9531 972.1563,20.2031 C972.6406,20.4844 972.8125,20.7031 972.9063,21.1094 C972.9688,21.5156 973,21.6406 973.1406,21.7656 C973.2813,21.9063 973.5156,22.0156 973.7344,22.0156 C974,22.0156 974.2656,21.875 974.4375,21.6563 C974.5469,21.5 974.5781,21.3125 974.5781,20.8906 L974.5781,19.4688 C974.5781,19.0313 974.5625,18.9063 974.4688,18.75 C974.3125,18.4844 974.0313,18.3438 973.7344,18.3438 C973.4375,18.3438 973.2344,18.4375 973.0156,18.75 L972.8438,18.6719 Z " fill="#000000"/><text fill="#000000" font-family="sans-serif" font-size="14" lengthAdjust="spacing" textLength="58" x="984.5" y="27.8467">UObject</text><line style="stroke:#181818;stroke-width:0.5;" x1="956.5" x2="1044.5" y1="39" y2="39"/><line style="stroke:#181818;stroke-width:0.5;" x1="956.5" x2="1044.5" y1="47" y2="47"/></g><!--class UInputTrigger--><g id="elem_UInputTrigger"><rect codeLine="2" fill="#F1F1F1" height="48" id="UInputTrigger" rx="2.5" ry="2.5" style="stroke:#181818;stroke-width:0.5;" width="131" x="935" y="115"/><ellipse cx="950" cy="131" fill="#ADD1B2" rx="11" ry="11" style="stroke:#181818;stroke-width:1.0;"/><path d="M952.3438,126.6719 C951.4063,126.2344 950.8125,126.0938 949.9375,126.0938 C947.3125,126.0938 945.3125,128.1719 945.3125,130.8906 L945.3125,132.0156 C945.3125,134.5938 947.4219,136.4844 950.3125,136.4844 C951.5313,136.4844 952.6875,136.1875 953.4375,135.6406 C954.0156,135.2344 954.3438,134.7813 954.3438,134.3906 C954.3438,133.9375 953.9531,133.5469 953.4844,133.5469 C953.2656,133.5469 953.0625,133.625 952.875,133.8125 C952.4219,134.2969 952.4219,134.2969 952.2344,134.3906 C951.8125,134.6563 951.125,134.7813 950.3594,134.7813 C948.3125,134.7813 947.0156,133.6875 947.0156,131.9844 L947.0156,130.8906 C947.0156,129.1094 948.2656,127.7969 950,127.7969 C950.5781,127.7969 951.1875,127.9531 951.6563,128.2031 C952.1406,128.4844 952.3125,128.7031 952.4063,129.1094 C952.4688,129.5156 952.5,129.6406 952.6406,129.7656 C952.7813,129.9063 953.0156,130.0156 953.2344,130.0156 C953.5,130.0156 953.7656,129.875 953.9375,129.6563 C954.0469,129.5 954.0781,129.3125 954.0781,128.8906 L954.0781,127.4688 C954.0781,127.0313 954.0625,126.9063 953.9688,126.75 C953.8125,126.4844 953.5313,126.3438 953.2344,126.3438 C952.9375,126.3438 952.7344,126.4375 952.5156,126.75 L952.3438,126.6719 Z " fill="#000000"/><text fill="#000000" font-family="sans-serif" font-size="14" lengthAdjust="spacing" textLength="99" x="964" y="135.8467">UInputTrigger</text><line style="stroke:#181818;stroke-width:0.5;" x1="936" x2="1065" y1="147" y2="147"/><line style="stroke:#181818;stroke-width:0.5;" x1="936" x2="1065" y1="155" y2="155"/></g><!--class UInputTriggerTimedBase--><g id="elem_UInputTriggerTimedBase"><rect codeLine="3" fill="#F1F1F1" height="48" id="UInputTriggerTimedBase" rx="2.5" ry="2.5" style="stroke:#181818;stroke-width:0.5;" width="210" x="342.5" y="223"/><ellipse cx="357.5" cy="239" fill="#ADD1B2" rx="11" ry="11" style="stroke:#181818;stroke-width:1.0;"/><path d="M359.8438,234.6719 C358.9063,234.2344 358.3125,234.0938 357.4375,234.0938 C354.8125,234.0938 352.8125,236.1719 352.8125,238.8906 L352.8125,240.0156 C352.8125,242.5938 354.9219,244.4844 357.8125,244.4844 C359.0313,244.4844 360.1875,244.1875 360.9375,243.6406 C361.5156,243.2344 361.8438,242.7813 361.8438,242.3906 C361.8438,241.9375 361.4531,241.5469 360.9844,241.5469 C360.7656,241.5469 360.5625,241.625 360.375,241.8125 C359.9219,242.2969 359.9219,242.2969 359.7344,242.3906 C359.3125,242.6563 358.625,242.7813 357.8594,242.7813 C355.8125,242.7813 354.5156,241.6875 354.5156,239.9844 L354.5156,238.8906 C354.5156,237.1094 355.7656,235.7969 357.5,235.7969 C358.0781,235.7969 358.6875,235.9531 359.1563,236.2031 C359.6406,236.4844 359.8125,236.7031 359.9063,237.1094 C359.9688,237.5156 360,237.6406 360.1406,237.7656 C360.2813,237.9063 360.5156,238.0156 360.7344,238.0156 C361,238.0156 361.2656,237.875 361.4375,237.6563 C361.5469,237.5 361.5781,237.3125 361.5781,236.8906 L361.5781,235.4688 C361.5781,235.0313 361.5625,234.9063 361.4688,234.75 C361.3125,234.4844 361.0313,234.3438 360.7344,234.3438 C360.4375,234.3438 360.2344,234.4375 360.0156,234.75 L359.8438,234.6719 Z " fill="#000000"/><text fill="#000000" font-family="sans-serif" font-size="14" lengthAdjust="spacing" textLength="178" x="371.5" y="243.8467">UInputTriggerTimedBase</text><line style="stroke:#181818;stroke-width:0.5;" x1="343.5" x2="551.5" y1="255" y2="255"/><line style="stroke:#181818;stroke-width:0.5;" x1="343.5" x2="551.5" y1="263" y2="263"/></g><!--class UInputTriggerDown--><g id="elem_UInputTriggerDown"><rect codeLine="4" fill="#F1F1F1" height="48" id="UInputTriggerDown" rx="2.5" ry="2.5" style="stroke:#181818;stroke-width:0.5;" width="171" x="588" y="223"/><ellipse cx="603" cy="239" fill="#ADD1B2" rx="11" ry="11" style="stroke:#181818;stroke-width:1.0;"/><path d="M605.3438,234.6719 C604.4063,234.2344 603.8125,234.0938 602.9375,234.0938 C600.3125,234.0938 598.3125,236.1719 598.3125,238.8906 L598.3125,240.0156 C598.3125,242.5938 600.4219,244.4844 603.3125,244.4844 C604.5313,244.4844 605.6875,244.1875 606.4375,243.6406 C607.0156,243.2344 607.3438,242.7813 607.3438,242.3906 C607.3438,241.9375 606.9531,241.5469 606.4844,241.5469 C606.2656,241.5469 606.0625,241.625 605.875,241.8125 C605.4219,242.2969 605.4219,242.2969 605.2344,242.3906 C604.8125,242.6563 604.125,242.7813 603.3594,242.7813 C601.3125,242.7813 600.0156,241.6875 600.0156,239.9844 L600.0156,238.8906 C600.0156,237.1094 601.2656,235.7969 603,235.7969 C603.5781,235.7969 604.1875,235.9531 604.6563,236.2031 C605.1406,236.4844 605.3125,236.7031 605.4063,237.1094 C605.4688,237.5156 605.5,237.6406 605.6406,237.7656 C605.7813,237.9063 606.0156,238.0156 606.2344,238.0156 C606.5,238.0156 606.7656,237.875 606.9375,237.6563 C607.0469,237.5 607.0781,237.3125 607.0781,236.8906 L607.0781,235.4688 C607.0781,235.0313 607.0625,234.9063 606.9688,234.75 C606.8125,234.4844 606.5313,234.3438 606.2344,234.3438 C605.9375,234.3438 605.7344,234.4375 605.5156,234.75 L605.3438,234.6719 Z " fill="#000000"/><text fill="#000000" font-family="sans-serif" font-size="14" lengthAdjust="spacing" textLength="139" x="617" y="243.8467">UInputTriggerDown</text><line style="stroke:#181818;stroke-width:0.5;" x1="589" x2="758" y1="255" y2="255"/><line style="stroke:#181818;stroke-width:0.5;" x1="589" x2="758" y1="263" y2="263"/></g><!--class UInputTriggerPressed--><g id="elem_UInputTriggerPressed"><rect codeLine="5" fill="#F1F1F1" height="48" id="UInputTriggerPressed" rx="2.5" ry="2.5" style="stroke:#181818;stroke-width:0.5;" width="187" x="794" y="223"/><ellipse cx="809" cy="239" fill="#ADD1B2" rx="11" ry="11" style="stroke:#181818;stroke-width:1.0;"/><path d="M811.3438,234.6719 C810.4063,234.2344 809.8125,234.0938 808.9375,234.0938 C806.3125,234.0938 804.3125,236.1719 804.3125,238.8906 L804.3125,240.0156 C804.3125,242.5938 806.4219,244.4844 809.3125,244.4844 C810.5313,244.4844 811.6875,244.1875 812.4375,243.6406 C813.0156,243.2344 813.3438,242.7813 813.3438,242.3906 C813.3438,241.9375 812.9531,241.5469 812.4844,241.5469 C812.2656,241.5469 812.0625,241.625 811.875,241.8125 C811.4219,242.2969 811.4219,242.2969 811.2344,242.3906 C810.8125,242.6563 810.125,242.7813 809.3594,242.7813 C807.3125,242.7813 806.0156,241.6875 806.0156,239.9844 L806.0156,238.8906 C806.0156,237.1094 807.2656,235.7969 809,235.7969 C809.5781,235.7969 810.1875,235.9531 810.6563,236.2031 C811.1406,236.4844 811.3125,236.7031 811.4063,237.1094 C811.4688,237.5156 811.5,237.6406 811.6406,237.7656 C811.7813,237.9063 812.0156,238.0156 812.2344,238.0156 C812.5,238.0156 812.7656,237.875 812.9375,237.6563 C813.0469,237.5 813.0781,237.3125 813.0781,236.8906 L813.0781,235.4688 C813.0781,235.0313 813.0625,234.9063 812.9688,234.75 C812.8125,234.4844 812.5313,234.3438 812.2344,234.3438 C811.9375,234.3438 811.7344,234.4375 811.5156,234.75 L811.3438,234.6719 Z " fill="#000000"/><text fill="#000000" font-family="sans-serif" font-size="14" lengthAdjust="spacing" textLength="155" x="823" y="243.8467">UInputTriggerPressed</text><line style="stroke:#181818;stroke-width:0.5;" x1="795" x2="980" y1="255" y2="255"/><line style="stroke:#181818;stroke-width:0.5;" x1="795" x2="980" y1="263" y2="263"/></g><!--class UInputTriggerReleased--><g id="elem_UInputTriggerReleased"><rect codeLine="6" fill="#F1F1F1" height="48" id="UInputTriggerReleased" rx="2.5" ry="2.5" style="stroke:#181818;stroke-width:0.5;" width="196" x="1016.5" y="223"/><ellipse cx="1031.5" cy="239" fill="#ADD1B2" rx="11" ry="11" style="stroke:#181818;stroke-width:1.0;"/><path d="M1033.8438,234.6719 C1032.9063,234.2344 1032.3125,234.0938 1031.4375,234.0938 C1028.8125,234.0938 1026.8125,236.1719 1026.8125,238.8906 L1026.8125,240.0156 C1026.8125,242.5938 1028.9219,244.4844 1031.8125,244.4844 C1033.0313,244.4844 1034.1875,244.1875 1034.9375,243.6406 C1035.5156,243.2344 1035.8438,242.7813 1035.8438,242.3906 C1035.8438,241.9375 1035.4531,241.5469 1034.9844,241.5469 C1034.7656,241.5469 1034.5625,241.625 1034.375,241.8125 C1033.9219,242.2969 1033.9219,242.2969 1033.7344,242.3906 C1033.3125,242.6563 1032.625,242.7813 1031.8594,242.7813 C1029.8125,242.7813 1028.5156,241.6875 1028.5156,239.9844 L1028.5156,238.8906 C1028.5156,237.1094 1029.7656,235.7969 1031.5,235.7969 C1032.0781,235.7969 1032.6875,235.9531 1033.1563,236.2031 C1033.6406,236.4844 1033.8125,236.7031 1033.9063,237.1094 C1033.9688,237.5156 1034,237.6406 1034.1406,237.7656 C1034.2813,237.9063 1034.5156,238.0156 1034.7344,238.0156 C1035,238.0156 1035.2656,237.875 1035.4375,237.6563 C1035.5469,237.5 1035.5781,237.3125 1035.5781,236.8906 L1035.5781,235.4688 C1035.5781,235.0313 1035.5625,234.9063 1035.4688,234.75 C1035.3125,234.4844 1035.0313,234.3438 1034.7344,234.3438 C1034.4375,234.3438 1034.2344,234.4375 1034.0156,234.75 L1033.8438,234.6719 Z " fill="#000000"/><text fill="#000000" font-family="sans-serif" font-size="14" lengthAdjust="spacing" textLength="164" x="1045.5" y="243.8467">UInputTriggerReleased</text><line style="stroke:#181818;stroke-width:0.5;" x1="1017.5" x2="1211.5" y1="255" y2="255"/><line style="stroke:#181818;stroke-width:0.5;" x1="1017.5" x2="1211.5" y1="263" y2="263"/></g><!--class UInputTriggerHold--><g id="elem_UInputTriggerHold"><rect codeLine="7" fill="#F1F1F1" height="48" id="UInputTriggerHold" rx="2.5" ry="2.5" style="stroke:#181818;stroke-width:0.5;" width="163" x="7" y="331"/><ellipse cx="22" cy="347" fill="#ADD1B2" rx="11" ry="11" style="stroke:#181818;stroke-width:1.0;"/><path d="M24.3438,342.6719 C23.4063,342.2344 22.8125,342.0938 21.9375,342.0938 C19.3125,342.0938 17.3125,344.1719 17.3125,346.8906 L17.3125,348.0156 C17.3125,350.5938 19.4219,352.4844 22.3125,352.4844 C23.5313,352.4844 24.6875,352.1875 25.4375,351.6406 C26.0156,351.2344 26.3438,350.7813 26.3438,350.3906 C26.3438,349.9375 25.9531,349.5469 25.4844,349.5469 C25.2656,349.5469 25.0625,349.625 24.875,349.8125 C24.4219,350.2969 24.4219,350.2969 24.2344,350.3906 C23.8125,350.6563 23.125,350.7813 22.3594,350.7813 C20.3125,350.7813 19.0156,349.6875 19.0156,347.9844 L19.0156,346.8906 C19.0156,345.1094 20.2656,343.7969 22,343.7969 C22.5781,343.7969 23.1875,343.9531 23.6563,344.2031 C24.1406,344.4844 24.3125,344.7031 24.4063,345.1094 C24.4688,345.5156 24.5,345.6406 24.6406,345.7656 C24.7813,345.9063 25.0156,346.0156 25.2344,346.0156 C25.5,346.0156 25.7656,345.875 25.9375,345.6563 C26.0469,345.5 26.0781,345.3125 26.0781,344.8906 L26.0781,343.4688 C26.0781,343.0313 26.0625,342.9063 25.9688,342.75 C25.8125,342.4844 25.5313,342.3438 25.2344,342.3438 C24.9375,342.3438 24.7344,342.4375 24.5156,342.75 L24.3438,342.6719 Z " fill="#000000"/><text fill="#000000" font-family="sans-serif" font-size="14" lengthAdjust="spacing" textLength="131" x="36" y="351.8467">UInputTriggerHold</text><line style="stroke:#181818;stroke-width:0.5;" x1="8" x2="169" y1="363" y2="363"/><line style="stroke:#181818;stroke-width:0.5;" x1="8" x2="169" y1="371" y2="371"/></g><!--class UInputTriggerHoldAndRelease--><g id="elem_UInputTriggerHoldAndRelease"><rect codeLine="8" fill="#F1F1F1" height="48" id="UInputTriggerHoldAndRelease" rx="2.5" ry="2.5" style="stroke:#181818;stroke-width:0.5;" width="247" x="205" y="331"/><ellipse cx="220" cy="347" fill="#ADD1B2" rx="11" ry="11" style="stroke:#181818;stroke-width:1.0;"/><path d="M222.3438,342.6719 C221.4063,342.2344 220.8125,342.0938 219.9375,342.0938 C217.3125,342.0938 215.3125,344.1719 215.3125,346.8906 L215.3125,348.0156 C215.3125,350.5938 217.4219,352.4844 220.3125,352.4844 C221.5313,352.4844 222.6875,352.1875 223.4375,351.6406 C224.0156,351.2344 224.3438,350.7813 224.3438,350.3906 C224.3438,349.9375 223.9531,349.5469 223.4844,349.5469 C223.2656,349.5469 223.0625,349.625 222.875,349.8125 C222.4219,350.2969 222.4219,350.2969 222.2344,350.3906 C221.8125,350.6563 221.125,350.7813 220.3594,350.7813 C218.3125,350.7813 217.0156,349.6875 217.0156,347.9844 L217.0156,346.8906 C217.0156,345.1094 218.2656,343.7969 220,343.7969 C220.5781,343.7969 221.1875,343.9531 221.6563,344.2031 C222.1406,344.4844 222.3125,344.7031 222.4063,345.1094 C222.4688,345.5156 222.5,345.6406 222.6406,345.7656 C222.7813,345.9063 223.0156,346.0156 223.2344,346.0156 C223.5,346.0156 223.7656,345.875 223.9375,345.6563 C224.0469,345.5 224.0781,345.3125 224.0781,344.8906 L224.0781,343.4688 C224.0781,343.0313 224.0625,342.9063 223.9688,342.75 C223.8125,342.4844 223.5313,342.3438 223.2344,342.3438 C222.9375,342.3438 222.7344,342.4375 222.5156,342.75 L222.3438,342.6719 Z " fill="#000000"/><text fill="#000000" font-family="sans-serif" font-size="14" lengthAdjust="spacing" textLength="215" x="234" y="351.8467">UInputTriggerHoldAndRelease</text><line style="stroke:#181818;stroke-width:0.5;" x1="206" x2="451" y1="363" y2="363"/><line style="stroke:#181818;stroke-width:0.5;" x1="206" x2="451" y1="371" y2="371"/></g><!--class UInputTriggerTap--><g id="elem_UInputTriggerTap"><rect codeLine="9" fill="#F1F1F1" height="48" id="UInputTriggerTap" rx="2.5" ry="2.5" style="stroke:#181818;stroke-width:0.5;" width="158" x="487.5" y="331"/><ellipse cx="502.5" cy="347" fill="#ADD1B2" rx="11" ry="11" style="stroke:#181818;stroke-width:1.0;"/><path d="M504.8438,342.6719 C503.9063,342.2344 503.3125,342.0938 502.4375,342.0938 C499.8125,342.0938 497.8125,344.1719 497.8125,346.8906 L497.8125,348.0156 C497.8125,350.5938 499.9219,352.4844 502.8125,352.4844 C504.0313,352.4844 505.1875,352.1875 505.9375,351.6406 C506.5156,351.2344 506.8438,350.7813 506.8438,350.3906 C506.8438,349.9375 506.4531,349.5469 505.9844,349.5469 C505.7656,349.5469 505.5625,349.625 505.375,349.8125 C504.9219,350.2969 504.9219,350.2969 504.7344,350.3906 C504.3125,350.6563 503.625,350.7813 502.8594,350.7813 C500.8125,350.7813 499.5156,349.6875 499.5156,347.9844 L499.5156,346.8906 C499.5156,345.1094 500.7656,343.7969 502.5,343.7969 C503.0781,343.7969 503.6875,343.9531 504.1563,344.2031 C504.6406,344.4844 504.8125,344.7031 504.9063,345.1094 C504.9688,345.5156 505,345.6406 505.1406,345.7656 C505.2813,345.9063 505.5156,346.0156 505.7344,346.0156 C506,346.0156 506.2656,345.875 506.4375,345.6563 C506.5469,345.5 506.5781,345.3125 506.5781,344.8906 L506.5781,343.4688 C506.5781,343.0313 506.5625,342.9063 506.4688,342.75 C506.3125,342.4844 506.0313,342.3438 505.7344,342.3438 C505.4375,342.3438 505.2344,342.4375 505.0156,342.75 L504.8438,342.6719 Z " fill="#000000"/><text fill="#000000" font-family="sans-serif" font-size="14" lengthAdjust="spacing" textLength="126" x="516.5" y="351.8467">UInputTriggerTap</text><line style="stroke:#181818;stroke-width:0.5;" x1="488.5" x2="644.5" y1="363" y2="363"/><line style="stroke:#181818;stroke-width:0.5;" x1="488.5" x2="644.5" y1="371" y2="371"/></g><!--class UInputTriggerPulse--><g id="elem_UInputTriggerPulse"><rect codeLine="10" fill="#F1F1F1" height="48" id="UInputTriggerPulse" rx="2.5" ry="2.5" style="stroke:#181818;stroke-width:0.5;" width="168" x="680.5" y="331"/><ellipse cx="695.5" cy="347" fill="#ADD1B2" rx="11" ry="11" style="stroke:#181818;stroke-width:1.0;"/><path d="M697.8438,342.6719 C696.9063,342.2344 696.3125,342.0938 695.4375,342.0938 C692.8125,342.0938 690.8125,344.1719 690.8125,346.8906 L690.8125,348.0156 C690.8125,350.5938 692.9219,352.4844 695.8125,352.4844 C697.0313,352.4844 698.1875,352.1875 698.9375,351.6406 C699.5156,351.2344 699.8438,350.7813 699.8438,350.3906 C699.8438,349.9375 699.4531,349.5469 698.9844,349.5469 C698.7656,349.5469 698.5625,349.625 698.375,349.8125 C697.9219,350.2969 697.9219,350.2969 697.7344,350.3906 C697.3125,350.6563 696.625,350.7813 695.8594,350.7813 C693.8125,350.7813 692.5156,349.6875 692.5156,347.9844 L692.5156,346.8906 C692.5156,345.1094 693.7656,343.7969 695.5,343.7969 C696.0781,343.7969 696.6875,343.9531 697.1563,344.2031 C697.6406,344.4844 697.8125,344.7031 697.9063,345.1094 C697.9688,345.5156 698,345.6406 698.1406,345.7656 C698.2813,345.9063 698.5156,346.0156 698.7344,346.0156 C699,346.0156 699.2656,345.875 699.4375,345.6563 C699.5469,345.5 699.5781,345.3125 699.5781,344.8906 L699.5781,343.4688 C699.5781,343.0313 699.5625,342.9063 699.4688,342.75 C699.3125,342.4844 699.0313,342.3438 698.7344,342.3438 C698.4375,342.3438 698.2344,342.4375 698.0156,342.75 L697.8438,342.6719 Z " fill="#000000"/><text fill="#000000" font-family="sans-serif" font-size="14" lengthAdjust="spacing" textLength="136" x="709.5" y="351.8467">UInputTriggerPulse</text><line style="stroke:#181818;stroke-width:0.5;" x1="681.5" x2="847.5" y1="363" y2="363"/><line style="stroke:#181818;stroke-width:0.5;" x1="681.5" x2="847.5" y1="371" y2="371"/></g><!--class UInputTriggerChordAction--><g id="elem_UInputTriggerChordAction"><rect codeLine="11" fill="#F1F1F1" height="48" id="UInputTriggerChordAction" rx="2.5" ry="2.5" style="stroke:#181818;stroke-width:0.5;" width="221" x="1248" y="223"/><ellipse cx="1263" cy="239" fill="#ADD1B2" rx="11" ry="11" style="stroke:#181818;stroke-width:1.0;"/><path d="M1265.3438,234.6719 C1264.4063,234.2344 1263.8125,234.0938 1262.9375,234.0938 C1260.3125,234.0938 1258.3125,236.1719 1258.3125,238.8906 L1258.3125,240.0156 C1258.3125,242.5938 1260.4219,244.4844 1263.3125,244.4844 C1264.5313,244.4844 1265.6875,244.1875 1266.4375,243.6406 C1267.0156,243.2344 1267.3438,242.7813 1267.3438,242.3906 C1267.3438,241.9375 1266.9531,241.5469 1266.4844,241.5469 C1266.2656,241.5469 1266.0625,241.625 1265.875,241.8125 C1265.4219,242.2969 1265.4219,242.2969 1265.2344,242.3906 C1264.8125,242.6563 1264.125,242.7813 1263.3594,242.7813 C1261.3125,242.7813 1260.0156,241.6875 1260.0156,239.9844 L1260.0156,238.8906 C1260.0156,237.1094 1261.2656,235.7969 1263,235.7969 C1263.5781,235.7969 1264.1875,235.9531 1264.6563,236.2031 C1265.1406,236.4844 1265.3125,236.7031 1265.4063,237.1094 C1265.4688,237.5156 1265.5,237.6406 1265.6406,237.7656 C1265.7813,237.9063 1266.0156,238.0156 1266.2344,238.0156 C1266.5,238.0156 1266.7656,237.875 1266.9375,237.6563 C1267.0469,237.5 1267.0781,237.3125 1267.0781,236.8906 L1267.0781,235.4688 C1267.0781,235.0313 1267.0625,234.9063 1266.9688,234.75 C1266.8125,234.4844 1266.5313,234.3438 1266.2344,234.3438 C1265.9375,234.3438 1265.7344,234.4375 1265.5156,234.75 L1265.3438,234.6719 Z " fill="#000000"/><text fill="#000000" font-family="sans-serif" font-size="14" lengthAdjust="spacing" textLength="189" x="1277" y="243.8467">UInputTriggerChordAction</text><line style="stroke:#181818;stroke-width:0.5;" x1="1249" x2="1468" y1="255" y2="255"/><line style="stroke:#181818;stroke-width:0.5;" x1="1249" x2="1468" y1="263" y2="263"/></g><!--class UInputTriggerChordBlocker--><g id="elem_UInputTriggerChordBlocker"><rect codeLine="12" fill="#F1F1F1" height="48" id="UInputTriggerChordBlocker" rx="2.5" ry="2.5" style="stroke:#181818;stroke-width:0.5;" width="229" x="1244" y="331"/><ellipse cx="1259" cy="347" fill="#ADD1B2" rx="11" ry="11" style="stroke:#181818;stroke-width:1.0;"/><path d="M1261.3438,342.6719 C1260.4063,342.2344 1259.8125,342.0938 1258.9375,342.0938 C1256.3125,342.0938 1254.3125,344.1719 1254.3125,346.8906 L1254.3125,348.0156 C1254.3125,350.5938 1256.4219,352.4844 1259.3125,352.4844 C1260.5313,352.4844 1261.6875,352.1875 1262.4375,351.6406 C1263.0156,351.2344 1263.3438,350.7813 1263.3438,350.3906 C1263.3438,349.9375 1262.9531,349.5469 1262.4844,349.5469 C1262.2656,349.5469 1262.0625,349.625 1261.875,349.8125 C1261.4219,350.2969 1261.4219,350.2969 1261.2344,350.3906 C1260.8125,350.6563 1260.125,350.7813 1259.3594,350.7813 C1257.3125,350.7813 1256.0156,349.6875 1256.0156,347.9844 L1256.0156,346.8906 C1256.0156,345.1094 1257.2656,343.7969 1259,343.7969 C1259.5781,343.7969 1260.1875,343.9531 1260.6563,344.2031 C1261.1406,344.4844 1261.3125,344.7031 1261.4063,345.1094 C1261.4688,345.5156 1261.5,345.6406 1261.6406,345.7656 C1261.7813,345.9063 1262.0156,346.0156 1262.2344,346.0156 C1262.5,346.0156 1262.7656,345.875 1262.9375,345.6563 C1263.0469,345.5 1263.0781,345.3125 1263.0781,344.8906 L1263.0781,343.4688 C1263.0781,343.0313 1263.0625,342.9063 1262.9688,342.75 C1262.8125,342.4844 1262.5313,342.3438 1262.2344,342.3438 C1261.9375,342.3438 1261.7344,342.4375 1261.5156,342.75 L1261.3438,342.6719 Z " fill="#000000"/><text fill="#000000" font-family="sans-serif" font-size="14" lengthAdjust="spacing" textLength="197" x="1273" y="351.8467">UInputTriggerChordBlocker</text><line style="stroke:#181818;stroke-width:0.5;" x1="1245" x2="1472" y1="363" y2="363"/><line style="stroke:#181818;stroke-width:0.5;" x1="1245" x2="1472" y1="371" y2="371"/></g><!--class UInputTriggerCombo--><g id="elem_UInputTriggerCombo"><rect codeLine="13" fill="#F1F1F1" height="48" id="UInputTriggerCombo" rx="2.5" ry="2.5" style="stroke:#181818;stroke-width:0.5;" width="183" x="1504" y="223"/><ellipse cx="1519" cy="239" fill="#ADD1B2" rx="11" ry="11" style="stroke:#181818;stroke-width:1.0;"/><path d="M1521.3438,234.6719 C1520.4063,234.2344 1519.8125,234.0938 1518.9375,234.0938 C1516.3125,234.0938 1514.3125,236.1719 1514.3125,238.8906 L1514.3125,240.0156 C1514.3125,242.5938 1516.4219,244.4844 1519.3125,244.4844 C1520.5313,244.4844 1521.6875,244.1875 1522.4375,243.6406 C1523.0156,243.2344 1523.3438,242.7813 1523.3438,242.3906 C1523.3438,241.9375 1522.9531,241.5469 1522.4844,241.5469 C1522.2656,241.5469 1522.0625,241.625 1521.875,241.8125 C1521.4219,242.2969 1521.4219,242.2969 1521.2344,242.3906 C1520.8125,242.6563 1520.125,242.7813 1519.3594,242.7813 C1517.3125,242.7813 1516.0156,241.6875 1516.0156,239.9844 L1516.0156,238.8906 C1516.0156,237.1094 1517.2656,235.7969 1519,235.7969 C1519.5781,235.7969 1520.1875,235.9531 1520.6563,236.2031 C1521.1406,236.4844 1521.3125,236.7031 1521.4063,237.1094 C1521.4688,237.5156 1521.5,237.6406 1521.6406,237.7656 C1521.7813,237.9063 1522.0156,238.0156 1522.2344,238.0156 C1522.5,238.0156 1522.7656,237.875 1522.9375,237.6563 C1523.0469,237.5 1523.0781,237.3125 1523.0781,236.8906 L1523.0781,235.4688 C1523.0781,235.0313 1523.0625,234.9063 1522.9688,234.75 C1522.8125,234.4844 1522.5313,234.3438 1522.2344,234.3438 C1521.9375,234.3438 1521.7344,234.4375 1521.5156,234.75 L1521.3438,234.6719 Z " fill="#000000"/><text fill="#000000" font-family="sans-serif" font-size="14" lengthAdjust="spacing" textLength="151" x="1533" y="243.8467">UInputTriggerCombo</text><line style="stroke:#181818;stroke-width:0.5;" x1="1505" x2="1686" y1="255" y2="255"/><line style="stroke:#181818;stroke-width:0.5;" x1="1505" x2="1686" y1="263" y2="263"/></g><!--reverse link UObject to UInputTrigger--><g id="link_UObject_UInputTrigger"><path codeLine="15" d="M1000.5,73 C1000.5,90.658 1000.5,96.941 1000.5,114.678 " fill="none" id="UObject-backto-UInputTrigger" style="stroke:#181818;stroke-width:1.0;"/><polygon fill="none" points="1000.5,55,994.5,73,1006.5,73,1000.5,55" style="stroke:#181818;stroke-width:1.0;"/></g><!--reverse link UInputTrigger to UInputTriggerTimedBase--><g id="link_UInputTrigger_UInputTriggerTimedBase"><path codeLine="16" d="M917.2138,155.9645 C822.8008,174.0615 665.297,204.252 552.684,225.838 " fill="none" id="UInputTrigger-backto-UInputTriggerTimedBase" style="stroke:#181818;stroke-width:1.0;"/><polygon fill="none" points="934.892,152.576,916.0843,150.0718,918.3433,161.8573,934.892,152.576" style="stroke:#181818;stroke-width:1.0;"/></g><!--reverse link UInputTrigger to UInputTriggerDown--><g id="link_UInputTrigger_UInputTriggerDown"><path codeLine="17" d="M917.5972,166.8735 C862.4852,184.7385 801.1,204.637 744.558,222.966 " fill="none" id="UInputTrigger-backto-UInputTriggerDown" style="stroke:#181818;stroke-width:1.0;"/><polygon fill="none" points="934.72,161.323,915.747,161.1659,919.4473,172.5811,934.72,161.323" style="stroke:#181818;stroke-width:1.0;"/></g><!--reverse link UInputTrigger to UInputTriggerPressed--><g id="link_UInputTrigger_UInputTriggerPressed"><path codeLine="18" d="M962.853,175.3148 C944.029,192.9728 931.271,204.941 912.362,222.678 " fill="none" id="UInputTrigger-backto-UInputTriggerPressed" style="stroke:#181818;stroke-width:1.0;"/><polygon fill="none" points="975.981,163,958.748,170.9388,966.9579,179.6908,975.981,163" style="stroke:#181818;stroke-width:1.0;"/></g><!--reverse link UInputTrigger to UInputTriggerReleased--><g id="link_UInputTrigger_UInputTriggerReleased"><path codeLine="19" d="M1038.4218,175.2572 C1057.4118,192.9152 1070.34,204.941 1089.42,222.678 " fill="none" id="UInputTrigger-backto-UInputTriggerReleased" style="stroke:#181818;stroke-width:1.0;"/><polygon fill="none" points="1025.24,163,1034.3361,179.6512,1042.5076,170.8633,1025.24,163" style="stroke:#181818;stroke-width:1.0;"/></g><!--reverse link UInputTriggerTimedBase to UInputTriggerHold--><g id="link_UInputTriggerTimedBase_UInputTriggerHold"><path codeLine="20" d="M352.3388,276.0973 C292.2258,293.847 226.708,313.1922 166.555,330.9531 " fill="none" id="UInputTriggerTimedBase-backto-UInputTriggerHold" style="stroke:#181818;stroke-width:1.0;"/><polygon fill="none" points="369.602,271,350.6397,270.3429,354.0379,281.8517,369.602,271" style="stroke:#181818;stroke-width:1.0;"/></g><!--reverse link UInputTriggerTimedBase to UInputTriggerHoldAndRelease--><g id="link_UInputTriggerTimedBase_UInputTriggerHoldAndRelease"><path codeLine="21" d="M408.2381,282.9726 C388.4141,300.631 374.595,312.9408 354.682,330.6784 " fill="none" id="UInputTriggerTimedBase-backto-UInputTriggerHoldAndRelease" style="stroke:#181818;stroke-width:1.0;"/><polygon fill="none" points="421.679,271,404.2473,278.4923,412.229,287.4529,421.679,271" style="stroke:#181818;stroke-width:1.0;"/></g><!--reverse link UInputTriggerTimedBase to UInputTriggerTap--><g id="link_UInputTriggerTimedBase_UInputTriggerTap"><path codeLine="22" d="M486.7619,282.9726 C506.5859,300.631 520.405,312.9408 540.318,330.6784 " fill="none" id="UInputTriggerTimedBase-backto-UInputTriggerTap" style="stroke:#181818;stroke-width:1.0;"/><polygon fill="none" points="473.321,271,482.771,287.4529,490.7527,278.4923,473.321,271" style="stroke:#181818;stroke-width:1.0;"/></g><!--reverse link UInputTriggerTimedBase to UInputTriggerPulse--><g id="link_UInputTriggerTimedBase_UInputTriggerPulse"><path codeLine="23" d="M533.3549,276.7083 C586.4359,294.458 642.461,313.1922 695.577,330.9531 " fill="none" id="UInputTriggerTimedBase-backto-UInputTriggerPulse" style="stroke:#181818;stroke-width:1.0;"/><polygon fill="none" points="516.284,271,531.4521,282.3986,535.2577,271.018,516.284,271" style="stroke:#181818;stroke-width:1.0;"/></g><!--reverse link UInputTrigger to UInputTriggerChordAction--><g id="link_UInputTrigger_UInputTriggerChordAction"><path codeLine="24" d="M1083.4194,164.552 C1143.9794,182.482 1216.68,204.008 1280.79,222.991 " fill="none" id="UInputTrigger-backto-UInputTriggerChordAction" style="stroke:#181818;stroke-width:1.0;"/><polygon fill="none" points="1066.16,159.442,1081.7161,170.3051,1085.1228,158.7989,1066.16,159.442" style="stroke:#181818;stroke-width:1.0;"/></g><!--reverse link UInputTriggerChordAction to UInputTriggerChordBlocker--><g id="link_UInputTriggerChordAction_UInputTriggerChordBlocker"><path codeLine="25" d="M1358.5,289 C1358.5,306.6584 1358.5,312.9408 1358.5,330.6784 " fill="none" id="UInputTriggerChordAction-backto-UInputTriggerChordBlocker" style="stroke:#181818;stroke-width:1.0;"/><polygon fill="none" points="1358.5,271,1352.5,289,1364.5,289,1358.5,271" style="stroke:#181818;stroke-width:1.0;"/></g><!--reverse link UInputTrigger to UInputTriggerCombo--><g id="link_UInputTrigger_UInputTriggerCombo"><path codeLine="26" d="M1084.0535,153.2507 C1177.6135,168.2357 1336.63,194.401 1486.5,223 C1492.2,224.088 1498.06,225.236 1503.97,226.416 " fill="none" id="UInputTrigger-backto-UInputTriggerCombo" style="stroke:#181818;stroke-width:1.0;"/><polygon fill="none" points="1066.28,150.404,1083.1046,159.1752,1085.0024,147.3262,1066.28,150.404" style="stroke:#181818;stroke-width:1.0;"/></g><!--SRC=[bP9D3i8W48NtdA8Nw0tSj7MXAusf1w0mgIXb6g3fniER_carGwXBvdql3EyXD7SkkPwgEmZFn7GwchRpfLLr3PQQbQe1cNC7bBZ7tb3pimNdG5BI1JJmW7P07PndHivMSalUadjqckQB6rgP2Q_G1ELSetZGeHJOLCZO76MoUwRfJv9V9mBun1eZnunZq19uZ7kdJoz3ECPE_g9NJMts3VrjXgTMOqzTLnmIGhQb-kWTmpzu0G00]--></g></svg>