<svg xmlns="http://www.w3.org/2000/svg" xmlns:xlink="http://www.w3.org/1999/xlink" contentStyleType="text/css" data-diagram-type="CLASS" height="305px" preserveAspectRatio="none" style="width:561px;height:305px;background:#FFFFFF;" version="1.1" viewBox="0 0 561 305" width="561px" zoomAndPan="magnify"><defs/><g><!--class FLyraEquipmentList\n(????)--><g class="entity" data-entity="FLyraEquipmentList\n(&#35013;&#22791;&#21015;&#34920;)" data-source-line="1" data-uid="ent0002" id="entity_FLyraEquipmentList\n(&#35013;&#22791;&#21015;&#34920;)"><rect fill="#F1F1F1" height="107.4844" rx="2.5" ry="2.5" style="stroke:#181818;stroke-width:0.5;" width="432.574" x="64.26" y="7"/><ellipse cx="206.8268" cy="28.2969" fill="#ADD1B2" rx="11" ry="11" style="stroke:#181818;stroke-width:1;"/><path d="M209.7955,33.9375 Q209.2174,34.2344 208.5768,34.375 Q207.9361,34.5313 207.233,34.5313 Q204.733,34.5313 203.4049,32.8906 Q202.0924,31.2344 202.0924,28.1094 Q202.0924,24.9844 203.4049,23.3281 Q204.733,21.6719 207.233,21.6719 Q207.9361,21.6719 208.5768,21.8281 Q209.233,21.9844 209.7955,22.2813 L209.7955,25 Q209.1705,24.4219 208.5768,24.1563 Q207.983,23.875 207.358,23.875 Q206.0143,23.875 205.3268,24.9531 Q204.6393,26.0156 204.6393,28.1094 Q204.6393,30.2031 205.3268,31.2813 Q206.0143,32.3438 207.358,32.3438 Q207.983,32.3438 208.5768,32.0781 Q209.1705,31.7969 209.7955,31.2188 L209.7955,33.9375 Z " fill="#000000"/><text fill="#000000" font-family="sans-serif" font-size="14" lengthAdjust="spacing" textLength="138.9404" x="227.3268" y="24.9951">FLyraEquipmentList</text><text fill="#000000" font-family="sans-serif" font-size="14" lengthAdjust="spacing" textLength="66.9236" x="263.3352" y="41.292">(&#35013;&#22791;&#21015;&#34920;)</text><line style="stroke:#181818;stroke-width:0.5;" x1="65.26" x2="495.834" y1="49.5938" y2="49.5938"/><rect fill="none" height="6" style="stroke:#C82930;stroke-width:1;" width="6" x="72.26" y="60.2422"/><text fill="#000000" font-family="sans-serif" font-size="14" lengthAdjust="spacing" textLength="406.574" x="84.26" y="66.5889">Entries: TArray&lt;FLyraAppliedEquipmentEntry&gt; // &#26465;&#30446;&#25968;&#32452;</text><line style="stroke:#181818;stroke-width:0.5;" x1="65.26" x2="495.834" y1="73.8906" y2="73.8906"/><ellipse cx="75.26" cy="87.5391" fill="#84BE84" rx="3" ry="3" style="stroke:#038048;stroke-width:1;"/><text fill="#000000" font-family="sans-serif" font-size="14" lengthAdjust="spacing" textLength="335.2341" x="84.26" y="90.8857">AddEntry(): ULyraEquipmentInstance // &#28155;&#21152;&#26465;&#30446;</text><ellipse cx="75.26" cy="103.8359" fill="#84BE84" rx="3" ry="3" style="stroke:#038048;stroke-width:1;"/><text fill="#000000" font-family="sans-serif" font-size="14" lengthAdjust="spacing" textLength="179.949" x="84.26" y="107.1826">RemoveEntry() // &#31227;&#38500;&#26465;&#30446;</text></g><!--class FLyraAppliedEquipmentEntry\n(???????)--><g class="entity" data-entity="FLyraAppliedEquipmentEntry\n(&#24050;&#24212;&#29992;&#35013;&#22791;&#26465;&#30446;)" data-source-line="7" data-uid="ent0003" id="entity_FLyraAppliedEquipmentEntry\n(&#24050;&#24212;&#29992;&#35013;&#22791;&#26465;&#30446;)"><rect fill="#F1F1F1" height="107.4844" rx="2.5" ry="2.5" style="stroke:#181818;stroke-width:0.5;" width="547.1033" x="7" y="191.49"/><ellipse cx="174.1283" cy="212.7869" fill="#F1F1F1" rx="11" ry="11" style="stroke:#181818;stroke-width:1;"/><path d="M173.6127,213.3494 Q171.7533,212.6463 171.097,211.8806 Q170.4564,211.0994 170.4564,209.7869 Q170.4564,208.0994 171.5345,207.1306 Q172.6127,206.1619 174.4877,206.1619 Q175.347,206.1619 176.1908,206.365 Q177.0502,206.5525 177.8939,206.9431 L177.8939,209.3338 Q177.1127,208.7713 176.2845,208.49 Q175.472,208.1931 174.6752,208.1931 Q173.8002,208.1931 173.3158,208.5525 Q172.847,208.9119 172.847,209.5681 Q172.847,210.0838 173.1908,210.4275 Q173.5345,210.7556 174.6283,211.1619 L175.6908,211.5681 Q177.1752,212.115 177.8783,213.0213 Q178.597,213.9275 178.597,215.3025 Q178.597,217.1775 177.4877,218.0994 Q176.3783,219.0213 174.1283,219.0213 Q173.2064,219.0213 172.2845,218.8025 Q171.3627,218.5838 170.5033,218.1619 L170.5033,215.6306 Q171.472,216.3181 172.3939,216.6619 Q173.3158,217.0056 174.2064,217.0056 Q175.1127,217.0056 175.6127,216.5994 Q176.1127,216.1775 176.1127,215.4431 Q176.1127,214.8806 175.7689,214.4744 Q175.4408,214.0525 174.8158,213.8025 L173.6127,213.3494 Z " fill="#000000"/><text fill="#000000" font-family="sans-serif" font-size="14" lengthAdjust="spacing" textLength="204.3467" x="194.6283" y="209.4851">FLyraAppliedEquipmentEntry</text><text fill="#000000" font-family="sans-serif" font-size="14" lengthAdjust="spacing" textLength="108.9234" x="242.3399" y="225.782">(&#24050;&#24212;&#29992;&#35013;&#22791;&#26465;&#30446;)</text><line style="stroke:#181818;stroke-width:0.5;" x1="8" x2="553.1033" y1="234.0838" y2="234.0838"/><rect fill="none" height="6" style="stroke:#C82930;stroke-width:1;" width="6" x="15" y="244.7322"/><text fill="#000000" font-family="sans-serif" font-size="14" lengthAdjust="spacing" textLength="521.1033" x="27" y="251.0789">EquipmentDefinition: TSubclassOf&lt;ULyraEquipmentDefinition&gt; // &#35013;&#22791;&#23450;&#20041;</text><rect fill="none" height="6" style="stroke:#C82930;stroke-width:1;" width="6" x="15" y="261.0291"/><text fill="#000000" font-family="sans-serif" font-size="14" lengthAdjust="spacing" textLength="416.5544" x="27" y="267.3757">Instance: TObjectPtr&lt;ULyraEquipmentInstance&gt; // &#35013;&#22791;&#23454;&#20363;</text><rect fill="none" height="6" style="stroke:#C82930;stroke-width:1;" width="6" x="15" y="277.3259"/><text fill="#000000" font-family="sans-serif" font-size="14" lengthAdjust="spacing" textLength="451.2877" x="27" y="283.6726">GrantedHandles: FLyraAbilitySet_GrantedHandles // &#33021;&#21147;&#25480;&#20104;&#21477;&#26564;</text><line style="stroke:#181818;stroke-width:0.5;" x1="8" x2="553.1033" y1="290.9744" y2="290.9744"/></g><!--reverse link FLyraEquipmentList\n(????) to FLyraAppliedEquipmentEntry\n(???????)--><g class="link" data-entity-1="FLyraEquipmentList\n(&#35013;&#22791;&#21015;&#34920;)" data-entity-2="FLyraAppliedEquipmentEntry\n(&#24050;&#24212;&#29992;&#35013;&#22791;&#26465;&#30446;)" data-source-line="13" data-uid="lnk4" id="link_FLyraEquipmentList\n(&#35013;&#22791;&#21015;&#34920;)_FLyraAppliedEquipmentEntry\n(&#24050;&#24212;&#29992;&#35013;&#22791;&#26465;&#30446;)"><path codeLine="13" d="M280.55,126.53 C280.55,150.63 280.55,167.12 280.55,191.25 " fill="none" id="FLyraEquipmentList\n(&#35013;&#22791;&#21015;&#34920;)-backto-FLyraAppliedEquipmentEntry\n(&#24050;&#24212;&#29992;&#35013;&#22791;&#26465;&#30446;)" style="stroke:#181818;stroke-width:1;"/><polygon fill="#181818" points="280.55,114.53,276.55,120.53,280.55,126.53,284.55,120.53,280.55,114.53" style="stroke:#181818;stroke-width:1;"/><text fill="#000000" font-family="sans-serif" font-size="13" lengthAdjust="spacing" textLength="24.7749" x="281.55" y="157.5569">1..n</text></g><!--SRC=[Iyv9B2vMK7BpgInAT2qipIp8JSqhySaiBed9qtYnkFNfalQd7TDVB5oXgQHGpQK01DeAZYafhdabHPKQcbOAeIZwFFEAInBpabCLzFKLdctV_RHhmREv2v_FNWVL69IQcr-M2jKBKlDy-UwNCvSWgT5L0CbcfXPRAOGu5XKbLjg07UPOK92JcPe2jmTiX1tO5h3UPrCtFD_TmbNBnLLSKbIQN0Br3rPjG7yztRxfwQufpwUiW7WGOWRSWq0tm3IufAPbvcMMPERd0TqJN9gK30ei_pGRL5yZL86T10srTREUxEo46WWB5w0f_abPgSab0IL5DjY33iM8UK_sTKEDS2zAp2j9JV58p4l90GKFn8D9cJcP9PN1gINngF9WGvhtFksQ_QoluyckZgVzIv_D1mSGKJ6jfQjBPX1QAHZgwUK10000]--></g></svg>