<svg xmlns="http://www.w3.org/2000/svg" xmlns:xlink="http://www.w3.org/1999/xlink" contentStyleType="text/css" height="950px" preserveAspectRatio="none" style="width:606px;height:950px;background:#FFFFFF;" version="1.1" viewBox="0 0 606 950" width="606px" zoomAndPan="magnify"><defs/><g><rect fill="none" height="104.5313" style="stroke:#000000;stroke-width:1.5;" width="363.2757" x="226" y="457.625"/><rect fill="none" height="90.2031" style="stroke:#000000;stroke-width:1.5;" width="470.276" x="38.9999" y="661.4219"/><line style="stroke:#181818;stroke-width:0.5;stroke-dasharray:5.0,5.0;" x1="21" x2="21" y1="81.2969" y2="870.0234"/><line style="stroke:#181818;stroke-width:0.5;stroke-dasharray:5.0,5.0;" x1="82.9999" x2="82.9999" y1="81.2969" y2="870.0234"/><line style="stroke:#181818;stroke-width:0.5;stroke-dasharray:5.0,5.0;" x1="263" x2="263" y1="81.2969" y2="870.0234"/><line style="stroke:#181818;stroke-width:0.5;stroke-dasharray:5.0,5.0;" x1="470.2761" x2="470.2761" y1="81.2969" y2="870.0234"/><line style="stroke:#181818;stroke-width:0.5;stroke-dasharray:5.0,5.0;" x1="543.2759" x2="543.2759" y1="81.2969" y2="870.0234"/><text fill="#000000" font-family="sans-serif" font-size="14" lengthAdjust="spacing" textLength="27.9999" x="5" y="77.9951">&#29992;&#25143;</text><ellipse cx="21.9999" cy="13.5" fill="#E2E2F0" rx="8" ry="8" style="stroke:#181818;stroke-width:0.5;"/><path d="M21.9999,21.5 L21.9999,48.5 M8.9999,29.5 L34.9999,29.5 M21.9999,48.5 L8.9999,63.5 M21.9999,48.5 L34.9999,63.5 " fill="none" style="stroke:#181818;stroke-width:0.5;"/><text fill="#000000" font-family="sans-serif" font-size="14" lengthAdjust="spacing" textLength="27.9999" x="5" y="882.0186">&#29992;&#25143;</text><ellipse cx="21.9999" cy="893.8203" fill="#E2E2F0" rx="8" ry="8" style="stroke:#181818;stroke-width:0.5;"/><path d="M21.9999,901.8203 L21.9999,928.8203 M8.9999,909.8203 L34.9999,909.8203 M21.9999,928.8203 L8.9999,943.8203 M21.9999,928.8203 L34.9999,943.8203 " fill="none" style="stroke:#181818;stroke-width:0.5;"/><rect fill="#E2E2F0" height="30.2969" rx="2.5" ry="2.5" style="stroke:#181818;stroke-width:0.5;" width="69.9998" x="48.9999" y="50"/><text fill="#000000" font-family="sans-serif" font-size="14" lengthAdjust="spacing" textLength="55.9998" x="55.9999" y="69.9951">&#26412;&#22320;&#23384;&#20648;</text><rect fill="#E2E2F0" height="30.2969" rx="2.5" ry="2.5" style="stroke:#181818;stroke-width:0.5;" width="69.9998" x="48.9999" y="869.0234"/><text fill="#000000" font-family="sans-serif" font-size="14" lengthAdjust="spacing" textLength="55.9998" x="55.9999" y="889.0186">&#26412;&#22320;&#23384;&#20648;</text><rect fill="#E2E2F0" height="30.2969" rx="2.5" ry="2.5" style="stroke:#181818;stroke-width:0.5;" width="55.9998" x="236" y="50"/><text fill="#000000" font-family="sans-serif" font-size="14" lengthAdjust="spacing" textLength="41.9998" x="243" y="69.9951">&#23458;&#25143;&#31471;</text><rect fill="#E2E2F0" height="30.2969" rx="2.5" ry="2.5" style="stroke:#181818;stroke-width:0.5;" width="55.9998" x="236" y="869.0234"/><text fill="#000000" font-family="sans-serif" font-size="14" lengthAdjust="spacing" textLength="41.9998" x="243" y="889.0186">&#23458;&#25143;&#31471;</text><rect fill="#E2E2F0" height="30.2969" rx="2.5" ry="2.5" style="stroke:#181818;stroke-width:0.5;" width="55.9998" x="443.2761" y="50"/><text fill="#000000" font-family="sans-serif" font-size="14" lengthAdjust="spacing" textLength="41.9998" x="450.2761" y="69.9951">&#26381;&#21153;&#22120;</text><rect fill="#E2E2F0" height="30.2969" rx="2.5" ry="2.5" style="stroke:#181818;stroke-width:0.5;" width="55.9998" x="443.2761" y="869.0234"/><text fill="#000000" font-family="sans-serif" font-size="14" lengthAdjust="spacing" textLength="41.9998" x="450.2761" y="889.0186">&#26381;&#21153;&#22120;</text><rect fill="#E2E2F0" height="30.2969" rx="2.5" ry="2.5" style="stroke:#181818;stroke-width:0.5;" width="69.9998" x="509.2759" y="50"/><text fill="#000000" font-family="sans-serif" font-size="14" lengthAdjust="spacing" textLength="55.9998" x="516.2759" y="69.9951">&#20020;&#26102;&#32531;&#23384;</text><rect fill="#E2E2F0" height="30.2969" rx="2.5" ry="2.5" style="stroke:#181818;stroke-width:0.5;" width="69.9998" x="509.2759" y="869.0234"/><text fill="#000000" font-family="sans-serif" font-size="14" lengthAdjust="spacing" textLength="55.9998" x="516.2759" y="889.0186">&#20020;&#26102;&#32531;&#23384;</text><rect fill="#EEEEEE" height="3" style="stroke:#EEEEEE;stroke-width:1.0;" width="599.2757" x="0" y="111.8633"/><line style="stroke:#000000;stroke-width:1.0;" x1="0" x2="599.2757" y1="111.8633" y2="111.8633"/><line style="stroke:#000000;stroke-width:1.0;" x1="0" x2="599.2757" y1="114.8633" y2="114.8633"/><rect fill="#EEEEEE" height="23.1328" style="stroke:#000000;stroke-width:2.0;" width="154.0358" x="222.6199" y="101.2969"/><text fill="#000000" font-family="sans-serif" font-size="13" font-weight="bold" lengthAdjust="spacing" textLength="135.5099" x="228.6199" y="117.3638">1. &#33719;&#21462;&#26381;&#21153;&#22120;&#34917;&#19969;&#20449;&#24687;</text><polygon fill="#181818" points="251.9999,151.5625,261.9999,155.5625,251.9999,159.5625,255.9999,155.5625" style="stroke:#181818;stroke-width:1.0;"/><line style="stroke:#181818;stroke-width:1.0;" x1="21.9999" x2="257.9999" y1="155.5625" y2="155.5625"/><text fill="#000000" font-family="sans-serif" font-size="13" lengthAdjust="spacing" textLength="65.0001" x="28.9999" y="150.4966">&#21551;&#21160;&#23458;&#25143;&#31471;</text><polygon fill="#181818" points="459.276,180.6953,469.276,184.6953,459.276,188.6953,463.276,184.6953" style="stroke:#181818;stroke-width:1.0;"/><line style="stroke:#181818;stroke-width:1.0;" x1="263.9999" x2="465.276" y1="184.6953" y2="184.6953"/><text fill="#000000" font-family="sans-serif" font-size="13" lengthAdjust="spacing" textLength="163.319" x="270.9999" y="179.6294">&#35831;&#27714;&#26381;&#21153;&#22120;&#34917;&#19969;&#20449;&#24687; (JSON)</text><polygon fill="#181818" points="274.9999,209.8281,264.9999,213.8281,274.9999,217.8281,270.9999,213.8281" style="stroke:#181818;stroke-width:1.0;"/><line style="stroke:#181818;stroke-width:1.0;stroke-dasharray:2.0,2.0;" x1="268.9999" x2="470.276" y1="213.8281" y2="213.8281"/><text fill="#000000" font-family="sans-serif" font-size="13" lengthAdjust="spacing" textLength="183.2761" x="280.9999" y="208.7622">&#36820;&#22238;&#34917;&#19969;&#20449;&#24687; (&#21253;&#25324;&#25991;&#20214;&#21704;&#24076;&#31561;)</text><rect fill="#EEEEEE" height="3" style="stroke:#EEEEEE;stroke-width:1.0;" width="599.2757" x="0" y="242.3945"/><line style="stroke:#000000;stroke-width:1.0;" x1="0" x2="599.2757" y1="242.3945" y2="242.3945"/><line style="stroke:#000000;stroke-width:1.0;" x1="0" x2="599.2757" y1="245.3945" y2="245.3945"/><rect fill="#EEEEEE" height="23.1328" style="stroke:#000000;stroke-width:2.0;" width="141.0358" x="229.12" y="231.8281"/><text fill="#000000" font-family="sans-serif" font-size="13" font-weight="bold" lengthAdjust="spacing" textLength="122.5099" x="235.12" y="247.895">2. &#21152;&#36733;&#26412;&#22320;&#29256;&#26412;&#20449;&#24687;</text><polygon fill="#181818" points="94.9998,282.0938,84.9998,286.0938,94.9998,290.0938,90.9998,286.0938" style="stroke:#181818;stroke-width:1.0;"/><line style="stroke:#181818;stroke-width:1.0;" x1="88.9998" x2="262.9999" y1="286.0938" y2="286.0938"/><text fill="#000000" font-family="sans-serif" font-size="13" lengthAdjust="spacing" textLength="143.0002" x="100.9998" y="281.0278">&#35835;&#21462;&#26412;&#22320;&#29256;&#26412;&#21644;&#34917;&#19969;&#20449;&#24687;</text><rect fill="#EEEEEE" height="3" style="stroke:#EEEEEE;stroke-width:1.0;" width="599.2757" x="0" y="314.6602"/><line style="stroke:#000000;stroke-width:1.0;" x1="0" x2="599.2757" y1="314.6602" y2="314.6602"/><line style="stroke:#000000;stroke-width:1.0;" x1="0" x2="599.2757" y1="317.6602" y2="317.6602"/><rect fill="#EEEEEE" height="23.1328" style="stroke:#000000;stroke-width:2.0;" width="154.0358" x="222.6199" y="304.0938"/><text fill="#000000" font-family="sans-serif" font-size="13" font-weight="bold" lengthAdjust="spacing" textLength="135.5099" x="228.6199" y="320.1606">3. &#23545;&#27604;&#34917;&#19969;&#25991;&#20214;&#23436;&#25972;&#24615;</text><polygon fill="#181818" points="94.9998,354.3594,84.9998,358.3594,94.9998,362.3594,90.9998,358.3594" style="stroke:#181818;stroke-width:1.0;"/><line style="stroke:#181818;stroke-width:1.0;" x1="88.9998" x2="262.9999" y1="358.3594" y2="358.3594"/><text fill="#000000" font-family="sans-serif" font-size="13" lengthAdjust="spacing" textLength="104.0001" x="100.9998" y="353.2935">&#33719;&#21462;&#26412;&#22320;&#34917;&#19969;&#25991;&#20214;</text><line style="stroke:#181818;stroke-width:1.0;" x1="263.9999" x2="305.9999" y1="387.4922" y2="387.4922"/><line style="stroke:#181818;stroke-width:1.0;" x1="305.9999" x2="305.9999" y1="387.4922" y2="400.4922"/><line style="stroke:#181818;stroke-width:1.0;" x1="264.9999" x2="305.9999" y1="400.4922" y2="400.4922"/><polygon fill="#181818" points="274.9999,396.4922,264.9999,400.4922,274.9999,404.4922,270.9999,400.4922" style="stroke:#181818;stroke-width:1.0;"/><text fill="#000000" font-family="sans-serif" font-size="13" lengthAdjust="spacing" textLength="130.0002" x="270.9999" y="382.4263">&#35745;&#31639;&#26412;&#22320;&#25991;&#20214;&#30340;&#21704;&#24076;&#20540;</text><line style="stroke:#181818;stroke-width:1.0;" x1="263.9999" x2="305.9999" y1="429.625" y2="429.625"/><line style="stroke:#181818;stroke-width:1.0;" x1="305.9999" x2="305.9999" y1="429.625" y2="442.625"/><line style="stroke:#181818;stroke-width:1.0;" x1="264.9999" x2="305.9999" y1="442.625" y2="442.625"/><polygon fill="#181818" points="274.9999,438.625,264.9999,442.625,274.9999,446.625,270.9999,442.625" style="stroke:#181818;stroke-width:1.0;"/><text fill="#000000" font-family="sans-serif" font-size="13" lengthAdjust="spacing" textLength="104.0001" x="270.9999" y="424.5591">&#23545;&#27604;&#26381;&#21153;&#22120;&#21704;&#24076;&#20540;</text><path d="M226,457.625 L290.4429,457.625 L290.4429,464.7578 L280.4429,474.7578 L226,474.7578 L226,457.625 " fill="#EEEEEE" style="stroke:#000000;stroke-width:1.5;"/><rect fill="none" height="104.5313" style="stroke:#000000;stroke-width:1.5;" width="363.2757" x="226" y="457.625"/><text fill="#000000" font-family="sans-serif" font-size="13" font-weight="bold" lengthAdjust="spacing" textLength="19.4429" x="241" y="470.6919">alt</text><text fill="#000000" font-family="sans-serif" font-size="11" font-weight="bold" lengthAdjust="spacing" textLength="98.0541" x="305.4429" y="469.8354">[&#25991;&#20214;&#19981;&#23436;&#25972;&#25110;&#32570;&#22833;]</text><polygon fill="#181818" points="459.276,491.8906,469.276,495.8906,459.276,499.8906,463.276,495.8906" style="stroke:#181818;stroke-width:1.0;"/><line style="stroke:#181818;stroke-width:1.0;" x1="263.9999" x2="465.276" y1="495.8906" y2="495.8906"/><text fill="#000000" font-family="sans-serif" font-size="13" lengthAdjust="spacing" textLength="104.0001" x="270.9999" y="490.8247">&#35831;&#27714;&#23436;&#25972;&#34917;&#19969;&#25991;&#20214;</text><polygon fill="#181818" points="274.9999,521.0234,264.9999,525.0234,274.9999,529.0234,270.9999,525.0234" style="stroke:#181818;stroke-width:1.0;"/><line style="stroke:#181818;stroke-width:1.0;stroke-dasharray:2.0,2.0;" x1="268.9999" x2="470.276" y1="525.0234" y2="525.0234"/><text fill="#000000" font-family="sans-serif" font-size="13" lengthAdjust="spacing" textLength="78.0001" x="280.9999" y="519.9575">&#36820;&#22238;&#34917;&#19969;&#25991;&#20214;</text><polygon fill="#181818" points="532.2758,550.1563,542.2758,554.1563,532.2758,558.1563,536.2758,554.1563" style="stroke:#181818;stroke-width:1.0;"/><line style="stroke:#181818;stroke-width:1.0;" x1="263.9999" x2="538.2758" y1="554.1563" y2="554.1563"/><text fill="#000000" font-family="sans-serif" font-size="13" lengthAdjust="spacing" textLength="117.0001" x="270.9999" y="549.0903">&#23384;&#20648;&#25991;&#20214;&#21040;&#20020;&#26102;&#32531;&#23384;</text><rect fill="#EEEEEE" height="3" style="stroke:#EEEEEE;stroke-width:1.0;" width="599.2757" x="0" y="589.7227"/><line style="stroke:#000000;stroke-width:1.0;" x1="0" x2="599.2757" y1="589.7227" y2="589.7227"/><line style="stroke:#000000;stroke-width:1.0;" x1="0" x2="599.2757" y1="592.7227" y2="592.7227"/><rect fill="#EEEEEE" height="23.1328" style="stroke:#000000;stroke-width:2.0;" width="115.0357" x="242.12" y="579.1563"/><text fill="#000000" font-family="sans-serif" font-size="13" font-weight="bold" lengthAdjust="spacing" textLength="96.5099" x="248.12" y="595.2231">4. &#19979;&#36733;&#34917;&#19969;&#23436;&#25104;</text><line style="stroke:#181818;stroke-width:1.0;" x1="263.9999" x2="305.9999" y1="633.4219" y2="633.4219"/><line style="stroke:#181818;stroke-width:1.0;" x1="305.9999" x2="305.9999" y1="633.4219" y2="646.4219"/><line style="stroke:#181818;stroke-width:1.0;" x1="264.9999" x2="305.9999" y1="646.4219" y2="646.4219"/><polygon fill="#181818" points="274.9999,642.4219,264.9999,646.4219,274.9999,650.4219,270.9999,646.4219" style="stroke:#181818;stroke-width:1.0;"/><text fill="#000000" font-family="sans-serif" font-size="13" lengthAdjust="spacing" textLength="117.0001" x="270.9999" y="628.356">&#26657;&#39564;&#19979;&#36733;&#25991;&#20214;&#21704;&#24076;&#20540;</text><path d="M38.9999,661.4219 L103.4427,661.4219 L103.4427,668.5547 L93.4427,678.5547 L38.9999,678.5547 L38.9999,661.4219 " fill="#EEEEEE" style="stroke:#000000;stroke-width:1.5;"/><rect fill="none" height="90.2031" style="stroke:#000000;stroke-width:1.5;" width="470.276" x="38.9999" y="661.4219"/><text fill="#000000" font-family="sans-serif" font-size="13" font-weight="bold" lengthAdjust="spacing" textLength="19.4429" x="53.9999" y="674.4888">alt</text><text fill="#000000" font-family="sans-serif" font-size="11" font-weight="bold" lengthAdjust="spacing" textLength="54.0544" x="118.4427" y="673.6323">[&#26657;&#39564;&#25104;&#21151;]</text><polygon fill="#181818" points="94.9998,695.6875,84.9998,699.6875,94.9998,703.6875,90.9998,699.6875" style="stroke:#181818;stroke-width:1.0;"/><line style="stroke:#181818;stroke-width:1.0;" x1="88.9998" x2="262.9999" y1="699.6875" y2="699.6875"/><text fill="#000000" font-family="sans-serif" font-size="13" lengthAdjust="spacing" textLength="117.0001" x="100.9998" y="694.6216">&#31227;&#21160;&#25991;&#20214;&#21040;&#27491;&#24335;&#20301;&#32622;</text><line style="stroke:#000000;stroke-width:1.0;stroke-dasharray:2.0,2.0;" x1="38.9999" x2="509.2759" y1="708.6875" y2="708.6875"/><text fill="#000000" font-family="sans-serif" font-size="11" font-weight="bold" lengthAdjust="spacing" textLength="54.0544" x="43.9999" y="718.8979">[&#26657;&#39564;&#22833;&#36133;]</text><polygon fill="#181818" points="459.276,739.625,469.276,743.625,459.276,747.625,463.276,743.625" style="stroke:#181818;stroke-width:1.0;"/><line style="stroke:#181818;stroke-width:1.0;" x1="263.9999" x2="465.276" y1="743.625" y2="743.625"/><text fill="#000000" font-family="sans-serif" font-size="13" lengthAdjust="spacing" textLength="78.0001" x="270.9999" y="738.5591">&#37325;&#26032;&#19979;&#36733;&#25991;&#20214;</text><rect fill="#EEEEEE" height="3" style="stroke:#EEEEEE;stroke-width:1.0;" width="599.2757" x="0" y="779.1914"/><line style="stroke:#000000;stroke-width:1.0;" x1="0" x2="599.2757" y1="779.1914" y2="779.1914"/><line style="stroke:#000000;stroke-width:1.0;" x1="0" x2="599.2757" y1="782.1914" y2="782.1914"/><rect fill="#EEEEEE" height="23.1328" style="stroke:#000000;stroke-width:2.0;" width="141.0358" x="229.12" y="768.625"/><text fill="#000000" font-family="sans-serif" font-size="13" font-weight="bold" lengthAdjust="spacing" textLength="122.5099" x="235.12" y="784.6919">5. &#26356;&#26032;&#26412;&#22320;&#29256;&#26412;&#20449;&#24687;</text><polygon fill="#181818" points="94.9998,818.8906,84.9998,822.8906,94.9998,826.8906,90.9998,822.8906" style="stroke:#181818;stroke-width:1.0;"/><line style="stroke:#181818;stroke-width:1.0;" x1="88.9998" x2="262.9999" y1="822.8906" y2="822.8906"/><text fill="#000000" font-family="sans-serif" font-size="13" lengthAdjust="spacing" textLength="156.0002" x="100.9998" y="817.8247">&#26356;&#26032;&#26412;&#22320;&#29256;&#26412;&#21495;&#19982;&#34917;&#19969;&#20449;&#24687;</text><polygon fill="#181818" points="251.9999,848.0234,261.9999,852.0234,251.9999,856.0234,255.9999,852.0234" style="stroke:#181818;stroke-width:1.0;"/><line style="stroke:#181818;stroke-width:1.0;" x1="21.9999" x2="257.9999" y1="852.0234" y2="852.0234"/><text fill="#000000" font-family="sans-serif" font-size="13" lengthAdjust="spacing" textLength="52.0001" x="28.9999" y="846.9575">&#23436;&#25104;&#26356;&#26032;</text><!--SRC=[bLFBJjj05DtFLunOmO98FBf12Xjsg895u0EiTDH62Y5ABDQ0G9ZW45JIy5IBso8Y87QG8c988dx6TyRy1UCPrnu7Q5MlBDzppZttt6ijgw-MCAitgT75MXalbqa95RMIdilcYbf1noFq_1REsz0wXitcI03vk9hLyXbEqpwJ91Jidro6tJW2DvVFaO8-B5Q5YWKdKYb3Icl3xJotGu_kMV-GTnIW9R9IdDEoNmX2wJIUI65_lmkrHgJaMvUUk-4zMNJ3mUaq2YR0uxDX-naC1mvKcf4r9By72Db-1ljEbzvjlYquEfzPN1X34eh75Lt_gGvdtvDWCBVftYrjx7YzUpWqm3LPQtTC69zCOQXS-8E1p9Fj6lmbTXsxKkCDlFN4i347lffgKo4-nSMT1-hKPIKqO9lqMuUkN_rLFmmpq5V92Y4QsBQOVIIX4iHEj-IKiDv_Wo0jHRd6KAJbTImbFBSQ-ZGQhFy8l-yGvizxIvBOXD40_e_rACXOEBehRbGSTvYQqLPF49729n7nT0fxxXxVdvGCZ1W7oMJ_jAONrlErAT7gBGIZYyb5dTEXycF8L78vxAh7JpVoHLk_e5_p1bKsi179bqcen4FpEvVlvFQyKwMDjcec6kb32jEp3g_-tqc-va2jwxdxoQjyzHkAm2Jt1G00]--></g></svg>