<svg xmlns="http://www.w3.org/2000/svg" xmlns:xlink="http://www.w3.org/1999/xlink" contentStyleType="text/css" height="1054px" preserveAspectRatio="none" style="width:620px;height:1054px;background:#FFFFFF;" version="1.1" viewBox="0 0 620 1054" width="620px" zoomAndPan="magnify"><defs/><g><rect fill="none" height="325.4609" style="stroke:#000000;stroke-width:1.5;" width="574.5793" x="28.9999" y="457.625"/><rect fill="none" height="104.5313" style="stroke:#000000;stroke-width:1.5;" width="554.5793" x="38.9999" y="569.1563"/><rect fill="none" height="46.2656" style="stroke:#000000;stroke-width:1.5;" width="367.5791" x="226" y="729.8203"/><line style="stroke:#181818;stroke-width:0.5;stroke-dasharray:5.0,5.0;" x1="21" x2="21" y1="81.2969" y2="973.75"/><line style="stroke:#181818;stroke-width:0.5;stroke-dasharray:5.0,5.0;" x1="82.9999" x2="82.9999" y1="81.2969" y2="973.75"/><line style="stroke:#181818;stroke-width:0.5;stroke-dasharray:5.0,5.0;" x1="263" x2="263" y1="81.2969" y2="973.75"/><line style="stroke:#181818;stroke-width:0.5;stroke-dasharray:5.0,5.0;" x1="554.5793" x2="554.5793" y1="81.2969" y2="973.75"/><text fill="#000000" font-family="sans-serif" font-size="14" lengthAdjust="spacing" textLength="27.9999" x="5" y="77.9951">&#29992;&#25143;</text><ellipse cx="21.9999" cy="13.5" fill="#E2E2F0" rx="8" ry="8" style="stroke:#181818;stroke-width:0.5;"/><path d="M21.9999,21.5 L21.9999,48.5 M8.9999,29.5 L34.9999,29.5 M21.9999,48.5 L8.9999,63.5 M21.9999,48.5 L34.9999,63.5 " fill="none" style="stroke:#181818;stroke-width:0.5;"/><text fill="#000000" font-family="sans-serif" font-size="14" lengthAdjust="spacing" textLength="27.9999" x="5" y="985.7451">&#29992;&#25143;</text><ellipse cx="21.9999" cy="997.5469" fill="#E2E2F0" rx="8" ry="8" style="stroke:#181818;stroke-width:0.5;"/><path d="M21.9999,1005.5469 L21.9999,1032.5469 M8.9999,1013.5469 L34.9999,1013.5469 M21.9999,1032.5469 L8.9999,1047.5469 M21.9999,1032.5469 L34.9999,1047.5469 " fill="none" style="stroke:#181818;stroke-width:0.5;"/><rect fill="#E2E2F0" height="30.2969" rx="2.5" ry="2.5" style="stroke:#181818;stroke-width:0.5;" width="69.9998" x="48.9999" y="50"/><text fill="#000000" font-family="sans-serif" font-size="14" lengthAdjust="spacing" textLength="55.9998" x="55.9999" y="69.9951">&#26412;&#22320;&#23384;&#20648;</text><rect fill="#E2E2F0" height="30.2969" rx="2.5" ry="2.5" style="stroke:#181818;stroke-width:0.5;" width="69.9998" x="48.9999" y="972.75"/><text fill="#000000" font-family="sans-serif" font-size="14" lengthAdjust="spacing" textLength="55.9998" x="55.9999" y="992.7451">&#26412;&#22320;&#23384;&#20648;</text><rect fill="#E2E2F0" height="30.2969" rx="2.5" ry="2.5" style="stroke:#181818;stroke-width:0.5;" width="55.9998" x="236" y="50"/><text fill="#000000" font-family="sans-serif" font-size="14" lengthAdjust="spacing" textLength="41.9998" x="243" y="69.9951">&#23458;&#25143;&#31471;</text><rect fill="#E2E2F0" height="30.2969" rx="2.5" ry="2.5" style="stroke:#181818;stroke-width:0.5;" width="55.9998" x="236" y="972.75"/><text fill="#000000" font-family="sans-serif" font-size="14" lengthAdjust="spacing" textLength="41.9998" x="243" y="992.7451">&#23458;&#25143;&#31471;</text><rect fill="#E2E2F0" height="30.2969" rx="2.5" ry="2.5" style="stroke:#181818;stroke-width:0.5;" width="55.9998" x="527.5793" y="50"/><text fill="#000000" font-family="sans-serif" font-size="14" lengthAdjust="spacing" textLength="41.9998" x="534.5793" y="69.9951">&#26381;&#21153;&#22120;</text><rect fill="#E2E2F0" height="30.2969" rx="2.5" ry="2.5" style="stroke:#181818;stroke-width:0.5;" width="55.9998" x="527.5793" y="972.75"/><text fill="#000000" font-family="sans-serif" font-size="14" lengthAdjust="spacing" textLength="41.9998" x="534.5793" y="992.7451">&#26381;&#21153;&#22120;</text><rect fill="#EEEEEE" height="3" style="stroke:#EEEEEE;stroke-width:1.0;" width="613.5791" x="0" y="111.8633"/><line style="stroke:#000000;stroke-width:1.0;" x1="0" x2="613.5791" y1="111.8633" y2="111.8633"/><line style="stroke:#000000;stroke-width:1.0;" x1="0" x2="613.5791" y1="114.8633" y2="114.8633"/><rect fill="#EEEEEE" height="23.1328" style="stroke:#000000;stroke-width:2.0;" width="154.0358" x="229.7717" y="101.2969"/><text fill="#000000" font-family="sans-serif" font-size="13" font-weight="bold" lengthAdjust="spacing" textLength="135.5099" x="235.7717" y="117.3638">1. &#33719;&#21462;&#26381;&#21153;&#22120;&#34917;&#19969;&#20449;&#24687;</text><polygon fill="#181818" points="251.9999,151.5625,261.9999,155.5625,251.9999,159.5625,255.9999,155.5625" style="stroke:#181818;stroke-width:1.0;"/><line style="stroke:#181818;stroke-width:1.0;" x1="21.9999" x2="257.9999" y1="155.5625" y2="155.5625"/><text fill="#000000" font-family="sans-serif" font-size="13" lengthAdjust="spacing" textLength="65.0001" x="28.9999" y="150.4966">&#21551;&#21160;&#23458;&#25143;&#31471;</text><polygon fill="#181818" points="543.5792,180.6953,553.5792,184.6953,543.5792,188.6953,547.5792,184.6953" style="stroke:#181818;stroke-width:1.0;"/><line style="stroke:#181818;stroke-width:1.0;" x1="263.9999" x2="549.5792" y1="184.6953" y2="184.6953"/><text fill="#000000" font-family="sans-serif" font-size="13" lengthAdjust="spacing" textLength="163.319" x="270.9999" y="179.6294">&#35831;&#27714;&#26381;&#21153;&#22120;&#34917;&#19969;&#20449;&#24687; (JSON)</text><polygon fill="#181818" points="274.9999,209.8281,264.9999,213.8281,274.9999,217.8281,270.9999,213.8281" style="stroke:#181818;stroke-width:1.0;"/><line style="stroke:#181818;stroke-width:1.0;stroke-dasharray:2.0,2.0;" x1="268.9999" x2="554.5792" y1="213.8281" y2="213.8281"/><text fill="#000000" font-family="sans-serif" font-size="13" lengthAdjust="spacing" textLength="222.2761" x="280.9999" y="208.7622">&#36820;&#22238;&#34917;&#19969;&#20449;&#24687; (&#21253;&#25324;&#25991;&#20214;&#21704;&#24076;&#12289;&#20998;&#29255;&#31561;)</text><rect fill="#EEEEEE" height="3" style="stroke:#EEEEEE;stroke-width:1.0;" width="613.5791" x="0" y="242.3945"/><line style="stroke:#000000;stroke-width:1.0;" x1="0" x2="613.5791" y1="242.3945" y2="242.3945"/><line style="stroke:#000000;stroke-width:1.0;" x1="0" x2="613.5791" y1="245.3945" y2="245.3945"/><rect fill="#EEEEEE" height="23.1328" style="stroke:#000000;stroke-width:2.0;" width="141.0358" x="236.2717" y="231.8281"/><text fill="#000000" font-family="sans-serif" font-size="13" font-weight="bold" lengthAdjust="spacing" textLength="122.5099" x="242.2717" y="247.895">2. &#21152;&#36733;&#26412;&#22320;&#29256;&#26412;&#20449;&#24687;</text><polygon fill="#181818" points="94.9998,282.0938,84.9998,286.0938,94.9998,290.0938,90.9998,286.0938" style="stroke:#181818;stroke-width:1.0;"/><line style="stroke:#181818;stroke-width:1.0;" x1="88.9998" x2="262.9999" y1="286.0938" y2="286.0938"/><text fill="#000000" font-family="sans-serif" font-size="13" lengthAdjust="spacing" textLength="143.0002" x="100.9998" y="281.0278">&#35835;&#21462;&#26412;&#22320;&#29256;&#26412;&#21644;&#34917;&#19969;&#20449;&#24687;</text><rect fill="#EEEEEE" height="3" style="stroke:#EEEEEE;stroke-width:1.0;" width="613.5791" x="0" y="314.6602"/><line style="stroke:#000000;stroke-width:1.0;" x1="0" x2="613.5791" y1="314.6602" y2="314.6602"/><line style="stroke:#000000;stroke-width:1.0;" x1="0" x2="613.5791" y1="317.6602" y2="317.6602"/><rect fill="#EEEEEE" height="23.1328" style="stroke:#000000;stroke-width:2.0;" width="154.0358" x="229.7717" y="304.0938"/><text fill="#000000" font-family="sans-serif" font-size="13" font-weight="bold" lengthAdjust="spacing" textLength="135.5099" x="235.7717" y="320.1606">3. &#23545;&#27604;&#34917;&#19969;&#25991;&#20214;&#23436;&#25972;&#24615;</text><polygon fill="#181818" points="94.9998,354.3594,84.9998,358.3594,94.9998,362.3594,90.9998,358.3594" style="stroke:#181818;stroke-width:1.0;"/><line style="stroke:#181818;stroke-width:1.0;" x1="88.9998" x2="262.9999" y1="358.3594" y2="358.3594"/><text fill="#000000" font-family="sans-serif" font-size="13" lengthAdjust="spacing" textLength="104.0001" x="100.9998" y="353.2935">&#33719;&#21462;&#26412;&#22320;&#34917;&#19969;&#25991;&#20214;</text><line style="stroke:#181818;stroke-width:1.0;" x1="263.9999" x2="305.9999" y1="387.4922" y2="387.4922"/><line style="stroke:#181818;stroke-width:1.0;" x1="305.9999" x2="305.9999" y1="387.4922" y2="400.4922"/><line style="stroke:#181818;stroke-width:1.0;" x1="264.9999" x2="305.9999" y1="400.4922" y2="400.4922"/><polygon fill="#181818" points="274.9999,396.4922,264.9999,400.4922,274.9999,404.4922,270.9999,400.4922" style="stroke:#181818;stroke-width:1.0;"/><text fill="#000000" font-family="sans-serif" font-size="13" lengthAdjust="spacing" textLength="130.0002" x="270.9999" y="382.4263">&#35745;&#31639;&#26412;&#22320;&#25991;&#20214;&#30340;&#21704;&#24076;&#20540;</text><line style="stroke:#181818;stroke-width:1.0;" x1="263.9999" x2="305.9999" y1="429.625" y2="429.625"/><line style="stroke:#181818;stroke-width:1.0;" x1="305.9999" x2="305.9999" y1="429.625" y2="442.625"/><line style="stroke:#181818;stroke-width:1.0;" x1="264.9999" x2="305.9999" y1="442.625" y2="442.625"/><polygon fill="#181818" points="274.9999,438.625,264.9999,442.625,274.9999,446.625,270.9999,442.625" style="stroke:#181818;stroke-width:1.0;"/><text fill="#000000" font-family="sans-serif" font-size="13" lengthAdjust="spacing" textLength="104.0001" x="270.9999" y="424.5591">&#23545;&#27604;&#26381;&#21153;&#22120;&#21704;&#24076;&#20540;</text><path d="M28.9999,457.625 L93.4427,457.625 L93.4427,464.7578 L83.4427,474.7578 L28.9999,474.7578 L28.9999,457.625 " fill="#EEEEEE" style="stroke:#000000;stroke-width:1.5;"/><rect fill="none" height="325.4609" style="stroke:#000000;stroke-width:1.5;" width="574.5793" x="28.9999" y="457.625"/><text fill="#000000" font-family="sans-serif" font-size="13" font-weight="bold" lengthAdjust="spacing" textLength="19.4429" x="43.9999" y="470.6919">alt</text><text fill="#000000" font-family="sans-serif" font-size="11" font-weight="bold" lengthAdjust="spacing" textLength="98.0541" x="108.4427" y="469.8354">[&#25991;&#20214;&#19981;&#23436;&#25972;&#25110;&#32570;&#22833;]</text><polygon fill="#181818" points="543.5792,491.8906,553.5792,495.8906,543.5792,499.8906,547.5792,495.8906" style="stroke:#181818;stroke-width:1.0;"/><line style="stroke:#181818;stroke-width:1.0;" x1="263.9999" x2="549.5792" y1="495.8906" y2="495.8906"/><text fill="#000000" font-family="sans-serif" font-size="13" lengthAdjust="spacing" textLength="267.5793" x="270.9999" y="490.8247">&#35831;&#27714;&#25991;&#20214;&#20998;&#29255;&#21644;&#26029;&#28857;&#19979;&#36733; (Range: bytes=X-)</text><polygon fill="#181818" points="274.9999,521.0234,264.9999,525.0234,274.9999,529.0234,270.9999,525.0234" style="stroke:#181818;stroke-width:1.0;"/><line style="stroke:#181818;stroke-width:1.0;stroke-dasharray:2.0,2.0;" x1="268.9999" x2="554.5792" y1="525.0234" y2="525.0234"/><text fill="#000000" font-family="sans-serif" font-size="13" lengthAdjust="spacing" textLength="104.0001" x="280.9999" y="519.9575">&#36820;&#22238;&#23545;&#24212;&#25991;&#20214;&#20998;&#29255;</text><polygon fill="#181818" points="94.9998,550.1563,84.9998,554.1563,94.9998,558.1563,90.9998,554.1563" style="stroke:#181818;stroke-width:1.0;"/><line style="stroke:#181818;stroke-width:1.0;" x1="88.9998" x2="262.9999" y1="554.1563" y2="554.1563"/><text fill="#000000" font-family="sans-serif" font-size="13" lengthAdjust="spacing" textLength="130.0002" x="100.9998" y="549.0903">&#23384;&#20648;&#24050;&#19979;&#36733;&#20998;&#29255;&#21450;&#36827;&#24230;</text><path d="M38.9999,569.1563 L115.6239,569.1563 L115.6239,576.2891 L105.6239,586.2891 L38.9999,586.2891 L38.9999,569.1563 " fill="#EEEEEE" style="stroke:#000000;stroke-width:1.5;"/><rect fill="none" height="104.5313" style="stroke:#000000;stroke-width:1.5;" width="554.5793" x="38.9999" y="569.1563"/><text fill="#000000" font-family="sans-serif" font-size="13" font-weight="bold" lengthAdjust="spacing" textLength="31.624" x="53.9999" y="582.2231">loop</text><text fill="#000000" font-family="sans-serif" font-size="11" font-weight="bold" lengthAdjust="spacing" textLength="54.0544" x="130.6239" y="581.3667">[&#26029;&#28857;&#32493;&#20256;]</text><polygon fill="#181818" points="543.5792,603.4219,553.5792,607.4219,543.5792,611.4219,547.5792,607.4219" style="stroke:#181818;stroke-width:1.0;"/><line style="stroke:#181818;stroke-width:1.0;" x1="263.9999" x2="549.5792" y1="607.4219" y2="607.4219"/><text fill="#000000" font-family="sans-serif" font-size="13" lengthAdjust="spacing" textLength="214.6144" x="270.9999" y="602.356">&#35831;&#27714;&#19979;&#19968;&#20010;&#20998;&#29255; (Range: bytes=Y-)</text><polygon fill="#181818" points="274.9999,632.5547,264.9999,636.5547,274.9999,640.5547,270.9999,636.5547" style="stroke:#181818;stroke-width:1.0;"/><line style="stroke:#181818;stroke-width:1.0;stroke-dasharray:2.0,2.0;" x1="268.9999" x2="554.5792" y1="636.5547" y2="636.5547"/><text fill="#000000" font-family="sans-serif" font-size="13" lengthAdjust="spacing" textLength="78.0001" x="280.9999" y="631.4888">&#36820;&#22238;&#25991;&#20214;&#20998;&#29255;</text><polygon fill="#181818" points="94.9998,661.6875,84.9998,665.6875,94.9998,669.6875,90.9998,665.6875" style="stroke:#181818;stroke-width:1.0;"/><line style="stroke:#181818;stroke-width:1.0;" x1="88.9998" x2="262.9999" y1="665.6875" y2="665.6875"/><text fill="#000000" font-family="sans-serif" font-size="13" lengthAdjust="spacing" textLength="78.0001" x="100.9998" y="660.6216">&#23384;&#20648;&#20998;&#29255;&#36827;&#24230;</text><line style="stroke:#181818;stroke-width:1.0;" x1="263.9999" x2="305.9999" y1="701.8203" y2="701.8203"/><line style="stroke:#181818;stroke-width:1.0;" x1="305.9999" x2="305.9999" y1="701.8203" y2="714.8203"/><line style="stroke:#181818;stroke-width:1.0;" x1="264.9999" x2="305.9999" y1="714.8203" y2="714.8203"/><polygon fill="#181818" points="274.9999,710.8203,264.9999,714.8203,274.9999,718.8203,270.9999,714.8203" style="stroke:#181818;stroke-width:1.0;"/><text fill="#000000" font-family="sans-serif" font-size="13" lengthAdjust="spacing" textLength="117.0001" x="270.9999" y="696.7544">&#26657;&#39564;&#25152;&#26377;&#20998;&#29255;&#21704;&#24076;&#20540;</text><path d="M226,729.8203 L290.4429,729.8203 L290.4429,736.9531 L280.4429,746.9531 L226,746.9531 L226,729.8203 " fill="#EEEEEE" style="stroke:#000000;stroke-width:1.5;"/><rect fill="none" height="46.2656" style="stroke:#000000;stroke-width:1.5;" width="367.5791" x="226" y="729.8203"/><text fill="#000000" font-family="sans-serif" font-size="13" font-weight="bold" lengthAdjust="spacing" textLength="19.4429" x="241" y="742.8872">alt</text><text fill="#000000" font-family="sans-serif" font-size="11" font-weight="bold" lengthAdjust="spacing" textLength="54.0544" x="305.4429" y="742.0308">[&#26657;&#39564;&#22833;&#36133;]</text><polygon fill="#181818" points="543.5792,764.0859,553.5792,768.0859,543.5792,772.0859,547.5792,768.0859" style="stroke:#181818;stroke-width:1.0;"/><line style="stroke:#181818;stroke-width:1.0;" x1="263.9999" x2="549.5792" y1="768.0859" y2="768.0859"/><text fill="#000000" font-family="sans-serif" font-size="13" lengthAdjust="spacing" textLength="78.0001" x="270.9999" y="763.02">&#37325;&#26032;&#19979;&#36733;&#20998;&#29255;</text><rect fill="#EEEEEE" height="3" style="stroke:#EEEEEE;stroke-width:1.0;" width="613.5791" x="0" y="810.6523"/><line style="stroke:#000000;stroke-width:1.0;" x1="0" x2="613.5791" y1="810.6523" y2="810.6523"/><line style="stroke:#000000;stroke-width:1.0;" x1="0" x2="613.5791" y1="813.6523" y2="813.6523"/><rect fill="#EEEEEE" height="23.1328" style="stroke:#000000;stroke-width:2.0;" width="115.0357" x="249.2717" y="800.0859"/><text fill="#000000" font-family="sans-serif" font-size="13" font-weight="bold" lengthAdjust="spacing" textLength="96.5099" x="255.2717" y="816.1528">4. &#19979;&#36733;&#34917;&#19969;&#23436;&#25104;</text><polygon fill="#181818" points="94.9998,850.3516,84.9998,854.3516,94.9998,858.3516,90.9998,854.3516" style="stroke:#181818;stroke-width:1.0;"/><line style="stroke:#181818;stroke-width:1.0;" x1="88.9998" x2="262.9999" y1="854.3516" y2="854.3516"/><text fill="#000000" font-family="sans-serif" font-size="13" lengthAdjust="spacing" textLength="78.0001" x="100.9998" y="849.2856">&#21512;&#24182;&#20998;&#29255;&#25991;&#20214;</text><rect fill="#EEEEEE" height="3" style="stroke:#EEEEEE;stroke-width:1.0;" width="613.5791" x="0" y="882.918"/><line style="stroke:#000000;stroke-width:1.0;" x1="0" x2="613.5791" y1="882.918" y2="882.918"/><line style="stroke:#000000;stroke-width:1.0;" x1="0" x2="613.5791" y1="885.918" y2="885.918"/><rect fill="#EEEEEE" height="23.1328" style="stroke:#000000;stroke-width:2.0;" width="141.0358" x="236.2717" y="872.3516"/><text fill="#000000" font-family="sans-serif" font-size="13" font-weight="bold" lengthAdjust="spacing" textLength="122.5099" x="242.2717" y="888.4185">5. &#26356;&#26032;&#26412;&#22320;&#29256;&#26412;&#20449;&#24687;</text><polygon fill="#181818" points="94.9998,922.6172,84.9998,926.6172,94.9998,930.6172,90.9998,926.6172" style="stroke:#181818;stroke-width:1.0;"/><line style="stroke:#181818;stroke-width:1.0;" x1="88.9998" x2="262.9999" y1="926.6172" y2="926.6172"/><text fill="#000000" font-family="sans-serif" font-size="13" lengthAdjust="spacing" textLength="156.0002" x="100.9998" y="921.5513">&#26356;&#26032;&#26412;&#22320;&#29256;&#26412;&#21495;&#19982;&#34917;&#19969;&#20449;&#24687;</text><polygon fill="#181818" points="251.9999,951.75,261.9999,955.75,251.9999,959.75,255.9999,955.75" style="stroke:#181818;stroke-width:1.0;"/><line style="stroke:#181818;stroke-width:1.0;" x1="21.9999" x2="257.9999" y1="955.75" y2="955.75"/><text fill="#000000" font-family="sans-serif" font-size="13" lengthAdjust="spacing" textLength="52.0001" x="28.9999" y="950.6841">&#23436;&#25104;&#26356;&#26032;</text><!--SRC=[bLHDZz9G5DttLxpCQbX0ujTcahfnPumc4XDTLcmC2G42ZOcxGbHQfWn4iOv233MEad6WCuROyZ7XnzZxslaNlhxtB0Lc6ksgwJltt7FElQzIJYbLaDyTOir1KXKzgieLeInLb7mkNvQA2jh1_HFedyBe4Eh3dH1ohvIJ2bbI9ZsNrw4m_a9e_1ysnTqfvEMYiadMWgO57nbJLgwy8Eq4KKJNCYWuSA1jHeZ0ElBSchUqSCr6eYY4ob3wDgVTGz2neJcCMWhiUuXWj7iei1ryLh-SSFTkzi7zbC2WA1tZ3PPTw7rU1uFn6k-VOBFXpN_1EmrSuxTQ0-sDhpVyaPwY3gvd43G7mVav2ypNDVAoah-I5yyl53cdhbSryDQ8TwVaDmYvFSLsbvrm9MC3lvzWzNiYFqyrv8yNnmeYvsFB7tzWK0RoFxrYTa5TN5B094K1hw22L50Ge_3S5jUfcVvY1b_F14IUAwV5dD5eIH3O7FdrgUVkarpHxaEf65fw-bAHg-BZT8eoNJb2eWvctJZXHkVreDY6W_EJTUCIsirWsOFPDu7M5agbCcAQ_Fd8MmperoG_XCnpLSyzPdmR7fvm3ua-jXpyWmiAvif3k5ny9cou_zi43woBOmFhAkxht7Gqnx22Zf9YoEo2oL62vOj62vkdyVoYvbG0MUIR6SJEsIw6gw5ralONEXfCkNk-kI7FhGp2lGdfzd-tRRi6sexd7gnVkArV3LN9Qly0]--></g></svg>