<svg xmlns="http://www.w3.org/2000/svg" xmlns:xlink="http://www.w3.org/1999/xlink" contentStyleType="text/css" data-diagram-type="SEQUENCE" height="512px" preserveAspectRatio="none" style="width:869px;height:512px;background:#FFFFFF;" version="1.1" viewBox="0 0 869 512" width="869px" zoomAndPan="magnify"><defs/><g><g><title>UListViewBase</title><rect fill="#FFFFFF" height="301.1953" style="stroke:#181818;stroke-width:1;" width="10" x="186.6915" y="112.4297"/></g><g><title>FUserWidgetPool</title><rect fill="#FFFFFF" height="29.1328" style="stroke:#181818;stroke-width:1;" width="10" x="423.15" y="183.6953"/></g><g><title>UUserWidget</title><rect fill="#FFFFFF" height="171.6641" style="stroke:#181818;stroke-width:1;" width="10" x="552.5499" y="241.9609"/></g><g><title>SListView&lt;ItemType&gt;</title><rect fill="#FFFFFF" height="142.5313" style="stroke:#181818;stroke-width:1;" width="10" x="700.7111" y="271.0938"/></g><g><title>User</title><rect fill="#000000" fill-opacity="0.00000" height="350.3281" width="8" x="19.9551" y="81.2969"/><line style="stroke:#181818;stroke-width:0.5;stroke-dasharray:5.0,5.0;" x1="23" x2="23" y1="81.2969" y2="431.625"/></g><g><title>UListViewBase</title><rect fill="#000000" fill-opacity="0.00000" height="350.3281" width="8" x="187.6915" y="81.2969"/><line style="stroke:#181818;stroke-width:0.5;stroke-dasharray:5.0,5.0;" x1="191.5211" x2="191.5211" y1="81.2969" y2="431.625"/></g><g><title>FUserWidgetPool</title><rect fill="#000000" fill-opacity="0.00000" height="350.3281" width="8" x="424.15" y="81.2969"/><line style="stroke:#181818;stroke-width:0.5;stroke-dasharray:5.0,5.0;" x1="427.6329" x2="427.6329" y1="81.2969" y2="431.625"/></g><g><title>UUserWidget</title><rect fill="#000000" fill-opacity="0.00000" height="350.3281" width="8" x="553.5499" y="81.2969"/><line style="stroke:#181818;stroke-width:0.5;stroke-dasharray:5.0,5.0;" x1="556.6671" x2="556.6671" y1="81.2969" y2="431.625"/></g><g><title>SListView&lt;ItemType&gt;</title><rect fill="#000000" fill-opacity="0.00000" height="350.3281" width="8" x="701.7111" y="81.2969"/><line style="stroke:#181818;stroke-width:0.5;stroke-dasharray:5.0,5.0;" x1="705.4327" x2="705.4327" y1="81.2969" y2="431.625"/></g><g class="participant participant-head" data-participant="User"><text fill="#000000" font-family="sans-serif" font-size="14" lengthAdjust="spacing" textLength="31.9102" x="5" y="77.9951">User</text><ellipse cx="23.9551" cy="13.5" fill="#E2E2F0" rx="8" ry="8" style="stroke:#181818;stroke-width:0.5;"/><path d="M23.9551,21.5 L23.9551,48.5 M10.9551,29.5 L36.9551,29.5 M23.9551,48.5 L10.9551,63.5 M23.9551,48.5 L36.9551,63.5" fill="none" style="stroke:#181818;stroke-width:0.5;"/></g><g class="participant participant-tail" data-participant="User"><text fill="#000000" font-family="sans-serif" font-size="14" lengthAdjust="spacing" textLength="31.9102" x="5" y="443.6201">User</text><ellipse cx="23.9551" cy="455.4219" fill="#E2E2F0" rx="8" ry="8" style="stroke:#181818;stroke-width:0.5;"/><path d="M23.9551,463.4219 L23.9551,490.4219 M10.9551,471.4219 L36.9551,471.4219 M23.9551,490.4219 L10.9551,505.4219 M23.9551,490.4219 L36.9551,505.4219" fill="none" style="stroke:#181818;stroke-width:0.5;"/></g><g class="participant participant-head" data-participant="ListView"><rect fill="#E2E2F0" height="30.2969" rx="2.5" ry="2.5" style="stroke:#181818;stroke-width:0.5;" width="116.3408" x="133.5211" y="50"/><text fill="#000000" font-family="sans-serif" font-size="14" lengthAdjust="spacing" textLength="102.3408" x="140.5211" y="69.9951">UListViewBase</text></g><g class="participant participant-tail" data-participant="ListView"><rect fill="#E2E2F0" height="30.2969" rx="2.5" ry="2.5" style="stroke:#181818;stroke-width:0.5;" width="116.3408" x="133.5211" y="430.625"/><text fill="#000000" font-family="sans-serif" font-size="14" lengthAdjust="spacing" textLength="102.3408" x="140.5211" y="450.6201">UListViewBase</text></g><g class="participant participant-head" data-participant="WidgetPool"><rect fill="#E2E2F0" height="30.2969" rx="2.5" ry="2.5" style="stroke:#181818;stroke-width:0.5;" width="133.0342" x="361.6329" y="50"/><text fill="#000000" font-family="sans-serif" font-size="14" lengthAdjust="spacing" textLength="119.0342" x="368.6329" y="69.9951">FUserWidgetPool</text></g><g class="participant participant-tail" data-participant="WidgetPool"><rect fill="#E2E2F0" height="30.2969" rx="2.5" ry="2.5" style="stroke:#181818;stroke-width:0.5;" width="133.0342" x="361.6329" y="430.625"/><text fill="#000000" font-family="sans-serif" font-size="14" lengthAdjust="spacing" textLength="119.0342" x="368.6329" y="450.6201">FUserWidgetPool</text></g><g class="participant participant-head" data-participant="EntryWidget"><rect fill="#E2E2F0" height="30.2969" rx="2.5" ry="2.5" style="stroke:#181818;stroke-width:0.5;" width="105.7656" x="504.6671" y="50"/><text fill="#000000" font-family="sans-serif" font-size="14" lengthAdjust="spacing" textLength="91.7656" x="511.6671" y="69.9951">UUserWidget</text></g><g class="participant participant-tail" data-participant="EntryWidget"><rect fill="#E2E2F0" height="30.2969" rx="2.5" ry="2.5" style="stroke:#181818;stroke-width:0.5;" width="105.7656" x="504.6671" y="430.625"/><text fill="#000000" font-family="sans-serif" font-size="14" lengthAdjust="spacing" textLength="91.7656" x="511.6671" y="450.6201">UUserWidget</text></g><g class="participant participant-head" data-participant="SlateView"><rect fill="#E2E2F0" height="30.2969" rx="2.5" ry="2.5" style="stroke:#181818;stroke-width:0.5;" width="170.5566" x="620.4327" y="50"/><text fill="#000000" font-family="sans-serif" font-size="14" lengthAdjust="spacing" textLength="156.5566" x="627.4327" y="69.9951">SListView&lt;ItemType&gt;</text></g><g class="participant participant-tail" data-participant="SlateView"><rect fill="#E2E2F0" height="30.2969" rx="2.5" ry="2.5" style="stroke:#181818;stroke-width:0.5;" width="170.5566" x="620.4327" y="430.625"/><text fill="#000000" font-family="sans-serif" font-size="14" lengthAdjust="spacing" textLength="156.5566" x="627.4327" y="450.6201">SListView&lt;ItemType&gt;</text></g><g><title>UListViewBase</title><rect fill="#FFFFFF" height="301.1953" style="stroke:#181818;stroke-width:1;" width="10" x="186.6915" y="112.4297"/></g><g><title>FUserWidgetPool</title><rect fill="#FFFFFF" height="29.1328" style="stroke:#181818;stroke-width:1;" width="10" x="423.15" y="183.6953"/></g><g><title>UUserWidget</title><rect fill="#FFFFFF" height="171.6641" style="stroke:#181818;stroke-width:1;" width="10" x="552.5499" y="241.9609"/></g><g><title>SListView&lt;ItemType&gt;</title><rect fill="#FFFFFF" height="142.5313" style="stroke:#181818;stroke-width:1;" width="10" x="700.7111" y="271.0938"/></g><g class="message" data-participant-1="User" data-participant-2="ListView"><polygon fill="#181818" points="174.6915,108.4297,184.6915,112.4297,174.6915,116.4297,178.6915,112.4297" style="stroke:#181818;stroke-width:1;"/><line style="stroke:#181818;stroke-width:1;" x1="23.9551" x2="180.6915" y1="112.4297" y2="112.4297"/><text fill="#000000" font-family="sans-serif" font-size="13" lengthAdjust="spacing" textLength="143.7365" x="30.9551" y="107.3638">&#35831;&#27714;&#29983;&#25104;&#26032;&#21015;&#34920;&#39033;(Item)</text></g><g class="message" data-participant-1="ListView" data-participant-2="ListView"><line style="stroke:#181818;stroke-width:1;" x1="196.6915" x2="238.6915" y1="141.5625" y2="141.5625"/><line style="stroke:#181818;stroke-width:1;" x1="238.6915" x2="238.6915" y1="141.5625" y2="154.5625"/><line style="stroke:#181818;stroke-width:1;" x1="197.6915" x2="238.6915" y1="154.5625" y2="154.5625"/><polygon fill="#181818" points="207.6915,150.5625,197.6915,154.5625,207.6915,158.5625,203.6915,154.5625" style="stroke:#181818;stroke-width:1;"/><text fill="#000000" font-family="sans-serif" font-size="13" lengthAdjust="spacing" textLength="202.4585" x="203.6915" y="136.4966">GetDesiredEntryClassForItem()</text></g><g class="message" data-participant-1="ListView" data-participant-2="WidgetPool"><polygon fill="#181818" points="411.15,179.6953,421.15,183.6953,411.15,187.6953,415.15,183.6953" style="stroke:#181818;stroke-width:1;"/><line style="stroke:#181818;stroke-width:1;" x1="196.6915" x2="417.15" y1="183.6953" y2="183.6953"/><text fill="#000000" font-family="sans-serif" font-size="13" lengthAdjust="spacing" textLength="147.6655" x="203.6915" y="178.6294">GetOrCreateInstance()</text></g><g class="message" data-participant-1="WidgetPool" data-participant-2="ListView"><polygon fill="#181818" points="207.6915,208.8281,197.6915,212.8281,207.6915,216.8281,203.6915,212.8281" style="stroke:#181818;stroke-width:1;"/><line style="stroke:#181818;stroke-width:1;stroke-dasharray:2.0,2.0;" x1="201.6915" x2="427.15" y1="212.8281" y2="212.8281"/><text fill="#000000" font-family="sans-serif" font-size="13" lengthAdjust="spacing" textLength="80.6533" x="213.6915" y="207.7622">EntryWidget</text></g><g class="message" data-participant-1="ListView" data-participant-2="EntryWidget"><polygon fill="#181818" points="540.5499,237.9609,550.5499,241.9609,540.5499,245.9609,544.5499,241.9609" style="stroke:#181818;stroke-width:1;"/><line style="stroke:#181818;stroke-width:1;" x1="196.6915" x2="546.5499" y1="241.9609" y2="241.9609"/><text fill="#000000" font-family="sans-serif" font-size="13" lengthAdjust="spacing" textLength="91.0001" x="203.6915" y="236.895">&#21021;&#22987;&#21270;&#25968;&#25454;&#32465;&#23450;</text></g><g class="message" data-participant-1="ListView" data-participant-2="SlateView"><polygon fill="#181818" points="688.7111,267.0938,698.7111,271.0938,688.7111,275.0938,692.7111,271.0938" style="stroke:#181818;stroke-width:1;"/><line style="stroke:#181818;stroke-width:1;" x1="196.6915" x2="694.7111" y1="271.0938" y2="271.0938"/><text fill="#000000" font-family="sans-serif" font-size="13" lengthAdjust="spacing" textLength="94.7261" x="203.6915" y="266.0278">AddItem(Item)</text></g><g class="message" data-participant-1="SlateView" data-participant-2="SlateView"><line style="stroke:#181818;stroke-width:1;" x1="710.7111" x2="752.7111" y1="300.2266" y2="300.2266"/><line style="stroke:#181818;stroke-width:1;" x1="752.7111" x2="752.7111" y1="300.2266" y2="313.2266"/><line style="stroke:#181818;stroke-width:1;" x1="711.7111" x2="752.7111" y1="313.2266" y2="313.2266"/><polygon fill="#181818" points="721.7111,309.2266,711.7111,313.2266,721.7111,317.2266,717.7111,313.2266" style="stroke:#181818;stroke-width:1;"/><text fill="#000000" font-family="sans-serif" font-size="13" lengthAdjust="spacing" textLength="144.3203" x="717.7111" y="295.1606">HandleGenerateRow()</text></g><g class="message" data-participant-1="SlateView" data-participant-2="EntryWidget"><polygon fill="#181818" points="573.5499,338.3594,563.5499,342.3594,573.5499,346.3594,569.5499,342.3594" style="stroke:#181818;stroke-width:1;"/><line style="stroke:#181818;stroke-width:1;" x1="567.5499" x2="699.7111" y1="342.3594" y2="342.3594"/><text fill="#000000" font-family="sans-serif" font-size="13" lengthAdjust="spacing" textLength="78.0001" x="579.5499" y="337.2935">&#35774;&#32622;&#24067;&#23616;&#21442;&#25968;</text></g><g class="message" data-participant-1="ListView" data-participant-2="ListView"><line style="stroke:#181818;stroke-width:1;" x1="196.6915" x2="238.6915" y1="371.4922" y2="371.4922"/><line style="stroke:#181818;stroke-width:1;" x1="238.6915" x2="238.6915" y1="371.4922" y2="384.4922"/><line style="stroke:#181818;stroke-width:1;" x1="197.6915" x2="238.6915" y1="384.4922" y2="384.4922"/><polygon fill="#181818" points="207.6915,380.4922,197.6915,384.4922,207.6915,388.4922,203.6915,384.4922" style="stroke:#181818;stroke-width:1;"/><text fill="#000000" font-family="sans-serif" font-size="13" lengthAdjust="spacing" textLength="148.0274" x="203.6915" y="366.4263">OnEntryGenerated&#20107;&#20214;</text></g><g class="message" data-participant-1="ListView" data-participant-2="User"><polygon fill="#181818" points="34.9551,409.625,24.9551,413.625,34.9551,417.625,30.9551,413.625" style="stroke:#181818;stroke-width:1;"/><line style="stroke:#181818;stroke-width:1;stroke-dasharray:2.0,2.0;" x1="28.9551" x2="190.6915" y1="413.625" y2="413.625"/><text fill="#000000" font-family="sans-serif" font-size="13" lengthAdjust="spacing" textLength="78.0001" x="40.9551" y="408.5591">&#26174;&#31034;&#26032;&#21015;&#34920;&#39033;</text></g><!--SRC=[TP9FIm916CRl-oa6Jthm2qW8PMb2O6JMUTXzYO5jLsQ6n5lOHR2ee2o2226eqwQN_YZvQPnT-nRDJgmx8tcSuVazx_C-CzZcFaKD1jHgOig9JPhOuoZJs26C7n1eRM066OGPIYvCNJb63ubp17pNzrsbJ8zBdgbMwROyJjj_PrDOJsQjLJaSxxURK5H0tSKSL0OhjaBvuY8LAg3vsqSuwaGtJs7tAkmFHVTkFdZz6NnbOvESXMrEJYIVBc8jODEe0dmJ6A7Wg8Gb5pDMzcbiayqPKBhf7rQZ9GfoHjLZ77isPBMnMYiQbZT7wvKuy1zhpDVa4XRTH_7I4-Vzy7OONWJHv5e43sa0tLitMRGgBTOTHwsvL9bMVAfUGhUnvxXG0G-elDppMt9vGso6dGVJw3iGdsTYT2ekEpBoolUeUGfDh9tPk3URl6jgALV_eO32-sdqFDPVtz9xN55lkfvscTZ_0W00]--></g></svg>