<svg xmlns="http://www.w3.org/2000/svg" xmlns:xlink="http://www.w3.org/1999/xlink" contentStyleType="text/css" data-diagram-type="SEQUENCE" height="680px" preserveAspectRatio="none" style="width:786px;height:680px;background:#FFFFFF;" version="1.1" viewBox="0 0 786 680" width="786px" zoomAndPan="magnify"><defs/><g><g><title>UListViewBase</title><rect fill="#FFFFFF" height="478.125" style="stroke:#181818;stroke-width:1;" width="10" x="151.9552" y="112.4297"/></g><g><title>FUserWidgetPool</title><rect fill="#FFFFFF" height="44.2656" style="stroke:#181818;stroke-width:1;" width="10" x="354.7522" y="183.6953"/></g><g><title>Reused UMG</title><rect fill="#FFFFFF" height="179.7969" style="stroke:#181818;stroke-width:1;" width="10" x="485.133" y="257.0938"/></g><g><title>Reused UMG</title><rect fill="#FFFFFF" height="44.2656" style="stroke:#181818;stroke-width:1;" width="10" x="485.133" y="537.2891"/></g><g><title>&#25968;&#25454;&#27169;&#22411;</title><rect fill="#FFFFFF" height="29.1328" style="stroke:#181818;stroke-width:1;" width="10" x="660.2244" y="286.2266"/></g><g><title>User</title><rect fill="#000000" fill-opacity="0.00000" height="518.2578" width="8" x="19.9551" y="81.2969"/><line style="stroke:#181818;stroke-width:0.5;stroke-dasharray:5.0,5.0;" x1="23" x2="23" y1="81.2969" y2="599.5547"/></g><g><title>UListViewBase</title><rect fill="#000000" fill-opacity="0.00000" height="518.2578" width="8" x="152.9552" y="81.2969"/><line style="stroke:#181818;stroke-width:0.5;stroke-dasharray:5.0,5.0;" x1="156.7848" x2="156.7848" y1="81.2969" y2="599.5547"/></g><g><title>FUserWidgetPool</title><rect fill="#000000" fill-opacity="0.00000" height="518.2578" width="8" x="355.7522" y="81.2969"/><line style="stroke:#181818;stroke-width:0.5;stroke-dasharray:5.0,5.0;" x1="359.2351" x2="359.2351" y1="81.2969" y2="599.5547"/></g><g><title>Reused UMG</title><rect fill="#000000" fill-opacity="0.00000" height="518.2578" width="8" x="486.133" y="81.2969"/><line style="stroke:#181818;stroke-width:0.5;stroke-dasharray:5.0,5.0;" x1="489.2693" x2="489.2693" y1="81.2969" y2="599.5547"/></g><g><title>&#25968;&#25454;&#27169;&#22411;</title><rect fill="#000000" fill-opacity="0.00000" height="518.2578" width="8" x="661.2244" y="81.2969"/><line style="stroke:#181818;stroke-width:0.5;stroke-dasharray:5.0,5.0;" x1="664.2245" x2="664.2245" y1="81.2969" y2="599.5547"/></g><g><title>&#26032;&#25968;&#25454;&#39033;</title><rect fill="#000000" fill-opacity="0.00000" height="518.2578" width="8" x="741.2242" y="81.2969"/><line style="stroke:#181818;stroke-width:0.5;stroke-dasharray:5.0,5.0;" x1="744.2243" x2="744.2243" y1="81.2969" y2="599.5547"/></g><g class="participant participant-head" data-participant="User"><text fill="#000000" font-family="sans-serif" font-size="14" lengthAdjust="spacing" textLength="31.9102" x="5" y="77.9951">User</text><ellipse cx="23.9551" cy="13.5" fill="#E2E2F0" rx="8" ry="8" style="stroke:#181818;stroke-width:0.5;"/><path d="M23.9551,21.5 L23.9551,48.5 M10.9551,29.5 L36.9551,29.5 M23.9551,48.5 L10.9551,63.5 M23.9551,48.5 L36.9551,63.5" fill="none" style="stroke:#181818;stroke-width:0.5;"/></g><g class="participant participant-tail" data-participant="User"><text fill="#000000" font-family="sans-serif" font-size="14" lengthAdjust="spacing" textLength="31.9102" x="5" y="611.5498">User</text><ellipse cx="23.9551" cy="623.3516" fill="#E2E2F0" rx="8" ry="8" style="stroke:#181818;stroke-width:0.5;"/><path d="M23.9551,631.3516 L23.9551,658.3516 M10.9551,639.3516 L36.9551,639.3516 M23.9551,658.3516 L10.9551,673.3516 M23.9551,658.3516 L36.9551,673.3516" fill="none" style="stroke:#181818;stroke-width:0.5;"/></g><g class="participant participant-head" data-participant="ListView"><rect fill="#E2E2F0" height="30.2969" rx="2.5" ry="2.5" style="stroke:#181818;stroke-width:0.5;" width="116.3408" x="98.7848" y="50"/><text fill="#000000" font-family="sans-serif" font-size="14" lengthAdjust="spacing" textLength="102.3408" x="105.7848" y="69.9951">UListViewBase</text></g><g class="participant participant-tail" data-participant="ListView"><rect fill="#E2E2F0" height="30.2969" rx="2.5" ry="2.5" style="stroke:#181818;stroke-width:0.5;" width="116.3408" x="98.7848" y="598.5547"/><text fill="#000000" font-family="sans-serif" font-size="14" lengthAdjust="spacing" textLength="102.3408" x="105.7848" y="618.5498">UListViewBase</text></g><g class="participant participant-head" data-participant="WidgetPool"><rect fill="#E2E2F0" height="30.2969" rx="2.5" ry="2.5" style="stroke:#181818;stroke-width:0.5;" width="133.0342" x="293.2351" y="50"/><text fill="#000000" font-family="sans-serif" font-size="14" lengthAdjust="spacing" textLength="119.0342" x="300.2351" y="69.9951">FUserWidgetPool</text></g><g class="participant participant-tail" data-participant="WidgetPool"><rect fill="#E2E2F0" height="30.2969" rx="2.5" ry="2.5" style="stroke:#181818;stroke-width:0.5;" width="133.0342" x="293.2351" y="598.5547"/><text fill="#000000" font-family="sans-serif" font-size="14" lengthAdjust="spacing" textLength="119.0342" x="300.2351" y="618.5498">FUserWidgetPool</text></g><g class="participant participant-head" data-participant="EntryWidget"><rect fill="#E2E2F0" height="46.5938" rx="2.5" ry="2.5" style="stroke:#181818;stroke-width:0.5;" width="107.7275" x="436.2693" y="33.7031"/><text fill="#000000" font-family="sans-serif" font-size="14" lengthAdjust="spacing" textLength="89.6328" x="445.3166" y="53.6982">Reused UMG</text><text fill="#000000" font-family="sans-serif" font-size="14" lengthAdjust="spacing" textLength="93.7275" x="443.2693" y="69.9951">(&#21547;Checkbox)</text></g><g class="participant participant-tail" data-participant="EntryWidget"><rect fill="#E2E2F0" height="46.5938" rx="2.5" ry="2.5" style="stroke:#181818;stroke-width:0.5;" width="107.7275" x="436.2693" y="598.5547"/><text fill="#000000" font-family="sans-serif" font-size="14" lengthAdjust="spacing" textLength="89.6328" x="445.3166" y="618.5498">Reused UMG</text><text fill="#000000" font-family="sans-serif" font-size="14" lengthAdjust="spacing" textLength="93.7275" x="443.2693" y="634.8467">(&#21547;Checkbox)</text></g><g class="participant participant-head" data-participant="DataModel"><rect fill="#E2E2F0" height="30.2969" rx="2.5" ry="2.5" style="stroke:#181818;stroke-width:0.5;" width="69.9998" x="630.2245" y="50"/><text fill="#000000" font-family="sans-serif" font-size="14" lengthAdjust="spacing" textLength="55.9998" x="637.2245" y="69.9951">&#25968;&#25454;&#27169;&#22411;</text></g><g class="participant participant-tail" data-participant="DataModel"><rect fill="#E2E2F0" height="30.2969" rx="2.5" ry="2.5" style="stroke:#181818;stroke-width:0.5;" width="69.9998" x="630.2245" y="598.5547"/><text fill="#000000" font-family="sans-serif" font-size="14" lengthAdjust="spacing" textLength="55.9998" x="637.2245" y="618.5498">&#25968;&#25454;&#27169;&#22411;</text></g><g class="participant participant-head" data-participant="NewItem"><rect fill="#E2E2F0" height="30.2969" rx="2.5" ry="2.5" style="stroke:#181818;stroke-width:0.5;" width="69.9998" x="710.2243" y="50"/><text fill="#000000" font-family="sans-serif" font-size="14" lengthAdjust="spacing" textLength="55.9998" x="717.2243" y="69.9951">&#26032;&#25968;&#25454;&#39033;</text></g><g class="participant participant-tail" data-participant="NewItem"><rect fill="#E2E2F0" height="30.2969" rx="2.5" ry="2.5" style="stroke:#181818;stroke-width:0.5;" width="69.9998" x="710.2243" y="598.5547"/><text fill="#000000" font-family="sans-serif" font-size="14" lengthAdjust="spacing" textLength="55.9998" x="717.2243" y="618.5498">&#26032;&#25968;&#25454;&#39033;</text></g><g><title>UListViewBase</title><rect fill="#FFFFFF" height="478.125" style="stroke:#181818;stroke-width:1;" width="10" x="151.9552" y="112.4297"/></g><g><title>FUserWidgetPool</title><rect fill="#FFFFFF" height="44.2656" style="stroke:#181818;stroke-width:1;" width="10" x="354.7522" y="183.6953"/></g><g><title>Reused UMG</title><rect fill="#FFFFFF" height="179.7969" style="stroke:#181818;stroke-width:1;" width="10" x="485.133" y="257.0938"/></g><g><title>Reused UMG</title><rect fill="#FFFFFF" height="44.2656" style="stroke:#181818;stroke-width:1;" width="10" x="485.133" y="537.2891"/></g><g><title>&#25968;&#25454;&#27169;&#22411;</title><rect fill="#FFFFFF" height="29.1328" style="stroke:#181818;stroke-width:1;" width="10" x="660.2244" y="286.2266"/></g><g class="message" data-participant-1="User" data-participant-2="ListView"><polygon fill="#181818" points="139.9552,108.4297,149.9552,112.4297,139.9552,116.4297,143.9552,112.4297" style="stroke:#181818;stroke-width:1;"/><line style="stroke:#181818;stroke-width:1;" x1="23.9551" x2="145.9552" y1="112.4297" y2="112.4297"/><text fill="#000000" font-family="sans-serif" font-size="13" lengthAdjust="spacing" textLength="78.0001" x="30.9551" y="107.3638">&#19979;&#25289;&#28378;&#21160;&#21015;&#34920;</text></g><g class="message" data-participant-1="ListView" data-participant-2="ListView"><line style="stroke:#181818;stroke-width:1;" x1="161.9552" x2="203.9552" y1="141.5625" y2="141.5625"/><line style="stroke:#181818;stroke-width:1;" x1="203.9552" x2="203.9552" y1="141.5625" y2="154.5625"/><line style="stroke:#181818;stroke-width:1;" x1="162.9552" x2="203.9552" y1="154.5625" y2="154.5625"/><polygon fill="#181818" points="172.9552,150.5625,162.9552,154.5625,172.9552,158.5625,168.9552,154.5625" style="stroke:#181818;stroke-width:1;"/><text fill="#000000" font-family="sans-serif" font-size="13" lengthAdjust="spacing" textLength="91.0001" x="168.9552" y="136.4966">&#38656;&#35201;&#21152;&#36733;&#26032;&#26465;&#30446;</text></g><g class="message" data-participant-1="ListView" data-participant-2="WidgetPool"><polygon fill="#181818" points="342.7522,179.6953,352.7522,183.6953,342.7522,187.6953,346.7522,183.6953" style="stroke:#181818;stroke-width:1;"/><line style="stroke:#181818;stroke-width:1;" x1="161.9552" x2="348.7522" y1="183.6953" y2="183.6953"/><text fill="#000000" font-family="sans-serif" font-size="13" lengthAdjust="spacing" textLength="147.6655" x="168.9552" y="178.6294">GetOrCreateInstance()</text></g><g class="message" data-participant-1="WidgetPool" data-participant-2="ListView"><polygon fill="#181818" points="172.9552,223.9609,162.9552,227.9609,172.9552,231.9609,168.9552,227.9609" style="stroke:#181818;stroke-width:1;"/><line style="stroke:#181818;stroke-width:1;stroke-dasharray:2.0,2.0;" x1="166.9552" x2="358.7522" y1="227.9609" y2="227.9609"/><text fill="#000000" font-family="sans-serif" font-size="13" lengthAdjust="spacing" textLength="104.0001" x="178.9552" y="207.7622">&#36820;&#22238;&#22797;&#29992;&#25511;&#20214;&#23454;&#20363;</text><text fill="#000000" font-family="sans-serif" font-size="13" lengthAdjust="spacing" textLength="168.797" x="178.9552" y="222.895">(&#19978;&#27425;&#20351;&#29992;&#36807;&#30340;EntryWidget)</text></g><g class="message" data-participant-1="ListView" data-participant-2="EntryWidget"><polygon fill="#181818" points="473.133,253.0938,483.133,257.0938,473.133,261.0938,477.133,257.0938" style="stroke:#181818;stroke-width:1;"/><line style="stroke:#181818;stroke-width:1;" x1="161.9552" x2="479.133" y1="257.0938" y2="257.0938"/><text fill="#000000" font-family="sans-serif" font-size="13" lengthAdjust="spacing" textLength="125.1377" x="168.9552" y="252.0278">&#35843;&#29992;InitializeEntry()</text></g><g class="message" data-participant-1="EntryWidget" data-participant-2="DataModel"><polygon fill="#181818" points="648.2244,282.2266,658.2244,286.2266,648.2244,290.2266,652.2244,286.2266" style="stroke:#181818;stroke-width:1;"/><line style="stroke:#181818;stroke-width:1;" x1="495.133" x2="654.2244" y1="286.2266" y2="286.2266"/><text fill="#000000" font-family="sans-serif" font-size="13" lengthAdjust="spacing" textLength="146.0914" x="502.133" y="281.1606">&#32465;&#23450;&#26032;&#25968;&#25454;&#39033;(NewItem)</text></g><g class="message" data-participant-1="DataModel" data-participant-2="EntryWidget"><polygon fill="#181818" points="506.133,311.3594,496.133,315.3594,506.133,319.3594,502.133,315.3594" style="stroke:#181818;stroke-width:1;"/><line style="stroke:#181818;stroke-width:1;stroke-dasharray:2.0,2.0;" x1="500.133" x2="664.2244" y1="315.3594" y2="315.3594"/><text fill="#000000" font-family="sans-serif" font-size="13" lengthAdjust="spacing" textLength="65.0001" x="512.133" y="310.2935">&#26032;&#25968;&#25454;&#23646;&#24615;</text></g><path d="M447,328.3594 L447,353.3594 L533,353.3594 L533,338.3594 L523,328.3594 L447,328.3594" fill="#FEFFDD" style="stroke:#181818;stroke-width:0.5;"/><path d="M523,328.3594 L523,338.3594 L533,338.3594 L523,328.3594" fill="#FEFFDD" style="stroke:#181818;stroke-width:0.5;"/><text fill="#000000" font-family="sans-serif" font-size="13" lengthAdjust="spacing" textLength="65.0001" x="453" y="345.4263">&#38382;&#39064;&#21457;&#29983;&#28857;</text><g class="message" data-participant-1="EntryWidget" data-participant-2="EntryWidget"><line style="stroke:#181818;stroke-width:1;" x1="495.133" x2="537.133" y1="394.7578" y2="394.7578"/><line style="stroke:#181818;stroke-width:1;" x1="537.133" x2="537.133" y1="394.7578" y2="407.7578"/><line style="stroke:#181818;stroke-width:1;" x1="496.133" x2="537.133" y1="407.7578" y2="407.7578"/><polygon fill="#181818" points="506.133,403.7578,496.133,407.7578,506.133,411.7578,502.133,407.7578" style="stroke:#181818;stroke-width:1;"/><text fill="#000000" font-family="sans-serif" font-size="13" lengthAdjust="spacing" textLength="91.0001" x="502.133" y="374.5591">&#20165;&#26356;&#26032;&#25991;&#26412;&#20869;&#23481;</text><text fill="#000000" font-family="sans-serif" font-size="13" lengthAdjust="spacing" textLength="128.8892" x="502.133" y="389.6919">&#26410;&#37325;&#32622;Checkbox&#29366;&#24577;</text></g><g class="message" data-participant-1="EntryWidget" data-participant-2="ListView"><polygon fill="#181818" points="172.9552,432.8906,162.9552,436.8906,172.9552,440.8906,168.9552,436.8906" style="stroke:#181818;stroke-width:1;"/><line style="stroke:#181818;stroke-width:1;stroke-dasharray:2.0,2.0;" x1="166.9552" x2="489.133" y1="436.8906" y2="436.8906"/><text fill="#000000" font-family="sans-serif" font-size="13" lengthAdjust="spacing" textLength="104.0001" x="178.9552" y="431.8247">&#36820;&#22238;&#22797;&#29992;&#21518;&#30340;&#25511;&#20214;</text></g><g class="message" data-participant-1="ListView" data-participant-2="ListView"><line style="stroke:#181818;stroke-width:1;" x1="161.9552" x2="203.9552" y1="466.0234" y2="466.0234"/><line style="stroke:#181818;stroke-width:1;" x1="203.9552" x2="203.9552" y1="466.0234" y2="479.0234"/><line style="stroke:#181818;stroke-width:1;" x1="162.9552" x2="203.9552" y1="479.0234" y2="479.0234"/><polygon fill="#181818" points="172.9552,475.0234,162.9552,479.0234,172.9552,483.0234,168.9552,479.0234" style="stroke:#181818;stroke-width:1;"/><text fill="#000000" font-family="sans-serif" font-size="13" lengthAdjust="spacing" textLength="91.0001" x="168.9552" y="460.9575">&#28155;&#21152;&#33267;&#21487;&#35270;&#21306;&#22495;</text></g><g class="message" data-participant-1="ListView" data-participant-2="User"><polygon fill="#181818" points="34.9551,504.1563,24.9551,508.1563,34.9551,512.1563,30.9551,508.1563" style="stroke:#181818;stroke-width:1;"/><line style="stroke:#181818;stroke-width:1;stroke-dasharray:2.0,2.0;" x1="28.9551" x2="150.9552" y1="508.1563" y2="508.1563"/><text fill="#000000" font-family="sans-serif" font-size="13" lengthAdjust="spacing" textLength="104.0001" x="40.9551" y="503.0903">&#26174;&#31034;&#22797;&#29992;&#21518;&#30340;&#25511;&#20214;</text></g><g class="message" data-participant-1="User" data-participant-2="EntryWidget"><polygon fill="#181818" points="473.133,533.2891,483.133,537.2891,473.133,541.2891,477.133,537.2891" style="stroke:#181818;stroke-width:1;"/><line style="stroke:#181818;stroke-width:1;" x1="23.9551" x2="479.133" y1="537.2891" y2="537.2891"/><text fill="#000000" font-family="sans-serif" font-size="13" lengthAdjust="spacing" textLength="115.8892" x="30.9551" y="532.2231">&#35266;&#23519;Checkbox&#29366;&#24577;</text></g><g class="message" data-participant-1="EntryWidget" data-participant-2="User"><polygon fill="#181818" points="34.9551,577.5547,24.9551,581.5547,34.9551,585.5547,30.9551,581.5547" style="stroke:#181818;stroke-width:1;"/><line style="stroke:#181818;stroke-width:1;stroke-dasharray:2.0,2.0;" x1="28.9551" x2="489.133" y1="581.5547" y2="581.5547"/><text fill="#000000" font-family="sans-serif" font-size="13" lengthAdjust="spacing" textLength="104.0001" x="40.9551" y="561.356">&#26174;&#31034;&#19978;&#27425;&#36873;&#20013;&#29366;&#24577;</text><text fill="#000000" font-family="sans-serif" font-size="13" lengthAdjust="spacing" textLength="140.1437" x="40.9551" y="576.4888">(&#19982;&#26032;&#25968;&#25454;&#23454;&#38469;&#29366;&#24577;&#19981;&#31526;)</text></g><!--SRC=[TLFDRjD04BxxAQoUaaDUW0C72bIHA22amAMNnLbHYzQkxAK5JcaX3Kr8sagXFqbmCAgQ288R12f9hJGlurtRRy7QflQkIOxh-NvcvXi32QcQMD2X9cm03ScIl04K92uK7iWwUYh3hJj0XmiYqCMR3ppkVa1z9XTVGFHOLTT2PFBaiK_WAnqMnSBoqegImGVV5rUXzFAv-ZeRikufI7iJKNaQ-JGaTOlqJMpKGkHTWC2oMeGfUN8qZA2-EGvn3-5M7i5rGGXw57Etun74Mw8pgf7Q7h5RkDh77uuzioy02ScR0C5aKY4cy6I_K_BEjt7rYpUP1AwVJRTjSU1a1HI-1D4ZRL63L3klw0We4ina4pjcNGB3o_6UthI9smO-gxlDFcdq7FiIMuPpNQEhT4PLCZ2ToPIMl6d5RRrdTfaLYd2c5TikWm-iXk-eKbwHaGpMvBSmhB8Tir49B9TAnU5G8TS-n5QBpINpBnD6B4apeUR-woaMmJyDKkgnGoK2WgBIjxf9qsRODAzZo_zwWlSFtMRNtHcdM-QT7BjCshy3lwCAwGpmRXbRunM5TBxvbRexiMwkrgrUaj8shpK_CdpGeBb4mR7DSwkSSsxaZntSMkKNth_mUhluunNkTXamHOSNJf4dr-xPrGp7-1T89TtRmHVTr4GpUqkFoHb61-YNzfpHZqWalCf64ffb-AVbgEICwkxWF3jd2Ny1]--></g></svg>