<svg xmlns="http://www.w3.org/2000/svg" xmlns:xlink="http://www.w3.org/1999/xlink" contentStyleType="text/css" data-diagram-type="SEQUENCE" height="841px" preserveAspectRatio="none" style="width:1297px;height:841px;background:#FFFFFF;" version="1.1" viewBox="0 0 1297 841" width="1297px" zoomAndPan="magnify"><defs/><g><g><title>Editor</title><rect fill="#000000" fill-opacity="0.00000" height="679.5234" width="8" x="24.7163" y="81.2969"/><line style="stroke:#181818;stroke-width:0.5;stroke-dasharray:5.0,5.0;" x1="28" x2="28" y1="81.2969" y2="760.8203"/></g><g><title>1. PluginModule</title><rect fill="#000000" fill-opacity="0.00000" height="679.5234" width="8" x="170.166" y="81.2969"/><line style="stroke:#181818;stroke-width:0.5;stroke-dasharray:5.0,5.0;" x1="173.3813" x2="173.3813" y1="81.2969" y2="760.8203"/></g><g><title>2. StyleSet (Slate)</title><rect fill="#000000" fill-opacity="0.00000" height="679.5234" width="8" x="381.1427" y="81.2969"/><line style="stroke:#181818;stroke-width:0.5;stroke-dasharray:5.0,5.0;" x1="384.7462" x2="384.7462" y1="81.2969" y2="760.8203"/></g><g><title>3. Commands</title><rect fill="#000000" fill-opacity="0.00000" height="679.5234" width="8" x="676.3756" y="81.2969"/><line style="stroke:#181818;stroke-width:0.5;stroke-dasharray:5.0,5.0;" x1="679.8473" x2="679.8473" y1="81.2969" y2="760.8203"/></g><g><title>4. ToolMenus</title><rect fill="#000000" fill-opacity="0.00000" height="679.5234" width="8" x="849.7273" y="81.2969"/><line style="stroke:#181818;stroke-width:0.5;stroke-dasharray:5.0,5.0;" x1="853.1711" x2="853.1711" y1="81.2969" y2="760.8203"/></g><g><title>5. UI (Toolbar/Menu)</title><rect fill="#000000" fill-opacity="0.00000" height="679.5234" width="8" x="1202.8509" y="81.2969"/><line style="stroke:#181818;stroke-width:0.5;stroke-dasharray:5.0,5.0;" x1="1206.0975" x2="1206.0975" y1="81.2969" y2="760.8203"/></g><g class="participant participant-head" data-participant="Editor"><text fill="#000000" font-family="sans-serif" font-size="14" lengthAdjust="spacing" textLength="41.4326" x="5" y="77.9951">Editor</text><ellipse cx="28.7163" cy="13.5" fill="#E2E2F0" rx="8" ry="8" style="stroke:#181818;stroke-width:0.5;"/><path d="M28.7163,21.5 L28.7163,48.5 M15.7163,29.5 L41.7163,29.5 M28.7163,48.5 L15.7163,63.5 M28.7163,48.5 L41.7163,63.5" fill="none" style="stroke:#181818;stroke-width:0.5;"/></g><g class="participant participant-tail" data-participant="Editor"><text fill="#000000" font-family="sans-serif" font-size="14" lengthAdjust="spacing" textLength="41.4326" x="5" y="772.8154">Editor</text><ellipse cx="28.7163" cy="784.6172" fill="#E2E2F0" rx="8" ry="8" style="stroke:#181818;stroke-width:0.5;"/><path d="M28.7163,792.6172 L28.7163,819.6172 M15.7163,800.6172 L41.7163,800.6172 M28.7163,819.6172 L15.7163,834.6172 M28.7163,819.6172 L41.7163,834.6172" fill="none" style="stroke:#181818;stroke-width:0.5;"/></g><g class="participant participant-head" data-participant="Module"><rect fill="#E2E2F0" height="30.2969" rx="2.5" ry="2.5" style="stroke:#181818;stroke-width:0.5;" width="125.5693" x="111.3813" y="50"/><text fill="#000000" font-family="sans-serif" font-size="14" lengthAdjust="spacing" textLength="111.5693" x="118.3813" y="69.9951">1. PluginModule</text></g><g class="participant participant-tail" data-participant="Module"><rect fill="#E2E2F0" height="30.2969" rx="2.5" ry="2.5" style="stroke:#181818;stroke-width:0.5;" width="125.5693" x="111.3813" y="759.8203"/><text fill="#000000" font-family="sans-serif" font-size="14" lengthAdjust="spacing" textLength="111.5693" x="118.3813" y="779.8154">1. PluginModule</text></g><g class="participant participant-head" data-participant="Style"><rect fill="#E2E2F0" height="30.2969" rx="2.5" ry="2.5" style="stroke:#181818;stroke-width:0.5;" width="140.793" x="314.7462" y="50"/><text fill="#000000" font-family="sans-serif" font-size="14" lengthAdjust="spacing" textLength="126.793" x="321.7462" y="69.9951">2. StyleSet (Slate)</text></g><g class="participant participant-tail" data-participant="Style"><rect fill="#E2E2F0" height="30.2969" rx="2.5" ry="2.5" style="stroke:#181818;stroke-width:0.5;" width="140.793" x="314.7462" y="759.8203"/><text fill="#000000" font-family="sans-serif" font-size="14" lengthAdjust="spacing" textLength="126.793" x="321.7462" y="779.8154">2. StyleSet (Slate)</text></g><g class="participant participant-head" data-participant="Commands"><rect fill="#E2E2F0" height="30.2969" rx="2.5" ry="2.5" style="stroke:#181818;stroke-width:0.5;" width="111.0566" x="624.8473" y="50"/><text fill="#000000" font-family="sans-serif" font-size="14" lengthAdjust="spacing" textLength="97.0566" x="631.8473" y="69.9951">3. Commands</text></g><g class="participant participant-tail" data-participant="Commands"><rect fill="#E2E2F0" height="30.2969" rx="2.5" ry="2.5" style="stroke:#181818;stroke-width:0.5;" width="111.0566" x="624.8473" y="759.8203"/><text fill="#000000" font-family="sans-serif" font-size="14" lengthAdjust="spacing" textLength="97.0566" x="631.8473" y="779.8154">3. Commands</text></g><g class="participant participant-head" data-participant="Menus"><rect fill="#E2E2F0" height="30.2969" rx="2.5" ry="2.5" style="stroke:#181818;stroke-width:0.5;" width="107.1123" x="800.1711" y="50"/><text fill="#000000" font-family="sans-serif" font-size="14" lengthAdjust="spacing" textLength="93.1123" x="807.1711" y="69.9951">4. ToolMenus</text></g><g class="participant participant-tail" data-participant="Menus"><rect fill="#E2E2F0" height="30.2969" rx="2.5" ry="2.5" style="stroke:#181818;stroke-width:0.5;" width="107.1123" x="800.1711" y="759.8203"/><text fill="#000000" font-family="sans-serif" font-size="14" lengthAdjust="spacing" textLength="93.1123" x="807.1711" y="779.8154">4. ToolMenus</text></g><g class="participant participant-head" data-participant="UI"><rect fill="#E2E2F0" height="30.2969" rx="2.5" ry="2.5" style="stroke:#181818;stroke-width:0.5;" width="157.5068" x="1128.0975" y="50"/><text fill="#000000" font-family="sans-serif" font-size="14" lengthAdjust="spacing" textLength="143.5068" x="1135.0975" y="69.9951">5. UI (Toolbar/Menu)</text></g><g class="participant participant-tail" data-participant="UI"><rect fill="#E2E2F0" height="30.2969" rx="2.5" ry="2.5" style="stroke:#181818;stroke-width:0.5;" width="157.5068" x="1128.0975" y="759.8203"/><text fill="#000000" font-family="sans-serif" font-size="14" lengthAdjust="spacing" textLength="143.5068" x="1135.0975" y="779.8154">5. UI (Toolbar/Menu)</text></g><rect fill="#EEEEEE" height="3" style="stroke:#EEEEEE;stroke-width:1;" width="1290.6043" x="0" y="111.8633"/><line style="stroke:#000000;stroke-width:1;" x1="0" x2="1290.6043" y1="111.8633" y2="111.8633"/><line style="stroke:#000000;stroke-width:1;" x1="0" x2="1290.6043" y1="114.8633" y2="114.8633"/><rect fill="#EEEEEE" height="23.1328" style="stroke:#000000;stroke-width:2;" width="109.526" x="590.5392" y="101.2969"/><text fill="#000000" font-family="sans-serif" font-size="13" font-weight="bold" lengthAdjust="spacing" textLength="91.0001" x="596.5392" y="117.3638">&#25554;&#20214;&#27169;&#22359;&#21021;&#22987;&#21270;</text><g class="message" data-participant-1="Editor" data-participant-2="Module"><polygon fill="#181818" points="162.166,151.5625,172.166,155.5625,162.166,159.5625,166.166,155.5625" style="stroke:#181818;stroke-width:1;"/><line style="stroke:#181818;stroke-width:1;" x1="28.7163" x2="168.166" y1="155.5625" y2="155.5625"/><text fill="#000000" font-family="sans-serif" font-size="13" lengthAdjust="spacing" textLength="121.4497" x="35.7163" y="150.4966">&#9312; StartupModule()</text></g><g class="message" data-participant-1="Module" data-participant-2="Style"><polygon fill="#181818" points="373.1427,180.6953,383.1427,184.6953,373.1427,188.6953,377.1427,184.6953" style="stroke:#181818;stroke-width:1;"/><line style="stroke:#181818;stroke-width:1;" x1="174.166" x2="379.1427" y1="184.6953" y2="184.6953"/><text fill="#000000" font-family="sans-serif" font-size="13" lengthAdjust="spacing" textLength="186.9767" x="181.166" y="179.6294">&#9313; &#21021;&#22987;&#21270; Slate &#26679;&#24335;&#65288;&#22270;&#26631;&#31561;&#65289;</text></g><g class="message" data-participant-1="Style" data-participant-2="Style"><line style="stroke:#181818;stroke-width:1;" x1="385.1427" x2="427.1427" y1="213.8281" y2="213.8281"/><line style="stroke:#181818;stroke-width:1;" x1="427.1427" x2="427.1427" y1="213.8281" y2="226.8281"/><line style="stroke:#181818;stroke-width:1;" x1="386.1427" x2="427.1427" y1="226.8281" y2="226.8281"/><polygon fill="#181818" points="396.1427,222.8281,386.1427,226.8281,396.1427,230.8281,392.1427,226.8281" style="stroke:#181818;stroke-width:1;"/><text fill="#000000" font-family="sans-serif" font-size="13" lengthAdjust="spacing" textLength="281.2329" x="392.1427" y="208.7622">&#9314; FSlateStyleRegistry::RegisterSlateStyle()</text></g><g class="message" data-participant-1="Module" data-participant-2="Commands"><polygon fill="#181818" points="668.3756,251.9609,678.3756,255.9609,668.3756,259.9609,672.3756,255.9609" style="stroke:#181818;stroke-width:1;"/><line style="stroke:#181818;stroke-width:1;" x1="174.166" x2="674.3756" y1="255.9609" y2="255.9609"/><text fill="#000000" font-family="sans-serif" font-size="13" lengthAdjust="spacing" textLength="287.8535" x="181.166" y="250.895">&#9315; FDataSystemEditorCommands::Register()</text></g><g class="message" data-participant-1="Commands" data-participant-2="Commands"><line style="stroke:#181818;stroke-width:1;" x1="680.3756" x2="722.3756" y1="300.2266" y2="300.2266"/><line style="stroke:#181818;stroke-width:1;" x1="722.3756" x2="722.3756" y1="300.2266" y2="313.2266"/><line style="stroke:#181818;stroke-width:1;" x1="681.3756" x2="722.3756" y1="313.2266" y2="313.2266"/><polygon fill="#181818" points="691.3756,309.2266,681.3756,313.2266,691.3756,317.2266,687.3756,313.2266" style="stroke:#181818;stroke-width:1;"/><text fill="#000000" font-family="sans-serif" font-size="13" lengthAdjust="spacing" textLength="153.626" x="687.3756" y="280.0278">&#9316; RegisterCommands()</text><text fill="#000000" font-family="sans-serif" font-size="13" lengthAdjust="spacing" textLength="159.3516" x="687.3756" y="295.1606">UI_COMMAND &#23439;&#27880;&#20876;&#21629;&#20196;</text></g><rect fill="#EEEEEE" height="3" style="stroke:#EEEEEE;stroke-width:1;" width="1290.6043" x="0" y="341.793"/><line style="stroke:#000000;stroke-width:1;" x1="0" x2="1290.6043" y1="341.793" y2="341.793"/><line style="stroke:#000000;stroke-width:1;" x1="0" x2="1290.6043" y1="344.793" y2="344.793"/><rect fill="#EEEEEE" height="23.1328" style="stroke:#000000;stroke-width:2;" width="122.526" x="584.0391" y="331.2266"/><text fill="#000000" font-family="sans-serif" font-size="13" font-weight="bold" lengthAdjust="spacing" textLength="104.0001" x="590.0391" y="347.2935">&#33756;&#21333;&#21644;&#24037;&#20855;&#26639;&#25193;&#23637;</text><g class="message" data-participant-1="Module" data-participant-2="Menus"><polygon fill="#181818" points="841.7273,381.4922,851.7273,385.4922,841.7273,389.4922,845.7273,385.4922" style="stroke:#181818;stroke-width:1;"/><line style="stroke:#181818;stroke-width:1;" x1="174.166" x2="847.7273" y1="385.4922" y2="385.4922"/><text fill="#000000" font-family="sans-serif" font-size="13" lengthAdjust="spacing" textLength="137.2998" x="181.166" y="380.4263">&#9317; UToolMenus::Get()</text></g><g class="message" data-participant-1="Module" data-participant-2="Menus"><polygon fill="#181818" points="841.7273,410.625,851.7273,414.625,841.7273,418.625,845.7273,414.625" style="stroke:#181818;stroke-width:1;"/><line style="stroke:#181818;stroke-width:1;" x1="174.166" x2="847.7273" y1="414.625" y2="414.625"/><text fill="#000000" font-family="sans-serif" font-size="13" lengthAdjust="spacing" textLength="262.9517" x="181.166" y="409.5591">&#9318; ExtendMenu("LevelEditor.MainMenu")</text></g><g class="message" data-participant-1="Menus" data-participant-2="Menus"><line style="stroke:#181818;stroke-width:1;" x1="853.7273" x2="895.7273" y1="443.7578" y2="443.7578"/><line style="stroke:#181818;stroke-width:1;" x1="895.7273" x2="895.7273" y1="443.7578" y2="456.7578"/><line style="stroke:#181818;stroke-width:1;" x1="854.7273" x2="895.7273" y1="456.7578" y2="456.7578"/><polygon fill="#181818" points="864.7273,452.7578,854.7273,456.7578,864.7273,460.7578,860.7273,456.7578" style="stroke:#181818;stroke-width:1;"/><text fill="#000000" font-family="sans-serif" font-size="13" lengthAdjust="spacing" textLength="213.4463" x="860.7273" y="438.6919">&#9319; FindOrAddSection("MyPlugin")</text></g><g class="message" data-participant-1="Menus" data-participant-2="Menus"><line style="stroke:#181818;stroke-width:1;" x1="853.7273" x2="895.7273" y1="485.8906" y2="485.8906"/><line style="stroke:#181818;stroke-width:1;" x1="895.7273" x2="895.7273" y1="485.8906" y2="498.8906"/><line style="stroke:#181818;stroke-width:1;" x1="854.7273" x2="895.7273" y1="498.8906" y2="498.8906"/><polygon fill="#181818" points="864.7273,494.8906,854.7273,498.8906,864.7273,502.8906,860.7273,498.8906" style="stroke:#181818;stroke-width:1;"/><text fill="#000000" font-family="sans-serif" font-size="13" lengthAdjust="spacing" textLength="314.8247" x="860.7273" y="480.8247">&#9320; AddMenuEntry(&#20351;&#29992; Commands::PluginAction)</text></g><g class="message" data-participant-1="Module" data-participant-2="Menus"><polygon fill="#181818" points="841.7273,524.0234,851.7273,528.0234,841.7273,532.0234,845.7273,528.0234" style="stroke:#181818;stroke-width:1;"/><line style="stroke:#181818;stroke-width:1;" x1="174.166" x2="847.7273" y1="528.0234" y2="528.0234"/><text fill="#000000" font-family="sans-serif" font-size="13" lengthAdjust="spacing" textLength="425.4072" x="181.166" y="522.9575">&#9321; ExtendMenu("LevelEditor.LevelEditorToolBar.SettingsToolbar")</text></g><g class="message" data-participant-1="Menus" data-participant-2="Menus"><line style="stroke:#181818;stroke-width:1;" x1="853.7273" x2="895.7273" y1="557.1563" y2="557.1563"/><line style="stroke:#181818;stroke-width:1;" x1="895.7273" x2="895.7273" y1="557.1563" y2="570.1563"/><line style="stroke:#181818;stroke-width:1;" x1="854.7273" x2="895.7273" y1="570.1563" y2="570.1563"/><polygon fill="#181818" points="864.7273,566.1563,854.7273,570.1563,864.7273,574.1563,860.7273,570.1563" style="stroke:#181818;stroke-width:1;"/><text fill="#000000" font-family="sans-serif" font-size="13" lengthAdjust="spacing" textLength="240.1255" x="860.7273" y="552.0903">&#9322; FindOrAddSection("CustomTools")</text></g><g class="message" data-participant-1="Menus" data-participant-2="Menus"><line style="stroke:#181818;stroke-width:1;" x1="853.7273" x2="895.7273" y1="599.2891" y2="599.2891"/><line style="stroke:#181818;stroke-width:1;" x1="895.7273" x2="895.7273" y1="599.2891" y2="612.2891"/><line style="stroke:#181818;stroke-width:1;" x1="854.7273" x2="895.7273" y1="612.2891" y2="612.2891"/><polygon fill="#181818" points="864.7273,608.2891,854.7273,612.2891,864.7273,616.2891,860.7273,612.2891" style="stroke:#181818;stroke-width:1;"/><text fill="#000000" font-family="sans-serif" font-size="13" lengthAdjust="spacing" textLength="339.1236" x="860.7273" y="594.2231">&#9323; AddToolBarButton(&#20351;&#29992; Commands::PluginAction)</text></g><rect fill="#EEEEEE" height="3" style="stroke:#EEEEEE;stroke-width:1;" width="1290.6043" x="0" y="640.8555"/><line style="stroke:#000000;stroke-width:1;" x1="0" x2="1290.6043" y1="640.8555" y2="640.8555"/><line style="stroke:#000000;stroke-width:1;" x1="0" x2="1290.6043" y1="643.8555" y2="643.8555"/><rect fill="#EEEEEE" height="23.1328" style="stroke:#000000;stroke-width:2;" width="70.5259" x="610.0392" y="630.2891"/><text fill="#000000" font-family="sans-serif" font-size="13" font-weight="bold" lengthAdjust="spacing" textLength="52.0001" x="616.0392" y="646.356">&#29992;&#25143;&#20132;&#20114;</text><g class="message" data-participant-1="Editor" data-participant-2="UI"><polygon fill="#181818" points="1194.8509,680.5547,1204.8509,684.5547,1194.8509,688.5547,1198.8509,684.5547" style="stroke:#181818;stroke-width:1;"/><line style="stroke:#181818;stroke-width:1;" x1="28.7163" x2="1200.8509" y1="684.5547" y2="684.5547"/><text fill="#000000" font-family="sans-serif" font-size="13" lengthAdjust="spacing" textLength="186.1325" x="35.7163" y="679.4888">&#9324; &#29992;&#25143;&#28857;&#20987;&#33756;&#21333;&#39033;&#25110;&#24037;&#20855;&#26639;&#25353;&#38062;</text></g><g class="message" data-participant-1="UI" data-participant-2="Commands"><polygon fill="#181818" points="691.3756,709.6875,681.3756,713.6875,691.3756,717.6875,687.3756,713.6875" style="stroke:#181818;stroke-width:1;"/><line style="stroke:#181818;stroke-width:1;" x1="685.3756" x2="1205.8509" y1="713.6875" y2="713.6875"/><text fill="#000000" font-family="sans-serif" font-size="13" lengthAdjust="spacing" textLength="187.0719" x="697.3756" y="708.6216">&#9325; &#35302;&#21457;&#32465;&#23450;&#30340; FExecuteAction</text></g><g class="message" data-participant-1="Commands" data-participant-2="Module"><polygon fill="#181818" points="185.166,738.8203,175.166,742.8203,185.166,746.8203,181.166,742.8203" style="stroke:#181818;stroke-width:1;"/><line style="stroke:#181818;stroke-width:1;" x1="179.166" x2="679.3756" y1="742.8203" y2="742.8203"/><text fill="#000000" font-family="sans-serif" font-size="13" lengthAdjust="spacing" textLength="251.1326" x="191.166" y="737.7544">&#9326; &#25191;&#34892;&#22238;&#35843;&#25805;&#20316;&#65288;&#22914;&#25171;&#24320;&#31383;&#21475;&#12289;&#36755;&#20986;&#26085;&#24535;&#65289;</text></g><!--SRC=[XLDRQnf157xVNt7mQNtebjvU10l6Q15gKsfzAvIjEuG5tPLrjiItDBr4gM7HD15oATh4Iz96MWgLH9FybzOPpLF-GcTdD6Q3fKzxziptdNE-Sr5JsBJ05z5qzlM1cWDXIbdLmdfApwe61jyT1PwcxKNTY9kQdKOS9qmlxgu22PnFemJ282VIAaP-ZkLEB_IU0c4par4DBSSXanylwhu2pqqp7KU6BM3Syc8UA92CWUpYNgdMRHSXiYPZaXGC0dKgWzulsgwJtIefx9BMHrBQX61GaeHKkFLmB0O2yBjSOzMoy7PM-6I_98rV6OuBuR0wJ6DnfK1hNT9tBli5idr6Qwl3e-9bloW9XeVw1QASmJtFqAAUmrO-410MigPltjoJ3l4OUn2TLx6Qo3D6HkYOl4yZCVuLwMQ0VPYW9cxP_y98nbw65-Bnq9Dv81s7_coJ3oLIFXtqzdahHyuEMTiWbHBfDiZxBgqvj7X0VcpmRauhvKFYMHgGl9fV8F08OLRIB5mJ8aiO6PhhaNsFqMkK5gAKkCgsZdbzZCZX7buBehgXBLWXJKkW5DPDG_R5ys9NPpFQmB3kRyHWNPS7f-V3JssOzavmGpoMVxQeWtyMUyrsPS-fbi9E0Ul6OcwydhEBEfmX8spdi9bnQRdPfA-kad6QEHjZHlgV6ZP2zauBtS79_k2aSkC8s1MvSR-DCSELOxBQ4oE_g1_JmkPqwgNYHQKZCSBDjJg2KQj9dFAmLoQThU7MEuX6bb3AnaWKuLd8QrVN0LfiZUebilrvzFqjNLyRdEwufzHSeSLrqbyU7bQ9i_Td-SteR9sidj1gWvnNsNtz1G00]--></g></svg>