<svg xmlns="http://www.w3.org/2000/svg" xmlns:xlink="http://www.w3.org/1999/xlink" contentStyleType="text/css" data-diagram-type="CLASS" height="95px" preserveAspectRatio="none" style="width:522px;height:95px;background:#FFFFFF;" version="1.1" viewBox="0 0 522 95" width="522px" zoomAndPan="magnify"><defs/><g><!--class ULyraGameplayAbility_FromEquipment\n(????)--><g class="entity" data-entity="ULyraGameplayAbility_FromEquipment\n(&#35013;&#22791;&#33021;&#21147;)" data-source-line="1" data-uid="ent0002" id="entity_ULyraGameplayAbility_FromEquipment\n(&#35013;&#22791;&#33021;&#21147;)"><rect fill="#F1F1F1" height="74.8906" rx="2.5" ry="2.5" style="stroke:#181818;stroke-width:0.5;" width="501.4664" x="7" y="7"/><ellipse cx="116.033" cy="28.2969" fill="#ADD1B2" rx="11" ry="11" style="stroke:#181818;stroke-width:1;"/><path d="M119.0018,33.9375 Q118.4236,34.2344 117.783,34.375 Q117.1424,34.5313 116.4393,34.5313 Q113.9393,34.5313 112.6111,32.8906 Q111.2986,31.2344 111.2986,28.1094 Q111.2986,24.9844 112.6111,23.3281 Q113.9393,21.6719 116.4393,21.6719 Q117.1424,21.6719 117.783,21.8281 Q118.4393,21.9844 119.0018,22.2813 L119.0018,25 Q118.3768,24.4219 117.783,24.1563 Q117.1893,23.875 116.5643,23.875 Q115.2205,23.875 114.533,24.9531 Q113.8455,26.0156 113.8455,28.1094 Q113.8455,30.2031 114.533,31.2813 Q115.2205,32.3438 116.5643,32.3438 Q117.1893,32.3438 117.783,32.0781 Q118.3768,31.7969 119.0018,31.2188 L119.0018,33.9375 Z " fill="#000000"/><text fill="#000000" font-family="sans-serif" font-size="14" lengthAdjust="spacing" textLength="274.9004" x="136.533" y="24.9951">ULyraGameplayAbility_FromEquipment</text><text fill="#000000" font-family="sans-serif" font-size="14" lengthAdjust="spacing" textLength="66.9236" x="240.5214" y="41.292">(&#35013;&#22791;&#33021;&#21147;)</text><line style="stroke:#181818;stroke-width:0.5;" x1="8" x2="507.4664" y1="49.5938" y2="49.5938"/><line style="stroke:#181818;stroke-width:0.5;" x1="8" x2="507.4664" y1="57.5938" y2="57.5938"/><ellipse cx="18" cy="71.2422" fill="#84BE84" rx="3" ry="3" style="stroke:#038048;stroke-width:1;"/><text fill="#000000" font-family="sans-serif" font-size="14" lengthAdjust="spacing" textLength="475.4664" x="27" y="74.5889">GetAssociatedEquipment(): ULyraEquipmentInstance // &#33719;&#21462;&#20851;&#32852;&#35013;&#22791;</text></g><!--SRC=[Iyv9B2vMK0hrgInAT4_CJIt8IQnqJChCoIofZ7ShoizrBIpDBCXDpIk9oTDuiRZrwPBs5yrxdtRDrbHIgEPI009j1VVK4iVYulpapCIIr1IuUWrDAmMmgN0HpxpYaiIyv5G5VNs55ttRd_PFUzgw-KNZ58YnNBK0]--></g></svg>