<svg xmlns="http://www.w3.org/2000/svg" xmlns:xlink="http://www.w3.org/1999/xlink" contentStyleType="text/css" data-diagram-type="CLASS" height="490px" preserveAspectRatio="none" style="width:561px;height:490px;background:#FFFFFF;" version="1.1" viewBox="0 0 561 490" width="561px" zoomAndPan="magnify"><defs/><g><!--class ULyraEquipmentManagerComponent\n(??????)--><g class="entity" data-entity="ULyraEquipmentManagerComponent\n(&#35013;&#22791;&#31649;&#29702;&#32452;&#20214;)" data-source-line="2" data-uid="ent0002" id="entity_ULyraEquipmentManagerComponent\n(&#35013;&#22791;&#31649;&#29702;&#32452;&#20214;)"><rect fill="#F1F1F1" height="107.4844" rx="2.5" ry="2.5" style="stroke:#181818;stroke-width:0.5;" width="367.8855" x="96.61" y="7"/><ellipse cx="146.6489" cy="28.2969" fill="#ADD1B2" rx="11" ry="11" style="stroke:#181818;stroke-width:1;"/><path d="M149.6177,33.9375 Q149.0396,34.2344 148.3989,34.375 Q147.7583,34.5313 147.0552,34.5313 Q144.5552,34.5313 143.2271,32.8906 Q141.9146,31.2344 141.9146,28.1094 Q141.9146,24.9844 143.2271,23.3281 Q144.5552,21.6719 147.0552,21.6719 Q147.7583,21.6719 148.3989,21.8281 Q149.0552,21.9844 149.6177,22.2813 L149.6177,25 Q148.9927,24.4219 148.3989,24.1563 Q147.8052,23.875 147.1802,23.875 Q145.8364,23.875 145.1489,24.9531 Q144.4614,26.0156 144.4614,28.1094 Q144.4614,30.2031 145.1489,31.2813 Q145.8364,32.3438 147.1802,32.3438 Q147.8052,32.3438 148.3989,32.0781 Q148.9927,31.7969 149.6177,31.2188 L149.6177,33.9375 Z " fill="#000000"/><text fill="#000000" font-family="sans-serif" font-size="14" lengthAdjust="spacing" textLength="259.3076" x="167.1489" y="24.9951">ULyraEquipmentManagerComponent</text><text fill="#000000" font-family="sans-serif" font-size="14" lengthAdjust="spacing" textLength="94.9235" x="249.341" y="41.292">(&#35013;&#22791;&#31649;&#29702;&#32452;&#20214;)</text><line style="stroke:#181818;stroke-width:0.5;" x1="97.61" x2="463.4955" y1="49.5938" y2="49.5938"/><rect fill="none" height="6" style="stroke:#C82930;stroke-width:1;" width="6" x="104.61" y="60.2422"/><text fill="#000000" font-family="sans-serif" font-size="14" lengthAdjust="spacing" textLength="322.9089" x="116.61" y="66.5889">EquipmentList: FLyraEquipmentList // &#35013;&#22791;&#21015;&#34920;</text><line style="stroke:#181818;stroke-width:0.5;" x1="97.61" x2="463.4955" y1="73.8906" y2="73.8906"/><ellipse cx="107.61" cy="87.5391" fill="#84BE84" rx="3" ry="3" style="stroke:#038048;stroke-width:1;"/><text fill="#000000" font-family="sans-serif" font-size="14" lengthAdjust="spacing" textLength="341.8855" x="116.61" y="90.8857">EquipItem(): ULyraEquipmentInstance // &#35013;&#22791;&#29289;&#21697;</text><ellipse cx="107.61" cy="103.8359" fill="#84BE84" rx="3" ry="3" style="stroke:#038048;stroke-width:1;"/><text fill="#000000" font-family="sans-serif" font-size="14" lengthAdjust="spacing" textLength="175.3962" x="116.61" y="107.1826">UnequipItem() // &#21368;&#19979;&#29289;&#21697;</text></g><!--class FLyraEquipmentList\n(????)--><g class="entity" data-entity="FLyraEquipmentList\n(&#35013;&#22791;&#21015;&#34920;)" data-source-line="9" data-uid="ent0003" id="entity_FLyraEquipmentList\n(&#35013;&#22791;&#21015;&#34920;)"><rect fill="#F1F1F1" height="107.4844" rx="2.5" ry="2.5" style="stroke:#181818;stroke-width:0.5;" width="432.574" x="64.26" y="191.48"/><ellipse cx="206.8268" cy="212.7769" fill="#ADD1B2" rx="11" ry="11" style="stroke:#181818;stroke-width:1;"/><path d="M209.7955,218.4175 Q209.2174,218.7144 208.5768,218.855 Q207.9361,219.0112 207.233,219.0112 Q204.733,219.0112 203.4049,217.3706 Q202.0924,215.7144 202.0924,212.5894 Q202.0924,209.4644 203.4049,207.8081 Q204.733,206.1519 207.233,206.1519 Q207.9361,206.1519 208.5768,206.3081 Q209.233,206.4644 209.7955,206.7612 L209.7955,209.48 Q209.1705,208.9019 208.5768,208.6362 Q207.983,208.355 207.358,208.355 Q206.0143,208.355 205.3268,209.4331 Q204.6393,210.4956 204.6393,212.5894 Q204.6393,214.6831 205.3268,215.7612 Q206.0143,216.8237 207.358,216.8237 Q207.983,216.8237 208.5768,216.5581 Q209.1705,216.2769 209.7955,215.6987 L209.7955,218.4175 Z " fill="#000000"/><text fill="#000000" font-family="sans-serif" font-size="14" lengthAdjust="spacing" textLength="138.9404" x="227.3268" y="209.4751">FLyraEquipmentList</text><text fill="#000000" font-family="sans-serif" font-size="14" lengthAdjust="spacing" textLength="66.9236" x="263.3352" y="225.772">(&#35013;&#22791;&#21015;&#34920;)</text><line style="stroke:#181818;stroke-width:0.5;" x1="65.26" x2="495.834" y1="234.0737" y2="234.0737"/><rect fill="none" height="6" style="stroke:#C82930;stroke-width:1;" width="6" x="72.26" y="244.7222"/><text fill="#000000" font-family="sans-serif" font-size="14" lengthAdjust="spacing" textLength="406.574" x="84.26" y="251.0689">Entries: TArray&lt;FLyraAppliedEquipmentEntry&gt; // &#26465;&#30446;&#25968;&#32452;</text><line style="stroke:#181818;stroke-width:0.5;" x1="65.26" x2="495.834" y1="258.3706" y2="258.3706"/><ellipse cx="75.26" cy="272.0191" fill="#84BE84" rx="3" ry="3" style="stroke:#038048;stroke-width:1;"/><text fill="#000000" font-family="sans-serif" font-size="14" lengthAdjust="spacing" textLength="335.2341" x="84.26" y="275.3657">AddEntry(): ULyraEquipmentInstance // &#28155;&#21152;&#26465;&#30446;</text><ellipse cx="75.26" cy="288.3159" fill="#84BE84" rx="3" ry="3" style="stroke:#038048;stroke-width:1;"/><text fill="#000000" font-family="sans-serif" font-size="14" lengthAdjust="spacing" textLength="179.949" x="84.26" y="291.6626">RemoveEntry() // &#31227;&#38500;&#26465;&#30446;</text></g><!--class FLyraAppliedEquipmentEntry\n(???????)--><g class="entity" data-entity="FLyraAppliedEquipmentEntry\n(&#24050;&#24212;&#29992;&#35013;&#22791;&#26465;&#30446;)" data-source-line="17" data-uid="ent0004" id="entity_FLyraAppliedEquipmentEntry\n(&#24050;&#24212;&#29992;&#35013;&#22791;&#26465;&#30446;)"><rect fill="#F1F1F1" height="107.4844" rx="2.5" ry="2.5" style="stroke:#181818;stroke-width:0.5;" width="547.1033" x="7" y="375.97"/><ellipse cx="174.1283" cy="397.2669" fill="#F1F1F1" rx="11" ry="11" style="stroke:#181818;stroke-width:1;"/><path d="M173.6127,397.8294 Q171.7533,397.1262 171.097,396.3606 Q170.4564,395.5794 170.4564,394.2669 Q170.4564,392.5794 171.5345,391.6106 Q172.6127,390.6419 174.4877,390.6419 Q175.347,390.6419 176.1908,390.845 Q177.0502,391.0325 177.8939,391.4231 L177.8939,393.8137 Q177.1127,393.2512 176.2845,392.97 Q175.472,392.6731 174.6752,392.6731 Q173.8002,392.6731 173.3158,393.0325 Q172.847,393.3919 172.847,394.0481 Q172.847,394.5637 173.1908,394.9075 Q173.5345,395.2356 174.6283,395.6419 L175.6908,396.0481 Q177.1752,396.595 177.8783,397.5012 Q178.597,398.4075 178.597,399.7825 Q178.597,401.6575 177.4877,402.5794 Q176.3783,403.5012 174.1283,403.5012 Q173.2064,403.5012 172.2845,403.2825 Q171.3627,403.0637 170.5033,402.6419 L170.5033,400.1106 Q171.472,400.7981 172.3939,401.1419 Q173.3158,401.4856 174.2064,401.4856 Q175.1127,401.4856 175.6127,401.0794 Q176.1127,400.6575 176.1127,399.9231 Q176.1127,399.3606 175.7689,398.9544 Q175.4408,398.5325 174.8158,398.2825 L173.6127,397.8294 Z " fill="#000000"/><text fill="#000000" font-family="sans-serif" font-size="14" lengthAdjust="spacing" textLength="204.3467" x="194.6283" y="393.9651">FLyraAppliedEquipmentEntry</text><text fill="#000000" font-family="sans-serif" font-size="14" lengthAdjust="spacing" textLength="108.9234" x="242.3399" y="410.262">(&#24050;&#24212;&#29992;&#35013;&#22791;&#26465;&#30446;)</text><line style="stroke:#181818;stroke-width:0.5;" x1="8" x2="553.1033" y1="418.5637" y2="418.5637"/><rect fill="none" height="6" style="stroke:#C82930;stroke-width:1;" width="6" x="15" y="429.2122"/><text fill="#000000" font-family="sans-serif" font-size="14" lengthAdjust="spacing" textLength="521.1033" x="27" y="435.5589">EquipmentDefinition: TSubclassOf&lt;ULyraEquipmentDefinition&gt; // &#35013;&#22791;&#23450;&#20041;</text><rect fill="none" height="6" style="stroke:#C82930;stroke-width:1;" width="6" x="15" y="445.5091"/><text fill="#000000" font-family="sans-serif" font-size="14" lengthAdjust="spacing" textLength="416.5544" x="27" y="451.8557">Instance: TObjectPtr&lt;ULyraEquipmentInstance&gt; // &#35013;&#22791;&#23454;&#20363;</text><rect fill="none" height="6" style="stroke:#C82930;stroke-width:1;" width="6" x="15" y="461.8059"/><text fill="#000000" font-family="sans-serif" font-size="14" lengthAdjust="spacing" textLength="451.2877" x="27" y="468.1526">GrantedHandles: FLyraAbilitySet_GrantedHandles // &#33021;&#21147;&#25480;&#20104;&#21477;&#26564;</text><line style="stroke:#181818;stroke-width:0.5;" x1="8" x2="553.1033" y1="475.4544" y2="475.4544"/></g><!--reverse link ULyraEquipmentManagerComponent\n(??????) to FLyraEquipmentList\n(????)--><g class="link" data-entity-1="ULyraEquipmentManagerComponent\n(&#35013;&#22791;&#31649;&#29702;&#32452;&#20214;)" data-entity-2="FLyraEquipmentList\n(&#35013;&#22791;&#21015;&#34920;)" data-source-line="25" data-uid="lnk5" id="link_ULyraEquipmentManagerComponent\n(&#35013;&#22791;&#31649;&#29702;&#32452;&#20214;)_FLyraEquipmentList\n(&#35013;&#22791;&#21015;&#34920;)"><path codeLine="25" d="M280.55,126.52 C280.55,150.63 280.55,167.12 280.55,191.24 " fill="none" id="ULyraEquipmentManagerComponent\n(&#35013;&#22791;&#31649;&#29702;&#32452;&#20214;)-backto-FLyraEquipmentList\n(&#35013;&#22791;&#21015;&#34920;)" style="stroke:#181818;stroke-width:1;"/><polygon fill="#181818" points="280.55,114.52,276.55,120.52,280.55,126.52,284.55,120.52,280.55,114.52" style="stroke:#181818;stroke-width:1;"/><text fill="#000000" font-family="sans-serif" font-size="13" lengthAdjust="spacing" textLength="8.271" x="281.55" y="157.5469">1</text></g><!--reverse link FLyraEquipmentList\n(????) to FLyraAppliedEquipmentEntry\n(???????)--><g class="link" data-entity-1="FLyraEquipmentList\n(&#35013;&#22791;&#21015;&#34920;)" data-entity-2="FLyraAppliedEquipmentEntry\n(&#24050;&#24212;&#29992;&#35013;&#22791;&#26465;&#30446;)" data-source-line="26" data-uid="lnk6" id="link_FLyraEquipmentList\n(&#35013;&#22791;&#21015;&#34920;)_FLyraAppliedEquipmentEntry\n(&#24050;&#24212;&#29992;&#35013;&#22791;&#26465;&#30446;)"><path codeLine="26" d="M280.55,311.01 C280.55,335.11 280.55,351.6 280.55,375.73 " fill="none" id="FLyraEquipmentList\n(&#35013;&#22791;&#21015;&#34920;)-backto-FLyraAppliedEquipmentEntry\n(&#24050;&#24212;&#29992;&#35013;&#22791;&#26465;&#30446;)" style="stroke:#181818;stroke-width:1;"/><polygon fill="#181818" points="280.55,299.01,276.55,305.01,280.55,311.01,284.55,305.01,280.55,299.01" style="stroke:#181818;stroke-width:1;"/><text fill="#000000" font-family="sans-serif" font-size="13" lengthAdjust="spacing" textLength="24.7749" x="281.55" y="342.0369">1..n</text></g><!--SRC=[dP9RIm917CNVzrCClcY5IQyYWfHTe2Wgtu8OtJ4cTDPsns297gAR9PLG4HLT9ADwaKWeQwbFixDRtwBPTTLTah3sRMVE-Vtdd1a_-BpPP9LjiresIrkcjg5hpq8g0nK5-1BZgWpZItcSoo929o212qWUbB8vYV3_EHBuQUtnWHK1yAyFsCOnYhA1dZ3meiQ8GY598H0ADSVlFB33DSUP8AZjjJHihwxNYovD4BHOurYXOJ3iuLjhRJOhd7oMxuLLGV1xLvoOFxsjQ0sXArHC5EE4okhlcOmNZUrU6nTbyxpg6ATHLbf6ZjVIc7VQrsd5fU6P-2v6IXZCncGPgX7xOB5SBeEHs9fZ8wBs5Djh73_owgrqF1vxUM9lH-RHVUFu3bsXSZv5dQ0TUJnmHsihkQlm8PJ615Ci4NxGcNpIRd4o7V7MqLP5NJTHFTDVTnnWip1EcKmkeXITedAaSwSUnAN-KNGG8p8a58cZa8WPgxT6m2JEOAhE83hltRSXw-zizzpOB-Xl1NPmQrmrc-CTibA1RTRCcYRyy-Nt1eFTlQOm612w4hQ9VxqsFgA_dtm3]--></g></svg>