<svg xmlns="http://www.w3.org/2000/svg" xmlns:xlink="http://www.w3.org/1999/xlink" contentStyleType="text/css" data-diagram-type="CLASS" height="305px" preserveAspectRatio="none" style="width:599px;height:305px;background:#FFFFFF;" version="1.1" viewBox="0 0 599 305" width="599px" zoomAndPan="magnify"><defs/><g><!--class ULyraEquipmentDefinition\n(????)--><g class="entity" data-entity="ULyraEquipmentDefinition\n(&#35013;&#22791;&#23450;&#20041;)" data-source-line="1" data-uid="ent0002" id="entity_ULyraEquipmentDefinition\n(&#35013;&#22791;&#23450;&#20041;)"><rect fill="#F1F1F1" height="107.4844" rx="2.5" ry="2.5" style="stroke:#181818;stroke-width:0.5;" width="585.5485" x="7" y="7"/><ellipse cx="203.2972" cy="28.2969" fill="#ADD1B2" rx="11" ry="11" style="stroke:#181818;stroke-width:1;"/><path d="M206.2659,33.9375 Q205.6878,34.2344 205.0472,34.375 Q204.4066,34.5313 203.7034,34.5313 Q201.2034,34.5313 199.8753,32.8906 Q198.5628,31.2344 198.5628,28.1094 Q198.5628,24.9844 199.8753,23.3281 Q201.2034,21.6719 203.7034,21.6719 Q204.4066,21.6719 205.0472,21.8281 Q205.7034,21.9844 206.2659,22.2813 L206.2659,25 Q205.6409,24.4219 205.0472,24.1563 Q204.4534,23.875 203.8284,23.875 Q202.4847,23.875 201.7972,24.9531 Q201.1097,26.0156 201.1097,28.1094 Q201.1097,30.2031 201.7972,31.2813 Q202.4847,32.3438 203.8284,32.3438 Q204.4534,32.3438 205.0472,32.0781 Q205.6409,31.7969 206.2659,31.2188 L206.2659,33.9375 Z " fill="#000000"/><text fill="#000000" font-family="sans-serif" font-size="14" lengthAdjust="spacing" textLength="184.4541" x="223.7972" y="24.9951">ULyraEquipmentDefinition</text><text fill="#000000" font-family="sans-serif" font-size="14" lengthAdjust="spacing" textLength="66.9236" x="282.5624" y="41.292">(&#35013;&#22791;&#23450;&#20041;)</text><line style="stroke:#181818;stroke-width:0.5;" x1="8" x2="591.5485" y1="49.5938" y2="49.5938"/><rect fill="none" height="6" style="stroke:#C82930;stroke-width:1;" width="6" x="15" y="60.2422"/><text fill="#000000" font-family="sans-serif" font-size="14" lengthAdjust="spacing" textLength="462.9568" x="27" y="66.5889">InstanceType: TSubclassOf&lt;ULyraEquipmentInstance&gt; // &#23454;&#20363;&#31867;&#22411;</text><rect fill="none" height="6" style="stroke:#C82930;stroke-width:1;" width="6" x="15" y="76.5391"/><text fill="#000000" font-family="sans-serif" font-size="14" lengthAdjust="spacing" textLength="559.5485" x="27" y="82.8857">AbilitySetsToGrant: TArray&lt;TObjectPtr&lt;const ULyraAbilitySet&gt;&gt; // &#25480;&#20104;&#30340;&#33021;&#21147;&#38598;</text><rect fill="none" height="6" style="stroke:#C82930;stroke-width:1;" width="6" x="15" y="92.8359"/><text fill="#000000" font-family="sans-serif" font-size="14" lengthAdjust="spacing" textLength="500.0692" x="27" y="99.1826">ActorsToSpawn: TArray&lt;FLyraEquipmentActorToSpawn&gt; // &#29983;&#25104;&#30340;Actor</text><line style="stroke:#181818;stroke-width:0.5;" x1="8" x2="591.5485" y1="106.4844" y2="106.4844"/></g><!--class FLyraEquipmentActorToSpawn\n(??Actor????)--><g class="entity" data-entity="FLyraEquipmentActorToSpawn\n(&#35013;&#22791;Actor&#29983;&#25104;&#37197;&#32622;)" data-source-line="7" data-uid="ent0003" id="entity_FLyraEquipmentActorToSpawn\n(&#35013;&#22791;Actor&#29983;&#25104;&#37197;&#32622;)"><rect fill="#F1F1F1" height="107.4844" rx="2.5" ry="2.5" style="stroke:#181818;stroke-width:0.5;" width="403.4871" x="98.03" y="191.49"/><ellipse cx="187.8507" cy="212.7869" fill="#F1F1F1" rx="11" ry="11" style="stroke:#181818;stroke-width:1;"/><path d="M187.3351,213.3494 Q185.4757,212.6463 184.8194,211.8806 Q184.1788,211.0994 184.1788,209.7869 Q184.1788,208.0994 185.2569,207.1306 Q186.3351,206.1619 188.2101,206.1619 Q189.0694,206.1619 189.9132,206.365 Q190.7726,206.5525 191.6163,206.9431 L191.6163,209.3338 Q190.8351,208.7713 190.0069,208.49 Q189.1944,208.1931 188.3976,208.1931 Q187.5226,208.1931 187.0382,208.5525 Q186.5694,208.9119 186.5694,209.5681 Q186.5694,210.0838 186.9132,210.4275 Q187.2569,210.7556 188.3507,211.1619 L189.4132,211.5681 Q190.8976,212.115 191.6007,213.0213 Q192.3194,213.9275 192.3194,215.3025 Q192.3194,217.1775 191.2101,218.0994 Q190.1007,219.0213 187.8507,219.0213 Q186.9288,219.0213 186.0069,218.8025 Q185.0851,218.5838 184.2257,218.1619 L184.2257,215.6306 Q185.1944,216.3181 186.1163,216.6619 Q187.0382,217.0056 187.9288,217.0056 Q188.8351,217.0056 189.3351,216.5994 Q189.8351,216.1775 189.8351,215.4431 Q189.8351,214.8806 189.4913,214.4744 Q189.1632,214.0525 188.5382,213.8025 L187.3351,213.3494 Z " fill="#000000"/><text fill="#000000" font-family="sans-serif" font-size="14" lengthAdjust="spacing" textLength="215.3457" x="208.3507" y="209.4851">FLyraEquipmentActorToSpawn</text><text fill="#000000" font-family="sans-serif" font-size="14" lengthAdjust="spacing" textLength="132.0084" x="250.0193" y="225.782">(&#35013;&#22791;Actor&#29983;&#25104;&#37197;&#32622;)</text><line style="stroke:#181818;stroke-width:0.5;" x1="99.03" x2="500.5171" y1="234.0838" y2="234.0838"/><rect fill="none" height="6" style="stroke:#C82930;stroke-width:1;" width="6" x="106.03" y="244.7322"/><text fill="#000000" font-family="sans-serif" font-size="14" lengthAdjust="spacing" textLength="377.4871" x="118.03" y="251.0789">ActorToSpawn: TSubclassOf&lt;AActor&gt; // &#29983;&#25104;&#30340;Actor&#31867;</text><rect fill="none" height="6" style="stroke:#C82930;stroke-width:1;" width="6" x="106.03" y="261.0291"/><text fill="#000000" font-family="sans-serif" font-size="14" lengthAdjust="spacing" textLength="225.9207" x="118.03" y="267.3757">AttachSocket: FName // &#38468;&#21152;&#25554;&#27133;</text><rect fill="none" height="6" style="stroke:#C82930;stroke-width:1;" width="6" x="106.03" y="277.3259"/><text fill="#000000" font-family="sans-serif" font-size="14" lengthAdjust="spacing" textLength="281.1414" x="118.03" y="283.6726">AttachTransform: FTransform // &#38468;&#21152;&#21464;&#25442;</text><line style="stroke:#181818;stroke-width:0.5;" x1="99.03" x2="500.5171" y1="290.9744" y2="290.9744"/></g><!--reverse link ULyraEquipmentDefinition\n(????) to FLyraEquipmentActorToSpawn\n(??Actor????)--><g class="link" data-entity-1="ULyraEquipmentDefinition\n(&#35013;&#22791;&#23450;&#20041;)" data-entity-2="FLyraEquipmentActorToSpawn\n(&#35013;&#22791;Actor&#29983;&#25104;&#37197;&#32622;)" data-source-line="13" data-uid="lnk4" id="link_ULyraEquipmentDefinition\n(&#35013;&#22791;&#23450;&#20041;)_FLyraEquipmentActorToSpawn\n(&#35013;&#22791;Actor&#29983;&#25104;&#37197;&#32622;)"><path codeLine="13" d="M299.77,126.53 C299.77,150.63 299.77,167.12 299.77,191.25 " fill="none" id="ULyraEquipmentDefinition\n(&#35013;&#22791;&#23450;&#20041;)-backto-FLyraEquipmentActorToSpawn\n(&#35013;&#22791;Actor&#29983;&#25104;&#37197;&#32622;)" style="stroke:#181818;stroke-width:1;"/><polygon fill="#181818" points="299.77,114.53,295.77,120.53,299.77,126.53,303.77,120.53,299.77,114.53" style="stroke:#181818;stroke-width:1;"/><text fill="#000000" font-family="sans-serif" font-size="13" lengthAdjust="spacing" textLength="24.7749" x="300.77" y="157.5569">1..n</text></g><!--SRC=[Iyv9B2vMK0hrgInAT2qipIp8JSqhSKbDoypBBCdCpul9qtYnkFNfalQdwsOzsTcfgQHGpQK01BeAddd59ObvoQaXbGMfLWeXmQL9oI2Z_DDiKCs2gRDJqDTNUBfktfDztSytxduwhnjgZcDIPavcIMLmQabnIBvxKM9U2T0qnwAYn4gR4F-ahDJaae2I8flaVA0n2c2J4Hhim6O-w-juiglZ-QoM5yrxdtRDVZcx3MPoSab-4T3Gu8B4yZoueMuehWEhWIe1c_Pyolnd7HE0fe5bk6gvk8fBYagJInIKS6k41n9O46B2ozRUvtlN8OKNiWRKy784Is6n7HXECCqb9Od96S7voTcfmE1nyqlCJGKfVpcpvMdNWcVzavujtukYCWGOZiLf-KMvGCLmDaB7q_uPpteNWJn7GiHhwUgI7GXM2ePwUda0]--></g></svg>